<svg xmlns="http://www.w3.org/2000/svg" width="81.317" height="88.691" viewBox="0 0 81.317 88.691"><g transform="translate(-4.665 -2.004)"><g transform="translate(39.747 81.127)"><path d="M30.013,59.092h-.036v0Z" transform="translate(-29.977 -59.092)" fill="#e9edf4"/></g><g transform="translate(39.783 81.051)"><path d="M31.694,59.037A12.609,12.609,0,0,1,30,59.113,14.7,14.7,0,0,0,31.694,59.037Z" transform="translate(-30.003 -59.037)" fill="#e9edf4"/></g><g transform="translate(4.665 2.004)"><g transform="translate(45.242 46.046)"><path d="M37.51,35.227c-.065.024-.137.038-.2.061C37.373,35.265,37.446,35.251,37.51,35.227Z" transform="translate(-37.307 -35.227)" fill="#fff"/></g><g transform="translate(43.784 46.527)"><path d="M36.31,35.574c-.018,0-.037.005-.054.009C36.273,35.579,36.292,35.578,36.31,35.574Z" transform="translate(-36.255 -35.574)" fill="#fff"/></g><g transform="translate(43.839 46.108)"><path d="M37.7,35.271a12.471,12.471,0,0,1-1.4.419A12.452,12.452,0,0,0,37.7,35.271Z" transform="translate(-36.295 -35.271)" fill="#fff"/></g><g transform="translate(40.372 46.536)"><path d="M33.794,35.941a15.239,15.239,0,0,0,3.412-.361A15.147,15.147,0,0,1,33.794,35.941Z" transform="translate(-33.794 -35.581)" fill="#fff"/></g><g transform="translate(45.445 45.373)"><path d="M38.894,34.742a9.994,9.994,0,0,1-1.441.673A9.94,9.94,0,0,0,38.894,34.742Z" transform="translate(-37.454 -34.742)" fill="#fff"/></g><g transform="translate(0.555 0.545)"><path d="M7.737,21.867c-3.546,2.046-3.565,5.366-.042,7.411L38.6,47.224a14.111,14.111,0,0,0,12.8,0L82.491,29.284c3.546-2.046,3.573-5.361.05-7.407L51.635,3.932a14.128,14.128,0,0,0-12.806,0Z" transform="translate(-5.065 -2.397)" fill="#fff"/></g><g transform="translate(0.553 15.757)"><path d="M7.695,25.043,38.6,42.989a14.155,14.155,0,0,0,12.8,0L82.491,25.043c3.543-2.046,3.57-5.351.055-7.4l-7.376-4.272c-1.412,12.319-14.987,21.97-31.524,21.97-15.817,0-28.95-8.835-31.316-20.366L7.736,17.632C4.194,19.678,4.166,23,7.695,25.043Z" transform="translate(-5.064 -13.373)" fill="#e9edf4"/></g><g transform="translate(0.555 23.748)"><path d="M7.694,22.817,38.6,40.764a12.952,12.952,0,0,0,6.287,1.524V83.524a15.3,15.3,0,0,0,3.451-.346,14.127,14.127,0,0,1-9.628-1.17L7.805,64.062c-1.757-1.023-2.629-2.351-2.629-3.678L5.065,19.139c0,1.327.886,2.655,2.629,3.678Z" transform="translate(-5.065 -19.139)" fill="#ffd63c"/></g><g transform="translate(0.555 23.754)"><path d="M5.065,19.143l.111,41.245c0,1.327.872,2.655,2.629,3.678l30.9,17.947a12.831,12.831,0,0,0,6.172,1.505v-10.7c-.83.069-1.674.1-2.533.1-18.336,0-33.212-14.628-33.212-32.658a32.064,32.064,0,0,1,3.487-14.573L7.694,22.821C5.951,21.8,5.065,20.471,5.065,19.143Z" transform="translate(-5.065 -19.143)" fill="#f4c531"/></g><g transform="translate(40.372 23.721)"><path d="M33.794,42.3a15.147,15.147,0,0,0,3.412-.361c.018,0,.037-.005.054-.009a12.471,12.471,0,0,0,1.4-.419c.066-.023.138-.037.2-.061a9.994,9.994,0,0,0,1.441-.673L71.4,22.825c1.771-1.009,2.671-2.364,2.671-3.706l.111,41.217c.014,1.355-.886,2.71-2.671,3.733L40.418,82a9.9,9.9,0,0,1-1.458.683c-.072.027-.151.042-.223.068a12.462,12.462,0,0,1-1.413.419c-.026.006-.053.008-.078.014a15.3,15.3,0,0,1-3.451.346V42.3Z" transform="translate(-33.794 -19.119)" fill="#fff"/></g><g transform="translate(40.368 23.721)"><path d="M33.791,71.411V83.537a15.885,15.885,0,0,0,3.46-.346.15.15,0,0,1,.069-.014,11.373,11.373,0,0,0,1.425-.429c.069-.028.139-.042.222-.069A9.978,9.978,0,0,0,40.419,82L71.514,64.069c1.785-1.023,2.685-2.378,2.671-3.733l-.111-41.217c0,1.341-.9,2.7-2.671,3.706l-6.366,3.664A24.136,24.136,0,0,1,71.4,42.624c0,14.7-13.908,29.381-31.095,29.381a36.052,36.052,0,0,1-6.518-.595Z" transform="translate(-33.791 -19.119)" fill="#e9edf4"/></g><g transform="translate(13.579 8.045)"><path d="M14.462,13.809l43.66,25.358,10.393-6L24.869,7.809Z" transform="translate(-14.462 -7.809)" fill="#ffd63c"/></g><g transform="translate(19.949 8.045)"><path d="M19.058,10.127l43.66,25.358,4.023-2.318L23.095,7.809Z" transform="translate(-19.058 -7.809)" fill="#f4c531"/></g><g transform="translate(44.73 45.522)"><path d="M37.535,35.961a.585.585,0,0,1-.565-.374.671.671,0,0,1-.032-.2.484.484,0,0,1,.323-.474l.141-.043a.6.6,0,0,1,.725.348.665.665,0,0,1,.035.208.477.477,0,0,1-.313.466c-.016.006-.139.044-.156.049A.59.59,0,0,1,37.535,35.961Z" transform="translate(-36.938 -34.849)"/></g><g transform="translate(43.243 45.981)"><path d="M36.431,36.285a.564.564,0,0,1-.556-.449.6.6,0,0,1-.01-.109.538.538,0,0,1,.417-.532.579.579,0,0,1,.692.411.611.611,0,0,1,.016.139.521.521,0,0,1-.4.521l-.07.013A.574.574,0,0,1,36.431,36.285Z" transform="translate(-35.865 -35.18)"/></g><g transform="translate(43.284 45.553)"><path d="M36.448,36.4a.554.554,0,0,1-.124-1.094h0c.263-.061.521-.132.774-.21.19-.06.378-.123.564-.189a.554.554,0,0,1,.373,1.044q-.313.112-.632.212c-.273.084-.55.161-.835.226A.551.551,0,0,1,36.448,36.4Z" transform="translate(-35.895 -34.871)"/></g><g transform="translate(39.818 45.982)"><path d="M34.042,36.651a.6.6,0,0,1-.648-.558c0-.307.251-.619.558-.551h.016a.269.269,0,0,1,.074,0,14.633,14.633,0,0,0,3.194-.346h0a.554.554,0,0,1,.243,1.081,15.668,15.668,0,0,1-3.44.375Z" transform="translate(-33.394 -35.181)"/></g><g transform="translate(44.891 44.818)"><path d="M37.608,36.123a.554.554,0,0,1-.518-.359.553.553,0,0,1,.323-.714,9.538,9.538,0,0,0,1.36-.635.554.554,0,1,1,.552.961,10.45,10.45,0,0,1-1.521.711.552.552,0,0,1-.2.036Z" transform="translate(-37.054 -34.341)"/></g><path d="M45.138,49.451a13.556,13.556,0,0,1-6.661-1.6L7.571,29.91c-1.877-1.089-2.909-2.571-2.907-4.173s1.05-3.1,2.95-4.2L38.707,3.6a14.752,14.752,0,0,1,13.361,0L82.973,21.55c1.874,1.088,2.905,2.568,2.9,4.166s-1.052,3.1-2.954,4.2L51.83,47.852a13.69,13.69,0,0,1-6.692,1.6ZM8.168,22.5c-1.542.89-2.393,2.04-2.394,3.239s.834,2.331,2.354,3.213L39.034,46.9a13.526,13.526,0,0,0,12.242-.006L82.368,28.955c1.545-.891,2.4-2.042,2.4-3.24s-.833-2.325-2.35-3.206L51.511,4.563a13.532,13.532,0,0,0-12.251,0Z" transform="translate(-4.665 -2.004)"/><g transform="translate(0.001 23.194)"><path d="M45.234,84.236a13.584,13.584,0,0,1-6.651-1.593L7.681,64.695c-1.874-1.09-2.905-2.567-2.905-4.157L4.665,19.311V19.3h0a.554.554,0,0,1,.554-.554h0a.554.554,0,0,1,.554.553h0c0,1.172.836,2.308,2.355,3.2l30.9,17.946a12.351,12.351,0,0,0,6.012,1.449.554.554,0,0,1,.551.554V83.121a14.541,14.541,0,0,0,2.774-.33h0a.554.554,0,0,1,.24,1.083h0a15.666,15.666,0,0,1-3.372.361ZM5.781,22.018l.1,38.519c0,1.18.836,2.316,2.354,3.2l30.9,17.947a12.027,12.027,0,0,0,5.344,1.429V42.984A13.184,13.184,0,0,1,38.472,41.4L7.57,23.45h0a7.293,7.293,0,0,1-1.787-1.432Z" transform="translate(-4.665 -18.739)"/></g><g transform="translate(39.818 23.167)"><path d="M34.141,84.242h-.2a.554.554,0,0,1-.547-.554V42.45a.556.556,0,0,1,.163-.393.968.968,0,0,1,.395-.161,14.811,14.811,0,0,0,3.287-.347,11.61,11.61,0,0,0,1.393-.409c.014-.005.125-.039.139-.043a9.255,9.255,0,0,0,1.415-.651L71.279,22.5c1.522-.867,2.394-2.042,2.394-3.225a.554.554,0,0,1,.554-.554h0a.554.554,0,0,1,.554.553l.111,41.217c.016,1.617-1.031,3.116-2.949,4.215L40.849,82.637a10.458,10.458,0,0,1-1.539.721c-.016.006-.15.048-.166.053a14.2,14.2,0,0,1-1.545.457,16.167,16.167,0,0,1-3.458.375ZM34.5,43V83.129a14.577,14.577,0,0,0,2.778-.33,11.459,11.459,0,0,0,1.426-.413c.012,0,.129-.04.142-.043a9.184,9.184,0,0,0,1.446-.665l31.1-17.934c1.555-.892,2.405-2.044,2.393-3.247l-.1-38.512a7.085,7.085,0,0,1-1.849,1.477L40.739,41.406a10.534,10.534,0,0,1-1.523.711c-.016.007-.138.044-.156.049a14.116,14.116,0,0,1-1.522.453A15.9,15.9,0,0,1,34.5,43Z" transform="translate(-33.394 -18.719)"/></g><g transform="translate(13.025 7.49)"><path d="M58.277,39.876A.552.552,0,0,1,58,39.8L14.339,14.443a.554.554,0,0,1,0-.96l10.406-6a.551.551,0,0,1,.556,0L68.948,32.842a.554.554,0,0,1,0,.959l-10.393,6a.551.551,0,0,1-.277.074ZM15.724,13.966,58.278,38.681l9.286-5.361L25.022,8.6Z" transform="translate(-14.063 -7.408)"/></g><g transform="translate(57.237 33.399)"><path d="M45.962,32.1l.093,8.6a1.685,1.685,0,0,0,2.526,1.448l6.176-3.558a3.384,3.384,0,0,0,1.7-2.954l-.1-9.534Z" transform="translate(-45.962 -26.102)" fill="#fff"/></g><g transform="translate(63.609 33.399)"><path d="M50.559,28.424l4.02-2.321.1,9.534a3.384,3.384,0,0,1-1.7,2.954l-2.423,1.4V28.424Z" transform="translate(-50.559 -26.102)" fill="#e9edf4"/></g><g transform="translate(56.682 32.845)"><path d="M47.894,43.085a2.247,2.247,0,0,1-2.239-2.227l-.093-8.595a.553.553,0,0,1,.277-.486l10.393-6a.554.554,0,0,1,.832.474l.1,9.535a3.947,3.947,0,0,1-1.973,3.439l-6.176,3.558a2.241,2.241,0,0,1-1.118.3Zm-1.22-10.51.089,8.273a1.131,1.131,0,0,0,1.7.974l6.176-3.558a2.836,2.836,0,0,0,1.418-2.469l-.089-8.583Z" transform="translate(-45.562 -25.702)"/></g><g transform="translate(46.382 46.724)"><g transform="translate(0.555 0.557)"><path d="M62.438,36.569c1.822-1.051,3.312-.2,3.318,1.889l.035,12.3a7.254,7.254,0,0,1-3.3,5.7l-20.621,11.9c-1.822,1.051-3.3.208-3.308-1.895l-.035-12.3a7.251,7.251,0,0,1,3.286-5.7Z" transform="translate(-38.53 -36.118)" fill="#fff"/></g><g transform="translate(0.571 0.559)"><path d="M65.781,50.76a7.232,7.232,0,0,1-3.292,5.694l-20.625,11.9c-1.816,1.047-3.292.207-3.307-1.9l-.015-4.13a32.132,32.132,0,0,0,4.754-.074C55.476,61.2,64.777,53.7,64.069,45.509a11.532,11.532,0,0,0-4.016-7.567L62.43,36.57c1.831-1.047,3.322-.207,3.322,1.888Z" transform="translate(-38.542 -36.119)" fill="#e9edf4"/></g><path d="M40.547,69.518a2.242,2.242,0,0,1-1.135-.3,2.837,2.837,0,0,1-1.247-2.607l-.035-12.3a7.755,7.755,0,0,1,3.564-6.18l20.622-11.9a2.561,2.561,0,0,1,4.148,2.368l.035,12.3a7.763,7.763,0,0,1-3.574,6.185L42.3,68.99a3.559,3.559,0,0,1-1.758.529ZM64.069,36.826a2.467,2.467,0,0,0-1.2.379L42.247,49.1a6.747,6.747,0,0,0-3.009,5.216l.035,12.3a1.806,1.806,0,0,0,.691,1.649,1.819,1.819,0,0,0,1.786-.233l20.621-11.9a6.754,6.754,0,0,0,3.019-5.222l-.035-12.3a1.8,1.8,0,0,0-.694-1.64,1.177,1.177,0,0,0-.593-.148Zm-1.477-.1h.014Z" transform="translate(-38.13 -35.716)"/><g transform="translate(4.353 5.959)"><g transform="translate(0 10.068)"><path d="M43.132,47.325c.182-.105.327-.023.328.178l.022,10.106a.708.708,0,0,1-.326.555l-1.535.886c-.182.105-.327.023-.328-.178l-.022-10.106a.708.708,0,0,1,.326-.555Z" transform="translate(-41.271 -47.28)"/></g><g transform="translate(4.363 7.551)"><path d="M46.28,45.509c.182-.105.327-.023.328.178l.022,10.106a.708.708,0,0,1-.326.555l-1.535.886c-.182.105-.328.023-.328-.178L44.419,46.95a.709.709,0,0,1,.326-.555Z" transform="translate(-44.419 -45.464)"/></g><g transform="translate(8.727 5.034)"><path d="M49.428,43.693c.182-.105.327-.023.328.178l.022,10.106a.708.708,0,0,1-.326.555l-1.535.886c-.182.105-.328.023-.328-.178l-.022-10.106a.709.709,0,0,1,.326-.555Z" transform="translate(-47.567 -43.648)"/></g><g transform="translate(13.098 2.517)"><path d="M52.574,41.877c.182-.105.327-.023.328.178l.022,10.106a.708.708,0,0,1-.326.555l-1.536.886c-.175.1-.32.018-.32-.182l-.022-10.106a.706.706,0,0,1,.318-.551Z" transform="translate(-50.721 -41.832)"/></g><g transform="translate(17.461)"><path d="M55.723,40.061c.182-.105.327-.023.328.178l.022,10.106a.708.708,0,0,1-.326.555l-1.536.886c-.175.1-.32.018-.32-.182L53.869,41.5a.706.706,0,0,1,.318-.551Z" transform="translate(-53.869 -40.015)"/></g></g></g></g></g></svg>