<svg xmlns="http://www.w3.org/2000/svg" width="56.72" height="62.99" viewBox="0 0 56.72 62.99"><g transform="translate(-4.64 -1.51)"><path d="M43.36,41.18,10.33,60.38a1.028,1.028,0,0,1-1.04-.1,3.186,3.186,0,0,1-1.46-2.53l.07-31L40.93,7.55l-.08,31a3.228,3.228,0,0,0,1.46,2.53,1.047,1.047,0,0,0,1.05.1Z" fill="#fff"/><path d="M9.94,60.72a1.56,1.56,0,0,1-.78-.24,3.443,3.443,0,0,1-1.58-2.74l.08-30.99a.244.244,0,0,1,.12-.21L40.81,7.34a.255.255,0,0,1,.24,0,.225.225,0,0,1,.12.21l-.08,31a3.015,3.015,0,0,0,1.34,2.32.81.81,0,0,0,.79.1.242.242,0,0,1,.24.42L10.45,60.59a.993.993,0,0,1-.51.13ZM8.15,26.89,8.07,57.74a3,3,0,0,0,1.34,2.32.8.8,0,0,0,.8.1L42.46,41.42a1.577,1.577,0,0,1-.26-.13,3.469,3.469,0,0,1-1.59-2.74l.08-30.57Z" fill="#111925"/><path d="M4.97,25.05,38,5.86l2.94,1.69L7.91,26.75Z" fill="#f8d555"/><path d="M7.91,26.99a.266.266,0,0,1-.12-.03L4.85,25.27a.225.225,0,0,1-.12-.21.244.244,0,0,1,.12-.21L37.88,5.65a.255.255,0,0,1,.24,0l2.94,1.69a.225.225,0,0,1,.12.21.244.244,0,0,1-.12.21L8.03,26.96a.266.266,0,0,1-.12.03ZM5.46,25.05l2.45,1.41L40.45,7.55,38,6.14Z" fill="#111925"/><path d="M12.29,57.59,9.34,55.87,9.2,19.97l2.96,1.72Z" fill="#e4e8f2"/><path d="M12.29,57.84a.266.266,0,0,1-.12-.03L9.21,56.09a.244.244,0,0,1-.12-.21L8.96,19.97a.244.244,0,0,1,.12-.21.255.255,0,0,1,.24,0l2.96,1.72a.244.244,0,0,1,.12.21l.13,35.91a.244.244,0,0,1-.12.21.213.213,0,0,1-.12.03ZM9.58,55.73l2.47,1.43-.13-35.34L9.45,20.39Z" fill="#111925"/><path d="M12.16,21.69,9.2,19.97,40.7,1.75l2.96,1.72Z" fill="#e4e8f2"/><path d="M12.16,21.93a.266.266,0,0,1-.12-.03L9.08,20.18a.244.244,0,0,1,0-.42L40.58,1.54a.255.255,0,0,1,.24,0l2.96,1.72a.225.225,0,0,1,.12.21.244.244,0,0,1-.12.21L12.28,21.9a.266.266,0,0,1-.12.03ZM9.69,19.97l2.47,1.44L43.17,3.47,40.7,2.03Z" fill="#111925"/><path d="M43.66,3.47l.13,35.9L12.29,57.59l-.13-35.9Z" fill="#fff"/><path d="M12.29,57.84a.266.266,0,0,1-.12-.03.225.225,0,0,1-.12-.21l-.13-35.91a.244.244,0,0,1,.12-.21L43.54,3.26a.255.255,0,0,1,.24,0,.225.225,0,0,1,.12.21l.13,35.91a.244.244,0,0,1-.12.21L12.42,57.8a.2.2,0,0,1-.13.04Zm.11-36.01.13,35.34L43.54,39.23,43.42,3.89Z" fill="#111925"/><path d="M10.82,38.89,43.85,19.7l2.93,1.69L13.75,40.58Z" fill="#f8d555"/><path d="M13.75,40.83a.266.266,0,0,1-.12-.03L10.7,39.1a.225.225,0,0,1-.12-.21.244.244,0,0,1,.12-.21l33.03-19.2a.255.255,0,0,1,.24,0l2.93,1.69a.225.225,0,0,1,.12.21.244.244,0,0,1-.12.21L13.87,40.79a.159.159,0,0,1-.12.04Zm-2.44-1.94,2.44,1.41L46.3,21.39l-2.44-1.41Z" fill="#111925"/><path d="M35.95,27.68l-2.92-1.7-.02-5.96,2.87,1.67Z" fill="#f8d555"/><path d="M35.95,27.92a.266.266,0,0,1-.12-.03l-2.92-1.7a.244.244,0,0,1-.12-.21l-.02-5.96a.244.244,0,0,1,.12-.21.255.255,0,0,1,.24,0L36,21.48a.244.244,0,0,1,.12.21l.07,5.99a.244.244,0,0,1-.12.21.238.238,0,0,1-.12.03Zm-2.68-2.08,2.43,1.41-.06-5.42-2.39-1.39Z" fill="#111925"/><path d="M35.88,21.69l-2.87-1.67,10.88-6.26,2.87,1.67Z" fill="#f8d555"/><path d="M35.88,21.93a.266.266,0,0,1-.12-.03l-2.87-1.67a.225.225,0,0,1-.12-.21.244.244,0,0,1,.12-.21l10.88-6.26a.255.255,0,0,1,.24,0l2.87,1.67a.225.225,0,0,1,.12.21.244.244,0,0,1-.12.21L36,21.9a.266.266,0,0,1-.12.03Zm-2.39-1.91,2.39,1.39,10.39-5.98-2.39-1.39Z" fill="#111925"/><path d="M46.78,21.39l-.07,20.55a3.064,3.064,0,0,1-1.28,2.82L12.4,63.95a3.064,3.064,0,0,0,1.28-2.82l.07-20.55,22.19-12.9-.07-6,10.88-6.26Z" fill="#ffe08a"/><path d="M12.4,64.19a.241.241,0,0,1-.12-.45l.01-.01a2.861,2.861,0,0,0,1.15-2.6l.07-20.55a.244.244,0,0,1,.12-.21L35.7,27.54l-.07-5.85a.244.244,0,0,1,.12-.21l10.88-6.26a.255.255,0,0,1,.24,0,.225.225,0,0,1,.12.21l.02,5.96-.07,20.55a3.3,3.3,0,0,1-1.4,3.03l-33,19.18-.01.01a.277.277,0,0,1-.13.03ZM14,40.73l-.07,20.41A4.373,4.373,0,0,1,13.56,63L45.31,44.55a2.83,2.83,0,0,0,1.16-2.61l.07-20.55-.02-5.54L36.13,21.83l.07,5.85a.244.244,0,0,1-.12.21Z" fill="#111925"/><path d="M16.07,24.2l9.52-5.51" fill="#fff"/><path d="M16.07,24.44a.241.241,0,0,1-.12-.45l9.53-5.51a.242.242,0,1,1,.24.42l-9.53,5.51a.266.266,0,0,1-.12.03Z" fill="#111925"/><path d="M21.78,25.7l1.44-.83" fill="#fff"/><path d="M21.78,25.94a.241.241,0,0,1-.12-.45l1.43-.83a.242.242,0,0,1,.24.42l-1.43.83A.238.238,0,0,1,21.78,25.94Z" fill="#111925"/><path d="M16.07,29.01l3.54-2.05" fill="#fff"/><path d="M16.07,29.25a.241.241,0,0,1-.12-.45l3.54-2.05a.242.242,0,0,1,.24.42l-3.54,2.05a.266.266,0,0,1-.12.03Z" fill="#111925"/><path d="M7.91,26.75l-.08,31a3.228,3.228,0,0,0,1.46,2.53c.81.47,1.47.09,1.47-.84l.06-20.55,2.93,1.69-.06,20.55c-.01,2.79-1.98,3.92-4.42,2.52a9.66,9.66,0,0,1-4.38-7.6l.08-31Z" fill="#f8d555"/><path d="M11.25,64.5a4.223,4.223,0,0,1-2.1-.64,9.98,9.98,0,0,1-4.51-7.81l.08-31a.244.244,0,0,1,.12-.21.255.255,0,0,1,.24,0l2.94,1.69a.225.225,0,0,1,.12.21l-.08,31A3,3,0,0,0,9.4,60.06a.8.8,0,0,0,.8.1.784.784,0,0,0,.31-.73l.06-20.55a.244.244,0,0,1,.12-.21.255.255,0,0,1,.24,0l2.93,1.69a.276.276,0,0,1,.14.22l-.06,20.55a3.308,3.308,0,0,1-1.41,3.04A2.57,2.57,0,0,1,11.25,64.5ZM5.21,25.48,5.13,56.05a9.386,9.386,0,0,0,4.26,7.38,2.858,2.858,0,0,0,2.88.31,2.842,2.842,0,0,0,1.17-2.62l.06-20.4-2.45-1.41L11,59.44a1.25,1.25,0,0,1-.55,1.15,1.25,1.25,0,0,1-1.28-.1,3.418,3.418,0,0,1-1.58-2.74L7.67,26.9Z" fill="#111925"/><path d="M60.83,32.29l-3.37-1.95a.651.651,0,0,0-.58,0,3.694,3.694,0,0,1-3.32-.02l3.37,1.95a3.726,3.726,0,0,0,3.32.02A.651.651,0,0,1,60.83,32.29Z" fill="#0084ce"/><path d="M58.48,32.91a3.247,3.247,0,0,1-1.67-.43l-3.36-1.94a.01.01,0,0,1-.01-.01.242.242,0,1,1,.24-.42l.01.01a3.475,3.475,0,0,0,3.09,0,.873.873,0,0,1,.79.01l3.36,1.95a.242.242,0,0,1-.24.42.42.42,0,0,0-.36.02,4.88,4.88,0,0,1-1.85.39Zm-3.32-1.95,1.9,1.1a3.388,3.388,0,0,0,2.98.05l-2.7-1.56a.42.42,0,0,0-.36.02,5.014,5.014,0,0,1-1.82.39Z" fill="#111925"/><path d="M55.02,28.97a.645.645,0,0,0-.66.06l-9.53,5.5a1.828,1.828,0,0,0-.56.55,2.077,2.077,0,0,0-.37.95,12.4,12.4,0,0,1-1.45,4.39,12.918,12.918,0,0,1-3.48,4.16,2.106,2.106,0,0,0-.64.8,1.837,1.837,0,0,0-.2.77l.01,3.7c.01,4.26,1.03,7.78,2.86,10.28a9.279,9.279,0,0,0,2.77,2.41l-3.36-1.95a8.894,8.894,0,0,1-2.77-2.41c-1.83-2.5-2.85-6.01-2.86-10.27l-.01-3.71a1.731,1.731,0,0,1,.2-.77,2.292,2.292,0,0,1,.64-.8,12.755,12.755,0,0,0,3.49-4.17,12.451,12.451,0,0,0,1.44-4.39,2.274,2.274,0,0,1,.37-.95,1.948,1.948,0,0,1,.56-.55L51,27.07a.674.674,0,0,1,.66-.07Z" fill="#0084ce"/><path d="M43.75,62.78a.266.266,0,0,1-.12-.03L40.27,60.8a8.993,8.993,0,0,1-2.84-2.47c-1.89-2.58-2.89-6.18-2.91-10.41l-.01-3.71a2.115,2.115,0,0,1,.22-.88,2.548,2.548,0,0,1,.72-.89,12.62,12.62,0,0,0,3.42-4.09,12.068,12.068,0,0,0,1.41-4.3,2.342,2.342,0,0,1,.42-1.06,1.981,1.981,0,0,1,.64-.62l9.53-5.5a.915.915,0,0,1,.91-.07l3.36,1.94h.01a.246.246,0,0,1,.09.33.237.237,0,0,1-.33.09.436.436,0,0,0-.41.07l-9.53,5.5a1.524,1.524,0,0,0-.48.47,1.967,1.967,0,0,0-.33.84,12.875,12.875,0,0,1-1.47,4.48,13.214,13.214,0,0,1-3.55,4.24,1.927,1.927,0,0,0-.57.71,1.618,1.618,0,0,0-.17.67l.01,3.7c.01,4.13.98,7.63,2.81,10.13a8.791,8.791,0,0,0,2.7,2.34.237.237,0,0,1,.09.33.342.342,0,0,1-.26.14ZM51.41,27.2a.588.588,0,0,0-.3.1l-9.53,5.5a1.634,1.634,0,0,0-.48.47,1.919,1.919,0,0,0-.33.84,12.566,12.566,0,0,1-1.47,4.47,12.888,12.888,0,0,1-3.56,4.24,2.033,2.033,0,0,0-.57.71,1.576,1.576,0,0,0-.17.66v3.72a17.211,17.211,0,0,0,2.81,10.13,8.676,8.676,0,0,0,2.7,2.34l.66.38q-.21-.24-.39-.48c-1.89-2.59-2.89-6.19-2.9-10.42l-.01-3.7a2.115,2.115,0,0,1,.22-.88,2.442,2.442,0,0,1,.72-.89,12.574,12.574,0,0,0,3.41-4.08,12.087,12.087,0,0,0,1.42-4.3,2.387,2.387,0,0,1,.42-1.06,1.976,1.976,0,0,1,.64-.62l9.53-5.5c.01,0,.01-.01.02-.01l-2.73-1.58A.15.15,0,0,0,51.41,27.2Z" fill="#111925"/><path d="M44.82,34.53a2.112,2.112,0,0,0-.93,1.5,12.516,12.516,0,0,1-1.44,4.39,12.82,12.82,0,0,1-3.49,4.16,2.138,2.138,0,0,0-.84,1.57l.01,3.71a17.4,17.4,0,0,0,2.86,10.27c1.72,2.35,5.03,3.8,8.12,4.12a1,1,0,0,0,.57-.15,2.18,2.18,0,0,0,.57-.5,58.332,58.332,0,0,0,8.07-13.47,37.4,37.4,0,0,0,2.79-13.54l-.01-3.71c0-.56-.37-.79-.85-.59a3.614,3.614,0,0,1-3.5-.13,3.751,3.751,0,0,1-1.46-2.71c-.07-.51-.46-.7-.94-.42Z" fill="#0296f6"/><path d="M49.18,64.49a.277.277,0,0,1-.09-.01c-3.47-.36-6.65-1.97-8.3-4.21a17.657,17.657,0,0,1-2.91-10.42l-.01-3.71a2.363,2.363,0,0,1,.94-1.76,12.812,12.812,0,0,0,3.42-4.08A12.087,12.087,0,0,0,43.65,36a2.371,2.371,0,0,1,1.05-1.68l9.53-5.5a.905.905,0,0,1,.86-.09.84.84,0,0,1,.44.68,3.531,3.531,0,0,0,1.36,2.54,3.4,3.4,0,0,0,3.27.1.864.864,0,0,1,.83.03.891.891,0,0,1,.36.78l.01,3.71A37.76,37.76,0,0,1,58.55,50.2a58,58,0,0,1-8.11,13.53,2.227,2.227,0,0,1-.64.56A1.131,1.131,0,0,1,49.18,64.49ZM44.94,34.75a1.892,1.892,0,0,0-.81,1.32,12.809,12.809,0,0,1-1.47,4.48,13.322,13.322,0,0,1-3.55,4.24,1.864,1.864,0,0,0-.74,1.37l.01,3.71c.01,4.12.98,7.63,2.81,10.13,1.54,2.1,4.66,3.68,7.95,4.02a.733.733,0,0,0,.42-.12,1.73,1.73,0,0,0,.5-.45A57.675,57.675,0,0,0,58.1,50.04a37.168,37.168,0,0,0,2.78-13.45l-.01-3.71a.449.449,0,0,0-.14-.38.4.4,0,0,0-.37.01,3.887,3.887,0,0,1-3.73-.15,4.021,4.021,0,0,1-1.57-2.88.365.365,0,0,0-.17-.31.446.446,0,0,0-.4.07Z" fill="#111925"/><path d="M45.88,37.2a1.7,1.7,0,0,0-.73,1.17,9.747,9.747,0,0,1-1.12,3.42,10.029,10.029,0,0,1-2.71,3.24,1.69,1.69,0,0,0-.66,1.22l.01,2.89a13.552,13.552,0,0,0,2.23,8,9.17,9.17,0,0,0,6.33,3.2.754.754,0,0,0,.44-.12,1.586,1.586,0,0,0,.44-.39A45.626,45.626,0,0,0,56.4,49.34,29.051,29.051,0,0,0,58.57,38.8l-.01-2.89c0-.43-.29-.61-.66-.46a2.8,2.8,0,0,1-2.72-.1,2.944,2.944,0,0,1-1.14-2.11c-.05-.39-.36-.54-.73-.33Z" fill="#fff"/><path d="M49.27,60.58h-.08a9.342,9.342,0,0,1-6.5-3.3,13.714,13.714,0,0,1-2.27-8.14l-.01-2.89a1.922,1.922,0,0,1,.75-1.42,10.012,10.012,0,0,0,2.65-3.16,9.592,9.592,0,0,0,1.1-3.33,1.871,1.871,0,0,1,.85-1.35l7.42-4.29a.757.757,0,0,1,.72-.07.7.7,0,0,1,.37.57,2.671,2.671,0,0,0,1.04,1.94,2.6,2.6,0,0,0,2.49.08.724.724,0,0,1,.69.03.755.755,0,0,1,.3.65l.01,2.89a29.417,29.417,0,0,1-2.19,10.63,45.417,45.417,0,0,1-6.32,10.55,1.779,1.779,0,0,1-.51.45.925.925,0,0,1-.51.16ZM46,37.41a1.434,1.434,0,0,0-.61.98,9.973,9.973,0,0,1-1.15,3.51,10.393,10.393,0,0,1-2.78,3.32,1.433,1.433,0,0,0-.56,1.02l.01,2.89a13.324,13.324,0,0,0,2.18,7.86,8.994,8.994,0,0,0,6.15,3.11.493.493,0,0,0,.29-.08,1.419,1.419,0,0,0,.37-.33,44.4,44.4,0,0,0,6.25-10.43,28.908,28.908,0,0,0,2.16-10.45l-.01-2.89a.324.324,0,0,0-.08-.25.289.289,0,0,0-.24.01,3.064,3.064,0,0,1-2.96-.13,3.187,3.187,0,0,1-1.24-2.28.24.24,0,0,0-.1-.2.3.3,0,0,0-.26.05Z" fill="#111925"/><path d="M49.6,41.72c2.34-1.35,4.23-.27,4.24,2.41a9.3,9.3,0,0,1-4.21,7.3c-2.33,1.35-4.23.27-4.24-2.42A9.281,9.281,0,0,1,49.6,41.72Z" fill="#0296f6"/><path d="M47.73,52.26a2.354,2.354,0,0,1-1.23-.32,3.159,3.159,0,0,1-1.36-2.93,9.6,9.6,0,0,1,4.33-7.51,2.811,2.811,0,0,1,4.6,2.62,9.567,9.567,0,0,1-4.33,7.51,3.947,3.947,0,0,1-2.01.63Zm1.99-10.33a9.025,9.025,0,0,0-4.09,7.08,2.341,2.341,0,0,0,3.87,2.21,9.028,9.028,0,0,0,4.09-7.09,2.706,2.706,0,0,0-1.12-2.5A2.761,2.761,0,0,0,49.72,41.93Z" fill="#111925"/><path d="M48.84,49.15a.3.3,0,0,1-.15-.05L47.2,47.97a.243.243,0,0,1,.29-.39l1.3.98,3.16-4.18a.243.243,0,1,1,.39.29l-3.31,4.38a.228.228,0,0,1-.19.1Z" fill="#111925"/><path d="M27.23,51.73,16.49,57.98" fill="#ffe08a"/><path d="M16.49,58.22a.241.241,0,0,1-.12-.45l10.74-6.24a.242.242,0,0,1,.24.42L16.61,58.19A.266.266,0,0,1,16.49,58.22Z" fill="#111925"/><path d="M21.86,51.42l-5.37,3.12" fill="#ffe08a"/><path d="M16.49,54.79a.241.241,0,0,1-.12-.45l5.37-3.12a.242.242,0,0,1,.24.42l-5.37,3.12A.266.266,0,0,1,16.49,54.79Z" fill="#111925"/></g></svg>