<svg xmlns="http://www.w3.org/2000/svg" width="116" height="116" viewBox="0 0 116 116"><g transform="translate(-952.757 -978)"><g transform="translate(647.645 -2645.355)"><circle cx="58" cy="58" r="58" transform="translate(305.112 3623.355)" fill="#fff" opacity="0.45"/><circle cx="47" cy="47" r="47" transform="translate(316.112 3634.355)" fill="#fff"/></g><g transform="translate(974.817 993.091)"><g transform="translate(1.6 22.829)"><g transform="translate(6.023 3.486)"><path d="M48.132,35.033l-.022,7.7c.009-3.079-2.024-6.163-6.094-8.513-8.07-4.659-21.128-4.654-29.162.015-3.983,2.315-5.977,5.345-5.986,8.38l.022-7.7c.009-3.035,2-6.065,5.986-8.38,8.035-4.669,21.093-4.674,29.162-.015,4.07,2.35,6.1,5.434,6.094,8.513Z" transform="translate(-6.373 -22.548)" fill="#ffd63c"/><path d="M48.2,43.318h0a.5.5,0,0,1-.494-.5c.008-3.03-2.068-5.9-5.847-8.082-7.923-4.576-20.783-4.567-28.666.014C9.5,36.9,7.466,39.723,7.458,42.707a.5.5,0,0,1-.495.494h0a.5.5,0,0,1-.494-.5l.022-7.7c.009-3.349,2.222-6.476,6.231-8.806,8.158-4.741,21.462-4.748,29.659-.016,4.1,2.367,6.35,5.543,6.341,8.943l-.022,7.7a.5.5,0,0,1-.495.494Zm-20.67-12.98a30.31,30.31,0,0,1,14.824,3.543,13.6,13.6,0,0,1,5.362,5.135l.011-3.891c.008-3.03-2.068-5.9-5.847-8.082-7.921-4.573-20.781-4.567-28.666.013-3.693,2.147-5.731,4.97-5.739,7.953l-.011,3.9A13.457,13.457,0,0,1,12.7,33.9a30.19,30.19,0,0,1,14.835-3.56Zm20.692,4.788h.012Z" transform="translate(-6.468 -22.64)"/></g><g transform="translate(0 15.341)"><path d="M55.308,32.776l-.022,7.7c-.011,3.927-2.592,7.847-7.749,10.844C37.175,57.339,20.306,57.334,9.858,51.3,4.61,48.272,1.989,44.293,2,40.321l.022-7.7C2.011,36.6,4.632,40.574,9.88,43.6c10.447,6.032,27.317,6.037,37.679.015,5.156-3,7.737-6.917,7.749-10.844Z" transform="translate(-1.505 -32.128)" fill="#ffd63c"/><path d="M28.841,56.4c-6.919,0-13.848-1.526-19.136-4.579C4.466,48.8,1.587,44.749,1.6,40.415l.022-7.7a.5.5,0,0,1,.495-.494h0a.5.5,0,0,1,.494.5C2.6,36.683,5.3,40.43,10.222,43.27c10.292,5.944,26.973,5.949,37.183.017,4.827-2.806,7.492-6.506,7.5-10.418a.5.5,0,0,1,.495-.494h0a.5.5,0,0,1,.494.5l-.022,7.7c-.011,4.279-2.851,8.282-7.994,11.271C42.644,54.884,35.748,56.4,28.841,56.4ZM2.6,37.028l-.01,3.39c-.011,3.964,2.692,7.71,7.611,10.551,10.292,5.944,26.973,5.95,37.183.016,4.827-2.805,7.492-6.5,7.5-10.418l.01-3.392A16.787,16.787,0,0,1,47.9,44.142c-10.485,6.093-27.609,6.085-38.176-.014a16.887,16.887,0,0,1-7.128-7.1Z" transform="translate(-1.6 -32.223)"/></g><g transform="translate(0.022)"><path d="M47.432,24.723c10.447,6.032,10.5,15.808.123,21.84-10.362,6.022-27.232,6.017-37.679-.015C-.554,40.526-.609,30.76,9.754,24.738,20.133,18.706,37,18.7,47.432,24.723ZM14.12,44.081c8.088,4.669,21.145,4.674,29.163.015,8.035-4.669,7.992-12.238-.1-16.907-8.07-4.659-21.128-4.654-29.162.015-8.018,4.659-7.975,12.218.095,16.877" transform="translate(-1.523 -19.73)" fill="#fff"/><path d="M28.86,51.647c-6.92,0-13.849-1.526-19.137-4.579C4.5,44.054,1.624,40.015,1.618,35.7,1.612,31.409,4.447,27.4,9.6,24.4c10.5-6.1,27.622-6.108,38.175-.017,5.229,3.02,8.113,7.064,8.119,11.387.006,4.294-2.834,8.311-7.995,11.31-5.237,3.043-12.133,4.564-19.039,4.564ZM28.686,20.8c-6.74,0-13.472,1.487-18.589,4.46-4.836,2.81-7.5,6.517-7.49,10.438.005,3.951,2.709,7.685,7.611,10.514,10.292,5.944,26.973,5.949,37.183.017,4.844-2.815,7.508-6.527,7.5-10.454-.005-3.955-2.713-7.695-7.624-10.53C42.145,22.279,35.413,20.8,28.686,20.8Zm.153,27.364A30.408,30.408,0,0,1,13.968,44.6c-4.076-2.353-6.323-5.513-6.328-8.9,0-3.361,2.208-6.5,6.231-8.837,8.158-4.741,21.462-4.748,29.659-.016,4.084,2.358,6.336,5.522,6.341,8.911,0,3.365-2.213,6.509-6.244,8.852A30.083,30.083,0,0,1,28.84,48.162ZM14.463,43.745c7.937,4.584,20.8,4.59,28.666.016,3.714-2.159,5.757-5,5.752-8,0-3.02-2.081-5.881-5.847-8.055-7.921-4.573-20.781-4.567-28.666.013C10.663,29.878,8.625,32.712,8.63,35.7c0,3.015,2.076,5.87,5.833,8.04Z" transform="translate(-1.618 -19.822)"/></g></g><g transform="translate(48.886 48.182)"><path d="M55.185,46.486a2.228,2.228,0,0,0-2.251.218,6.961,6.961,0,0,0-3.163,5.467A2.238,2.238,0,0,0,50.7,54.2l-9.556-5.55a2.217,2.217,0,0,1-.918-2.033,6.952,6.952,0,0,1,3.155-5.467,2.232,2.232,0,0,1,2.251-.226Z" transform="translate(-39.728 -40.22)" fill="#fff"/><path d="M50.791,54.8a.487.487,0,0,1-.248-.068l-9.556-5.55a2.683,2.683,0,0,1-1.165-2.461,7.394,7.394,0,0,1,3.4-5.9,2.7,2.7,0,0,1,2.747-.226l9.536,5.546.024.013a.5.5,0,0,1-.5.854L55.015,47a1.8,1.8,0,0,0-1.741.23,6.433,6.433,0,0,0-2.914,5.038,1.78,1.78,0,0,0,.682,1.607.495.495,0,0,1-.251.922ZM44.9,41.309a2.412,2.412,0,0,0-1.177.368,6.508,6.508,0,0,0-2.909,5.037,1.763,1.763,0,0,0,.674,1.609l7.94,4.611a4.3,4.3,0,0,1-.055-.664,7.413,7.413,0,0,1,3.411-5.9,4.178,4.178,0,0,1,.635-.3l-7.942-4.619a1.143,1.143,0,0,0-.577-.143Z" transform="translate(-39.823 -40.315)"/></g><g transform="translate(51.826 48.257)"><g transform="translate(0 0)"><g transform="translate(0.495 0.499)"><path d="M69.992,51.777a3.748,3.748,0,0,0-3.787.367,11.709,11.709,0,0,0-5.321,9.2,3.764,3.764,0,0,0,1.558,3.42l-18.3-10.629a3.73,3.73,0,0,1-1.545-3.42,11.694,11.694,0,0,1,5.308-9.2,3.755,3.755,0,0,1,3.787-.38Z" transform="translate(-42.599 -40.78)" fill="#ffd63c"/></g><g transform="translate(0.494 1.836)"><path d="M62.436,64.51,44.144,53.882a3.73,3.73,0,0,1-1.546-3.42,11.786,11.786,0,0,1,4.447-8.6,8,8,0,0,0-1.66,4.776c0,5.548,6.182,10.033,13.82,10.033a18.226,18.226,0,0,0,2.914-.228,10.558,10.558,0,0,0-1.241,4.649,3.791,3.791,0,0,0,1.558,3.42Z" transform="translate(-42.599 -41.861)" fill="#f4c531"/></g><path d="M62.537,65.353a.487.487,0,0,1-.248-.068h0l-18.3-10.628A4.2,4.2,0,0,1,42.2,50.808a12.254,12.254,0,0,1,5.555-9.626,4.21,4.21,0,0,1,4.283-.378L70.3,51.423l.042.024a.495.495,0,0,1-.5.853l-.033-.019a3.316,3.316,0,0,0-3.259.388,11.192,11.192,0,0,0-5.072,8.767,3.312,3.312,0,0,0,1.312,2.994h0a.5.5,0,0,1-.251.922ZM50.393,41.367a4.366,4.366,0,0,0-2.143.672,11.16,11.16,0,0,0-5.062,8.767,3.276,3.276,0,0,0,1.3,3l16.26,9.445a6.138,6.138,0,0,1-.266-1.807,12.287,12.287,0,0,1,5.569-9.629,6.2,6.2,0,0,1,1.743-.7L51.54,41.659a2.25,2.25,0,0,0-1.147-.292Z" transform="translate(-42.199 -40.376)"/><g transform="translate(18.29 10.636)"><path d="M62.7,50.107c2.944-1.7,5.337-.335,5.347,3.047a11.707,11.707,0,0,1-5.312,9.2c-2.944,1.7-5.338.336-5.347-3.047A11.707,11.707,0,0,1,62.7,50.107Z" transform="translate(-56.889 -48.878)" fill="#fff"/><path d="M60.433,63.679a3.24,3.24,0,0,1-1.638-.423,4.19,4.19,0,0,1-1.812-3.851,12.277,12.277,0,0,1,5.56-9.632h0a3.735,3.735,0,0,1,6.089,3.476,12.274,12.274,0,0,1-5.559,9.631,5.361,5.361,0,0,1-2.641.8ZM63.039,50.63A11.181,11.181,0,0,0,57.973,59.4a3.266,3.266,0,0,0,1.316,3,3.3,3.3,0,0,0,3.29-.377,11.177,11.177,0,0,0,5.065-8.771,3.265,3.265,0,0,0-1.316-3,3.3,3.3,0,0,0-3.289.376Z" transform="translate(-56.983 -48.973)"/></g></g></g><g transform="translate(13.554 7.139)"><g transform="translate(15.089 16.957)"><g transform="translate(1.785 0.247)"><path d="M24.978,21.046c-.024.009-.05.014-.074.023C24.927,21.06,24.954,21.055,24.978,21.046Z" transform="translate(-24.903 -21.046)" fill="#fff"/></g><g transform="translate(1.251 0.424)"><path d="M24.491,21.188l-.02,0Z" transform="translate(-24.471 -21.188)" fill="#fff"/></g><g transform="translate(1.271 0.27)"><path d="M25,21.064a4.565,4.565,0,0,1-.515.154A4.559,4.559,0,0,0,25,21.064Z" transform="translate(-24.487 -21.064)" fill="#fff"/></g><g transform="translate(0 0.427)"><path d="M23.46,21.324a5.577,5.577,0,0,0,1.251-.132A5.543,5.543,0,0,1,23.46,21.324Z" transform="translate(-23.46 -21.191)" fill="#fff"/></g><g transform="translate(1.859)"><path d="M25.491,20.846a3.66,3.66,0,0,1-.528.247A3.64,3.64,0,0,0,25.491,20.846Z" transform="translate(-24.963 -20.846)" fill="#fff"/></g></g><g transform="translate(0.495 0.498)"><path d="M12.643,14.69c-1.3.751-1.307,1.97-.015,2.721L23.955,24a5.164,5.164,0,0,0,4.691,0l11.4-6.585c1.3-.751,1.31-1.968.018-2.719L28.733,8.105a5.171,5.171,0,0,0-4.694,0Z" transform="translate(-11.663 -7.542)" fill="#fff"/></g><g transform="translate(0.494 6.083)"><path d="M12.627,16.341,23.953,22.93a5.18,5.18,0,0,0,4.692,0l11.4-6.589c1.3-.751,1.309-1.965.02-2.716l-2.7-1.569c-.517,4.523-5.493,8.067-11.554,8.067-5.8,0-10.611-3.244-11.478-7.478l-1.684.975c-1.3.751-1.309,1.97-.015,2.721Z" transform="translate(-11.663 -12.056)" fill="#e9edf4"/></g><g transform="translate(0.495 9.017)"><path d="M12.627,15.778l11.326,6.589a4.741,4.741,0,0,0,2.3.559V46.552a5.6,5.6,0,0,0,1.265-.127A5.17,5.17,0,0,1,23.994,46L12.668,39.406a1.645,1.645,0,0,1-.964-1.35l-.041-23.627a1.656,1.656,0,0,0,.964,1.35Z" transform="translate(-11.663 -14.428)" fill="#ffd63c"/></g><g transform="translate(15.088 41.139)"><path d="M23.473,40.393h-.014Z" transform="translate(-23.459 -40.393)" fill="#e9edf4"/></g><g transform="translate(15.102 41.109)"><path d="M24.131,40.369a4.918,4.918,0,0,1-.66.03A5.735,5.735,0,0,0,24.131,40.369Z" transform="translate(-23.471 -40.369)" fill="#e9edf4"/></g><g transform="translate(0.495 9.02)"><path d="M11.663,14.43,11.7,38.057a1.645,1.645,0,0,0,.964,1.35L23.994,46a4.7,4.7,0,0,0,2.262.553V42.621c-.3.025-.614.036-.928.036-6.721,0-12.173-13.855-12.173-20.475a11.789,11.789,0,0,1,1.278-5.351L12.627,15.78a1.656,1.656,0,0,1-.964-1.35Z" transform="translate(-11.663 -14.43)" fill="#f4c531"/></g><g transform="translate(15.089 9.007)"><path d="M23.46,22.929a5.543,5.543,0,0,0,1.251-.132l.02,0a4.564,4.564,0,0,0,.515-.154c.024-.009.051-.014.074-.023a3.66,3.66,0,0,0,.528-.247l11.4-6.589a1.656,1.656,0,0,0,.979-1.36l.041,23.617a1.649,1.649,0,0,1-.979,1.371l-11.4,6.584a3.626,3.626,0,0,1-.534.251c-.026.01-.055.016-.082.025a4.561,4.561,0,0,1-.518.154l-.029,0a5.6,5.6,0,0,1-1.265.127Z" transform="translate(-23.46 -14.42)" fill="#fff"/></g><g transform="translate(15.088 9.007)"><path d="M23.459,42.1v4.452a5.813,5.813,0,0,0,1.268-.127.055.055,0,0,1,.025-.005,4.163,4.163,0,0,0,.522-.157c.025-.01.051-.015.081-.025a3.655,3.655,0,0,0,.533-.249l11.4-6.584a1.649,1.649,0,0,0,.979-1.371L38.224,14.42a1.656,1.656,0,0,1-.979,1.36l-2.333,1.345a8.87,8.87,0,0,1,2.333,5.924c0,5.4-5.1,19.272-11.4,19.272a13.193,13.193,0,0,1-2.389-.218Z" transform="translate(-23.459 -14.42)" fill="#e9edf4"/></g><g transform="translate(5.269 3.252)"><path d="M15.522,11.971l16,9.31,3.809-2.2-16-9.31Z" transform="translate(-15.522 -9.768)" fill="#ffd63c"/></g><g transform="translate(14.595 16.462)"><g transform="translate(1.799 0.269)"><path d="M25.023,21.644a.505.505,0,0,1-.484-.343.567.567,0,0,1-.024-.157.473.473,0,0,1,.317-.453.535.535,0,0,1,.663.28.56.56,0,0,1,.038.2.439.439,0,0,1-.275.42c-.019.007-.08.028-.1.033A.51.51,0,0,1,25.023,21.644Z" transform="translate(-24.515 -20.664)"/></g><g transform="translate(1.255 0.425)"><path d="M24.574,21.78a.5.5,0,0,1-.495-.429.521.521,0,0,1,0-.068.489.489,0,0,1,.4-.484.5.5,0,0,1,.585.393.491.491,0,0,1-.379.577A.82.82,0,0,1,24.574,21.78Z" transform="translate(-24.075 -20.79)"/></g><g transform="translate(1.27 0.269)"><path d="M24.582,21.809a.5.5,0,0,1-.481-.384.472.472,0,0,1-.013-.111.5.5,0,0,1,.384-.482,4.232,4.232,0,0,0,.46-.139.5.5,0,0,1,.332.933,5.021,5.021,0,0,1-.57.17A.509.509,0,0,1,24.582,21.809Z" transform="translate(-24.087 -20.663)"/></g><g transform="translate(0 0.428)"><path d="M23.589,21.914h-.037a.5.5,0,0,1-.492-.5v0a.5.5,0,0,1,.495-.493.146.146,0,0,1,.033,0A4.986,4.986,0,0,0,24.7,20.8a.5.5,0,0,1,.22.965,5.95,5.95,0,0,1-1.327.146Z" transform="translate(-23.061 -20.792)"/></g><g transform="translate(1.859)"><path d="M25.058,21.683a.5.5,0,0,1-.463-.321.478.478,0,0,1-.031-.174.493.493,0,0,1,.321-.463,3.25,3.25,0,0,0,.455-.213.5.5,0,0,1,.676.182.5.5,0,0,1,.065.246.493.493,0,0,1-.248.429,3.989,3.989,0,0,1-.6.28A.49.49,0,0,1,25.058,21.683Z" transform="translate(-24.563 -20.446)"/></g></g><path d="M26.391,25.156a5.238,5.238,0,0,1-2.589-.633L12.473,17.935a2.115,2.115,0,0,1-1.21-1.784,2.133,2.133,0,0,1,1.227-1.794l11.4-6.584a5.633,5.633,0,0,1,5.19,0L40.4,14.361a2.112,2.112,0,0,1,1.209,1.783,2.131,2.131,0,0,1-1.229,1.793l-11.4,6.585a5.288,5.288,0,0,1-2.6.633ZM12.985,15.214a1.224,1.224,0,0,0-.732.938,1.207,1.207,0,0,0,.718.928L24.3,23.667a4.688,4.688,0,0,0,4.194,0l11.4-6.585a1.225,1.225,0,0,0,.734-.938,1.206,1.206,0,0,0-.717-.925L28.579,8.629a4.69,4.69,0,0,0-4.2,0Z" transform="translate(-11.263 -7.139)"/><g transform="translate(0.001 8.522)"><path d="M26.409,47.146a5.2,5.2,0,0,1-2.568-.628L12.514,39.929A2.115,2.115,0,0,1,11.3,38.15l-.04-23.622v0h0a.5.5,0,0,1,.494-.5h0a.5.5,0,0,1,.495.494v0a1.218,1.218,0,0,0,.718.921L24.3,22.035a4.213,4.213,0,0,0,2.059.492.5.5,0,0,1,.492.5V46.135a5.008,5.008,0,0,0,.664-.1.495.495,0,0,1,.214.966,6.051,6.051,0,0,1-1.316.144ZM12.256,16.164l.037,21.985c0,.326.255.655.718.924l11.326,6.589a3.914,3.914,0,0,0,1.52.463V23.495a4.964,4.964,0,0,1-2.058-.6L12.473,16.3h0c-.075-.043-.147-.089-.215-.137Z" transform="translate(-11.264 -14.028)"/></g><g transform="translate(14.595 8.512)"><path d="M23.621,47.144H23.55a.5.5,0,0,1-.489-.5V23.024a.493.493,0,0,1,.146-.35.471.471,0,0,1,.352-.145,4.312,4.312,0,0,0,1.137-.12,3.9,3.9,0,0,0,.479-.141,3.073,3.073,0,0,0,.522-.232l11.4-6.589a1.211,1.211,0,0,0,.732-.931.5.5,0,0,1,.494-.5h0a.5.5,0,0,1,.495.494l.041,23.616a2.137,2.137,0,0,1-1.227,1.8l-11.4,6.584a4.228,4.228,0,0,1-.606.284,6.174,6.174,0,0,1-.667.2,6.257,6.257,0,0,1-1.336.145ZM24.05,23.5V46.137a5.009,5.009,0,0,0,.664-.1A3.9,3.9,0,0,0,25.2,45.9a3.142,3.142,0,0,0,.535-.238l11.4-6.584c.469-.268.735-.61.732-.937l-.038-21.983q-.115.08-.242.152l-11.4,6.588a4.059,4.059,0,0,1-.6.28,5.407,5.407,0,0,1-1.539.329Z" transform="translate(-23.061 -14.02)"/></g><g transform="translate(4.775 2.757)"><path d="M31.62,21.872a.5.5,0,0,1-.249-.068l-16-9.311a.5.5,0,0,1,0-.857l3.814-2.2a.493.493,0,0,1,.5,0l16,9.31a.5.5,0,0,1,0,.857l-3.809,2.2a.5.5,0,0,1-.248.066ZM16.6,12.067,31.621,20.8l2.823-1.632L19.43,10.434Z" transform="translate(-15.123 -9.368)"/></g><g transform="translate(20.776 12.065)"><g transform="translate(0.495 0.496)"><path d="M28.457,19.5l.034,5.405a.618.618,0,0,0,.926.532l2.264-1.306a1.243,1.243,0,0,0,.621-1.084l-.036-5.749Z" transform="translate(-28.457 -17.292)" fill="#fff"/></g><g transform="translate(0)"><path d="M29.2,26.106A1.116,1.116,0,0,1,28.091,25l-.034-5.405a.5.5,0,0,1,.247-.433l3.809-2.2a.5.5,0,0,1,.742.425l.036,5.749a1.743,1.743,0,0,1-.869,1.517l-2.265,1.306a1.106,1.106,0,0,1-.555.15Zm-.155-6.231.032,5.118.184.106,2.264-1.306a.752.752,0,0,0,.374-.654l-.031-4.9Z" transform="translate(-28.057 -16.892)"/></g></g></g></g></g></svg>