<svg xmlns="http://www.w3.org/2000/svg" width="65.962" height="65.812" viewBox="0 0 65.962 65.812"><g transform="translate(-1.926 -1.999)"><g transform="translate(1.926 9.243)"><g transform="translate(2.213 13.979)"><g transform="translate(17.016 22.705)"><g transform="translate(0 1.355)"><path d="M25.742,46.451l-.02,18.338a1.169,1.169,0,0,1-.682.958,3.654,3.654,0,0,1-3.32-.006,1.174,1.174,0,0,1-.693-.966l.02-18.337a1.174,1.174,0,0,0,.693.966,3.654,3.654,0,0,0,3.32.006,1.169,1.169,0,0,0,.682-.958Z" transform="translate(-20.615 -46.026)" fill="#fff"/><path d="M23.4,66.566a3.819,3.819,0,0,1-1.877-.457,1.562,1.562,0,0,1-.9-1.323l.02-18.334v0a.412.412,0,0,1,.412-.41h0a.412.412,0,0,1,.411.412h0c0,.207.177.429.488.609a3.252,3.252,0,0,0,2.906.007c.3-.176.478-.4.478-.6a.412.412,0,0,1,.412-.41h0a.412.412,0,0,1,.411.412L26.145,64.8a1.56,1.56,0,0,1-.888,1.313,3.759,3.759,0,0,1-1.856.452ZM21.467,47.724l-.018,17.063c0,.208.177.43.487.61a3.257,3.257,0,0,0,2.907.007c.3-.177.478-.4.478-.6l.019-17.061-.063.038a4.051,4.051,0,0,1-3.732-.006l-.078-.047Z" transform="translate(-20.626 -46.038)"/></g><g transform="translate(0.021)"><path d="M25.048,45.516a1.021,1.021,0,0,1,.011,1.93,3.654,3.654,0,0,1-3.32-.006,1.013,1.013,0,0,1-.011-1.918,3.654,3.654,0,0,1,3.319-.006Z" transform="translate(-20.635 -44.709)" fill="#fff"/><path d="M23.422,48.266a3.817,3.817,0,0,1-1.877-.458,1.415,1.415,0,0,1-.012-2.63,4.056,4.056,0,0,1,3.732-.007,1.588,1.588,0,0,1,.9,1.324,1.558,1.558,0,0,1-.888,1.318,3.753,3.753,0,0,1-1.855.452Zm-.015-2.722a2.983,2.983,0,0,0-1.46.345c-.3.177-.478.4-.478.6s.178.428.488.607a3.252,3.252,0,0,0,2.906.007c.3-.177.479-.4.479-.606s-.179-.434-.488-.613a2.974,2.974,0,0,0-1.447-.34Z" transform="translate(-20.646 -44.72)"/></g></g><g transform="translate(37.526 10.783)"><g transform="translate(0 1.355)"><path d="M45.688,34.857l-.02,18.337a1.169,1.169,0,0,1-.682.958,3.654,3.654,0,0,1-3.32-.006,1.174,1.174,0,0,1-.693-.966l.02-18.337a1.174,1.174,0,0,0,.693.966,3.654,3.654,0,0,0,3.32.006,1.169,1.169,0,0,0,.682-.958Z" transform="translate(-40.561 -34.432)" fill="#fff"/><path d="M43.348,54.972a3.817,3.817,0,0,1-1.877-.458,1.563,1.563,0,0,1-.9-1.323l.02-18.334v0a.412.412,0,0,1,.412-.41h0a.412.412,0,0,1,.411.412h0c0,.208.177.429.487.609a3.253,3.253,0,0,0,2.907.007c.3-.177.478-.4.478-.6a.412.412,0,0,1,.412-.41h0a.412.412,0,0,1,.411.412h0L46.09,53.207A1.559,1.559,0,0,1,45.2,54.52a3.757,3.757,0,0,1-1.856.452ZM41.414,36.131,41.4,53.193c0,.208.177.43.487.61a3.257,3.257,0,0,0,2.907.007c.3-.176.477-.4.477-.6l.02-17.061-.063.038a4.053,4.053,0,0,1-3.732-.006l-.077-.046Z" transform="translate(-40.572 -34.444)"/></g><g transform="translate(0.021)"><path d="M44.994,33.923a1.021,1.021,0,0,1,.011,1.93,3.654,3.654,0,0,1-3.32-.006,1.013,1.013,0,0,1-.011-1.918,3.654,3.654,0,0,1,3.319-.006Z" transform="translate(-40.581 -33.114)" fill="#fff"/><path d="M43.368,36.672a3.821,3.821,0,0,1-1.878-.458,1.415,1.415,0,0,1-.011-2.63,4.051,4.051,0,0,1,3.731-.007,1.424,1.424,0,0,1,.012,2.642,3.753,3.753,0,0,1-1.855.452Zm-.015-2.722a2.983,2.983,0,0,0-1.46.345c-.3.177-.478.4-.478.6s.178.428.487.607a3.253,3.253,0,0,0,2.907.007c.3-.177.478-.4.478-.606s-.178-.434-.488-.613A2.967,2.967,0,0,0,43.353,33.95Z" transform="translate(-40.593 -33.126)"/></g></g><g transform="translate(0 12.873)"><g transform="translate(0 1.355)"><path d="M9.194,36.889l-.02,18.337a1.169,1.169,0,0,1-.682.958,3.654,3.654,0,0,1-3.32-.006,1.174,1.174,0,0,1-.693-.966L4.5,36.876a1.174,1.174,0,0,0,.693.966,3.654,3.654,0,0,0,3.32.006,1.169,1.169,0,0,0,.682-.958Z" transform="translate(-4.067 -36.465)" fill="#fff"/><path d="M6.854,57a3.82,3.82,0,0,1-1.877-.458,1.562,1.562,0,0,1-.9-1.323L4.1,36.89v0a.412.412,0,0,1,.412-.41h0a.412.412,0,0,1,.411.412h0c0,.208.177.429.487.608a3.251,3.251,0,0,0,2.907.007c.3-.177.478-.4.478-.6a.412.412,0,0,1,.412-.41h0a.412.412,0,0,1,.411.412h0L9.6,55.238a1.559,1.559,0,0,1-.887,1.313A3.754,3.754,0,0,1,6.854,57ZM4.92,38.163,4.9,55.225c0,.208.177.43.487.61a3.251,3.251,0,0,0,2.907.007c.3-.176.477-.4.477-.6l.02-17.061-.063.038A4.053,4.053,0,0,1,5,38.209l-.077-.046Z" transform="translate(-4.078 -36.476)"/></g><g transform="translate(0.02)"><path d="M8.5,35.954a1.021,1.021,0,0,1,.011,1.93,3.654,3.654,0,0,1-3.32-.006,1.013,1.013,0,0,1-.011-1.918A3.654,3.654,0,0,1,8.5,35.954Z" transform="translate(-4.086 -35.147)" fill="#fff"/><path d="M6.874,38.7A3.821,3.821,0,0,1,5,38.246a1.415,1.415,0,0,1-.011-2.63,4.057,4.057,0,0,1,3.731-.007,1.424,1.424,0,0,1,.012,2.642,3.753,3.753,0,0,1-1.855.452Zm-.016-2.722a2.982,2.982,0,0,0-1.459.345c-.3.177-.479.4-.479.6s.179.428.488.607a3.253,3.253,0,0,0,2.907.007c.3-.177.478-.4.478-.606s-.178-.434-.488-.612h0a2.971,2.971,0,0,0-1.447-.34Z" transform="translate(-4.098 -35.158)"/></g></g><g transform="translate(56.068)"><g transform="translate(0 1.355)"><path d="M63.72,24.37,63.7,42.707a1.169,1.169,0,0,1-.682.958,3.654,3.654,0,0,1-3.32-.006A1.174,1.174,0,0,1,59,42.694l.02-18.337a1.174,1.174,0,0,0,.693.966,3.654,3.654,0,0,0,3.32.006,1.169,1.169,0,0,0,.682-.958Z" transform="translate(-58.593 -23.945)" fill="#fff"/><path d="M61.38,44.485a3.817,3.817,0,0,1-1.877-.457,1.562,1.562,0,0,1-.9-1.323l.02-18.334v0a.412.412,0,0,1,.412-.41h0a.412.412,0,0,1,.411.412h0c0,.207.177.429.488.609a3.252,3.252,0,0,0,2.906.007c.3-.176.478-.4.478-.6a.412.412,0,0,1,.412-.41h0a.412.412,0,0,1,.411.412l-.02,18.338a1.56,1.56,0,0,1-.888,1.313,3.754,3.754,0,0,1-1.856.452ZM59.446,25.643l-.018,17.063c0,.208.177.43.487.61a3.261,3.261,0,0,0,2.907.006c.3-.177.478-.4.478-.6l.019-17.061-.063.038a4.051,4.051,0,0,1-3.731-.006l-.078-.047Z" transform="translate(-58.604 -23.956)"/></g><g transform="translate(0.021)"><path d="M63.027,23.435a1.021,1.021,0,0,1,.011,1.93,3.654,3.654,0,0,1-3.32-.006,1.013,1.013,0,0,1-.011-1.918,3.654,3.654,0,0,1,3.319-.006Z" transform="translate(-58.614 -22.627)" fill="#fff"/><path d="M61.4,26.185a3.814,3.814,0,0,1-1.877-.458,1.415,1.415,0,0,1-.012-2.63,4.056,4.056,0,0,1,3.732-.007,1.588,1.588,0,0,1,.9,1.324,1.558,1.558,0,0,1-.888,1.318,3.756,3.756,0,0,1-1.855.452Zm-.015-2.722a2.983,2.983,0,0,0-1.46.345c-.3.177-.478.4-.478.6s.178.428.488.607a3.252,3.252,0,0,0,2.906.007c.3-.177.479-.4.479-.606s-.179-.434-.488-.613A2.974,2.974,0,0,0,61.385,23.462Z" transform="translate(-58.625 -22.639)"/></g></g></g><g transform="translate(0 12.404)"><path d="M67.464,21.507l-.01,5.361a1.835,1.835,0,0,1-1.063,1.478L26.35,51.624a5.68,5.68,0,0,1-5.141,0L3.4,41.341a1.826,1.826,0,0,1-1.073-1.508l.01-5.361A1.839,1.839,0,0,0,3.419,35.98l17.8,10.283a5.679,5.679,0,0,0,5.14,0L66.4,22.985a1.792,1.792,0,0,0,1.062-1.478Z" transform="translate(-1.914 -21.096)" fill="#ffd63c"/><path d="M23.795,52.665a5.675,5.675,0,0,1-2.779-.673L3.2,41.708a2.214,2.214,0,0,1-1.278-1.864l.011-5.362a.412.412,0,0,1,.823,0,1.475,1.475,0,0,0,.877,1.152l17.8,10.283a5.24,5.24,0,0,0,4.729,0L66.207,22.64a1.414,1.414,0,0,0,.858-1.119v0a.412.412,0,0,1,.823,0h0v0l-.01,5.357a2.229,2.229,0,0,1-1.269,1.833L26.568,51.991a5.637,5.637,0,0,1-2.774.674ZM2.756,36.026l-.007,3.819A1.444,1.444,0,0,0,3.616,41L21.427,51.28a5.243,5.243,0,0,0,4.729,0L66.2,28a1.452,1.452,0,0,0,.859-1.131l.008-3.817a3.489,3.489,0,0,1-.445.3L26.578,46.63a6.058,6.058,0,0,1-5.552,0L3.225,36.348a3.461,3.461,0,0,1-.469-.321Z" transform="translate(-1.926 -21.107)"/></g><g transform="translate(0 25.37)"><path d="M23.82,46.52a5.288,5.288,0,0,1-2.6-.613L3.419,35.624a1.839,1.839,0,0,1-1.083-1.508l-.01,5.361A1.826,1.826,0,0,0,3.4,40.985l17.81,10.283a5.3,5.3,0,0,0,2.611.613V46.52Z" transform="translate(-1.914 -33.704)" fill="#f4c531"/><path d="M23.8,52.3a5.661,5.661,0,0,1-2.781-.668L3.2,41.352a2.216,2.216,0,0,1-1.278-1.864l.011-5.362a.412.412,0,0,1,.823,0,1.475,1.475,0,0,0,.877,1.152l17.8,10.283a4.832,4.832,0,0,0,2.367.558h.028a.411.411,0,0,1,.412.411v5.361a.413.413,0,0,1-.447.411ZM2.756,35.67l-.007,3.819a1.445,1.445,0,0,0,.867,1.151L21.427,50.923a4.626,4.626,0,0,0,1.993.546V46.932a5.474,5.474,0,0,1-2.394-.657L3.225,35.991a3.461,3.461,0,0,1-.469-.321Z" transform="translate(-1.926 -33.716)"/></g><g transform="translate(0.012)"><path d="M66.392,20.348c1.428.824,1.429,2.156.01,2.981L26.361,46.6a5.647,5.647,0,0,1-5.139,0L3.416,36.321c-1.428-.825-1.442-2.156-.023-2.981L43.433,10.066a5.674,5.674,0,0,1,5.152,0Z" transform="translate(-1.926 -9.032)" fill="#fff"/><path d="M23.806,47.647a5.658,5.658,0,0,1-2.779-.676L3.222,36.688a2.217,2.217,0,0,1-1.284-1.855A2.188,2.188,0,0,1,3.2,33L43.238,9.722a6.048,6.048,0,0,1,5.564,0L66.609,20a2.207,2.207,0,0,1,1.277,1.847A2.2,2.2,0,0,1,66.62,23.7L26.579,46.97a5.618,5.618,0,0,1-2.773.677ZM46.017,9.865a4.813,4.813,0,0,0-2.365.567L3.611,33.706a1.42,1.42,0,0,0-.852,1.126,1.449,1.449,0,0,0,.874,1.144L21.439,46.258a5.215,5.215,0,0,0,4.726,0L66.206,22.985a1.433,1.433,0,0,0,.858-1.133,1.441,1.441,0,0,0-.867-1.137L48.39,10.433a4.854,4.854,0,0,0-2.374-.568Z" transform="translate(-1.938 -9.044)"/></g><g transform="translate(6.068 3.041)"><path d="M23.628,44.1a2.357,2.357,0,0,1-1.054-.211L8.983,36.042a1.513,1.513,0,0,1,0-2.618L44.793,12.607a2.287,2.287,0,0,1,1.047-.207,2.356,2.356,0,0,1,1.061.212l13.584,7.843a1.513,1.513,0,0,1,0,2.618L24.669,43.894a2.27,2.27,0,0,1-1.041.207Z" transform="translate(-7.816 -11.99)" fill="#fff"/><path d="M23.64,44.523a2.731,2.731,0,0,1-1.259-.266L8.788,36.41a1.924,1.924,0,0,1,0-3.329L44.6,12.263A2.651,2.651,0,0,1,45.851,12a2.731,2.731,0,0,1,1.268.267L60.7,20.111a1.924,1.924,0,0,1,.005,3.329L24.887,44.261a2.624,2.624,0,0,1-1.247.263Zm22.211-31.7a1.957,1.957,0,0,0-.838.15L9.2,33.791a1.1,1.1,0,0,0,0,1.906l13.591,7.848a2.02,2.02,0,0,0,.849.156,1.929,1.929,0,0,0,.831-.15L60.293,22.729a1.1,1.1,0,0,0,0-1.906L46.707,12.979a2.015,2.015,0,0,0-.856-.156Z" transform="translate(-7.827 -12.001)"/></g><g transform="translate(10.15 5.886)"><g transform="translate(27.939)"><path d="M56.279,25.357a.409.409,0,0,1-.206-.055l-16.9-9.767a.411.411,0,1,1,.412-.712l16.9,9.767a.411.411,0,0,1-.206.767Z" transform="translate(-38.968 -14.768)"/></g><g transform="translate(20.957 4.059)"><path d="M49.489,29.3a.409.409,0,0,1-.206-.055l-16.9-9.767a.411.411,0,1,1,.412-.712l16.9,9.767a.411.411,0,0,1-.206.767Z" transform="translate(-32.178 -18.715)"/></g><g transform="translate(13.965 8.127)"><path d="M42.7,33.251a.413.413,0,0,1-.206-.055L25.584,23.44A.412.412,0,0,1,26,22.727L42.9,32.484a.411.411,0,0,1-.206.768Z" transform="translate(-25.378 -22.672)"/></g><g transform="translate(6.982 12.186)"><path d="M35.908,37.2a.413.413,0,0,1-.206-.055L18.793,27.387a.412.412,0,0,1,.412-.713l16.909,9.757a.411.411,0,0,1-.206.768Z" transform="translate(-18.587 -26.619)"/></g><g transform="translate(0 16.245)"><path d="M29.118,41.145a.413.413,0,0,1-.206-.055L12,31.334a.412.412,0,0,1,.412-.713l16.909,9.757a.411.411,0,0,1-.206.768Z" transform="translate(-11.797 -30.566)"/></g></g></g><g transform="translate(30.394 1.999)"><g transform="translate(12.906 14.507)"><g transform="translate(1.528 0.212)"><path d="M43.713,16.313c-.02.008-.043.012-.064.019C43.67,16.325,43.692,16.321,43.713,16.313Z" transform="translate(-43.649 -16.313)" fill="#fff"/></g><g transform="translate(1.071 0.363)"><path d="M43.221,16.46l-.017,0Z" transform="translate(-43.204 -16.46)" fill="#fff"/></g><g transform="translate(1.088 0.231)"><path d="M43.661,16.332a3.908,3.908,0,0,1-.441.132A3.9,3.9,0,0,0,43.661,16.332Z" transform="translate(-43.221 -16.332)" fill="#fff"/></g><g transform="translate(0 0.366)"><path d="M42.163,16.576a4.774,4.774,0,0,0,1.071-.113A4.745,4.745,0,0,1,42.163,16.576Z" transform="translate(-42.163 -16.463)" fill="#fff"/></g><g transform="translate(1.592)"><path d="M44.163,16.107a3.134,3.134,0,0,1-.452.212A3.117,3.117,0,0,0,44.163,16.107Z" transform="translate(-43.711 -16.107)" fill="#fff"/></g></g><g transform="translate(0.411 0.414)"><path d="M30.85,8.522a1.232,1.232,0,0,0-.013,2.33l9.7,5.642a4.421,4.421,0,0,0,4.016,0l9.757-5.639a1.231,1.231,0,0,0,.016-2.329l-9.7-5.642a4.426,4.426,0,0,0-4.019,0Z" transform="translate(-30.012 -2.401)" fill="#fff"/></g><g transform="translate(0.411 5.196)"><path d="M30.837,10.721l9.7,5.642a4.434,4.434,0,0,0,4.017,0l9.758-5.642A1.229,1.229,0,0,0,54.325,8.4L52.01,7.052c-.443,3.873-4.7,6.907-9.892,6.907-4.963,0-9.084-2.778-9.827-6.4l-1.442.835a1.232,1.232,0,0,0-.013,2.33Z" transform="translate(-30.011 -7.052)" fill="#e9edf4"/></g><g transform="translate(0.411 7.709)"><path d="M30.836,10.652l9.7,5.642a4.058,4.058,0,0,0,1.973.479V29.738a4.791,4.791,0,0,0,1.083-.109,4.426,4.426,0,0,1-3.021-.368l-9.7-5.642a1.409,1.409,0,0,1-.825-1.156L30.011,9.5a1.418,1.418,0,0,0,.825,1.156Z" transform="translate(-30.011 -9.495)" fill="#ffd63c"/></g><g transform="translate(12.905 27.95)"><path d="M42.174,29.18h0Z" transform="translate(-42.161 -29.18)" fill="#e9edf4"/></g><g transform="translate(12.917 27.924)"><path d="M42.738,29.155a4.21,4.21,0,0,1-.565.026A4.908,4.908,0,0,0,42.738,29.155Z" transform="translate(-42.173 -29.155)" fill="#e9edf4"/></g><g transform="translate(0.411 7.711)"><path d="M30.012,9.5l.035,12.967a1.409,1.409,0,0,0,.825,1.156l9.7,5.642a4.02,4.02,0,0,0,1.937.473V26.372c-.261.022-.525.03-.795.03A10.348,10.348,0,0,1,31.288,16.135a10.1,10.1,0,0,1,1.094-4.582l-1.546-.9A1.418,1.418,0,0,1,30.012,9.5Z" transform="translate(-30.012 -9.497)" fill="#f4c531"/></g><g transform="translate(12.906 7.7)"><path d="M42.163,16.773a4.745,4.745,0,0,0,1.071-.113l.017,0a3.908,3.908,0,0,0,.441-.132c.021-.007.043-.012.064-.019a3.133,3.133,0,0,0,.452-.212l9.758-5.642A1.418,1.418,0,0,0,54.8,9.487l.035,12.958A1.412,1.412,0,0,1,54,23.619l-9.758,5.638a3.1,3.1,0,0,1-.458.215c-.022.008-.047.013-.07.021a3.9,3.9,0,0,1-.443.132l-.024,0a4.791,4.791,0,0,1-1.083.109V16.773Z" transform="translate(-42.163 -9.487)" fill="#fff"/></g><g transform="translate(12.905 7.7)"><path d="M42.161,25.927V29.74a4.976,4.976,0,0,0,1.086-.109.047.047,0,0,1,.022,0,3.564,3.564,0,0,0,.447-.135c.022-.009.043-.013.07-.022a3.129,3.129,0,0,0,.456-.213L54,23.619a1.412,1.412,0,0,0,.838-1.174L54.8,9.487a1.418,1.418,0,0,1-.838,1.165l-2,1.152a7.6,7.6,0,0,1,2,5.073c0,4.621-4.364,9.237-9.758,9.237a11.293,11.293,0,0,1-2.045-.187Z" transform="translate(-42.161 -9.487)" fill="#e9edf4"/></g><g transform="translate(4.499 2.772)"><path d="M33.986,6.581l13.7,7.972,3.261-1.887-13.7-7.972Z" transform="translate(-33.986 -4.694)" fill="#ffd63c"/></g><g transform="translate(12.495 14.097)"><g transform="translate(1.541 0.229)"><path d="M43.686,16.746a.42.42,0,0,1-.4-.283.441.441,0,0,1-.021-.133.389.389,0,0,1,.259-.373.442.442,0,0,1,.557.236.493.493,0,0,1,.029.163.364.364,0,0,1-.239.354l-.068.022A.435.435,0,0,1,43.686,16.746Z" transform="translate(-43.262 -15.931)"/></g><g transform="translate(1.044 0.369)"><path d="M43.165,16.9a.393.393,0,0,1-.371-.3.349.349,0,0,1-.016-.105.451.451,0,0,1,.319-.413.427.427,0,0,1,.517.3.455.455,0,0,1,.013.109.389.389,0,0,1-.3.386l-.055.01A.385.385,0,0,1,43.165,16.9Z" transform="translate(-42.778 -16.067)"/></g><g transform="translate(1.088 0.23)"><path d="M43.232,16.886a.411.411,0,0,1-.4-.319.423.423,0,0,1-.011-.093.412.412,0,0,1,.319-.4,3.55,3.55,0,0,0,.394-.118.409.409,0,0,1,.526.249.42.42,0,0,1,.024.139.412.412,0,0,1-.273.387,4.231,4.231,0,0,1-.486.145A.392.392,0,0,1,43.232,16.886Z" transform="translate(-42.82 -15.931)"/></g><g transform="translate(0 0.364)"><path d="M42.2,17h-.03a.412.412,0,0,1-.41-.411v0a.412.412,0,0,1,.412-.409h.005a5.328,5.328,0,0,0,.974-.1h0a.411.411,0,0,1,.182.8A5.128,5.128,0,0,1,42.2,17Z" transform="translate(-41.763 -16.062)"/></g><g transform="translate(1.592)"><path d="M43.722,16.741a.412.412,0,0,1-.385-.266.409.409,0,0,1,.239-.53,2.815,2.815,0,0,0,.393-.183.411.411,0,1,1,.41.713,3.41,3.41,0,0,1-.511.239A.414.414,0,0,1,43.722,16.741Z" transform="translate(-43.311 -15.708)"/></g></g><g transform="translate(0.001)"><path d="M42.55,17.4a4.478,4.478,0,0,1-2.21-.539l-9.7-5.642A1.8,1.8,0,0,1,29.612,9.7a1.809,1.809,0,0,1,1.043-1.525l9.757-5.639a4.813,4.813,0,0,1,4.431,0l9.7,5.642A1.8,1.8,0,0,1,55.57,9.7a1.816,1.816,0,0,1-1.045,1.525L44.768,16.86a4.507,4.507,0,0,1-2.218.54ZM31.067,8.89a1.06,1.06,0,0,0-.633.814,1.044,1.044,0,0,0,.621.8l9.7,5.642a4.036,4.036,0,0,0,3.6,0l9.757-5.639a1.064,1.064,0,0,0,.635-.815,1.044,1.044,0,0,0-.62-.8L44.43,3.25a4.037,4.037,0,0,0-3.606,0Z" transform="translate(-29.612 -1.999)"/></g><g transform="translate(0 7.298)"><path d="M42.565,30.164a4.433,4.433,0,0,1-2.192-.536l-9.7-5.642a1.8,1.8,0,0,1-1.03-1.512L29.611,9.512v0h0a.411.411,0,0,1,.411-.411h0a.412.412,0,0,1,.412.41v0a1.054,1.054,0,0,0,.622.8l9.7,5.641a3.64,3.64,0,0,0,1.769.423.412.412,0,0,1,.409.411v12.54a4.254,4.254,0,0,0,.58-.086h0a.411.411,0,0,1,.178.8h-.005a5.2,5.2,0,0,1-1.12.122ZM30.438,10.889l.031,11.584a1.045,1.045,0,0,0,.621.8l9.7,5.642a3.366,3.366,0,0,0,1.319.4V17.178a4.269,4.269,0,0,1-1.768-.516l-9.7-5.643h0c-.07-.041-.137-.084-.2-.129Z" transform="translate(-29.611 -9.096)"/></g><g transform="translate(12.495 7.289)"><path d="M42.241,30.161h-.072a.411.411,0,0,1-.406-.411V16.785a.411.411,0,0,1,.412-.411h0a4.317,4.317,0,0,0,.977-.1,3.382,3.382,0,0,0,.41-.121,2.688,2.688,0,0,0,.45-.2l9.757-5.642A1.048,1.048,0,0,0,54.4,9.5a.411.411,0,0,1,.411-.411h0a.412.412,0,0,1,.412.41l.034,12.959a1.815,1.815,0,0,1-1.044,1.531l-9.757,5.637a3.47,3.47,0,0,1-.519.244,5.509,5.509,0,0,1-.566.169,5.293,5.293,0,0,1-1.133.124Zm.345-12.978V29.325a4.252,4.252,0,0,0,.582-.086,3.283,3.283,0,0,0,.419-.122,2.631,2.631,0,0,0,.46-.2L53.8,23.274c.406-.233.636-.529.632-.812l-.03-11.585c-.071.05-.148.1-.227.144l-9.756,5.641a3.42,3.42,0,0,1-.512.24,5.344,5.344,0,0,1-.557.167,5.2,5.2,0,0,1-.768.113Z" transform="translate(-41.763 -9.087)"/></g><g transform="translate(4.087 2.36)"><path d="M47.7,14.975a.413.413,0,0,1-.207-.056l-13.7-7.972a.411.411,0,0,1,0-.711l3.266-1.887a.41.41,0,0,1,.413,0l13.7,7.973a.411.411,0,0,1,0,.711L47.9,14.92a.406.406,0,0,1-.206.055ZM34.818,6.593l12.881,7.5,2.44-1.412-12.877-7.5Z" transform="translate(-33.586 -4.294)"/></g><g transform="translate(17.787 10.332)"><g transform="translate(0.411 0.411)"><path d="M47.309,14.333l.029,4.629a.529.529,0,0,0,.793.455L50.069,18.3a1.064,1.064,0,0,0,.532-.929l-.031-4.923Z" transform="translate(-47.309 -12.446)" fill="#fff"/></g><path d="M47.878,19.912a.944.944,0,0,1-.94-.937l-.029-4.628a.412.412,0,0,1,.206-.358L50.376,12.1a.411.411,0,0,1,.618.353l.031,4.923a1.481,1.481,0,0,1-.738,1.287l-1.938,1.119a.94.94,0,0,1-.47.128Zm-.145-5.331.028,4.39a.117.117,0,0,0,.176.1l1.937-1.118a.654.654,0,0,0,.326-.571l-.026-4.214Z" transform="translate(-46.909 -12.046)"/></g></g><g transform="translate(12.561 12.364)"><g transform="translate(12.907 14.507)"><g transform="translate(1.528 0.212)"><path d="M26.37,26.393c-.02.008-.043.012-.064.019C26.327,26.405,26.35,26.4,26.37,26.393Z" transform="translate(-26.307 -26.393)" fill="#fff"/></g><g transform="translate(1.071 0.363)"><path d="M25.879,26.54l-.017,0Z" transform="translate(-25.862 -26.54)" fill="#fff"/></g><g transform="translate(1.088 0.231)"><path d="M26.319,26.412a3.908,3.908,0,0,1-.441.132A3.9,3.9,0,0,0,26.319,26.412Z" transform="translate(-25.878 -26.412)" fill="#fff"/></g><g transform="translate(0 0.366)"><path d="M24.82,26.656a4.774,4.774,0,0,0,1.071-.113A4.745,4.745,0,0,1,24.82,26.656Z" transform="translate(-24.82 -26.543)" fill="#fff"/></g><g transform="translate(1.592)"><path d="M26.821,26.187a3.133,3.133,0,0,1-.452.212A3.116,3.116,0,0,0,26.821,26.187Z" transform="translate(-26.369 -26.187)" fill="#fff"/></g></g><g transform="translate(0.412 0.414)"><path d="M13.508,18.6a1.232,1.232,0,0,0-.013,2.33l9.7,5.642a4.421,4.421,0,0,0,4.016,0l9.757-5.639a1.231,1.231,0,0,0,.016-2.329l-9.7-5.642a4.426,4.426,0,0,0-4.019,0Z" transform="translate(-12.669 -12.481)" fill="#fff"/></g><g transform="translate(0.411 5.196)"><path d="M13.494,20.8l9.7,5.642a4.434,4.434,0,0,0,4.017,0L36.966,20.8a1.229,1.229,0,0,0,.017-2.326l-2.315-1.343c-.443,3.873-4.7,6.907-9.892,6.907-4.963,0-9.084-2.778-9.827-6.4l-1.442.835a1.232,1.232,0,0,0-.013,2.33Z" transform="translate(-12.669 -17.132)" fill="#e9edf4"/></g><g transform="translate(0.412 7.709)"><path d="M13.494,20.732l9.7,5.642a4.058,4.058,0,0,0,1.973.479V39.818a4.791,4.791,0,0,0,1.083-.109,4.426,4.426,0,0,1-3.021-.368l-9.7-5.642a1.409,1.409,0,0,1-.825-1.156l-.035-12.967a1.418,1.418,0,0,0,.825,1.156Z" transform="translate(-12.669 -19.576)" fill="#ffd63c"/></g><g transform="translate(12.905 27.95)"><path d="M24.831,39.26h0Z" transform="translate(-24.819 -39.26)" fill="#e9edf4"/></g><g transform="translate(12.918 27.924)"><path d="M25.4,39.235a4.21,4.21,0,0,1-.565.026A4.908,4.908,0,0,0,25.4,39.235Z" transform="translate(-24.831 -39.235)" fill="#e9edf4"/></g><g transform="translate(0.412 7.711)"><path d="M12.669,19.577,12.7,32.544a1.409,1.409,0,0,0,.825,1.156l9.7,5.642a4.02,4.02,0,0,0,1.937.473V36.452c-.261.022-.525.03-.795.03A10.348,10.348,0,0,1,13.946,26.215a10.1,10.1,0,0,1,1.094-4.582l-1.546-.9a1.418,1.418,0,0,1-.825-1.156Z" transform="translate(-12.669 -19.577)" fill="#f4c531"/></g><g transform="translate(12.907 7.7)"><path d="M24.82,26.854a4.745,4.745,0,0,0,1.071-.113l.017,0a3.908,3.908,0,0,0,.441-.132c.021-.007.043-.012.064-.019a3.133,3.133,0,0,0,.452-.212l9.758-5.642a1.418,1.418,0,0,0,.838-1.165l.035,12.958a1.412,1.412,0,0,1-.838,1.174L26.9,39.337a3.1,3.1,0,0,1-.458.215c-.022.008-.047.013-.07.021a3.906,3.906,0,0,1-.443.132l-.024,0a4.791,4.791,0,0,1-1.083.109V26.854Z" transform="translate(-24.82 -19.567)" fill="#fff"/></g><g transform="translate(12.905 7.7)"><path d="M24.819,36.007V39.82a4.975,4.975,0,0,0,1.086-.109.047.047,0,0,1,.022,0,3.563,3.563,0,0,0,.447-.135c.022-.009.043-.013.07-.022a3.13,3.13,0,0,0,.456-.213L36.657,33.7a1.412,1.412,0,0,0,.838-1.174L37.46,19.567a1.418,1.418,0,0,1-.838,1.165l-2,1.152a7.6,7.6,0,0,1,2,5.073c0,4.621-4.364,9.237-9.758,9.237a11.293,11.293,0,0,1-2.045-.187Z" transform="translate(-24.819 -19.567)" fill="#e9edf4"/></g><g transform="translate(4.499 2.772)"><path d="M16.644,16.661l13.7,7.972,3.261-1.887-13.7-7.972Z" transform="translate(-16.644 -14.774)" fill="#ffd63c"/></g><g transform="translate(12.495 14.096)"><g transform="translate(1.542 0.23)"><path d="M26.343,26.826a.42.42,0,0,1-.4-.284.4.4,0,0,1,.208-.494h.018l.007,0h0l0,0a.429.429,0,0,1,.089-.022.436.436,0,0,1,.465.252.012.012,0,0,1,0,.006.385.385,0,0,1-.2.514s0,0-.008,0l-.028.01-.041.013A.415.415,0,0,1,26.343,26.826Z" transform="translate(-25.919 -26.012)"/></g><g transform="translate(1.052 0.361)"><path d="M25.838,26.973a.4.4,0,0,1-.383-.315.36.36,0,0,1-.012-.091.437.437,0,0,1,.33-.411.412.412,0,0,1,.511.277.394.394,0,0,1,.017.117.413.413,0,0,1-.293.4.526.526,0,0,1-.074.015A.379.379,0,0,1,25.838,26.973Z" transform="translate(-25.443 -26.138)"/></g><g transform="translate(1.088 0.23)"><path d="M25.889,26.966a.411.411,0,0,1-.092-.812,3.567,3.567,0,0,0,.395-.118.41.41,0,0,1,.526.249.42.42,0,0,1,.024.139.412.412,0,0,1-.273.387,4.266,4.266,0,0,1-.488.146A.411.411,0,0,1,25.889,26.966Z" transform="translate(-25.478 -26.011)"/></g><g transform="translate(0 0.364)"><path d="M24.86,27.079h-.03a.412.412,0,0,1-.41-.411v0a.427.427,0,0,1,.414-.409h.026a4.329,4.329,0,0,0,.951-.1h0a.411.411,0,0,1,.182.8A5.128,5.128,0,0,1,24.86,27.079Z" transform="translate(-24.42 -26.142)"/></g><g transform="translate(1.592)"><path d="M26.38,26.821a.412.412,0,0,1-.386-.267.434.434,0,0,1-.026-.145.413.413,0,0,1,.267-.385,2.657,2.657,0,0,0,.393-.183.411.411,0,1,1,.41.713,3.485,3.485,0,0,1-.513.24A.408.408,0,0,1,26.38,26.821Z" transform="translate(-25.968 -25.788)"/></g></g><g transform="translate(0.001)"><path d="M25.207,27.481A4.475,4.475,0,0,1,23,26.941L13.3,21.3a1.8,1.8,0,0,1-1.029-1.517,1.809,1.809,0,0,1,1.043-1.525l9.757-5.639a4.813,4.813,0,0,1,4.431,0l9.7,5.642a1.8,1.8,0,0,1,1.028,1.515A1.812,1.812,0,0,1,37.183,21.3L27.427,26.94a4.513,4.513,0,0,1-2.219.54ZM13.725,18.97a1.06,1.06,0,0,0-.633.814,1.044,1.044,0,0,0,.621.8l9.7,5.642a4.035,4.035,0,0,0,3.6,0l9.757-5.639a1.061,1.061,0,0,0,.634-.814,1.04,1.04,0,0,0-.62-.8l-9.7-5.642a4.042,4.042,0,0,0-3.606,0Z" transform="translate(-12.27 -12.079)"/></g><g transform="translate(0 7.298)"><path d="M25.224,40.244a4.438,4.438,0,0,1-2.194-.536l-9.7-5.642a1.8,1.8,0,0,1-1.03-1.512l-.035-12.961v0h0a.411.411,0,0,1,.411-.411h0a.412.412,0,0,1,.412.41v0a1.057,1.057,0,0,0,.623.8l9.7,5.641a3.633,3.633,0,0,0,1.768.423.412.412,0,0,1,.409.411V39.4a4.322,4.322,0,0,0,.583-.086.411.411,0,0,1,.178.8,5.208,5.208,0,0,1-1.124.122ZM13.1,20.968l.032,11.585c0,.284.22.569.621.8L23.444,39a3.366,3.366,0,0,0,1.319.4V27.258A4.252,4.252,0,0,1,23,26.741L13.3,21.1h0q-.105-.063-.2-.13Z" transform="translate(-12.269 -19.176)"/></g><g transform="translate(12.495 7.289)"><path d="M24.892,40.241h-.065a.411.411,0,0,1-.407-.411V26.865a.411.411,0,0,1,.412-.411h0a4.328,4.328,0,0,0,.977-.1,3.4,3.4,0,0,0,.411-.121,2.615,2.615,0,0,0,.45-.2l9.757-5.642a1.046,1.046,0,0,0,.632-.809.411.411,0,0,1,.411-.411h0a.412.412,0,0,1,.412.41l.035,12.958a1.82,1.82,0,0,1-1.045,1.531L27.116,39.7a3.459,3.459,0,0,1-.518.244,5.475,5.475,0,0,1-.568.169,5.308,5.308,0,0,1-1.138.124Zm.351-12.979V39.4a4.321,4.321,0,0,0,.583-.086,3.47,3.47,0,0,0,.42-.122,2.642,2.642,0,0,0,.458-.2l9.758-5.638c.406-.232.636-.529.633-.813l-.031-11.584q-.107.075-.226.143l-9.756,5.641a3.5,3.5,0,0,1-.514.24,5.3,5.3,0,0,1-.556.167,5.2,5.2,0,0,1-.768.113Z" transform="translate(-24.42 -19.167)"/></g><g transform="translate(4.088 2.36)"><path d="M30.356,25.056A.413.413,0,0,1,30.149,25l-13.7-7.973a.411.411,0,0,1,0-.711l3.266-1.886a.41.41,0,0,1,.413,0l13.7,7.972a.411.411,0,0,1,0,.711L30.562,25a.411.411,0,0,1-.206.055ZM17.476,16.673l12.881,7.5L32.8,22.757l-12.877-7.5Z" transform="translate(-16.244 -14.374)"/></g><g transform="translate(17.787 10.331)"><g transform="translate(0.412 0.412)"><path d="M29.967,24.413,30,29.042a.529.529,0,0,0,.793.455l1.938-1.119a1.064,1.064,0,0,0,.532-.929l-.031-4.923Z" transform="translate(-29.967 -22.526)" fill="#fff"/></g><path d="M30.536,29.992a.944.944,0,0,1-.941-.936l-.029-4.629a.412.412,0,0,1,.206-.358l3.262-1.887a.411.411,0,0,1,.618.353l.031,4.923a1.481,1.481,0,0,1-.738,1.287l-1.938,1.119A.934.934,0,0,1,30.536,29.992Zm-.146-5.331.028,4.389a.114.114,0,0,0,.059.1.109.109,0,0,0,.116,0l1.938-1.118a.654.654,0,0,0,.326-.571l-.026-4.214Z" transform="translate(-29.566 -22.126)"/></g></g></g></svg>