<svg xmlns="http://www.w3.org/2000/svg" width="116" height="116" viewBox="0 0 116 116"><g transform="translate(-741.757 -978)"><g transform="translate(436.645 -2645.355)"><circle cx="58" cy="58" r="58" transform="translate(305.112 3623.355)" fill="#fff" opacity="0.45"/><circle cx="47" cy="47" r="47" transform="translate(316.112 3634.355)" fill="#fff"/></g><g transform="translate(767.89 999.696)"><g transform="translate(1.5 2.79)"><g transform="translate(0 15.575)"><path d="M1.75,17.07v31L28.541,63.641v-31Z" transform="translate(-1.473 -16.804)" fill="#f5ab00"/><path d="M28.568,63.944a.3.3,0,0,1-.133-.033L1.633,48.325a.27.27,0,0,1-.133-.233v-31a.27.27,0,0,1,.133-.233.283.283,0,0,1,.266,0L28.713,32.439a.249.249,0,0,1,.133.233v31a.27.27,0,0,1-.133.233.223.223,0,0,1-.144.044ZM2.044,47.936,28.3,63.2V32.827L2.044,17.573Z" transform="translate(-1.5 -16.83)" fill="#111925"/></g><g transform="translate(26.802 15.575)"><path d="M52.7,17.07v31L25.9,63.641v-31Z" transform="translate(-25.634 -16.804)" fill="#f8d555"/><path d="M25.926,63.944a.3.3,0,0,1-.133-.033.249.249,0,0,1-.133-.233V32.672a.27.27,0,0,1,.133-.233L52.6,16.863a.283.283,0,0,1,.266,0,.27.27,0,0,1,.133.233v31a.27.27,0,0,1-.133.233L26.07,63.9a.223.223,0,0,1-.144.044ZM26.2,32.827V63.19L52.462,47.925V17.573Z" transform="translate(-25.66 -16.83)" fill="#111925"/></g><path d="M55.343,18.6,28.541,3.04,1.75,18.6,28.541,34.18Z" transform="translate(-1.473 -2.763)" fill="#fff"/><path d="M28.568,34.484a.3.3,0,0,1-.133-.033L1.633,18.876a.249.249,0,0,1-.133-.233.27.27,0,0,1,.133-.233l26.8-15.586a.306.306,0,0,1,.277,0L55.515,18.4a.249.249,0,0,1,.133.233.27.27,0,0,1-.133.233L28.713,34.44A.223.223,0,0,1,28.568,34.484ZM2.31,18.632,28.568,33.9,54.827,18.632,28.568,3.378Z" transform="translate(-1.5 -2.79)" fill="#111925"/><g transform="translate(10.461 6.09)"><path d="M43.851,24.084,17.06,8.52l-5.88,3.417L37.971,27.5Z" transform="translate(-10.903 -8.254)" fill="#ff977f"/><path d="M38,27.8a.3.3,0,0,1-.133-.033L11.063,12.2a.249.249,0,0,1-.133-.233.27.27,0,0,1,.133-.233l5.88-3.417a.306.306,0,0,1,.277,0l26.8,15.575a.249.249,0,0,1,.133.233.27.27,0,0,1-.133.233l-5.88,3.417A.307.307,0,0,1,38,27.8ZM11.74,11.963,38,27.228l5.336-3.106L17.076,8.857Z" transform="translate(-10.93 -8.28)" fill="#111925"/></g><g transform="translate(37.252 21.666)"><path d="M41.21,22.55v9.884L38.447,31,35.33,35.851V25.967Z" transform="translate(-35.053 -22.295)" fill="#ff977f"/><path d="M35.357,36.154a.189.189,0,0,1-.078-.011.284.284,0,0,1-.2-.255V26a.27.27,0,0,1,.133-.233l5.88-3.417a.283.283,0,0,1,.266,0,.249.249,0,0,1,.133.233v9.884a.261.261,0,0,1-.133.233.282.282,0,0,1-.266.011l-2.552-1.32-2.973,4.648A.238.238,0,0,1,35.357,36.154Zm.277-10v8.808L38.242,30.9a.267.267,0,0,1,.355-.089l2.374,1.231V23.074Z" transform="translate(-35.08 -22.32)" fill="#111925"/></g><g transform="translate(29.409 44.452)"><path d="M33.2,43.09l.011,3.572a5.438,5.438,0,0,1-2.463,4.271c-1.365.788-2.474.155-2.485-1.409l-.011-3.572Z" transform="translate(-27.984 -42.835)" fill="#fff"/><path d="M29.663,51.568a1.557,1.557,0,0,1-.777-.2,2,2,0,0,1-.865-1.819l-.011-3.572a.27.27,0,0,1,.133-.233l4.948-2.851a.283.283,0,0,1,.266,0,.249.249,0,0,1,.133.233L33.5,46.7a5.769,5.769,0,0,1-2.6,4.5,2.681,2.681,0,0,1-1.242.366Zm-1.109-5.447.011,3.417a1.466,1.466,0,0,0,.588,1.353,1.5,1.5,0,0,0,1.487-.177,5.153,5.153,0,0,0,2.33-4.038l-.011-3.106Z" transform="translate(-28.01 -42.86)" fill="#111925"/><g transform="translate(2.496 7.832)"><path d="M30.526,53.792a.27.27,0,0,1-.266-.266V50.186a.266.266,0,0,1,.532,0v3.339A.27.27,0,0,1,30.526,53.792Z" transform="translate(-30.26 -49.92)" fill="#111925"/></g><g transform="translate(0.905 9.957)"><path d="M29.07,54.21l3.683-2.13" transform="translate(-28.799 -51.809)" fill="#fff"/><path d="M29.1,54.5a.267.267,0,0,1-.133-.5l3.683-2.13a.268.268,0,0,1,.266.466L29.23,54.47a.3.3,0,0,1-.133.033Z" transform="translate(-28.826 -51.836)" fill="#111925"/></g></g></g><g transform="translate(45.286 33.126)"><g transform="translate(18.244 3.203)"><g transform="translate(0.282 0.286)"><path d="M64.7,35.232l-3.262-1.886a.607.607,0,0,0-.555,0,3.612,3.612,0,0,1-3.217-.011l3.262,1.886a3.61,3.61,0,0,0,3.217.011A.607.607,0,0,1,64.7,35.232Z" transform="translate(-57.67 -33.28)" fill="#9adbfb"/></g><path d="M62.446,35.9a3.217,3.217,0,0,1-1.631-.422L57.565,33.6a.011.011,0,0,1-.011-.011.268.268,0,0,1,.266-.466h.011a3.319,3.319,0,0,0,2.973-.011.912.912,0,0,1,.8.011l3.262,1.886a.268.268,0,0,1-.266.466.373.373,0,0,0-.322.022,4.577,4.577,0,0,1-1.83.41Zm-3.1-1.9,1.731,1a3.208,3.208,0,0,0,2.8.067L61.325,33.6a.373.373,0,0,0-.322.022A4.644,4.644,0,0,1,59.351,34.007Z" transform="translate(-57.416 -33.022)" fill="#111925"/></g><g transform="translate(0.288 0.259)"><path d="M60.866,32.334a.607.607,0,0,0-.643.067l-9.241,5.325a1.772,1.772,0,0,0-.544.532,2.264,2.264,0,0,0-.366.921,11.969,11.969,0,0,1-1.4,4.249A12.649,12.649,0,0,1,45.3,47.454a2.054,2.054,0,0,0-.621.777,1.715,1.715,0,0,0-.189.743l.011,3.594a16.837,16.837,0,0,0,2.773,9.962,8.981,8.981,0,0,0,2.685,2.33l-3.262-1.9a8.575,8.575,0,0,1-2.685-2.33,16.855,16.855,0,0,1-2.773-9.951l-.011-3.594a1.678,1.678,0,0,1,.189-.743,2.24,2.24,0,0,1,.621-.777,12.464,12.464,0,0,0,3.384-4.038,11.969,11.969,0,0,0,1.4-4.249,1.991,1.991,0,0,1,.366-.921,1.771,1.771,0,0,1,.544-.532l9.241-5.336a.659.659,0,0,1,.643-.067Z" transform="translate(-41.23 -30.369)" fill="#9adbfb"/></g><path d="M49.978,65.163a.3.3,0,0,1-.133-.033l-3.262-1.9a8.994,8.994,0,0,1-2.773-2.407,17.22,17.22,0,0,1-2.829-10.106l-.011-3.594a2,2,0,0,1,.222-.865,2.427,2.427,0,0,1,.71-.876,12.176,12.176,0,0,0,3.306-3.949,11.547,11.547,0,0,0,1.365-4.149,2.392,2.392,0,0,1,.41-1.043,2.023,2.023,0,0,1,.621-.61L56.845,30.3a.906.906,0,0,1,.91-.067l3.262,1.886h.011a.273.273,0,0,1,.1.366.263.263,0,0,1-.366.1.4.4,0,0,0-.366.067l-9.241,5.336a1.325,1.325,0,0,0-.455.444,1.869,1.869,0,0,0-.322.8,12.293,12.293,0,0,1-1.431,4.349,12.956,12.956,0,0,1-3.45,4.116,1.836,1.836,0,0,0-.544.677,1.454,1.454,0,0,0-.166.632l.011,3.594a16.627,16.627,0,0,0,2.718,9.8,8.62,8.62,0,0,0,2.607,2.263.263.263,0,0,1,.1.366.279.279,0,0,1-.244.144ZM57.4,30.684a.616.616,0,0,0-.277.089L47.881,36.1a1.429,1.429,0,0,0-.455.444,1.869,1.869,0,0,0-.322.8,12.082,12.082,0,0,1-1.431,4.349,12.632,12.632,0,0,1-3.461,4.127,1.857,1.857,0,0,0-.544.677,1.411,1.411,0,0,0-.166.621l.011,3.594a16.627,16.627,0,0,0,2.718,9.8,8.221,8.221,0,0,0,2.607,2.263l.466.266a3.5,3.5,0,0,1-.244-.322,17.119,17.119,0,0,1-2.818-10.117L44.231,49a1.965,1.965,0,0,1,.222-.865,2.5,2.5,0,0,1,.71-.876,12.221,12.221,0,0,0,3.295-3.938,11.522,11.522,0,0,0,1.365-4.16,2.446,2.446,0,0,1,.41-1.043,2.051,2.051,0,0,1,.632-.61l9.219-5.3-2.6-1.5a.209.209,0,0,0-.089-.022Z" transform="translate(-40.97 -30.135)" fill="#111925"/><g transform="translate(3.273 1.885)"><path d="M50.661,37.539a2.062,2.062,0,0,0-.91,1.453,11.969,11.969,0,0,1-1.4,4.249,12.693,12.693,0,0,1-3.372,4.038,2.064,2.064,0,0,0-.821,1.52l.011,3.594c.011,4.127,1,7.533,2.773,9.951,1.664,2.285,4.87,3.683,7.876,3.994a.925.925,0,0,0,.555-.144,2.008,2.008,0,0,0,.544-.488A56.219,56.219,0,0,0,63.74,52.648a36.216,36.216,0,0,0,2.707-13.124l-.011-3.594c0-.544-.355-.765-.821-.577a3.541,3.541,0,0,1-3.395-.122A3.656,3.656,0,0,1,60.8,32.6c-.067-.488-.444-.677-.91-.41Z" transform="translate(-43.894 -31.809)" fill="#fff"/><path d="M54.914,66.641h-.089a11.612,11.612,0,0,1-8.065-4.094A17.2,17.2,0,0,1,43.931,52.43l-.011-3.594a2.341,2.341,0,0,1,.921-1.742,12.176,12.176,0,0,0,3.306-3.949,11.67,11.67,0,0,0,1.365-4.16,2.324,2.324,0,0,1,1.043-1.653L59.795,32a.915.915,0,0,1,.865-.089.859.859,0,0,1,.444.688,3.435,3.435,0,0,0,1.309,2.441,3.272,3.272,0,0,0,3.128.1.873.873,0,0,1,.832.033.93.93,0,0,1,.366.788l.011,3.594a36.575,36.575,0,0,1-2.729,13.224A56.332,56.332,0,0,1,56.156,65.9a2.407,2.407,0,0,1-.621.555,1.255,1.255,0,0,1-.621.189ZM50.82,37.809a1.8,1.8,0,0,0-.777,1.254,12.293,12.293,0,0,1-1.431,4.349,12.814,12.814,0,0,1-3.45,4.116,1.837,1.837,0,0,0-.71,1.3l.011,3.594a16.627,16.627,0,0,0,2.718,9.8c1.487,2.03,4.5,3.55,7.688,3.883a.654.654,0,0,0,.388-.111,1.864,1.864,0,0,0,.477-.422,55.921,55.921,0,0,0,7.788-12.979,35.846,35.846,0,0,0,2.685-13.024L66.2,35.967a.375.375,0,0,0-.122-.333.389.389,0,0,0-.333.011,3.78,3.78,0,0,1-3.65-.155,3.923,3.923,0,0,1-1.531-2.807c-.011-.078-.044-.233-.144-.277a.412.412,0,0,0-.355.067Z" transform="translate(-43.92 -31.835)" fill="#111925"/></g><g transform="translate(5.214 4.42)"><path d="M54.33,64.089a54.88,54.88,0,0,0,7.422-12.4,34.249,34.249,0,0,0,2.574-12.4v-1.9a5.622,5.622,0,0,1-.61.033,4.891,4.891,0,0,1-2.773-.832,4.949,4.949,0,0,1-1.719-2.108l-7.7,4.437-.033.067a13.8,13.8,0,0,1-1.62,4.937,14.435,14.435,0,0,1-3.927,4.67.242.242,0,0,0-.033.055l.011,3.494a15.053,15.053,0,0,0,2.4,8.819A9.415,9.415,0,0,0,54.33,64.089Z" transform="translate(-45.644 -34.081)" fill="#98d8fb"/><path d="M54.467,64.417l-.155-.022a9.48,9.48,0,0,1-6.179-3.25,15.227,15.227,0,0,1-2.452-8.975L45.67,48.6l.033-.067a.752.752,0,0,1,.067-.1,13.912,13.912,0,0,0,3.883-4.615,13.611,13.611,0,0,0,1.586-4.837,1.255,1.255,0,0,1,.067-.177l.033-.055,8.01-4.626.122.277a4.749,4.749,0,0,0,1.631,2,4.65,4.65,0,0,0,3.195.754l.3-.033.011,2.2a34.568,34.568,0,0,1-2.6,12.5,55.017,55.017,0,0,1-7.455,12.469ZM46.214,48.775l.011,3.395a14.682,14.682,0,0,0,2.352,8.653,8.854,8.854,0,0,0,5.669,3.006,54.8,54.8,0,0,0,7.288-12.214,33.931,33.931,0,0,0,2.552-12.3v-1.6a5.077,5.077,0,0,1-4.948-2.829l-7.355,4.249a14.2,14.2,0,0,1-1.631,4.937,14.736,14.736,0,0,1-3.938,4.7Z" transform="translate(-45.67 -34.12)" fill="#111925"/></g><g transform="translate(9.185 12.617)"><path d="M59.962,45.466a11.533,11.533,0,0,1-5.214,9.041c-2.884,1.664-5.247.322-5.258-3A11.533,11.533,0,0,1,54.7,42.471c2.9-1.675,5.247-.333,5.258,3Z" transform="translate(-49.224 -41.483)" fill="#fff"/><path d="M52.423,55.521a2.983,2.983,0,0,1-1.5-.388,3.9,3.9,0,0,1-1.675-3.594,11.812,11.812,0,0,1,5.358-9.274,3.46,3.46,0,0,1,5.658,3.228,11.812,11.812,0,0,1-5.358,9.274,5.1,5.1,0,0,1-2.485.754Zm4.659-13.479a4.458,4.458,0,0,0-2.208.688,11.211,11.211,0,0,0-5.081,8.8,3.391,3.391,0,0,0,1.4,3.128,3.444,3.444,0,0,0,3.439-.366,11.211,11.211,0,0,0,5.081-8.8,3.391,3.391,0,0,0-1.4-3.128,2.321,2.321,0,0,0-1.231-.322Z" transform="translate(-49.25 -41.509)" fill="#111925"/></g><g transform="translate(11.857 16.504)"><path d="M53.579,51.233a.223.223,0,0,1-.144-.044l-1.653-1.065a.272.272,0,0,1,.3-.455l1.42.91,3.328-5.436a.271.271,0,0,1,.377-.089.28.28,0,0,1,.089.377L53.812,51.1a.232.232,0,0,1-.166.122.141.141,0,0,1-.067.011Z" transform="translate(-51.658 -45.013)" fill="#111925"/></g></g></g></g></svg>