<svg xmlns="http://www.w3.org/2000/svg" width="82.758" height="96.584" viewBox="0 0 82.758 96.584"><g transform="translate(-6.581 -2)"><g transform="translate(6.581 2)"><g transform="translate(6.747 4.181)"><g transform="translate(0 0)"><path d="M50.6,5.77c4.013-2.322,7.286-.461,7.3,4.169l.105,53.5a16.029,16.029,0,0,1-7.251,12.588L18.463,94.712c-4.02,2.326-7.293.465-7.306-4.165l-.105-53.5a16.032,16.032,0,0,1,7.258-12.592Z" transform="translate(-11.052 -4.77)" fill="#fff"/></g></g><g transform="translate(6.837 4.183)"><g transform="translate(0 0)"><path d="M57.976,63.432a16.05,16.05,0,0,1-7.252,12.6L18.437,94.706c-4.022,2.327-7.3.47-7.314-4.158l-.012-4.542a36.522,36.522,0,0,0,6.088.507c20.691,0,37.459-33.487,37.459-54.674A38.672,38.672,0,0,0,46.591,8.077l3.985-2.3c4.01-2.327,7.289-.47,7.3,4.158Z" transform="translate(-11.111 -4.772)" fill="#e9edf4"/></g></g><g transform="translate(6.143 3.574)"><path d="M15.4,96.527a4.352,4.352,0,0,1-2.2-.567c-1.567-.9-2.435-2.75-2.441-5.205l-.105-53.5a16.724,16.724,0,0,1,7.56-13.117L50.5,5.451c2.142-1.236,4.188-1.421,5.762-.516s2.435,2.75,2.442,5.207l.105,53.5a16.714,16.714,0,0,1-7.553,13.112L18.969,95.441A7.237,7.237,0,0,1,15.4,96.527ZM51.109,6.5,18.816,25.185a15.385,15.385,0,0,0-6.957,12.067l.105,53.5c.006,2.006.658,3.484,1.836,4.162s2.808.5,4.565-.519L50.657,75.707a15.375,15.375,0,0,0,6.95-12.063l-.105-53.5c-.006-2.007-.658-3.485-1.837-4.163s-2.8-.5-4.556.516Z" transform="translate(-10.652 -4.368)"/></g><g transform="translate(0 25.76)"><g transform="translate(0.603 0.603)"><path d="M6.981,25.983,7.09,79.49c0,2.293.817,3.909,2.124,4.673l6.133,3.57c-1.3-.753-2.113-2.369-2.113-4.673l-.109-53.5a14.423,14.423,0,0,1,1.768-6.514L8.749,19.469a14.419,14.419,0,0,0-1.768,6.514Z" transform="translate(-6.981 -19.469)" fill="#e8b72d"/></g><path d="M15.55,88.541a.6.6,0,0,1-.3-.083l-.009-.006L9.114,84.888C7.55,83.974,6.69,82.13,6.69,79.694L6.581,26.189a15.066,15.066,0,0,1,1.836-6.8.6.6,0,0,1,.839-.242l6.144,3.58a.6.6,0,0,1,.231.8,13.848,13.848,0,0,0-1.7,6.234l.109,53.5c0,2,.643,3.469,1.808,4.15l.005,0a.6.6,0,0,1-.3,1.126ZM9.2,20.519a13.48,13.48,0,0,0-1.416,5.667L7.9,79.693c0,1.991.648,3.465,1.825,4.152l3.513,2.046a8.039,8.039,0,0,1-.4-2.626L12.725,29.77A14.759,14.759,0,0,1,14.3,23.489Z" transform="translate(-6.581 -19.069)"/></g><g transform="translate(1.767)"><g transform="translate(0.604 0.599)"><path d="M51.113,2.892c-1.318-.775-3.159-.666-5.174.513l-32.3,18.681a15.192,15.192,0,0,0-5.487,6.074L14.3,31.742a15.194,15.194,0,0,1,5.487-6.074l32.3-18.692c2.015-1.168,3.845-1.277,5.174-.5Z" transform="translate(-8.153 -2.398)" fill="#ffd63c"/></g><path d="M14.5,32.548a.6.6,0,0,1-.3-.083l-6.144-3.58a.6.6,0,0,1-.231-.8,15.823,15.823,0,0,1,5.72-6.318L45.84,3.084c2.117-1.238,4.224-1.425,5.781-.511l6.138,3.578.007,0A.6.6,0,0,1,57.156,7.2l0,0c-1.189-.69-2.808-.511-4.563.506L20.29,26.393a14.589,14.589,0,0,0-5.254,5.83.606.606,0,0,1-.368.3.645.645,0,0,1-.167.024ZM9.167,28.137l5.1,2.973a15.56,15.56,0,0,1,5.418-5.762l32.3-18.692a8.084,8.084,0,0,1,2.549-.987L51.012,3.616h0c-1.169-.685-2.83-.5-4.564.514l-32.3,18.683a14.313,14.313,0,0,0-4.978,5.325Z" transform="translate(-7.752 -2)"/></g><g transform="translate(14.242 22.17)"><g transform="translate(17.678)"><path d="M28.132,17.091l.045,12.456" transform="translate(-27.529 -16.487)" fill="#fff"/><path d="M28.381,30.354a.6.6,0,0,1-.6-.6L27.732,17.3a.6.6,0,0,1,.6-.606h0a.6.6,0,0,1,.6.6l.045,12.455a.6.6,0,0,1-.6.606Z" transform="translate(-27.732 -16.691)"/></g><g transform="translate(13.259 2.551)"><path d="M25.2,18.782l.044,12.456" transform="translate(-24.6 -18.178)" fill="#fff"/><path d="M25.452,32.046a.6.6,0,0,1-.6-.6L24.8,18.987a.6.6,0,1,1,1.207,0l.045,12.456a.6.6,0,0,1-.6.606Z" transform="translate(-24.804 -18.382)"/></g><g transform="translate(8.839 5.104)"><path d="M22.275,20.473l.045,12.456" transform="translate(-21.672 -19.869)" fill="#fff"/><path d="M22.524,33.736a.6.6,0,0,1-.6-.6l-.045-12.455a.6.6,0,0,1,.6-.606h0a.6.6,0,0,1,.6.6l.045,12.455a.6.6,0,0,1-.6.606Z" transform="translate(-21.875 -20.073)"/></g><g transform="translate(4.419 7.655)"><path d="M19.347,22.164l.044,12.455" transform="translate(-18.743 -21.559)" fill="#fff"/><path d="M19.595,35.428a.6.6,0,0,1-.6-.6l-.045-12.456a.6.6,0,0,1,.6-.606h0a.6.6,0,0,1,.6.6L20.2,34.823a.6.6,0,0,1-.6.606Z" transform="translate(-18.947 -21.763)"/></g><g transform="translate(0 10.2)"><path d="M16.418,23.855l.045,12.455" transform="translate(-15.815 -23.244)" fill="#fff"/><path d="M16.667,37.12a.6.6,0,0,1-.6-.6l-.045-12.456a.6.6,0,0,1,.6-.606.576.576,0,0,1,.606.6l.045,12.456a.6.6,0,0,1-.6.606Z" transform="translate(-16.018 -23.45)"/></g></g><g transform="translate(13.243 36.023)"><g transform="translate(0 6.038)"><path d="M15.961,43.957a.6.6,0,0,1-.3-1.127l22.3-12.879a.6.6,0,0,1,.6,1.046l-22.3,12.879A.605.605,0,0,1,15.961,43.957Z" transform="translate(-15.357 -29.871)"/></g><g transform="translate(26.462)"><path d="M33.5,30.711a.6.6,0,0,1-.3-1.127l6.293-3.634A.6.6,0,0,1,40.09,27L33.8,30.63A.605.605,0,0,1,33.5,30.711Z" transform="translate(-32.891 -25.87)"/></g></g><g transform="translate(13.243 45.481)"><path d="M15.961,52.262a.6.6,0,0,1-.3-1.127L48.413,32.217a.6.6,0,0,1,.6,1.046L16.262,52.181a.605.605,0,0,1-.3.081Z" transform="translate(-15.357 -32.138)"/></g><g transform="translate(13.243 54.94)"><g transform="translate(0 12.679)"><path d="M15.961,54.252a.6.6,0,0,1-.3-1.127l10.8-6.238a.6.6,0,0,1,.6,1.046l-10.8,6.238A.6.6,0,0,1,15.961,54.252Z" transform="translate(-15.357 -46.807)"/></g><g transform="translate(14.964)"><path d="M25.877,49.887a.6.6,0,0,1-.3-1.127L43.365,38.484a.6.6,0,0,1,.6,1.046L26.178,49.806A.605.605,0,0,1,25.877,49.887Z" transform="translate(-25.272 -38.405)"/></g></g><g transform="translate(13.243 64.399)"><g transform="translate(0 6.039)"><path d="M15.961,62.759a.6.6,0,0,1-.3-1.127l22.3-12.878a.6.6,0,0,1,.6,1.046l-22.3,12.878A.605.605,0,0,1,15.961,62.759Z" transform="translate(-15.357 -48.674)"/></g><g transform="translate(26.462)"><path d="M33.5,49.514a.6.6,0,0,1-.3-1.127l6.293-3.634a.6.6,0,0,1,.6,1.046L33.8,49.433A.605.605,0,0,1,33.5,49.514Z" transform="translate(-32.891 -44.673)"/></g></g></g><g transform="translate(44.474 49.587)"><g transform="translate(19.042 25.062)"><g transform="translate(0.784 0.367)"><path d="M44.828,50.383c.035.013.075.021.11.034C44.9,50.4,44.863,50.4,44.828,50.383Z" transform="translate(-44.828 -50.383)" fill="#fff"/></g><g transform="translate(1.659 0.629)"><path d="M45.407,50.557l.03.005Z" transform="translate(-45.407 -50.557)" fill="#fff"/></g><g transform="translate(0.894 0.401)"><path d="M44.9,50.405a6.78,6.78,0,0,0,.764.229A6.77,6.77,0,0,1,44.9,50.405Z" transform="translate(-44.901 -50.405)" fill="#fff"/></g><g transform="translate(1.688 0.634)"><path d="M47.284,50.757a8.278,8.278,0,0,1-1.857-.2A8.227,8.227,0,0,0,47.284,50.757Z" transform="translate(-45.427 -50.56)" fill="#fff"/></g><path d="M44.308,50.14a5.435,5.435,0,0,0,.784.367A5.405,5.405,0,0,1,44.308,50.14Z" transform="translate(-44.308 -50.14)" fill="#fff"/></g><g transform="translate(0.661 0.609)"><path d="M74.274,44.557c1.93,1.116,1.94,2.927.023,4.043L57.474,58.389a7.666,7.666,0,0,1-6.966,0L33.584,48.6c-1.93-1.116-1.945-2.924-.027-4.04L50.38,34.774a7.675,7.675,0,0,1,6.97,0Z" transform="translate(-32.128 -33.937)" fill="#fff"/></g><g transform="translate(0.662 8.907)"><path d="M74.3,45.8l-16.82,9.79a7.69,7.69,0,0,1-6.967,0L33.584,45.8c-1.928-1.116-1.943-2.919-.03-4.035l4.015-2.331c.768,6.72,8.157,11.984,17.159,11.984,8.609,0,15.758-4.819,17.045-11.109l2.5,1.448c1.928,1.116,1.943,2.926.023,4.043Z" transform="translate(-32.129 -39.435)" fill="#e9edf4"/></g><g transform="translate(20.709 13.267)"><path d="M67.533,44.33l-16.82,9.79a7.038,7.038,0,0,1-3.422.831V77.444a8.309,8.309,0,0,1-1.879-.189,7.675,7.675,0,0,0,5.24-.638l16.82-9.79A2.444,2.444,0,0,0,68.9,64.822l.06-22.5a2.46,2.46,0,0,1-1.431,2.006Z" transform="translate(-45.413 -42.324)" fill="#ffd63c"/></g><g transform="translate(22.569 48.385)"><path d="M46.645,65.594h0Z" transform="translate(-46.645 -65.594)" fill="#e9edf4"/></g><g transform="translate(21.589 48.341)"><path d="M46,65.565a7.3,7.3,0,0,0,.981.044A8.51,8.51,0,0,1,46,65.565Z" transform="translate(-45.995 -65.565)" fill="#e9edf4"/></g><g transform="translate(22.59 13.27)"><path d="M68.33,42.326l-.06,22.5a2.444,2.444,0,0,1-1.431,2.006l-16.82,9.79a6.972,6.972,0,0,1-3.359.821V71.6c.452.038.911.053,1.378.053A17.952,17.952,0,0,0,66.115,53.843a17.521,17.521,0,0,0-1.9-7.949L66.9,44.332a2.46,2.46,0,0,0,1.431-2.006Z" transform="translate(-46.659 -42.326)" fill="#f4c531"/></g><g transform="translate(0.603 13.252)"><path d="M54.074,54.956a8.228,8.228,0,0,1-1.857-.2l-.03-.005a6.78,6.78,0,0,1-.764-.229c-.036-.013-.075-.02-.11-.034a5.434,5.434,0,0,1-.784-.367L33.6,44.335a2.461,2.461,0,0,1-1.454-2.021L32.09,64.8a2.451,2.451,0,0,0,1.454,2.036l16.925,9.782a5.382,5.382,0,0,0,.794.373c.039.015.082.023.122.037a6.773,6.773,0,0,0,.769.228l.042.007a8.309,8.309,0,0,0,1.879.189V54.956Z" transform="translate(-32.09 -42.314)" fill="#fff"/></g><g transform="translate(0.603 13.252)"><path d="M54.077,70.838v6.614a8.629,8.629,0,0,1-1.883-.189.082.082,0,0,0-.038-.008,6.181,6.181,0,0,1-.776-.234c-.038-.015-.075-.023-.121-.038a5.426,5.426,0,0,1-.791-.37L33.544,66.833A2.451,2.451,0,0,1,32.09,64.8l.06-22.483A2.461,2.461,0,0,0,33.6,44.335l3.465,2a13.181,13.181,0,0,0-3.465,8.8c0,8.017,7.57,16.027,16.925,16.027a19.582,19.582,0,0,0,3.548-.324Z" transform="translate(-32.09 -42.314)" fill="#e9edf4"/></g><g transform="translate(7.75 4.701)"><path d="M66.247,39.921,42.482,53.753,36.826,50.48,60.582,36.648Z" transform="translate(-36.826 -36.648)" fill="#ffd63c"/></g><g transform="translate(18.439 24.457)"><g transform="translate(1.311 0.404)"><path d="M44.777,51.181l.077-.606.2-.569-.012.078.028-.074-.028.074.028-.074-.028.074-.077.523Z" transform="translate(-44.777 -50.007)"/></g><g transform="translate(1.674 0.63)"><path d="M45.625,51.369a.582.582,0,0,1-.155-.022l-.012,0a.613.613,0,0,1-.414-.756.591.591,0,0,1,.706-.413h.017s0,0,0,0h.008l.006,0,0,.01a.64.64,0,0,1,.38.731A.571.571,0,0,1,45.625,51.369Z" transform="translate(-45.018 -50.156)"/></g><g transform="translate(0.895 0.4)"><path d="M45.869,51.442a.614.614,0,0,1-.136-.016,6.9,6.9,0,0,1-.833-.249.6.6,0,0,1-.4-.567.591.591,0,0,1,.035-.2.6.6,0,0,1,.772-.364,6.429,6.429,0,0,0,.694.208.6.6,0,0,1,.469.588.594.594,0,0,1-.015.134A.6.6,0,0,1,45.869,51.442Z" transform="translate(-44.501 -50.004)"/></g><g transform="translate(1.688 0.638)"><path d="M47.427,51.563a8.7,8.7,0,0,1-1.928-.211h0a.6.6,0,0,1-.455-.721.612.612,0,0,1,.721-.457,5.917,5.917,0,0,0,1.72.181h0a.6.6,0,0,1,.6.6v0a.6.6,0,0,1-.6.6c-.03,0-.044,0-.066,0Z" transform="translate(-45.027 -50.162)"/></g><path d="M45.3,51.316a.6.6,0,0,1-.213-.04,5.874,5.874,0,0,1-.874-.411.6.6,0,1,1,.606-1.043,4.722,4.722,0,0,0,.7.326.6.6,0,0,1-.216,1.169Z" transform="translate(-43.908 -49.739)"/></g><g transform="translate(0.057)"><path d="M54.2,60.039a7.722,7.722,0,0,1-3.794-.924L33.486,49.332a3.046,3.046,0,0,1-1.758-2.553,3.011,3.011,0,0,1,1.729-2.533L50.28,34.457a8.23,8.23,0,0,1,7.576,0L74.78,44.24a2.727,2.727,0,0,1,.024,5.087L57.982,59.116a7.651,7.651,0,0,1-3.778.923Zm-.14-25.288a6.491,6.491,0,0,0-3.177.75L34.064,45.289a1.883,1.883,0,0,0-1.129,1.489,1.94,1.94,0,0,0,1.155,1.508l16.923,9.783a7.128,7.128,0,0,0,6.361,0L74.2,48.284a1.887,1.887,0,0,0,1.131-1.491,1.912,1.912,0,0,0-1.152-1.506L57.251,35.5a6.533,6.533,0,0,0-3.188-.752Z" transform="translate(-31.728 -33.533)"/></g><g transform="translate(20.105 12.663)"><path d="M47.411,78.258a8.883,8.883,0,0,1-1.92-.208h-.007a.6.6,0,0,1-.458-.719.6.6,0,0,1,.719-.46,7.592,7.592,0,0,0,1.146.161V55.154a.605.605,0,0,1,.6-.6,6.388,6.388,0,0,0,3.122-.749l16.817-9.787a1.93,1.93,0,0,0,1.133-1.486h0a.6.6,0,0,1,.6-.6h0a.6.6,0,0,1,.6.6h0v.006l-.06,22.49a3.017,3.017,0,0,1-1.73,2.528L51.16,77.343a7.594,7.594,0,0,1-3.749.915ZM48.1,55.734V77.017a6.038,6.038,0,0,0,2.455-.718L67.373,66.51A1.893,1.893,0,0,0,68.5,65.025l.055-20.319a4.772,4.772,0,0,1-.516.348h0L51.221,54.844a7.322,7.322,0,0,1-3.122.89Zm19.638-11.2h.015Z" transform="translate(-45.012 -41.924)"/></g><g transform="translate(0 12.647)"><path d="M54.161,78.257a8.8,8.8,0,0,1-1.892-.2,7.146,7.146,0,0,1-.884-.256,5.892,5.892,0,0,1-1.015-.457l-16.925-9.78a3.053,3.053,0,0,1-1.755-2.566l.06-22.479a.6.6,0,0,1,.6-.6h0a.6.6,0,0,1,.6.6,1.916,1.916,0,0,0,1.15,1.5L51.035,53.8a4.624,4.624,0,0,0,.7.327c.323.109.553.181.793.237a5.38,5.38,0,0,0,1.748.186c.155-.069.316.062.43.175a.605.605,0,0,1,.178.429V77.653a.605.605,0,0,1-.6.6h-.125ZM32.952,44.692,32.9,65a1.914,1.914,0,0,0,1.15,1.512L50.974,76.3a4.657,4.657,0,0,0,.705.332c.337.113.569.186.811.242a8.145,8.145,0,0,0,1.184.167V55.747a8.528,8.528,0,0,1-1.388-.2,6.82,6.82,0,0,1-.864-.255,5.774,5.774,0,0,1-.993-.447L33.505,45.062a4.819,4.819,0,0,1-.553-.37Z" transform="translate(-31.69 -41.913)"/></g><g transform="translate(7.146 4.097)"><path d="M42.686,54.561a.613.613,0,0,1-.3-.081l-5.657-3.273a.6.6,0,0,1,0-1.045L60.483,36.329a.609.609,0,0,1,.606,0L66.753,39.6a.6.6,0,0,1,0,1.045L42.99,54.478a.6.6,0,0,1-.3.083Zm-4.454-3.879,4.454,2.576L65.247,40.125l-4.46-2.576Z" transform="translate(-36.426 -36.247)"/></g><g transform="translate(7.095 17.927)"><g transform="translate(0.603 0.604)"><path d="M42.5,49.085l-.05,8.031a.917.917,0,0,1-1.375.79l-3.362-1.941a1.847,1.847,0,0,1-.923-1.611l.053-8.542Z" transform="translate(-36.791 -45.812)" fill="#fff"/></g><path d="M41.737,58.838a1.517,1.517,0,0,1-.759-.2l-3.362-1.941a2.455,2.455,0,0,1-1.224-2.138l.053-8.542a.6.6,0,0,1,.906-.519l5.657,3.273a.6.6,0,0,1,.3.528l-.051,8.031a1.507,1.507,0,0,1-.763,1.31,1.524,1.524,0,0,1-.758.2ZM37.645,47.06l-.046,7.5a1.244,1.244,0,0,0,.62,1.083l3.362,1.941a.305.305,0,0,0,.312,0,.309.309,0,0,0,.158-.271l.049-7.68Z" transform="translate(-36.391 -45.412)"/></g></g></g></svg>