<svg xmlns="http://www.w3.org/2000/svg" width="116" height="116" viewBox="0 0 116 116"><g transform="translate(-323.757 -978)"><g transform="translate(18.645 -2645.355)"><circle cx="58" cy="58" r="58" transform="translate(305.112 3623.355)" fill="#fff" opacity="0.45"/><circle cx="47" cy="47" r="47" transform="translate(316.112 3634.355)" fill="#fff"/></g><g transform="translate(340.359 993.408)"><g transform="translate(12.702 9.077)"><g transform="translate(0 30.191)"><g transform="translate(0 13.085)"><path d="M6.51,48.7l.011,4.2a2.159,2.159,0,0,0,1.272,1.778L26.111,65.25a6.848,6.848,0,0,0,6.175,0L62.3,47.922a2.195,2.195,0,0,0,1.293-1.8l-.011-4.2a2.188,2.188,0,0,1-1.282,1.8L32.275,61.047a6.848,6.848,0,0,1-6.175,0L7.782,50.476A2.2,2.2,0,0,1,6.51,48.7Z" transform="translate(-6.262 -41.651)" fill="#98d8fb"/><path d="M29.222,66.271a6.5,6.5,0,0,1-3.211-.776L7.692,54.924a2.416,2.416,0,0,1-1.4-2l-.011-4.2a.28.28,0,0,1,.259-.269.262.262,0,0,1,.259.259,1.925,1.925,0,0,0,1.142,1.552L26.259,60.83a6.507,6.507,0,0,0,5.916,0L62.2,43.5a1.946,1.946,0,0,0,1.153-1.573.259.259,0,1,1,.517,0l.011,4.2a2.438,2.438,0,0,1-1.422,2.026L32.444,65.5A6.569,6.569,0,0,1,29.222,66.271ZM6.8,50.021l.011,2.9A1.94,1.94,0,0,0,7.95,54.472L26.269,65.043a6.54,6.54,0,0,0,5.916,0L62.2,47.715a1.961,1.961,0,0,0,1.164-1.573l-.011-2.9a3.406,3.406,0,0,1-.894.722L32.433,61.293a7.144,7.144,0,0,1-6.444,0L7.67,50.722a3.412,3.412,0,0,1-.873-.7Z" transform="translate(-6.28 -41.67)" fill="#111925"/></g><path d="M7.8,47.841c-1.713.991-1.713,2.586-.022,3.578L26.111,61.99a6.781,6.781,0,0,0,6.175,0L62.307,44.662c1.713-.991,1.713-2.586.022-3.578L44,30.514a6.781,6.781,0,0,0-6.175,0Z" transform="translate(-6.262 -29.509)" fill="#fff"/><path d="M29.211,63.011A6.5,6.5,0,0,1,26,62.235L7.681,51.664A2.152,2.152,0,0,1,7.7,47.623L37.724,30.3a7.144,7.144,0,0,1,6.444,0L62.487,40.866a2.152,2.152,0,0,1-.022,4.041L32.433,62.246a6.684,6.684,0,0,1-3.222.765ZM7.95,48.086A1.946,1.946,0,0,0,6.8,49.649,1.91,1.91,0,0,0,7.929,51.2L26.248,61.772a6.507,6.507,0,0,0,5.916,0L62.185,44.444a1.946,1.946,0,0,0,1.153-1.563,1.91,1.91,0,0,0-1.131-1.552L43.888,30.759a6.507,6.507,0,0,0-5.916,0Z" transform="translate(-6.28 -29.527)" fill="#111925"/></g><g transform="translate(3.588)"><g transform="translate(0 14.591)"><path d="M13.244,49.482,9.935,47.564,9.86,15.29l3.3,1.929Z" transform="translate(-9.591 -15.031)" fill="#ff977f"/><path d="M13.263,49.759a.287.287,0,0,1-.129-.032L9.826,47.809a.242.242,0,0,1-.129-.226L9.61,15.309a.263.263,0,0,1,.129-.226.275.275,0,0,1,.259,0L13.306,17a.242.242,0,0,1,.129.226l.086,32.263a.263.263,0,0,1-.129.226.188.188,0,0,1-.129.043Zm-3.039-2.328L13,49.048l-.086-31.66-2.78-1.616Z" transform="translate(-9.61 -15.05)" fill="#111925"/></g><path d="M13.157,18.269l-3.3-1.929L35.14,1.75l3.3,1.918Z" transform="translate(-9.591 -1.491)" fill="#111925"/><path d="M13.177,18.547a.287.287,0,0,1-.129-.032L9.739,16.585a.242.242,0,0,1-.129-.226.263.263,0,0,1,.129-.226L35.02,1.542a.275.275,0,0,1,.259,0L38.586,3.46a.242.242,0,0,1,.129.226.263.263,0,0,1-.129.226l-25.269,14.6a.3.3,0,0,1-.14.032ZM10.4,16.359l2.78,1.616L37.94,3.687,35.16,2.07Z" transform="translate(-9.61 -1.51)" fill="#111925"/><g transform="translate(3.319 1.918)"><path d="M12.93,18.121l.075,32.274,6.918-4L19.88,24.446l11.4-6.584.043,21.951,6.961-4.019L38.2,3.53Z" transform="translate(-12.671 -3.271)" fill="#fff"/><path d="M13.024,50.682a.287.287,0,0,1-.129-.032.242.242,0,0,1-.129-.226L12.69,18.15a.263.263,0,0,1,.129-.226l25.269-14.6a.275.275,0,0,1,.259,0,.242.242,0,0,1,.129.226l.086,32.263a.263.263,0,0,1-.129.226l-6.961,4.019a.275.275,0,0,1-.259,0,.242.242,0,0,1-.129-.226l-.043-21.5L20.168,24.616l.043,21.8a.263.263,0,0,1-.129.226l-6.918,4a.411.411,0,0,1-.14.043Zm.183-32.392.075,31.66,6.39-3.7-.043-21.8a.263.263,0,0,1,.129-.226l11.4-6.584a.275.275,0,0,1,.259,0,.242.242,0,0,1,.129.226l.043,21.5,6.433-3.718L37.959,4Z" transform="translate(-12.69 -3.29)" fill="#111925"/></g></g><g transform="translate(23.114 16.25)"><path d="M27.98,18.069,28.012,37.3l2.144,1.487L30.114,16.83Z" transform="translate(-27.711 -16.571)" fill="#111925"/><path d="M30.176,39.069a.247.247,0,0,1-.151-.043l-2.144-1.487a.262.262,0,0,1-.119-.216L27.73,18.077a.263.263,0,0,1,.129-.226l2.134-1.228a.275.275,0,0,1,.259,0,.242.242,0,0,1,.129.226l.043,21.961a.281.281,0,0,1-.14.237.27.27,0,0,1-.108.022ZM28.3,37.183,29.918,38.3l-.043-21-1.606.927Z" transform="translate(-27.73 -16.59)" fill="#111925"/></g><g transform="translate(9.569 29.515)"><path d="M15.4,35.295l4.31-2.489L19.7,29.12l-4.3,2.489Z" transform="translate(-15.141 -28.883)" fill="#98d8fb"/><path d="M15.419,35.581a.287.287,0,0,1-.129-.032.242.242,0,0,1-.129-.226V31.637a.263.263,0,0,1,.129-.226l4.3-2.478a.275.275,0,0,1,.259,0,.242.242,0,0,1,.129.226l.011,3.685a.263.263,0,0,1-.129.226l-4.31,2.489C15.5,35.56,15.462,35.581,15.419,35.581Zm.259-3.8v3.082l3.782-2.188-.011-3.082Z" transform="translate(-15.16 -28.9)" fill="#111925"/></g><g transform="translate(13.858 17.489)"><path d="M19.38,23.325l.032,19.246,9.267-5.356L28.647,17.98Z" transform="translate(-19.121 -17.721)" fill="#0296f6"/><path d="M19.431,42.848a.287.287,0,0,1-.129-.032.242.242,0,0,1-.129-.226L19.14,23.343a.263.263,0,0,1,.129-.226l9.267-5.345a.275.275,0,0,1,.259,0,.242.242,0,0,1,.129.226l.032,19.246a.263.263,0,0,1-.129.226L19.56,42.826a.4.4,0,0,1-.129.022Zm.237-19.354L19.7,42.137l8.739-5.054-.032-18.632Z" transform="translate(-19.14 -17.74)" fill="#111925"/></g><g transform="translate(21.056 27.687)"><g transform="translate(0)"><path d="M26.349,27.483a.6.6,0,0,0-.269.474c0,.172.119.248.28.162a.614.614,0,0,0,.28-.474C26.619,27.472,26.5,27.4,26.349,27.483Z" transform="translate(-25.8 -27.184)" fill="#111925"/><path d="M26.24,28.439a.446.446,0,0,1-.2-.054.463.463,0,0,1-.216-.409.848.848,0,0,1,.409-.7.476.476,0,0,1,.463-.022.458.458,0,0,1,.216.4.848.848,0,0,1-.409.7.414.414,0,0,1-.259.086Zm.129-.938.129.226h.011Z" transform="translate(-25.82 -27.203)" fill="#111925"/></g></g><g transform="translate(28.75 24.795)"><g transform="translate(9.44 5.474)"><path d="M51.4,29.84V40.756l-9.44,5.5V35.325Z" transform="translate(-41.701 -29.581)" fill="#fff"/><path d="M41.979,46.529a.287.287,0,0,1-.129-.032.242.242,0,0,1-.129-.226V35.344a.263.263,0,0,1,.129-.226l9.44-5.485a.275.275,0,0,1,.259,0,.242.242,0,0,1,.129.226V40.775a.263.263,0,0,1-.129.226l-9.44,5.485a.207.207,0,0,1-.129.043Zm.259-11.035V45.807l8.912-5.183V30.311Z" transform="translate(-41.72 -29.6)" fill="#111925"/></g><g transform="translate(0 5.474)"><path d="M33.2,29.84V40.756l9.44,5.5V35.325Z" transform="translate(-32.941 -29.581)" fill="#f5ab00"/><path d="M42.658,46.529a.287.287,0,0,1-.129-.032l-9.44-5.485a.242.242,0,0,1-.129-.226V29.859a.263.263,0,0,1,.129-.226.275.275,0,0,1,.259,0l9.44,5.485a.242.242,0,0,1,.129.226V46.26a.263.263,0,0,1-.129.226.207.207,0,0,1-.129.043Zm-9.181-5.905,8.912,5.183V35.494l-8.912-5.183Z" transform="translate(-32.96 -29.6)" fill="#111925"/></g><path d="M33.2,30.235l9.44-5.485,9.44,5.485L42.64,35.72Z" transform="translate(-32.941 -24.502)" fill="#f8d555"/><path d="M42.658,36.007a.287.287,0,0,1-.129-.032l-9.44-5.485a.242.242,0,0,1-.129-.226.263.263,0,0,1,.129-.226l9.44-5.485a.3.3,0,0,1,.269,0l9.44,5.485a.242.242,0,0,1,.129.226.263.263,0,0,1-.129.226L42.8,35.975A.372.372,0,0,1,42.658,36.007Zm-8.922-5.754,8.922,5.183,8.922-5.183L42.658,25.07Z" transform="translate(-32.96 -24.52)" fill="#111925"/><g transform="translate(3.448 1.994)"><path d="M36.4,32.106l9.44-5.5,2.522,1.466-9.45,5.485Z" transform="translate(-36.141 -26.351)" fill="#fff"/><path d="M38.929,33.838a.287.287,0,0,1-.129-.032L36.289,32.34a.242.242,0,0,1-.129-.226.263.263,0,0,1,.129-.226l9.44-5.485a.3.3,0,0,1,.269,0l2.511,1.466a.242.242,0,0,1,.129.226.263.263,0,0,1-.129.226l-9.44,5.485A.3.3,0,0,1,38.929,33.838Zm-1.983-1.713,1.994,1.153,8.922-5.183-1.994-1.153Z" transform="translate(-36.16 -26.37)" fill="#111925"/><g transform="translate(0 5.496)"><path d="M36.4,31.71v3.707l2.511,1.455V33.165Z" transform="translate(-36.141 -31.451)" fill="#fff"/><path d="M38.929,37.16a.287.287,0,0,1-.129-.032l-2.511-1.466a.242.242,0,0,1-.129-.226V31.729a.263.263,0,0,1,.129-.226.275.275,0,0,1,.259,0l2.511,1.466a.242.242,0,0,1,.129.226V36.9a.263.263,0,0,1-.129.226.377.377,0,0,1-.129.032Zm-2.241-1.875,1.983,1.153v-3.1l-1.983-1.153Z" transform="translate(-36.16 -31.47)" fill="#111925"/></g></g></g></g><g transform="translate(34.408 9.078)"><path d="M35.712,8.04l.013,4.607-7.732,4.459L27.98,12.5Z" transform="translate(-27.657 -7.73)" fill="#98d8fb"/><path d="M28.077,17.522a.359.359,0,0,1-.162-.04.3.3,0,0,1-.162-.283l-.013-4.607a.328.328,0,0,1,.162-.283L35.62,7.85a.343.343,0,0,1,.323,0,.3.3,0,0,1,.162.283l.013,4.607a.328.328,0,0,1-.162.283l-7.718,4.459A.569.569,0,0,1,28.077,17.522Zm.323-4.755.013,3.839,7.072-4.081-.013-3.839Z" transform="translate(-27.74 -7.81)" fill="#111925"/></g></g></g></svg>