<svg xmlns="http://www.w3.org/2000/svg" width="116" height="116" viewBox="0 0 116 116"><g transform="translate(-526.757 -978)"><g transform="translate(221.645 -2645.355)"><circle cx="58" cy="58" r="58" transform="translate(305.112 3623.355)" fill="#fff" opacity="0.45"/><circle cx="47" cy="47" r="47" transform="translate(316.112 3634.355)" fill="#fff"/></g><g transform="translate(550.257 1000.324)"><g transform="translate(3.776 14.496)"><g transform="translate(35.712 1.712)"><g transform="translate(0.407 7.603)"><path d="M64.226,23.475l-.068,14.193a1.139,1.139,0,0,1-.684.958L53.438,44.464a3.694,3.694,0,0,1-3.334,0L40,38.634a1.184,1.184,0,0,1-.692-.975l.068-14.193a1.172,1.172,0,0,0,.692.966l10.1,5.839a3.693,3.693,0,0,0,3.334,0l10.036-5.839a1.16,1.16,0,0,0,.684-.957Z" transform="translate(-39.307 -23.466)" fill="#fff"/></g><g transform="translate(6.42 7.613)"><path d="M64.13,23.477l-.071,14.191a1.132,1.132,0,0,1-.681.955L53.345,44.468a3.7,3.7,0,0,1-3.334,0L45.223,41.7a14.985,14.985,0,0,0,2.552.213c7.573,0,13.713-5.469,13.713-12.2a10.814,10.814,0,0,0-.671-3.761l2.633-1.525a1.17,1.17,0,0,0,.681-.955Z" transform="translate(-45.223 -23.477)" fill="#e9edf4"/></g><g transform="translate(0 7.196)"><path d="M51.777,45.275a3.823,3.823,0,0,1-1.868-.452L39.8,38.993a1.579,1.579,0,0,1-.9-1.326l.068-14.2a.408.408,0,0,1,.407-.405h0a.407.407,0,0,1,.406.407c0,.211.178.435.487.613l10.106,5.839a3.306,3.306,0,0,0,2.927,0l10.034-5.838c.3-.175.478-.393.48-.6V23.48a.408.408,0,0,1,.407-.405h0a.407.407,0,0,1,.406.407v.012l-.068,14.183a1.544,1.544,0,0,1-.893,1.311L53.649,44.822a3.828,3.828,0,0,1-1.872.453ZM39.783,24.738l-.062,12.931c0,.214.178.441.487.619l10.106,5.83a3.3,3.3,0,0,0,2.927,0l10.034-5.837c.309-.172.481-.392.481-.607l.062-12.924-.068.041L53.717,30.629a4.1,4.1,0,0,1-3.741,0L39.871,24.791c-.03-.018-.06-.035-.088-.054Z" transform="translate(-38.907 -23.066)"/></g><g transform="translate(0 7.196)"><path d="M52.006,30.659a3.491,3.491,0,0,1-1.834-.388l-10.1-5.839a1.172,1.172,0,0,1-.692-.966L39.307,37.66a1.184,1.184,0,0,0,.692.975l10.1,5.83a3.522,3.522,0,0,0,1.9.385Z" transform="translate(-38.901 -23.059)" fill="#ffd63c"/><path d="M51.774,45.269a3.817,3.817,0,0,1-1.865-.446L39.8,38.993a1.579,1.579,0,0,1-.9-1.326l.068-14.2a.408.408,0,0,1,.407-.405h0a.407.407,0,0,1,.406.407c0,.211.178.435.487.613l10.106,5.839A3.139,3.139,0,0,0,52,30.26a.407.407,0,0,1,.424.406v14.19a.407.407,0,0,1-.384.406c-.087,0-.175.007-.262.007ZM39.783,24.738l-.062,12.931c0,.214.178.441.487.619l10.106,5.83a2.883,2.883,0,0,0,1.292.335V31.071a3.674,3.674,0,0,1-1.629-.441L39.871,24.791c-.03-.018-.06-.035-.088-.054Z" transform="translate(-38.907 -23.066)"/></g><g transform="translate(0.068)"><path d="M63.533,22.62a1.019,1.019,0,0,1,.011,1.929L53.5,30.385a3.669,3.669,0,0,1-3.329,0l-10.1-5.833a1.019,1.019,0,0,1-.011-1.928L50.1,16.788a3.669,3.669,0,0,1,3.329,0Z" transform="translate(-38.968 -15.98)" fill="#fff"/><path d="M51.845,31.2a3.8,3.8,0,0,1-1.87-.455l-10.1-5.832a1.417,1.417,0,0,1-.011-2.633L49.9,16.442a4.064,4.064,0,0,1,3.737,0l10.1,5.833a1.417,1.417,0,0,1,.012,2.633L53.712,30.742a3.781,3.781,0,0,1-1.867.456ZM51.77,16.8a2.986,2.986,0,0,0-1.457.343L40.27,22.981c-.307.179-.483.4-.482.61s.179.436.491.615l10.1,5.832a3.267,3.267,0,0,0,2.922,0L63.345,24.2c.307-.179.482-.4.481-.61s-.179-.436-.491-.615l-10.1-5.833A3,3,0,0,0,51.77,16.8Z" transform="translate(-38.975 -15.987)"/></g></g><g transform="translate(17.856)"><g transform="translate(0.407 7.604)"><path d="M46.661,21.792l-.068,26.281a1.139,1.139,0,0,1-.684.958L35.873,54.869a3.694,3.694,0,0,1-3.334,0l-10.1-5.83a1.184,1.184,0,0,1-.692-.975l.068-26.281a1.172,1.172,0,0,0,.692.966l10.1,5.839a3.693,3.693,0,0,0,3.334,0l10.036-5.839a1.16,1.16,0,0,0,.684-.957Z" transform="translate(-21.742 -21.783)" fill="#fff"/></g><g transform="translate(9.17 7.617)"><path d="M46.516,21.8l-.061,26.277a1.138,1.138,0,0,1-.691.956L35.73,54.864a3.641,3.641,0,0,1-3.334,0L30.363,53.7c7.959-.915,14.2-9.565,14.2-20.117a24.862,24.862,0,0,0-1.677-9.108l2.948-1.718a1.17,1.17,0,0,0,.681-.956Z" transform="translate(-30.363 -21.797)" fill="#e9edf4"/></g><g transform="translate(0 7.197)"><path d="M34.211,55.679a3.823,3.823,0,0,1-1.868-.452l-10.1-5.83a1.583,1.583,0,0,1-.9-1.327l.068-26.281a.407.407,0,0,1,.407-.406h0a.407.407,0,0,1,.406.407c0,.211.178.435.487.613l10.106,5.838a3.3,3.3,0,0,0,2.927,0L45.779,22.4c.306-.176.48-.4.481-.6v0a.407.407,0,0,1,.407-.406h0a.407.407,0,0,1,.406.407v.008L47.006,48.08a1.544,1.544,0,0,1-.893,1.312L36.084,55.227a3.828,3.828,0,0,1-1.872.453ZM22.22,23.057l-.065,25.014a.825.825,0,0,0,.488.621l10.1,5.83a3.306,3.306,0,0,0,2.927,0l10.034-5.837c.309-.172.481-.392.481-.607l.066-25.013-.071.043L36.152,28.946a4.1,4.1,0,0,1-3.741,0L22.306,23.109c-.029-.017-.058-.034-.085-.052Z" transform="translate(-21.342 -21.383)"/></g><g transform="translate(0 7.197)"><path d="M34.441,28.976a3.491,3.491,0,0,1-1.834-.388L22.5,22.749a1.172,1.172,0,0,1-.692-.966l-.068,26.281a1.184,1.184,0,0,0,.692.975l10.1,5.83a3.522,3.522,0,0,0,1.9.385Z" transform="translate(-21.335 -21.377)" fill="#ffd63c"/><path d="M34.2,55.673a3.809,3.809,0,0,1-1.861-.446l-10.1-5.83a1.583,1.583,0,0,1-.9-1.327l.068-26.281a.407.407,0,0,1,.407-.406h0a.407.407,0,0,1,.406.407c0,.211.178.435.487.613l10.106,5.838a3.087,3.087,0,0,0,1.613.335.4.4,0,0,1,.3.113.406.406,0,0,1,.125.293V55.259a.408.408,0,0,1-.383.406c-.089,0-.179.008-.267.008ZM22.22,23.057l-.065,25.014a.825.825,0,0,0,.488.621l10.1,5.83a2.874,2.874,0,0,0,1.292.334V29.387a3.663,3.663,0,0,1-1.629-.441L22.306,23.109c-.029-.017-.058-.034-.085-.052Z" transform="translate(-21.342 -21.383)"/></g><g transform="translate(0.069)"><path d="M45.967,20.937a1.019,1.019,0,0,1,.011,1.929L35.936,28.7a3.669,3.669,0,0,1-3.329,0L22.5,22.869a1.019,1.019,0,0,1-.011-1.928L32.536,15.1a3.669,3.669,0,0,1,3.329,0Z" transform="translate(-21.403 -14.297)" fill="#fff"/><path d="M34.28,29.514a3.818,3.818,0,0,1-1.87-.454l-10.1-5.833A1.416,1.416,0,0,1,22.3,20.6L32.338,14.76a4.057,4.057,0,0,1,3.738,0l10.1,5.832a1.417,1.417,0,0,1,.012,2.633L36.147,29.06a3.78,3.78,0,0,1-1.867.455Zm-.074-14.4a2.977,2.977,0,0,0-1.458.344L22.7,21.3c-.307.178-.482.4-.481.609s.179.436.491.615l10.1,5.833a3.28,3.28,0,0,0,2.922,0L45.78,22.521c.307-.178.482-.4.482-.609s-.18-.436-.492-.616l-10.1-5.832a3,3,0,0,0-1.463-.345Z" transform="translate(-21.409 -14.303)"/></g></g><g transform="translate(0 22.464)"><g transform="translate(0.407 7.604)"><path d="M29.1,43.89l-.068,14.193a1.139,1.139,0,0,1-.684.958L18.308,64.88a3.694,3.694,0,0,1-3.334,0L4.87,59.05a1.184,1.184,0,0,1-.692-.975l.068-14.193a1.172,1.172,0,0,0,.692.966l10.1,5.839a3.693,3.693,0,0,0,3.334,0l10.036-5.839a1.16,1.16,0,0,0,.684-.957Z" transform="translate(-4.177 -43.882)" fill="#fff"/></g><g transform="translate(0.403 7.608)"><path d="M29.1,43.887l-.071,14.2a1.144,1.144,0,0,1-.681.955L18.3,64.878a3.683,3.683,0,0,1-3.324,0l-10.1-5.825a1.191,1.191,0,0,1-.7-.976l.01-1.23a12.339,12.339,0,0,0,10.084,5.337c6.892,0,12.493-5.845,12.493-13.052a13.094,13.094,0,0,0-.366-3.111l2.013-1.169a1.176,1.176,0,0,0,.691-.966Z" transform="translate(-4.173 -43.887)" fill="#e9edf4"/></g><g transform="translate(0 7.197)"><path d="M16.647,65.691a3.824,3.824,0,0,1-1.869-.452l-10.1-5.83a1.583,1.583,0,0,1-.9-1.327l.068-14.195a.408.408,0,0,1,.407-.405h0a.407.407,0,0,1,.406.407c0,.211.178.435.488.613l10.1,5.838a3.3,3.3,0,0,0,2.927,0L28.214,44.5c.3-.175.479-.393.481-.6v-.007a.408.408,0,0,1,.407-.405h0a.407.407,0,0,1,.406.407v.012l-.068,14.184a1.54,1.54,0,0,1-.893,1.31L18.519,65.238a3.828,3.828,0,0,1-1.872.453ZM4.652,45.154,4.59,58.084a.825.825,0,0,0,.488.62l10.1,5.83a3.3,3.3,0,0,0,2.928,0L28.145,58.7c.309-.172.481-.391.481-.606l.063-12.924-.068.041L18.587,51.044a4.1,4.1,0,0,1-3.741,0l-10.1-5.838-.089-.054Z" transform="translate(-3.776 -43.482)"/></g><g transform="translate(0 7.197)"><path d="M16.876,51.075a3.491,3.491,0,0,1-1.834-.388l-10.1-5.839a1.172,1.172,0,0,1-.692-.966L4.177,58.075a1.184,1.184,0,0,0,.692.975l10.1,5.83a3.522,3.522,0,0,0,1.9.385Z" transform="translate(-3.77 -43.475)" fill="#ffd63c"/><path d="M16.643,65.684a3.832,3.832,0,0,1-1.864-.444L4.673,59.409a1.583,1.583,0,0,1-.9-1.327l.068-14.195a.408.408,0,0,1,.407-.405h0a.407.407,0,0,1,.406.407c0,.211.178.435.488.613l10.1,5.838a3.066,3.066,0,0,0,1.613.335.411.411,0,0,1,.3.113.406.406,0,0,1,.125.293v14.19a.407.407,0,0,1-.384.406c-.087,0-.175.007-.262.007ZM4.652,45.154,4.59,58.084a.825.825,0,0,0,.488.62l10.1,5.83a2.887,2.887,0,0,0,1.292.334V51.486a3.663,3.663,0,0,1-1.629-.441l-10.1-5.838-.089-.054Z" transform="translate(-3.776 -43.482)"/></g><g transform="translate(0.069)"><path d="M28.4,43.036a1.019,1.019,0,0,1,.011,1.929L18.371,50.8a3.669,3.669,0,0,1-3.329,0l-10.1-5.833a1.019,1.019,0,0,1-.011-1.928L14.971,37.2a3.669,3.669,0,0,1,3.329,0Z" transform="translate(-3.837 -36.395)" fill="#fff"/><path d="M16.715,51.614a3.813,3.813,0,0,1-1.87-.455l-10.1-5.833a1.416,1.416,0,0,1-.012-2.632l10.042-5.836a4.057,4.057,0,0,1,3.738,0l10.1,5.832a1.417,1.417,0,0,1,.012,2.633L18.582,51.158a3.783,3.783,0,0,1-1.867.456Zm-.075-14.4a2.977,2.977,0,0,0-1.458.344L5.139,43.4c-.307.178-.482.4-.481.609s.179.436.491.615l10.1,5.833a3.274,3.274,0,0,0,2.922,0l10.042-5.836c.307-.178.482-.4.481-.609s-.179-.436-.491-.616L18.1,37.562A3,3,0,0,0,16.64,37.217Z" transform="translate(-3.844 -36.402)"/></g></g></g><g transform="translate(23.59 2.67)"><g transform="translate(9.655 12.268)"><path d="M32.766,14.739c.017.006.036.01.053.016C32.8,14.748,32.782,14.745,32.766,14.739Z" transform="translate(-32.766 -14.739)" fill="#fff"/></g><g transform="translate(10.076 12.393)"><path d="M33.179,14.862l.014,0Z" transform="translate(-33.179 -14.862)" fill="#fff"/></g><g transform="translate(9.708 12.284)"><path d="M32.818,14.754a3.277,3.277,0,0,0,.368.109A3.273,3.273,0,0,1,32.818,14.754Z" transform="translate(-32.818 -14.754)" fill="#fff"/></g><g transform="translate(10.09 12.395)"><path d="M34.087,14.958a4.008,4.008,0,0,1-.893-.094A3.984,3.984,0,0,0,34.087,14.958Z" transform="translate(-33.193 -14.864)" fill="#fff"/></g><g transform="translate(9.278 12.092)"><path d="M32.395,14.566a2.623,2.623,0,0,0,.377.175A2.608,2.608,0,0,1,32.395,14.566Z" transform="translate(-32.395 -14.566)" fill="#fff"/></g><g transform="translate(0.435 0.409)"><path d="M43.971,8.148a1.019,1.019,0,0,1,.011,1.932l-8.093,4.677a3.71,3.71,0,0,1-3.351,0L24.4,10.079c-.929-.533-.935-1.4-.013-1.93l8.093-4.677a3.715,3.715,0,0,1,3.353,0Z" transform="translate(-23.696 -3.072)" fill="#fff"/></g><g transform="translate(0.436 4.373)"><path d="M43.982,10.015,35.89,14.692a3.722,3.722,0,0,1-3.352,0L24.4,10.013c-.928-.533-.935-1.395-.014-1.928l1.931-1.113c.369,3.211,3.924,5.727,8.254,5.727,4.142,0,7.581-2.3,8.2-5.308l1.2.692a1.019,1.019,0,0,1,.011,1.932Z" transform="translate(-23.696 -6.972)" fill="#e9edf4"/></g><g transform="translate(10.079 6.457)"><path d="M43.825,9.981l-8.092,4.677a3.4,3.4,0,0,1-1.646.4V26.623a4.023,4.023,0,0,1-.9-.09,3.715,3.715,0,0,0,2.521-.3L43.8,21.551a1.168,1.168,0,0,0,.689-.959l.03-11.57a1.175,1.175,0,0,1-.689.959Z" transform="translate(-33.182 -9.022)" fill="#fff"/></g><g transform="translate(10.984 6.459)"><path d="M44.5,9.024l-.03,11.57a1.168,1.168,0,0,1-.689.959l-8.092,4.677a3.372,3.372,0,0,1-1.616.392V23.833c.217.018.438.025.663.025,4.8,0,8.7-4.632,8.7-9.331a8.325,8.325,0,0,0-.913-3.8l1.29-.746a1.175,1.175,0,0,0,.689-.959Z" transform="translate(-34.073 -9.024)" fill="#e9edf4"/></g><g transform="translate(0.407 6.448)"><path d="M34.244,15.055a3.984,3.984,0,0,1-.893-.094l-.014,0a3.277,3.277,0,0,1-.368-.109c-.017-.006-.036-.01-.053-.016a2.622,2.622,0,0,1-.377-.175L24.4,9.98a1.176,1.176,0,0,1-.7-.966l-.03,11.563a1.171,1.171,0,0,0,.7.973l8.142,4.675a2.6,2.6,0,0,0,.382.178c.019.007.04.011.058.018a3.274,3.274,0,0,0,.37.109l.02,0a4.023,4.023,0,0,0,.9.09Z" transform="translate(-23.668 -9.014)" fill="#ffd63c"/></g><g transform="translate(0.407 6.448)"><path d="M34.245,23.464v3.16a4.178,4.178,0,0,1-.906-.09.04.04,0,0,0-.018,0,2.988,2.988,0,0,1-.373-.112c-.018-.007-.036-.011-.058-.018a2.619,2.619,0,0,1-.38-.177l-8.142-4.675a1.171,1.171,0,0,1-.7-.973L23.7,9.014a1.176,1.176,0,0,0,.7.966l1.667.955A6.275,6.275,0,0,0,24.4,15.14c0,3.831,3.641,8.478,8.142,8.479a9.483,9.483,0,0,0,1.707-.155Z" transform="translate(-23.668 -9.014)" fill="#f4c531"/></g><g transform="translate(3.846 2.364)"><path d="M41.2,6.56,29.772,13.168,27.051,11.6,38.48,5Z" transform="translate(-27.051 -4.996)" fill="#ffd63c"/></g><g transform="translate(9.278 11.861)"><path d="M32.689,15.144a.442.442,0,0,1-.295-.406.363.363,0,0,1,.02-.12.381.381,0,0,1,.492-.256l-.016.046-.067.353Z" transform="translate(-32.395 -14.338)"/></g><g transform="translate(10.01 11.99)"><path d="M33.115,15.269l.114-.8-.027.317.076-.308-.076.308.076-.308Z" transform="translate(-33.115 -14.465)"/></g><g transform="translate(9.301 11.878)"><path d="M33.192,15.277a.408.408,0,0,1-.09-.011,3.661,3.661,0,0,1-.412-.121.409.409,0,0,1-.273-.384.418.418,0,0,1,.023-.134.411.411,0,0,1,.518-.25,3.076,3.076,0,0,0,.325.1.406.406,0,0,1,.317.4.418.418,0,0,1-.011.091A.407.407,0,0,1,33.192,15.277Z" transform="translate(-32.417 -14.355)"/></g><g transform="translate(9.683 11.989)"><path d="M34.067,15.372a4.408,4.408,0,0,1-.956-.1.408.408,0,0,1-.318-.4.457.457,0,0,1,.01-.089.409.409,0,0,1,.486-.308,3.6,3.6,0,0,0,.8.084h0a.407.407,0,0,1,0,.814Z" transform="translate(-32.793 -14.464)"/></g><g transform="translate(8.871 11.686)"><path d="M32.778,15.155a.411.411,0,0,1-.145-.027,3.132,3.132,0,0,1-.436-.2.407.407,0,1,1,.407-.7,2.128,2.128,0,0,0,.319.148.407.407,0,0,1-.145.787Z" transform="translate(-31.994 -14.166)"/></g><g transform="translate(0.029)"><path d="M34.225,15.569a3.853,3.853,0,0,1-1.883-.456L24.2,10.438a1.566,1.566,0,0,1-.9-1.321,1.551,1.551,0,0,1,.89-1.314L32.28,3.126a4.1,4.1,0,0,1,3.759,0L44.18,7.8a1.564,1.564,0,0,1,.9,1.321,1.553,1.553,0,0,1-.891,1.315L36.1,15.115a3.815,3.815,0,0,1-1.874.454ZM34.157,3.485a3.013,3.013,0,0,0-1.47.345L24.593,8.508c-.308.178-.484.4-.484.608s.182.438.5.618l8.141,4.675a3.318,3.318,0,0,0,2.945,0l8.094-4.677c.309-.178.485-.4.485-.61s-.181-.437-.5-.617L35.634,3.831a3.046,3.046,0,0,0-1.477-.345Z" transform="translate(-23.296 -2.67)"/></g><g transform="translate(9.672 6.05)"><path d="M34.052,27.038a4.393,4.393,0,0,1-.951-.1.406.406,0,0,1-.309-.484.4.4,0,0,1,.484-.31,3.41,3.41,0,0,0,.409.064V15.061a.408.408,0,0,1,.405-.407,2.956,2.956,0,0,0,1.444-.342l8.093-4.676c.307-.181.483-.4.484-.6v0a.407.407,0,0,1,.407-.406h0a.407.407,0,0,1,.406.407h0v0L44.9,20.6a1.555,1.555,0,0,1-.89,1.309l-8.094,4.678a3.79,3.79,0,0,1-1.861.452ZM34.5,15.447V26.2a2.709,2.709,0,0,0,1.007-.316L43.6,21.205c.308-.179.484-.4.484-.607l.027-10.3-.072.045h0l-8.093,4.677a3.6,3.6,0,0,1-1.442.431Zm9.331-5.46h.01Z" transform="translate(-32.782 -8.622)"/></g><g transform="translate(0 6.042)"><path d="M34.2,27.036a4.385,4.385,0,0,1-.937-.1,3.614,3.614,0,0,1-.44-.127,2.87,2.87,0,0,1-.506-.226l-8.142-4.675a1.568,1.568,0,0,1-.9-1.33L23.3,9.02a.407.407,0,0,1,.407-.406h0a.407.407,0,0,1,.406.407c0,.21.18.434.492.612l8.144,4.68a2.187,2.187,0,0,0,.32.148c.147.049.254.083.366.109a3.745,3.745,0,0,0,.814.085h0a.407.407,0,0,1,.407.407V26.629a.408.408,0,0,1-.4.407H34.2ZM24.107,10.283l-.026,10.3c0,.214.177.439.493.618l8.143,4.676a2.182,2.182,0,0,0,.323.15,3.512,3.512,0,0,0,.374.11,3.755,3.755,0,0,0,.428.068V15.453a4.4,4.4,0,0,1-.576-.088,3.641,3.641,0,0,1-.427-.124,3.059,3.059,0,0,1-.5-.223L24.2,10.338c-.032-.018-.063-.037-.093-.056Z" transform="translate(-23.268 -8.614)"/></g><g transform="translate(3.439 1.957)"><path d="M29.778,13.581a.411.411,0,0,1-.2-.055l-2.721-1.564a.406.406,0,0,1,0-.7L38.283,4.65a.409.409,0,0,1,.406,0l2.725,1.565a.406.406,0,0,1,0,.7L29.982,13.527a.411.411,0,0,1-.2.055ZM27.871,11.61,29.777,12.7,40.4,6.568l-1.909-1.1Z" transform="translate(-26.65 -4.596)"/></g><g transform="translate(3.818 8.971)"><path d="M29.773,13.06l-.027,4.511a.286.286,0,0,1-.428.246L27.3,16.658a.543.543,0,0,1-.273-.475l.028-4.688Z" transform="translate(-27.024 -11.496)" fill="#fff"/></g><g transform="translate(3.411 8.565)"><path d="M29.467,18.269a.683.683,0,0,1-.344-.093L27.1,17.017a.954.954,0,0,1-.477-.829l.029-4.689a.407.407,0,0,1,.61-.349l2.721,1.565a.408.408,0,0,1,.2.354L30.16,17.58a.7.7,0,0,1-.693.69ZM27.461,12.2l-.024,3.991a.136.136,0,0,0,.068.119l1.842,1.056.024-4.067Z" transform="translate(-26.623 -11.096)"/></g></g></g></g></svg>