<svg xmlns="http://www.w3.org/2000/svg" width="116" height="116" viewBox="0 0 116 116"><g transform="translate(-1161.757 -978)"><g transform="translate(856.645 -2645.355)"><circle cx="58" cy="58" r="58" transform="translate(305.112 3623.355)" fill="#fff" opacity="0.45"/><circle cx="47" cy="47" r="47" transform="translate(316.112 3634.355)" fill="#fff"/></g><g transform="translate(1185.757 999.46)"><path d="M35.029,4.975c2.64-1.524,4.794-.3,4.8,2.73L39.939,45.6a10.516,10.516,0,0,1-4.771,8.264L15.285,65.341c-2.641,1.525-4.788.3-4.8-2.74l-.107-37.893a10.5,10.5,0,0,1,4.765-8.253Z" fill="#fff"/><path d="M36.867,45.629a5.554,5.554,0,0,1-2.5,4.35L16.072,60.535c-1.144.655-2.112.342-2.424-.684a2.494,2.494,0,0,1-.108-.753l-.01-4.292h.01a10.591,10.591,0,0,0,3.578.616c8.788,0,18.4-12.08,18.4-25.219,0-5.758-2.845-13.4-5.435-18.017l2.112-1.222,2.053-1.183A1.7,1.7,0,0,1,36.173,9.7a1.026,1.026,0,0,1,.205.205,1.139,1.139,0,0,1,.166.254,1.835,1.835,0,0,1,.2.655,2.664,2.664,0,0,1,.029.4Z" fill="#e9edf4"/><path d="M6.5,60.283a3.34,3.34,0,0,0,1.4,3.069l3.985,2.323A3.342,3.342,0,0,1,10.493,62.6L10.38,24.7a9.18,9.18,0,0,1,.981-3.883L7.367,18.5a9.2,9.2,0,0,0-.982,3.891" fill="#f4c531"/><path d="M15.148,16.452,35.025,4.98a3.383,3.383,0,0,1,3.409-.34L34.44,2.317a3.365,3.365,0,0,0-3.4.34L11.154,14.138A10.1,10.1,0,0,0,7.367,18.5l3.993,2.322a10.154,10.154,0,0,1,3.788-4.37Z" fill="#f4c531"/><path d="M13.139,66.4a2.857,2.857,0,0,1-1.446-.374,3.724,3.724,0,0,1-1.6-3.424L9.981,24.709a10.961,10.961,0,0,1,4.965-8.6L34.829,4.629a3.764,3.764,0,0,1,3.8-.338,3.711,3.711,0,0,1,1.6,3.413L40.339,45.6a10.972,10.972,0,0,1-4.971,8.611L15.485,65.688a4.763,4.763,0,0,1-2.346.712ZM35.23,5.322,15.347,16.8a10.075,10.075,0,0,0-4.566,7.905L10.888,62.6a2.977,2.977,0,0,0,1.2,2.732,3,3,0,0,0,2.992-.338L34.968,53.515A10.087,10.087,0,0,0,39.539,45.6L39.432,7.706a2.963,2.963,0,0,0-1.2-2.722,3,3,0,0,0-3,.338Z"/><path d="M14.938,61.277a1.731,1.731,0,0,1-.646-.119,1.785,1.785,0,0,1-1.028-1.191,3.28,3.28,0,0,1-.115-.868l-.1-34.42a5.9,5.9,0,0,1,2.7-4.687L34.047,9.434a2.09,2.09,0,0,1,2.37-.049,1.887,1.887,0,0,1,.484.6,2.251,2.251,0,0,1,.236.79,2.988,2.988,0,0,1,.032.446l.1,34.41a5.98,5.98,0,0,1-2.7,4.7L16.272,60.881a2.723,2.723,0,0,1-1.333.4ZM35.367,9.84a1.916,1.916,0,0,0-.922.288L16.155,20.683a5.1,5.1,0,0,0-2.3,3.991l.1,34.423a2.471,2.471,0,0,0,.083.647,1.006,1.006,0,0,0,.554.67,1.543,1.543,0,0,0,1.286-.227L34.164,49.633a5.173,5.173,0,0,0,2.3-4v0l-.1-34.411a2.266,2.266,0,0,0-.025-.341,1.46,1.46,0,0,0-.154-.529.73.73,0,0,0-.113-.176.717.717,0,0,0-.145-.15.9.9,0,0,0-.565-.183Z"/><path d="M11.881,66.075a.4.4,0,0,1-.2-.055L7.695,63.7a3.719,3.719,0,0,1-1.6-3.414L5.986,22.392a9.562,9.562,0,0,1,1.021-4.065.4.4,0,0,1,.243-.209.386.386,0,0,1,.319.036l3.993,2.322a.4.4,0,0,1,.16.519A8.74,8.74,0,0,0,10.78,24.7l.113,37.892a2.983,2.983,0,0,0,1.188,2.733h0a.4.4,0,0,1-.2.746ZM7.548,19.068a8.464,8.464,0,0,0-.763,3.322L6.9,60.282a2.968,2.968,0,0,0,1.2,2.724l2.258,1.316a5.318,5.318,0,0,1-.263-1.727L9.98,24.705a9.289,9.289,0,0,1,.866-3.721Z"/><path d="M11.361,21.222a.4.4,0,0,1-.2-.055L7.166,18.845a.4.4,0,0,1-.16-.519,10.458,10.458,0,0,1,3.948-4.535L30.841,2.311a3.78,3.78,0,0,1,3.8-.34l4,2.323a.4.4,0,0,1-.4.692,3,3,0,0,0-3.008.339L15.348,16.8a9.7,9.7,0,0,0-3.626,4.2.4.4,0,0,1-.243.209.375.375,0,0,1-.118.019Zm-3.468-2.88,3.3,1.92A10.332,10.332,0,0,1,14.948,16.1h0L34.825,4.633A5.336,5.336,0,0,1,36.5,3.98L34.239,2.663a3.023,3.023,0,0,0-3,.339L11.354,14.484a9.477,9.477,0,0,0-3.462,3.857Z"/><path d="M8.241,36.563a.378.378,0,0,1-.378-.376l-.008-2.6a.377.377,0,0,1,.377-.379h0a.378.378,0,0,1,.378.376l.008,2.6a.377.377,0,0,1-.377.379h0Z"/><path d="M8.226,31.543a.378.378,0,0,1-.378-.376l-.013-4.477a.377.377,0,0,1,.377-.379h0a.378.378,0,0,1,.378.376L8.6,31.164a.377.377,0,0,1-.377.379h0Z"/><path d="M24.712,22.105c3.571-2.062,6.479-.409,6.49,3.694a14.211,14.211,0,0,1-6.448,11.168c-3.571,2.062-6.479.409-6.49-3.7a14.21,14.21,0,0,1,6.448-11.164Z" fill="#fff"/><path d="M21.851,38.258a3.736,3.736,0,0,1-1.888-.486c-1.347-.775-2.093-2.374-2.1-4.5a14.669,14.669,0,0,1,6.647-11.512c1.863-1.074,3.636-1.238,4.993-.457s2.092,2.372,2.1,4.5a14.676,14.676,0,0,1-6.647,11.516,6.3,6.3,0,0,1-3.1.943Zm5.762-16.642a5.512,5.512,0,0,0-2.7.836,13.783,13.783,0,0,0-6.248,10.816c.005,1.83.608,3.183,1.7,3.81s2.587.47,4.192-.457A13.788,13.788,0,0,0,30.8,25.8c-.005-1.827-.608-3.179-1.7-3.806a2.948,2.948,0,0,0-1.492-.379Z"/><path d="M60.731,51.44a1.36,1.36,0,0,1-2.157.426,2.048,2.048,0,0,1-.359,2.48A3.113,3.113,0,0,1,55.44,55a7.426,7.426,0,0,1-2.633-1.269l-.011-.011a2.524,2.524,0,0,1-2.147,3.155,4.681,4.681,0,0,1-1.94-.434q-5.037-1.884-10.053-3.781a.011.011,0,0,1-.007,0,1.2,1.2,0,0,1-.082.1,1.852,1.852,0,0,1-1.663.415,2.691,2.691,0,0,1-.434-.065c-.456-.1-.9-.206-1.346-.335-.28-.077-.551-.163-.822-.262a.25.25,0,0,1-.088-.021c-.3-.108-.607-.228-.9-.348a1.712,1.712,0,0,1-.217-.1c-.316-.131-.619-.271-.921-.422a18.43,18.43,0,0,1-8.208-7.881,6.839,6.839,0,0,1-.834-2.387c-.142-1.332.368-2.721-.022-4a4.566,4.566,0,0,0-.434-.933c-.336-.564-.759-1.073-1.106-1.615a4.293,4.293,0,0,1-.422-.792,2.236,2.236,0,0,1-.14-.488,2.035,2.035,0,0,1-.022-.271,10.358,10.358,0,0,1,4.652-7.838,4.27,4.27,0,0,1,1.917-.607h.034a2.552,2.552,0,0,1,.292.022.067.067,0,0,1,.045.011,8.479,8.479,0,0,1,2.45.7,41.358,41.358,0,0,1,7.1,3.383c3.687,2.373,6.526,5.885,10.159,8.357,3.024,2.071,6.558,3.394,9.29,5.821a3.359,3.359,0,0,1,1.387,2.428,1.5,1.5,0,0,1-1.561,1.377,11.142,11.142,0,0,1,3.155,2.33,2.362,2.362,0,0,1,.824,2.19Z" fill="#fff"/><path d="M60.731,51.438a1.357,1.357,0,0,1-2.155.427,2.055,2.055,0,0,1-.359,2.48A3.117,3.117,0,0,1,55.439,55a7.386,7.386,0,0,1-2.629-1.267l-.014-.014a2.527,2.527,0,0,1-2.148,3.158,4.8,4.8,0,0,1-1.938-.434q-5.042-1.891-10.056-3.781h-.007l-.081.1a1.852,1.852,0,0,1-1.66.413,2.165,2.165,0,0,1-.434-.061c-.461-.1-.9-.21-1.348-.339-.278-.075-.549-.163-.82-.258a.416.416,0,0,1-.088-.02c-.3-.108-.61-.23-.9-.352a1.5,1.5,0,0,1-.217-.095c-.312-.129-.616-.271-.922-.42a18.454,18.454,0,0,1-8.206-7.881,6.94,6.94,0,0,1-.833-2.392c-.142-1.328.366-2.717-.021-4a4.848,4.848,0,0,0-.433-.928c-.339-.569-.759-1.078-1.1-1.62a4.264,4.264,0,0,1-.427-.793,2.155,2.155,0,0,1-.136-.488,1.583,1.583,0,0,1-.027-.264,10.371,10.371,0,0,1,4.655-7.84,4.865,4.865,0,0,1,.63-.3c-4.032,7.989.095,18.649,9.541,24.2,8.159,4.8,17.714,4.262,23.4-.739a8.093,8.093,0,0,1,.691.671,2.363,2.363,0,0,1,.827,2.189Z" fill="#e9edf4"/><path d="M50.486,57.277a5.5,5.5,0,0,1-1.92-.465q-4.908-1.835-9.8-3.685a2.29,2.29,0,0,1-1.916.444,3.1,3.1,0,0,1-.474-.072c-.457-.1-.911-.209-1.365-.341-.277-.075-.551-.161-.825-.261a.706.706,0,0,1-.1-.025c-.319-.113-.629-.235-.927-.357a1.927,1.927,0,0,1-.264-.12c-.279-.111-.59-.256-.9-.412a18.783,18.783,0,0,1-8.383-8.052,7.271,7.271,0,0,1-.877-2.532,8.743,8.743,0,0,1,.051-1.779,5.533,5.533,0,0,0-.058-2.144,4.208,4.208,0,0,0-.4-.847c-.182-.3-.391-.594-.6-.881-.172-.238-.344-.477-.5-.721a4.754,4.754,0,0,1-.459-.865,2.579,2.579,0,0,1-.16-.559,2.485,2.485,0,0,1-.029-.344,10.789,10.789,0,0,1,4.85-8.184,4.7,4.7,0,0,1,2.111-.662h0a3.12,3.12,0,0,1,.354.022.646.646,0,0,1,.073.015,8.821,8.821,0,0,1,2.534.725A41.7,41.7,0,0,1,37.693,28.6a41.242,41.242,0,0,1,5.35,4.362,44.236,44.236,0,0,0,4.818,4c1.193.817,2.5,1.532,3.754,2.224a29.748,29.748,0,0,1,5.577,3.63,3.742,3.742,0,0,1,1.521,2.74,1.905,1.905,0,0,1-.73,1.365,2.011,2.011,0,0,1-.171.125,11.436,11.436,0,0,1,2.386,1.93,2.626,2.626,0,0,1,.913,2.591v0a1.593,1.593,0,0,1-1.2,1.012,1.961,1.961,0,0,1-.668.029,2.532,2.532,0,0,1-.742,2.023,3.53,3.53,0,0,1-3.137.755,6.539,6.539,0,0,1-2.066-.871,2.972,2.972,0,0,1-.521,1.5,2.8,2.8,0,0,1-2.1,1.256q-.093.006-.186.006Zm-11.83-5.02a.391.391,0,0,1,.142.026q5.02,1.9,10.051,3.779a4.412,4.412,0,0,0,1.772.409,2.126,2.126,0,0,0,1.794-2.632.4.4,0,0,1,.657-.412,6.9,6.9,0,0,0,2.448,1.178,2.711,2.711,0,0,0,2.42-.549,1.659,1.659,0,0,0,.3-1.972.4.4,0,0,1,.625-.494.932.932,0,0,0,.87.209.806.806,0,0,0,.618-.486c.2-.607-.29-1.31-.738-1.791a10.671,10.671,0,0,0-3.039-2.244.4.4,0,0,1,.246-.753.884.884,0,0,0,.659-.227,1.11,1.11,0,0,0,.434-.773,2.893,2.893,0,0,0-1.253-2.113,29.173,29.173,0,0,0-5.43-3.525c-1.276-.7-2.595-1.425-3.82-2.264A44.823,44.823,0,0,1,42.5,33.552a40.629,40.629,0,0,0-5.243-4.28,41.069,41.069,0,0,0-7.032-3.348,8.206,8.206,0,0,0-2.332-.677.371.371,0,0,1-.093-.018c-.094-.009-.154-.015-.214-.015a3.889,3.889,0,0,0-1.757.557,9.9,9.9,0,0,0-4.446,7.5,1.7,1.7,0,0,0,.019.206,1.779,1.779,0,0,0,.111.38,4,4,0,0,0,.391.734c.149.233.313.459.476.686.221.307.443.615.638.941a4.966,4.966,0,0,1,.471,1.015,6.207,6.207,0,0,1,.091,2.462,8,8,0,0,0-.052,1.618,6.531,6.531,0,0,0,.791,2.244,17.991,17.991,0,0,0,8.028,7.706c.3.148.593.285.9.413a1.311,1.311,0,0,0,.166.075c.336.139.635.255.932.361.351.117.611.2.88.273.442.128.878.234,1.325.329a2.413,2.413,0,0,0,.38.059,1.559,1.559,0,0,0,1.333-.282.5.5,0,0,1,.321-.2c.021,0,.044,0,.068,0Zm-.007.4h.01Zm22.082-1.215h.01Z"/><path d="M58.575,52.267a.4.4,0,0,1-.32-.159c-.023-.031-2.442-3.082-13.3-7.082a.4.4,0,1,1,.276-.75C56.389,48.385,58.8,51.5,58.895,51.627a.4.4,0,0,1-.32.64Z"/><path d="M52.8,54.124a.4.4,0,0,1-.339-.187c-.021-.033-2.2-3.339-11.405-6.728a.4.4,0,1,1,.276-.75c9.519,3.5,11.719,6.91,11.808,7.054a.4.4,0,0,1-.129.551.4.4,0,0,1-.21.061Z"/><path d="M56.769,47.328a.4.4,0,0,1-.251-.09,28.83,28.83,0,0,0-9.4-4.889.4.4,0,1,1,.193-.775,29.05,29.05,0,0,1,9.708,5.043.4.4,0,0,1-.252.711Z"/><path d="M38.566,53.16a.4.4,0,0,1-.3-.664.179.179,0,0,1,.019-.024,4.968,4.968,0,0,0-.2-2.283,5.82,5.82,0,0,0-1.329-2.055,9.861,9.861,0,0,0-2-1.548c-.134-.065-.3-.152-.458-.239-.223-.12-.445-.239-.675-.347l-.09-.039a4.3,4.3,0,0,1-2.274-2.189,2.324,2.324,0,0,1-.056-2.114.4.4,0,1,1,.7.393,1.655,1.655,0,0,0,.083,1.38,3.51,3.51,0,0,0,1.871,1.8l.1.044c.251.117.487.243.724.371.155.083.312.167.471.247a10.776,10.776,0,0,1,2.185,1.691,6.6,6.6,0,0,1,1.506,2.346,5.662,5.662,0,0,1,.209,2.813.4.4,0,0,1-.122.213c-.019.025-.039.049-.059.071a.4.4,0,0,1-.3.137Z"/><path d="M36.9,53.18a2.9,2.9,0,0,1-.433-.067,17.9,17.9,0,0,1-4.293-1.486,4.015,4.015,0,0,1,.222-.5,1.673,1.673,0,0,1,.355-.521,1.373,1.373,0,0,1,.41-.266,3.984,3.984,0,0,1,3.128.466,1.433,1.433,0,0,1,.544.71,2.124,2.124,0,0,1,.067.533,6.431,6.431,0,0,1,0,1.131Z" fill="#fff"/><path d="M36.9,53.58l-.03,0a3.181,3.181,0,0,1-.493-.075,18.289,18.289,0,0,1-4.381-1.518.4.4,0,0,1-.2-.478,3.041,3.041,0,0,1,.181-.425l.061-.125a2.033,2.033,0,0,1,.445-.645,1.741,1.741,0,0,1,.516-.337,3.572,3.572,0,0,1,2.6.063,3.655,3.655,0,0,1,.919.437,1.843,1.843,0,0,1,.7.921,2.035,2.035,0,0,1,.079.538,7.358,7.358,0,0,1,0,1.291.4.4,0,0,1-.4.354ZM32.69,51.433a17.479,17.479,0,0,0,3.833,1.284c0-.207-.012-.418-.024-.637l-.006-.1a1.4,1.4,0,0,0-.042-.336,1.044,1.044,0,0,0-.4-.512,2.937,2.937,0,0,0-.716-.333,2.831,2.831,0,0,0-2.019-.089.994.994,0,0,0-.286.183,1.275,1.275,0,0,0-.276.409Z"/><path d="M61.615,28.856l-.041,14.718a1.359,1.359,0,0,1-.8,1.117L50.291,50.784a4.284,4.284,0,0,1-3.881,0L35.87,44.7a1.356,1.356,0,0,1-.81-1.137l.034-14.711a1.382,1.382,0,0,0,.81,1.13l10.547,6.087a4.285,4.285,0,0,0,3.881,0l10.479-6.094a1.383,1.383,0,0,0,.8-1.117Z" fill="#fff"/><path d="M61.611,28.857l-.038,14.717a1.362,1.362,0,0,1-.795,1.117L50.291,50.787a4.32,4.32,0,0,1-3.883,0l-4.813-2.781a19.419,19.419,0,0,0,3.786.36c8.149,0,14.762-1.9,14.762-11.5a8.462,8.462,0,0,0-1.994-5.345l2.661-1.544a1.373,1.373,0,0,0,.8-1.117Z" fill="#e9edf4"/><path d="M48.353,51.652a4.372,4.372,0,0,1-2.143-.521L35.67,45.044a1.735,1.735,0,0,1-1.01-1.49l.035-14.7v0h0a.4.4,0,0,1,.4-.4h0a.4.4,0,0,1,.4.4,1.029,1.029,0,0,0,.611.785L46.651,35.72a3.892,3.892,0,0,0,3.481,0L60.61,29.627a1.023,1.023,0,0,0,.6-.777.4.4,0,0,1,.4-.395h0a.4.4,0,0,1,.4.4l-.041,14.718a1.756,1.756,0,0,1-1,1.463L50.492,51.13a4.337,4.337,0,0,1-2.139.521ZM35.491,30.19l-.032,13.371c0,.282.212.562.61.79L46.61,50.438a3.9,3.9,0,0,0,3.48,0l10.485-6.094a1,1,0,0,0,.6-.771l.037-13.381c-.063.044-.13.086-.2.127L50.534,36.412a4.647,4.647,0,0,1-4.283,0L35.7,30.326c-.075-.044-.146-.09-.213-.137Z"/><path d="M48.293,36.526a3.907,3.907,0,0,1-1.842-.459L35.9,29.979a1.382,1.382,0,0,1-.81-1.13L35.06,43.56a1.356,1.356,0,0,0,.81,1.137l10.54,6.087a3.948,3.948,0,0,0,1.883.461Z" fill="#ffd63c"/><path d="M48.289,47.631v3.613a3.969,3.969,0,0,1-1.882-.457L35.867,44.7a1.373,1.373,0,0,1-.81-1.139L35.1,28.85a1.387,1.387,0,0,0,.81,1.132l2.361,1.364a10.235,10.235,0,0,0-1.4,5.188c0,5.69,4.61,11.157,10.308,11.157a11.029,11.029,0,0,0,1.117-.06Z" fill="#f4c531"/><path d="M48.293,51.647h-.005a4.353,4.353,0,0,1-2.077-.516L35.67,45.044a1.735,1.735,0,0,1-1.01-1.49l.035-14.706a.4.4,0,0,1,.4-.4h0a.4.4,0,0,1,.4.4,1.029,1.029,0,0,0,.611.785L46.651,35.72a3.5,3.5,0,0,0,1.65.405.4.4,0,0,1,.392.4V51.246a.4.4,0,0,1-.4.4ZM35.491,30.19l-.032,13.371c0,.282.212.562.61.79L46.61,50.438a3.267,3.267,0,0,0,1.283.385V36.9a4.1,4.1,0,0,1-1.643-.49L35.7,30.326c-.075-.044-.146-.09-.213-.137Z"/><path d="M60.8,27.724a1.188,1.188,0,0,1,.013,2.249L50.331,36.065a4.285,4.285,0,0,1-3.883,0L35.906,29.978a1.188,1.188,0,0,1-.013-2.249l10.482-6.092a4.27,4.27,0,0,1,3.883,0Z" fill="#fff"/><path d="M60.811,29.974l-10.478,6.09a4.306,4.306,0,0,1-3.886,0L35.9,29.981a1.192,1.192,0,0,1-.007-2.255l2.068-1.2c.532,3.526,5.308,6.291,11.111,6.291,5.393,0,9.9-2.384,10.938-5.552l.79.46a1.188,1.188,0,0,1,.007,2.248Z" fill="#e9edf4"/><path d="M48.392,36.933a4.367,4.367,0,0,1-2.144-.521L35.706,30.324a1.578,1.578,0,0,1-.013-2.94l10.482-6.092a4.653,4.653,0,0,1,4.284,0L61,27.377a1.58,1.58,0,0,1,.014,2.941L50.532,36.41a4.331,4.331,0,0,1-2.14.522Zm-.078-15.359a3.545,3.545,0,0,0-1.737.41L36.095,28.075a1,1,0,0,0-.6.773,1.019,1.019,0,0,0,.61.782l10.542,6.087a3.9,3.9,0,0,0,3.481,0l10.482-6.092a1.006,1.006,0,0,0,.6-.773,1.021,1.021,0,0,0-.611-.783L50.058,21.985a3.572,3.572,0,0,0-1.744-.411Z"/><path d="M56.867,32.279l.012,4.38a1.034,1.034,0,0,1-.471.815.35.35,0,0,1-.3.046l-.931-.342a.356.356,0,0,0-.3.049.918.918,0,0,0-.3.295l-.926,1.414a.916.916,0,0,1-.3.3c-.243.14-.473.053-.474-.269l-.012-4.38Z" fill="#fff"/><path d="M56.882,36.658a1.038,1.038,0,0,1-.472.815.346.346,0,0,1-.3.046l-.928-.338a.337.337,0,0,0-.3.046.867.867,0,0,0-.3.3l-.928,1.41a.93.93,0,0,1-.3.3c-.246.138-.477.051-.477-.272l-.005-1.892a2.368,2.368,0,0,0,.508.051A2.746,2.746,0,0,0,56.1,34.356a2.806,2.806,0,0,0-.379-1.415l1.143-.661Z" fill="#e9edf4"/><path d="M53.145,39.7a.639.639,0,0,1-.324-.086.718.718,0,0,1-.336-.648l-.012-4.38a.4.4,0,0,1,.2-.348l3.995-2.307a.405.405,0,0,1,.4,0,.4.4,0,0,1,.2.346l.012,4.381a1.435,1.435,0,0,1-.672,1.162.733.733,0,0,1-.642.072l-.925-.338c.014.034-.055.081-.123.186l-.927,1.414a1.3,1.3,0,0,1-.435.428A.83.83,0,0,1,53.145,39.7Zm.128-4.885.011,3.955c.012-.016.025-.033.038-.053l.927-1.414a1.3,1.3,0,0,1,.431-.422.738.738,0,0,1,.643-.076l.925.338a.861.861,0,0,0,.232-.483l-.01-3.69Z"/><path d="M56.867,32.279,42.92,23.646,38.872,26l14,8.587Z" fill="#ffd63c"/><path d="M56.866,32.28l-1.076.62L41.846,24.268l1.071-.62Z" fill="#f4c531"/><path d="M52.872,34.986a.4.4,0,0,1-.209-.06l-14-8.587a.4.4,0,0,1,.008-.687L42.719,23.3a.4.4,0,0,1,.412.006l13.947,8.633a.4.4,0,0,1-.01.687l-3.995,2.307a.408.408,0,0,1-.2.054Zm-13.22-8.979,13.226,8.112,3.209-1.853L42.914,24.112Z"/></g></g></svg>