<svg xmlns="http://www.w3.org/2000/svg" width="52.663" height="64.004" viewBox="0 0 52.663 64.004"><g transform="translate(-7.668 -1.998)"><path d="M31.244,5.274a.415.415,0,0,0-.17.373l-.008,3.433a.75.75,0,0,1-.324.7L15.3,18.755a.75.75,0,0,0,.324-.7l.008-3.433a.406.406,0,0,1,.17-.373Z" fill="#fff"/><path d="M15.3,19.155a.4.4,0,0,1-.2-.746l.01-.005a.421.421,0,0,0,.115-.347l.008-3.434a.791.791,0,0,1,.359-.712L31.043,4.929a.4.4,0,0,1,.438.668l-.016,3.485a1.143,1.143,0,0,1-.529,1.046L15.521,19.092,15.5,19.1a.4.4,0,0,1-.2.051ZM30.671,6.07,16.007,14.6l.02,3.275L30.54,9.433c.081-.045.125-.176.125-.352Z"/><path d="M39.7,5.267c1.92-1.109,3.484-.217,3.491,1.99l.1,37.034A7.643,7.643,0,0,1,39.83,50.3L15.78,64.194c-1.926,1.113-3.484.224-3.491-1.99l-.1-37.034a7.643,7.643,0,0,1,3.468-6.01Z" fill="#fff"/><path d="M14.212,65.075a2.178,2.178,0,0,1-1.1-.285A2.812,2.812,0,0,1,11.888,62.2l-.1-37.035a7.986,7.986,0,0,1,3.668-6.357L39.5,4.921a2.83,2.83,0,0,1,2.868-.246,2.808,2.808,0,0,1,1.224,2.581l.1,37.035a7.981,7.981,0,0,1-3.668,6.357L15.98,64.54A3.581,3.581,0,0,1,14.212,65.075ZM39.9,5.614,15.852,19.506a7.217,7.217,0,0,0-3.268,5.663l.1,37.034a2.067,2.067,0,0,0,.819,1.894,2.089,2.089,0,0,0,2.071-.249l24.05-13.892A7.212,7.212,0,0,0,42.9,44.293l-.1-37.035a2.06,2.06,0,0,0-.821-1.89,2.085,2.085,0,0,0-2.069.245Z"/><path d="M16.076,25.158A3.887,3.887,0,0,1,17.6,22.532L36.54,11.591a1.85,1.85,0,0,1,2.776,1.6l.09,31.114a3.9,3.9,0,0,1-1.521,2.626L18.941,57.871a1.85,1.85,0,0,1-2.776-1.6Z" fill="#fff"/><path d="M39.4,44.308a3.9,3.9,0,0,1-1.518,2.619L18.938,57.87a1.849,1.849,0,0,1-2.773-1.6l-.01-3.184c.117.01.234.01.35.01,11.726,0,21.233-10.515,21.233-23.483A24.811,24.811,0,0,0,32.367,14.01L36.542,11.6a1.846,1.846,0,0,1,2.773,1.6Z" fill="#e9edf4"/><path d="M18.016,58.522a2.26,2.26,0,0,1-2.251-2.248l-.089-31.115h0A4.248,4.248,0,0,1,17.4,22.186L36.88,10.933a1.889,1.889,0,0,1,2.834,1.63L39.805,44.3a4.255,4.255,0,0,1-1.722,2.974L19.141,58.217a2.245,2.245,0,0,1-1.125.305ZM37.825,11.478a1.082,1.082,0,0,0-.544.147L17.8,22.879a3.5,3.5,0,0,0-1.321,2.278h0l.089,31.115a1.45,1.45,0,0,0,2.175,1.252L37.683,46.583A3.51,3.51,0,0,0,39,44.3l-.091-31.739a1.093,1.093,0,0,0-1.089-1.087Z"/><path d="M8.069,22.772l.107,37.035a2.439,2.439,0,0,0,1.012,2.239l4.116,2.4A2.439,2.439,0,0,1,12.292,62.2l-.107-37.035a6.521,6.521,0,0,1,.589-2.585l-4.12-2.387A6.517,6.517,0,0,0,8.069,22.772Z" fill="#f4c531"/><path d="M13.3,64.841a.4.4,0,0,1-.2-.054h0l-.006,0L8.987,62.392a2.808,2.808,0,0,1-1.211-2.585L7.668,22.773h0a6.886,6.886,0,0,1,.619-2.739.4.4,0,0,1,.566-.187l4.12,2.388a.4.4,0,0,1,.166.506,6.1,6.1,0,0,0-.555,2.422L12.692,62.2a2.094,2.094,0,0,0,.807,1.89l.007,0a.4.4,0,0,1-.2.746ZM8.853,20.772a5.8,5.8,0,0,0-.384,2h0l.107,37.035A2.089,2.089,0,0,0,9.388,61.7l2.625,1.527a4.143,4.143,0,0,1-.122-1.025l-.106-37.034a6.7,6.7,0,0,1,.486-2.415Z"/><path d="M38.06,2.638a2.445,2.445,0,0,0-2.472.234L11.533,16.765a7.46,7.46,0,0,0-2.879,3.43l4.12,2.387a7.457,7.457,0,0,1,2.876-3.422L39.7,5.267a2.45,2.45,0,0,1,2.472-.243Z" fill="#ffd63c"/><path d="M12.774,22.982a.4.4,0,0,1-.2-.054l-4.12-2.388a.4.4,0,0,1-.167-.506,7.864,7.864,0,0,1,3.046-3.617L35.388,2.526a2.82,2.82,0,0,1,2.873-.233l4.106,2.38.007,0h0a.4.4,0,0,1-.4.691l-.012-.007a2.083,2.083,0,0,0-2.061.25L15.849,19.506a7.049,7.049,0,0,0-2.709,3.236.4.4,0,0,1-.366.24Zm-3.6-2.951L12.6,22.017a7.708,7.708,0,0,1,2.853-3.2L39.5,4.921a4.259,4.259,0,0,1,.973-.419L37.86,2.985h0a2.07,2.07,0,0,0-2.07.235L11.733,17.111a6.91,6.91,0,0,0-2.563,2.92Z"/><path d="M42.176,5.024a2.45,2.45,0,0,0-2.472.243l-18.2,10.5-1.547.9a1.191,1.191,0,0,0-.418-.458l-3.328-1.918a.5.5,0,0,0-.263-.078L18.2,12.92,35.588,2.872a2.445,2.445,0,0,1,2.472-.234Z" fill="#fff"/><path d="M19.961,17.068a.386.386,0,0,1-.11-.016.4.4,0,0,1-.243-.2.793.793,0,0,0-.268-.3l-3.326-1.917a.448.448,0,0,1-.417-.309.4.4,0,0,1,.155-.462L35.388,2.526a2.817,2.817,0,0,1,2.874-.233l4.1,2.378.01.006h0a.4.4,0,0,1-.4.691l-.01-.005a2.081,2.081,0,0,0-2.062.25l-19.744,11.4a.4.4,0,0,1-.2.054Zm-3.145-2.89,2.926,1.686a1.431,1.431,0,0,1,.333.276L39.5,4.921a4.249,4.249,0,0,1,.974-.419L37.86,2.985a2.067,2.067,0,0,0-2.071.234Z"/><path d="M22.305,18.479l-.01,5.744c-.01.7-.5.983-1.1.633a2.418,2.418,0,0,1-1.09-1.889l.019-5.754a1.073,1.073,0,0,0-.165-.545,1.191,1.191,0,0,0-.418-.458l-3.328-1.918a.5.5,0,0,0-.263-.078.266.266,0,0,0-.243.136L13.44,15.665l.01-2.307c0-1.762,1.246-2.463,2.773-1.577L18.2,12.92l1.353.779a5.668,5.668,0,0,1,1.956,2.074,5.6,5.6,0,0,1,.8,2.707Z" fill="#ffd63c"/><path d="M21.685,25.407a1.385,1.385,0,0,1-.69-.206,2.821,2.821,0,0,1-1.289-2.234l.02-5.755a.689.689,0,0,0-.106-.336.829.829,0,0,0-.279-.32l-3.326-1.917A.021.021,0,0,1,16,14.618a.379.379,0,0,1-.1.079L13.64,16.011a.4.4,0,0,1-.6-.348l.01-2.308a2.3,2.3,0,0,1,1.007-2.123,2.333,2.333,0,0,1,2.368.2l3.326,1.917a6.028,6.028,0,0,1,2.1,2.222,5.951,5.951,0,0,1,.852,2.905h0l-.01,5.744a1.18,1.18,0,0,1-.534,1.061.955.955,0,0,1-.477.124ZM15.951,13.815a.9.9,0,0,1,.469.135l3.322,1.914a1.583,1.583,0,0,1,.572.618,1.451,1.451,0,0,1,.212.732l-.02,5.755A2.039,2.039,0,0,0,21.4,24.51a.426.426,0,0,0,.37.078c.061-.034.125-.149.128-.37l.01-5.739a5.222,5.222,0,0,0-.743-2.505,5.232,5.232,0,0,0-1.812-1.929l-3.327-1.917a1.584,1.584,0,0,0-1.567-.2,1.557,1.557,0,0,0-.605,1.431l-.007,1.612,1.591-.922a.669.669,0,0,1,.517-.232Zm6.354,4.664h.01Z"/><path d="M34.983,4.722,31.665,2.8A1.967,1.967,0,0,0,29.686,2.6L14.249,11.58a1.967,1.967,0,0,1,1.979.195L19.554,13.7a5.8,5.8,0,0,1,2.108,2.373L37.1,7.1a5.786,5.786,0,0,0-2.115-2.373Z" fill="#fff"/><path d="M21.662,16.471a.407.407,0,0,1-.113-.016.4.4,0,0,1-.243-.2,5.388,5.388,0,0,0-1.951-2.208l-3.326-1.923a1.6,1.6,0,0,0-1.577-.2.4.4,0,0,1-.4-.691L29.485,2.259a2.342,2.342,0,0,1,2.38.193l3.318,1.924a6.212,6.212,0,0,1,2.271,2.539.4.4,0,0,1-.155.527L21.863,16.417a.4.4,0,0,1-.2.054ZM15.8,11.14a3.689,3.689,0,0,1,.625.288l3.327,1.924a6.011,6.011,0,0,1,2.062,2.167L36.56,6.946a5.189,5.189,0,0,0-1.777-1.877h0L31.465,3.145a1.6,1.6,0,0,0-1.578-.2Z"/><path d="M21.662,16.071a5.4,5.4,0,0,1,.642,2.4l-.016,5.754a.769.769,0,0,1-.316.706l15.437-8.976a.769.769,0,0,0,.316-.706L37.741,9.5A5.407,5.407,0,0,0,37.1,7.1Z" fill="#fff"/><path d="M21.972,25.331a.4.4,0,0,1-.2-.745c.057-.033.117-.146.117-.361l.017-5.755a4.935,4.935,0,0,0-.6-2.216.4.4,0,0,1,.155-.527L36.9,6.75a.394.394,0,0,1,.314-.038.4.4,0,0,1,.243.2,5.762,5.762,0,0,1,.687,2.59l-.016,5.745a1.162,1.162,0,0,1-.515,1.05L22.173,25.277a.4.4,0,0,1-.2.054Zm.209-9.1a5.509,5.509,0,0,1,.523,2.241l-.017,5.58,14.519-8.443c.057-.033.117-.146.117-.36L37.34,9.5a4.676,4.676,0,0,0-.418-1.841Z"/><path d="M26.025,27.284a.4.4,0,0,1-.2-.748l10.564-5.985a.4.4,0,0,1,.395.7L26.222,27.232a.4.4,0,0,1-.2.052Z"/><path d="M26.025,32.777a.4.4,0,0,1-.2-.748l10.564-5.985a.4.4,0,0,1,.395.7L26.222,32.725a.4.4,0,0,1-.2.052Z"/><path d="M26.025,38.27a.4.4,0,0,1-.2-.748l10.564-5.984a.4.4,0,0,1,.395.7L26.222,38.219a.4.4,0,0,1-.2.052Z"/><path d="M26.025,43.764a.4.4,0,0,1-.2-.748l10.564-5.985a.4.4,0,0,1,.395.7L26.222,43.712a.4.4,0,0,1-.2.052Z"/><path d="M26.025,49.257a.4.4,0,0,1-.2-.748l10.564-5.985a.4.4,0,0,1,.395.7L26.222,49.205a.4.4,0,0,1-.2.052Z"/><path d="M22.618,28.171c.48-.277.867-.052.868.5l.009,3.28a1.9,1.9,0,0,1-.863,1.5L19.77,35.1c-.476.275-.866.052-.868-.5l-.009-3.28a1.91,1.91,0,0,1,.862-1.5Z" fill="#fff"/><path d="M19.383,35.621a.841.841,0,0,1-.425-.111,1,1,0,0,1-.457-.9l-.009-3.281a2.317,2.317,0,0,1,1.063-1.847l2.863-1.653a.922.922,0,0,1,1.469.845L23.9,31.95A2.283,2.283,0,0,1,22.833,33.8L19.97,35.45a1.178,1.178,0,0,1-.587.171Zm3.436-7.1-2.863,1.653a1.509,1.509,0,0,0-.662,1.152L19.3,34.6c0,.151.044.207.056.214s.082.015.212-.06L22.433,33.1a1.509,1.509,0,0,0,.662-1.152l-.009-3.281c0-.152-.044-.209-.055-.216s-.084-.012-.213.061Z"/><path d="M22.618,36.808c.48-.277.867-.052.868.5l.009,3.28a1.9,1.9,0,0,1-.863,1.5L19.77,43.741c-.476.275-.866.052-.868-.5l-.009-3.28a1.91,1.91,0,0,1,.862-1.5Z" fill="#ffd63c"/><path d="M19.383,44.258a.848.848,0,0,1-.425-.11,1,1,0,0,1-.457-.905l-.009-3.281a2.318,2.318,0,0,1,1.063-1.847l2.863-1.653a.922.922,0,0,1,1.469.845l.009,3.281a2.283,2.283,0,0,1-1.062,1.847L19.97,44.087a1.178,1.178,0,0,1-.587.171Zm3.436-7.1-2.863,1.653a1.51,1.51,0,0,0-.662,1.152L19.3,43.24c0,.151.044.208.056.214s.082.015.212-.06l2.863-1.653A1.509,1.509,0,0,0,23.1,40.59l-.009-3.281c0-.152-.044-.209-.055-.216A.317.317,0,0,0,22.819,37.154Z"/><path d="M22.618,45.445c.48-.277.867-.052.868.5l.009,3.28a1.9,1.9,0,0,1-.863,1.5L19.77,52.378c-.476.275-.866.052-.868-.5l-.009-3.28a1.91,1.91,0,0,1,.862-1.5Z" fill="#fff"/><path d="M19.383,52.895a.848.848,0,0,1-.425-.11,1,1,0,0,1-.457-.905L18.493,48.6a2.318,2.318,0,0,1,1.063-1.847L22.418,45.1a.922.922,0,0,1,1.469.845l.009,3.281a2.283,2.283,0,0,1-1.062,1.847L19.97,52.724a1.178,1.178,0,0,1-.587.171Zm3.436-7.1-2.863,1.653a1.51,1.51,0,0,0-.662,1.152l.009,3.281c0,.151.044.208.056.214s.082.016.212-.06l2.863-1.653a1.509,1.509,0,0,0,.662-1.152l-.009-3.281c0-.138-.037-.206-.055-.216A.313.313,0,0,0,22.819,45.791Z"/><path d="M44.376,50.992c.022.008.048.013.07.021C44.424,51.006,44.4,51,44.376,50.992Z" fill="#fff"/><path d="M44.933,51.159l.019,0Z" fill="#fff"/><path d="M44.446,51.014a4.317,4.317,0,0,0,.486.145A4.311,4.311,0,0,1,44.446,51.014Z" fill="#fff"/><path d="M46.134,51.287a5.273,5.273,0,0,1-1.182-.125A5.241,5.241,0,0,0,46.134,51.287Z" fill="#fff"/><path d="M43.877,50.759a3.46,3.46,0,0,0,.5.234A3.442,3.442,0,0,1,43.877,50.759Z" fill="#fff"/><path d="M59.006,41.958a1.36,1.36,0,0,1,.014,2.572L48.31,50.758a4.883,4.883,0,0,1-4.435,0L33.1,44.532c-1.229-.71-1.238-1.86-.017-2.57l10.71-6.228a4.889,4.889,0,0,1,4.438,0Z" fill="#fff"/><path d="M59.02,44.53,48.313,50.759a4.9,4.9,0,0,1-4.436,0L33.1,44.53c-1.228-.71-1.237-1.857-.019-2.567l2.556-1.483c.489,4.275,5.193,7.625,10.924,7.625,5.481,0,10.032-3.066,10.852-7.068l1.592.921c1.228.71,1.237,1.862.014,2.572Z" fill="#e9edf4"/><path d="M59.02,44.53,48.313,50.759a4.483,4.483,0,0,1-2.179.529V65.6a5.292,5.292,0,0,1-1.2-.12,4.889,4.889,0,0,0,3.336-.406l10.708-6.228a1.555,1.555,0,0,0,.911-1.276l.038-14.313a1.565,1.565,0,0,1-.911,1.276Z" fill="#ffd63c"/><path d="M46.122,65.6h0Z" fill="#e9edf4"/><path d="M45.5,65.569a4.652,4.652,0,0,0,.624.028A5.424,5.424,0,0,1,45.5,65.569Z" fill="#e9edf4"/><path d="M59.931,43.256,59.893,57.57a1.555,1.555,0,0,1-.911,1.276L48.274,65.074a4.441,4.441,0,0,1-2.139.522V61.884c.288.024.58.034.878.034A11.425,11.425,0,0,0,58.522,50.583a11.141,11.141,0,0,0-1.208-5.057l1.707-.993a1.565,1.565,0,0,0,.911-1.276Z" fill="#f4c531"/><path d="M46.134,51.287a5.241,5.241,0,0,1-1.182-.125l-.019,0a4.317,4.317,0,0,1-.486-.145c-.023-.008-.048-.013-.07-.021a3.46,3.46,0,0,1-.5-.234L33.1,44.53a1.566,1.566,0,0,1-.925-1.286l-.038,14.3a1.559,1.559,0,0,0,.925,1.3l10.775,6.223a3.428,3.428,0,0,0,.505.237c.025.009.052.015.077.024a4.313,4.313,0,0,0,.49.145l.027,0a5.293,5.293,0,0,0,1.2.12V51.288Z" fill="#fff"/><path d="M46.135,61.392V65.6a5.5,5.5,0,0,1-1.2-.12.052.052,0,0,0-.024,0,3.936,3.936,0,0,1-.494-.149c-.024-.01-.048-.014-.077-.024a3.456,3.456,0,0,1-.5-.235L33.063,58.844a1.559,1.559,0,0,1-.925-1.3l.038-14.3A1.566,1.566,0,0,0,33.1,44.53L35.308,45.8A8.383,8.383,0,0,0,33.1,51.4c0,5.1,4.819,10.2,10.775,10.2a12.475,12.475,0,0,0,2.259-.206Z" fill="#e9edf4"/><path d="M55.418,39.887l-15.129,8.8-3.6-2.083,15.124-8.8Z" fill="#ffd63c"/><path d="M44.314,51.391l.063-.4.133-.377-.009.056.021-.052-.021.052.021-.052-.021.052-.055.342Z"/><path d="M44.855,51.55a.413.413,0,0,1-.312-.394.377.377,0,0,1,.012-.093.4.4,0,0,1,.476-.293Z"/><path d="M44.933,51.559a.4.4,0,0,1-.089-.01,4.721,4.721,0,0,1-.533-.159.4.4,0,0,1-.266-.377.405.405,0,0,1,.023-.134.4.4,0,0,1,.512-.242,3.824,3.824,0,0,0,.441.132.4.4,0,0,1-.089.79Z"/><path d="M46.1,51.687a5.6,5.6,0,0,1-1.235-.134h0a.4.4,0,0,1-.3-.479.4.4,0,0,1,.479-.3,4.825,4.825,0,0,0,1.061.115.136.136,0,0,1,.032,0h0a.4.4,0,0,1,0,.8H46.1Z"/><path d="M44.376,51.392a.4.4,0,0,1-.142-.026,3.847,3.847,0,0,1-.558-.261.4.4,0,1,1,.4-.693,3.062,3.062,0,0,0,.442.207.4.4,0,0,1-.142.774Z"/><path d="M46.1,51.693a4.928,4.928,0,0,1-2.423-.59L32.9,44.878a1.951,1.951,0,0,1-1.127-1.637,1.929,1.929,0,0,1,1.108-1.625l10.71-6.228a5.259,5.259,0,0,1,4.839,0l10.773,6.225a1.75,1.75,0,0,1,.016,3.264L48.511,51.1a4.885,4.885,0,0,1-2.413.589ZM46.01,35.6A4.12,4.12,0,0,0,44,36.079l-10.71,6.228a1.184,1.184,0,0,0-.711.933,1.221,1.221,0,0,0,.728.945L44.076,50.41a4.522,4.522,0,0,0,4.033,0l10.71-6.228a1.189,1.189,0,0,0,.713-.936,1.222,1.222,0,0,0-.727-.945L48.032,36.08A4.153,4.153,0,0,0,46.01,35.6Z"/><path d="M46.081,66a5.678,5.678,0,0,1-1.229-.133.4.4,0,0,1,.173-.781,4.771,4.771,0,0,0,.71.1v-13.9a.4.4,0,0,1,.4-.4,4.065,4.065,0,0,0,1.979-.475l10.708-6.228a1.213,1.213,0,0,0,.712-.927v0a.4.4,0,0,1,.4-.4h0a.4.4,0,0,1,.4.4h0v0l-.038,14.309a1.934,1.934,0,0,1-1.11,1.621L48.475,65.418A4.847,4.847,0,0,1,46.081,66Zm.454-14.331V65.18a3.812,3.812,0,0,0,1.538-.454L58.781,58.5a1.188,1.188,0,0,0,.712-.931l.035-12.9a3.252,3.252,0,0,1-.306.2h0L48.513,51.1a4.668,4.668,0,0,1-1.979.567ZM59.02,44.53h.01Z"/><path d="M46.068,66a5.652,5.652,0,0,1-1.216-.13,4.67,4.67,0,0,1-.563-.163,3.824,3.824,0,0,1-.65-.292L32.863,59.19a1.957,1.957,0,0,1-1.125-1.646l.038-14.3a.4.4,0,0,1,.4-.4h0a.4.4,0,0,1,.4.4,1.2,1.2,0,0,0,.724.939l10.776,6.229a3.051,3.051,0,0,0,.441.206,4.972,4.972,0,0,0,.5.15,4.92,4.92,0,0,0,1.11.119h0a.4.4,0,0,1,.4.4V65.6a.4.4,0,0,1-.4.4h-.071Zm-13.5-21.339-.034,12.89a1.2,1.2,0,0,0,.724.948l10.776,6.224a3.067,3.067,0,0,0,.446.209,5.244,5.244,0,0,0,.514.153,5,5,0,0,0,.735.1V51.676a5.464,5.464,0,0,1-.871-.124,4.629,4.629,0,0,1-.552-.163,3.753,3.753,0,0,1-.634-.285L32.9,44.877a2.909,2.909,0,0,1-.329-.217Z"/><path d="M40.289,49.087a.4.4,0,0,1-.2-.054l-3.6-2.083a.4.4,0,0,1,0-.692l15.124-8.8a.4.4,0,0,1,.4,0l3.606,2.082a.4.4,0,0,1,0,.692l-15.13,8.8a.4.4,0,0,1-.2.054Zm-2.8-2.483,2.8,1.621,14.333-8.336-2.808-1.621Z"/><path d="M40.29,48.686,40.258,53.8a.584.584,0,0,1-.875.5l-2.14-1.235a1.175,1.175,0,0,1-.588-1.025l.034-5.434Z" fill="#fff"/><path d="M39.673,54.777a.987.987,0,0,1-.491-.133l-2.14-1.235a1.578,1.578,0,0,1-.788-1.375l.034-5.434a.4.4,0,0,1,.2-.345.4.4,0,0,1,.4,0l3.6,2.083a.4.4,0,0,1,.2.349L40.659,53.8a.988.988,0,0,1-.985.979Zm-2.589-7.483-.029,4.746a.775.775,0,0,0,.387.676l2.141,1.235a.184.184,0,0,0,.275-.158l.03-4.877Z"/></g></svg>