<svg xmlns="http://www.w3.org/2000/svg" width="91.313" height="91.143" viewBox="0 0 91.313 91.143"><g transform="translate(-8755.98 7685.234)"><path d="M45.457,3A42.469,42.469,0,0,0,28.932,84.579,42.469,42.469,0,0,0,61.982,6.335,42.188,42.188,0,0,0,45.457,3m0-3A45.457,45.457,0,0,1,90.914,45.457h0A45.457,45.457,0,1,1,0,45.457H0A45.457,45.457,0,0,1,45.457,0Z" transform="translate(8755.98 -7685.234)" fill="#fff"/><g opacity="0.859"><path d="M45.457,0A45.457,45.457,0,0,1,90.914,45.457h0A45.457,45.457,0,0,1,0,45.457H0A45.457,45.457,0,0,1,45.457,0Z" transform="translate(8756.381 -7685.006)" fill="#bacbec"/><path d="M45.457,3A42.469,42.469,0,0,0,28.932,84.579,42.469,42.469,0,0,0,61.982,6.335,42.188,42.188,0,0,0,45.457,3m0-3A45.457,45.457,0,0,1,90.914,45.457h0A45.457,45.457,0,1,1,0,45.457H0A45.457,45.457,0,0,1,45.457,0Z" transform="translate(8756.381 -7685.006)" fill="#fff"/></g><g transform="translate(8768.832 -7672.552)"><path d="M2.22,24.45,29.08,8.84l1.87,1.08L4.09,25.52Z" fill="#9adbfb"/><path d="M4.09,25.77a.266.266,0,0,1-.12-.03L2.1,24.66a.225.225,0,0,1-.12-.21.244.244,0,0,1,.12-.21L28.96,8.64a.255.255,0,0,1,.24,0l1.87,1.08a.225.225,0,0,1,.12.21.244.244,0,0,1-.12.21L4.21,25.74a.266.266,0,0,1-.12.03ZM2.71,24.45l1.38.8L30.46,9.92l-1.38-.8Z" fill="#111925"/><path d="M34.76,15.39,7.9,31a1.561,1.561,0,0,1-1.59-.15,4.931,4.931,0,0,1-2.23-3.86V25.53L30.94,9.93l-.01,1.46a4.9,4.9,0,0,0,2.23,3.86,1.6,1.6,0,0,0,1.6.14Z" fill="#fff"/><path d="M7.31,31.39a2.192,2.192,0,0,1-1.12-.34,5.176,5.176,0,0,1-2.35-4.07V25.52a.244.244,0,0,1,.12-.21L30.82,9.71a.255.255,0,0,1,.24,0,.225.225,0,0,1,.12.21l-.01,1.46a4.749,4.749,0,0,0,2.11,3.65,1.371,1.371,0,0,0,1.34.16.242.242,0,1,1,.24.42h-.01L8.02,31.21a1.414,1.414,0,0,1-.71.18ZM4.33,25.66v1.32a4.647,4.647,0,0,0,2.11,3.65,1.34,1.34,0,0,0,1.34.15L33.7,15.73a2.775,2.775,0,0,1-.65-.28,5.176,5.176,0,0,1-2.35-4.07V10.35Z" fill="#111925"/><path d="M37.96,4.3a1.547,1.547,0,0,0-.65,1.43l-.03,9.31a2.883,2.883,0,0,1-1.2,2.63L9.23,33.27a2.862,2.862,0,0,0,1.2-2.63l.03-9.31a1.579,1.579,0,0,1,.65-1.43Z" fill="#fff"/><path d="M9.23,33.52a.241.241,0,0,1-.12-.45,2.626,2.626,0,0,0,1.07-2.41l.03-9.31a1.82,1.82,0,0,1,.77-1.64L37.84,4.11a.242.242,0,1,1,.24.42,1.333,1.333,0,0,0-.53,1.22l-.03,9.31A3.1,3.1,0,0,1,36.2,17.9L9.36,33.48H9.35a.192.192,0,0,1-.12.04ZM37.15,5.06,11.22,20.12a1.333,1.333,0,0,0-.53,1.22l-.03,9.31a4.226,4.226,0,0,1-.32,1.7L35.95,17.47a2.659,2.659,0,0,0,1.08-2.42l.03-9.31a2.382,2.382,0,0,1,.09-.68Z" fill="#111925"/><path d="M12.7,17.91a9.025,9.025,0,0,1,4.09,7.08l-.11,39.26-1.87-1.08.11-39.26a4.9,4.9,0,0,0-2.23-3.85c-1.23-.71-2.24-.14-2.24,1.28l-.03,9.31C10.41,33.25,8.56,34.3,6.3,33a9.04,9.04,0,0,1-4.09-7.08V24.46l1.87,1.08V27a4.946,4.946,0,0,0,2.23,3.86c1.23.71,2.24.14,2.24-1.28l.03-9.31c.01-2.61,1.85-3.66,4.12-2.36Z" fill="#98d8fb"/><path d="M16.67,64.5a.266.266,0,0,1-.12-.03l-1.87-1.08a.225.225,0,0,1-.12-.21l.11-39.26a4.645,4.645,0,0,0-2.1-3.64,1.372,1.372,0,0,0-1.34-.16,1.333,1.333,0,0,0-.53,1.22l-.03,9.31a3.088,3.088,0,0,1-1.33,2.84,3.123,3.123,0,0,1-3.15-.29,9.281,9.281,0,0,1-4.21-7.29V24.45a.244.244,0,0,1,.12-.21.255.255,0,0,1,.24,0l1.87,1.08a.225.225,0,0,1,.12.21v1.46a4.629,4.629,0,0,0,2.11,3.64,1.346,1.346,0,0,0,1.34.16,1.333,1.333,0,0,0,.53-1.22l.03-9.31a3.088,3.088,0,0,1,1.33-2.84,3.142,3.142,0,0,1,3.16.29A9.3,9.3,0,0,1,17.04,25l-.11,39.26a.244.244,0,0,1-.12.21.393.393,0,0,1-.14.03Zm-1.62-1.47,1.38.8.11-38.84a8.742,8.742,0,0,0-3.97-6.87,2.679,2.679,0,0,0-2.67-.29,2.638,2.638,0,0,0-1.08,2.42L8.8,29.57a1.772,1.772,0,0,1-.78,1.64,1.81,1.81,0,0,1-1.83-.16,5.176,5.176,0,0,1-2.35-4.07V25.66l-1.38-.8V25.9a8.742,8.742,0,0,0,3.97,6.87,2.678,2.678,0,0,0,2.67.29,2.616,2.616,0,0,0,1.08-2.42l.03-9.31a1.772,1.772,0,0,1,.78-1.64,1.81,1.81,0,0,1,1.83.16,5.187,5.187,0,0,1,2.35,4.07Z" fill="#111925"/><path d="M43.64,9.39l-.12,39.26L16.66,64.25l.12-39.26a9.025,9.025,0,0,0-4.09-7.08,2.874,2.874,0,0,0-2.92-.28L36.62,2.03a2.9,2.9,0,0,1,2.92.28A8.982,8.982,0,0,1,43.64,9.39Z" fill="#fff"/><path d="M16.67,64.5a.266.266,0,0,1-.12-.03.225.225,0,0,1-.12-.21L16.55,25a8.758,8.758,0,0,0-3.96-6.87,2.673,2.673,0,0,0-2.65-.3l-.04.01a.242.242,0,0,1-.24-.42.035.035,0,0,0,.02-.01L36.51,1.82a3.114,3.114,0,0,1,3.16.28,9.266,9.266,0,0,1,4.21,7.29l-.12,39.26a.244.244,0,0,1-.12.21L16.78,64.46a.15.15,0,0,1-.11.04ZM11.14,17.12a4.326,4.326,0,0,1,1.68.58,9.308,9.308,0,0,1,4.21,7.29l-.11,38.84L43.29,48.51,43.4,9.39a8.768,8.768,0,0,0-3.97-6.87,2.679,2.679,0,0,0-2.67-.29Z" fill="#111925"/><path d="M30.7,16.33,18.63,23.34" fill="#fff"/><path d="M18.63,23.59a.241.241,0,0,1-.12-.45l12.06-7.01a.242.242,0,0,1,.24.42L18.75,23.56A.35.35,0,0,1,18.63,23.59Z" fill="#111925"/><path d="M26.99,21.32l-8.36,4.86" fill="#fff"/><path d="M18.63,26.42a.241.241,0,0,1-.12-.45l8.36-4.86a.242.242,0,1,1,.24.42l-8.36,4.86A.213.213,0,0,1,18.63,26.42Z" fill="#111925"/><path d="M27.92,38.98l.01,3.21L23.59,44.7l-.01-3.22Z" fill="#9adbfb"/><path d="M23.59,44.94a.266.266,0,0,1-.12-.03.225.225,0,0,1-.12-.21l-.01-3.22a.244.244,0,0,1,.12-.21l4.33-2.5a.255.255,0,0,1,.24,0,.225.225,0,0,1,.12.21l.01,3.22a.244.244,0,0,1-.12.21l-4.33,2.5a.213.213,0,0,1-.12.03Zm.24-3.32.01,2.66,3.84-2.22-.01-2.66Z" fill="#111925"/><path d="M27.9,34.72l.02,4.26-4.34,2.5-.01-4.26Z" fill="#9adbfb"/><path d="M23.58,41.72a.266.266,0,0,1-.12-.03.225.225,0,0,1-.12-.21l-.01-4.25a.244.244,0,0,1,.12-.21l4.33-2.5a.255.255,0,0,1,.24,0,.225.225,0,0,1,.12.21l.01,4.25a.244.244,0,0,1-.12.21l-4.33,2.5a.213.213,0,0,1-.12.03Zm.24-4.35.01,3.69,3.84-2.22-.01-3.69Z" fill="#111925"/><path d="M23.58,41.48l.01,3.22-4.57,2.63V44.11Z" fill="#0296f6"/><path d="M19.02,47.58a.266.266,0,0,1-.12-.03.225.225,0,0,1-.12-.21l-.01-3.22a.244.244,0,0,1,.12-.21l4.57-2.64a.255.255,0,0,1,.24,0,.225.225,0,0,1,.12.21l.01,3.22a.244.244,0,0,1-.12.21l-4.57,2.64a.213.213,0,0,1-.12.03Zm.24-3.33.01,2.66,4.08-2.36-.01-2.66Z" fill="#111925"/><path d="M23.57,37.22l.01,4.26-4.56,2.63L19,39.86Z" fill="#0296f6"/><path d="M19.02,44.36a.266.266,0,0,1-.12-.03.225.225,0,0,1-.12-.21l-.01-4.25a.244.244,0,0,1,.12-.21l4.57-2.64a.255.255,0,0,1,.24,0,.225.225,0,0,1,.12.21l.01,4.25a.244.244,0,0,1-.12.21l-4.57,2.64a.266.266,0,0,1-.12.03ZM19.25,40l.01,3.69,4.08-2.36-.01-3.69Z" fill="#111925"/><path d="M27.89,30.46l.01,4.26-4.33,2.5-.01-4.26Z" fill="#9adbfb"/><path d="M23.57,37.47a.266.266,0,0,1-.12-.03.225.225,0,0,1-.12-.21l-.01-4.27a.244.244,0,0,1,.12-.21l4.33-2.5a.255.255,0,0,1,.24,0,.225.225,0,0,1,.12.21l.01,4.27a.244.244,0,0,1-.12.21l-4.33,2.5a.238.238,0,0,1-.12.03Zm.23-4.37.01,3.7,3.84-2.22-.01-3.7Z" fill="#111925"/><path d="M27.88,26.26l.01,4.2-4.33,2.5-.01-4.2Z" fill="#9adbfb"/><path d="M23.56,33.2a.266.266,0,0,1-.12-.03.225.225,0,0,1-.12-.21l-.01-4.19a.244.244,0,0,1,.12-.21l4.33-2.5a.255.255,0,0,1,.24,0,.225.225,0,0,1,.12.21l.01,4.19a.244.244,0,0,1-.12.21l-4.33,2.5a.266.266,0,0,1-.12.03Zm.23-4.3.01,3.63,3.84-2.22-.01-3.63Z" fill="#111925"/><path d="M41.07,31.38l.01,3.22L27.93,42.19l-.01-3.21Z" fill="#fff"/><path d="M27.93,42.44a.266.266,0,0,1-.12-.03.225.225,0,0,1-.12-.21l-.01-3.22a.244.244,0,0,1,.12-.21l13.15-7.59a.255.255,0,0,1,.24,0,.225.225,0,0,1,.12.21l.01,3.22a.244.244,0,0,1-.12.21L28.05,42.41a.266.266,0,0,1-.12.03Zm.23-3.32.01,2.66,12.66-7.31-.01-2.66Z" fill="#111925"/><path d="M27.92,42.2l.01,3.22-4.34,2.5-.01-3.22Z" fill="#9adbfb"/><path d="M23.59,48.17a.266.266,0,0,1-.12-.03.225.225,0,0,1-.12-.21l-.01-3.22a.244.244,0,0,1,.12-.21L27.79,42a.255.255,0,0,1,.24,0,.225.225,0,0,1,.12.21l.01,3.22a.244.244,0,0,1-.12.21l-4.33,2.5a.35.35,0,0,1-.12.03Zm.24-3.33.01,2.66,3.84-2.22-.01-2.66Z" fill="#111925"/><path d="M23.58,44.7l.01,3.22-4.57,2.64V47.34Z" fill="#0296f6"/><path d="M19.02,50.8a.266.266,0,0,1-.12-.03.225.225,0,0,1-.12-.21l-.01-3.22a.244.244,0,0,1,.12-.21l4.57-2.64a.255.255,0,0,1,.24,0,.225.225,0,0,1,.12.21l.01,3.22a.244.244,0,0,1-.12.21l-4.57,2.64a.213.213,0,0,1-.12.03Zm.24-3.32.01,2.66,4.08-2.36-.01-2.66Z" fill="#111925"/><path d="M41.07,34.61l.01,3.22L27.93,45.42l-.01-3.22Z" fill="#fff"/><path d="M27.93,45.66a.266.266,0,0,1-.12-.03.225.225,0,0,1-.12-.21l-.01-3.22a.244.244,0,0,1,.12-.21L40.95,34.4a.255.255,0,0,1,.24,0,.225.225,0,0,1,.12.21l.01,3.22a.244.244,0,0,1-.12.21L28.05,45.63a.266.266,0,0,1-.12.03Zm.23-3.32L28.17,45l12.66-7.31-.01-2.66Z" fill="#111925"/><path d="M41.06,27.13l.01,4.25-13.15,7.6-.02-4.26Z" fill="#fff"/><path d="M27.92,39.22a.266.266,0,0,1-.12-.03.225.225,0,0,1-.12-.21l-.01-4.25a.244.244,0,0,1,.12-.21l13.15-7.59a.255.255,0,0,1,.24,0,.225.225,0,0,1,.12.21l.01,4.25a.244.244,0,0,1-.12.21L28.04,39.19a.266.266,0,0,1-.12.03Zm.23-4.36.01,3.69,12.66-7.31-.01-3.69Z" fill="#111925"/><path d="M41.04,22.86l.02,4.27L27.9,34.72l-.01-4.26Z" fill="#fff"/><path d="M27.9,34.97a.266.266,0,0,1-.12-.03.225.225,0,0,1-.12-.21l-.01-4.27a.244.244,0,0,1,.12-.21l13.15-7.59a.255.255,0,0,1,.24,0,.225.225,0,0,1,.12.21l.01,4.27a.244.244,0,0,1-.12.21L28.02,34.94a.213.213,0,0,1-.12.03Zm.24-4.37.01,3.7,12.66-7.31-.01-3.7Z" fill="#111925"/><path d="M41.03,18.67l.01,4.19-13.15,7.6-.01-4.2Z" fill="#fff"/><path d="M27.89,30.7a.266.266,0,0,1-.12-.03.225.225,0,0,1-.12-.21l-.01-4.19a.244.244,0,0,1,.12-.21l13.15-7.59a.255.255,0,0,1,.24,0,.225.225,0,0,1,.12.21l.01,4.19a.244.244,0,0,1-.12.21L28.01,30.67a.238.238,0,0,1-.12.03Zm.24-4.3.01,3.63L40.8,22.72l-.01-3.63Z" fill="#111925"/><path d="M23.55,28.76l.01,4.2-4.57,2.63-.01-4.19Z" fill="#0296f6"/><path d="M18.99,35.84a.266.266,0,0,1-.12-.03.225.225,0,0,1-.12-.21l-.01-4.19a.244.244,0,0,1,.12-.21l4.57-2.64a.255.255,0,0,1,.24,0,.225.225,0,0,1,.12.21l.01,4.19a.244.244,0,0,1-.12.21l-4.57,2.64a.238.238,0,0,1-.12.03Zm.23-4.3.01,3.63,4.08-2.36-.01-3.63Z" fill="#111925"/><path d="M23.56,32.96l.01,4.26L19,39.86l-.01-4.27Z" fill="#0296f6"/><path d="M19,40.11a.266.266,0,0,1-.12-.03.225.225,0,0,1-.12-.21l-.01-4.27a.244.244,0,0,1,.12-.21l4.57-2.64a.255.255,0,0,1,.24,0,.225.225,0,0,1,.12.21l.01,4.27a.244.244,0,0,1-.12.21l-4.57,2.64a.213.213,0,0,1-.12.03Zm.24-4.37.01,3.7,4.08-2.36-.01-3.7Z" fill="#111925"/><path d="M32.1,46.98l-13.08,7.6" fill="#fff"/><path d="M19.02,54.82a.241.241,0,0,1-.12-.45l13.08-7.6a.242.242,0,0,1,.24.42l-13.08,7.6A.266.266,0,0,1,19.02,54.82Z" fill="#111925"/><path d="M41.08,41.76l-7,4.07" fill="#fff"/><path d="M34.08,46.07a.241.241,0,0,1-.12-.45l7-4.07a.242.242,0,0,1,.24.42l-7,4.07a.266.266,0,0,1-.12.03Z" fill="#111925"/><path d="M28.87,52.47l-9.85,5.72" fill="#fff"/><path d="M19.02,58.44a.241.241,0,0,1-.12-.45l9.85-5.72a.242.242,0,0,1,.24.42l-9.85,5.72A.266.266,0,0,1,19.02,58.44Z" fill="#111925"/><path d="M35.67,39.83V56.09l14.05,8.17V48Z" fill="#f5ab00"/><path d="M49.72,64.5a.266.266,0,0,1-.12-.03L35.54,56.3a.225.225,0,0,1-.12-.21V39.83a.244.244,0,0,1,.12-.21.255.255,0,0,1,.24,0l14.06,8.17a.225.225,0,0,1,.12.21V64.26a.244.244,0,0,1-.12.21.213.213,0,0,1-.12.03ZM35.91,55.95l13.57,7.89V48.14L35.91,40.25Z" fill="#111925"/><path d="M63.78,39.83V56.09L49.72,64.26V48Z" fill="#f8d555"/><path d="M49.72,64.5a.266.266,0,0,1-.12-.03.225.225,0,0,1-.12-.21V48a.244.244,0,0,1,.12-.21l14.06-8.17a.255.255,0,0,1,.24,0,.225.225,0,0,1,.12.21V56.09a.244.244,0,0,1-.12.21L49.84,64.47a.213.213,0,0,1-.12.03Zm.25-16.36V63.83l13.57-7.89V40.25Z" fill="#111925"/><path d="M63.78,39.83,49.72,31.66,35.67,39.83,49.72,48Z" fill="#fff"/><path d="M49.72,48.24a.266.266,0,0,1-.12-.03L35.54,40.04a.225.225,0,0,1-.12-.21.244.244,0,0,1,.12-.21L49.6,31.45a.275.275,0,0,1,.25,0l14.06,8.17a.225.225,0,0,1,.12.21.244.244,0,0,1-.12.21L49.85,48.21a.277.277,0,0,1-.13.03ZM36.15,39.83l13.57,7.89,13.57-7.89L49.72,31.94Z" fill="#111925"/><path d="M58.29,43.02,44.24,34.85l-3.09,1.79,14.06,8.17Z" fill="#ff977f"/><path d="M55.21,45.05a.266.266,0,0,1-.12-.03L41.03,36.85a.225.225,0,0,1-.12-.21.244.244,0,0,1,.12-.21l3.08-1.79a.275.275,0,0,1,.25,0l14.06,8.17a.225.225,0,0,1,.12.21.244.244,0,0,1-.12.21l-3.08,1.79a.308.308,0,0,1-.13.03ZM41.64,36.64l13.57,7.89,2.6-1.51L44.24,35.13Z" fill="#111925"/><path d="M58.29,43.02v5.52l-1.47-.82-1.61,2.61V44.81Z" fill="#ff977f"/><path d="M55.21,50.57a.2.2,0,0,1-.07-.01.256.256,0,0,1-.18-.23V44.81a.244.244,0,0,1,.12-.21l3.08-1.79a.255.255,0,0,1,.24,0,.225.225,0,0,1,.12.21v5.52a.244.244,0,0,1-.12.21.23.23,0,0,1-.24,0l-1.27-.7L55.4,50.46a.2.2,0,0,1-.19.11Zm.24-5.62v4.52l1.16-1.87a.253.253,0,0,1,.33-.09l1.11.61V43.44Z" fill="#111925"/><path d="M54.89,58.67l-3.44,2" fill="#fed167"/><path d="M51.46,60.91a.241.241,0,0,1-.12-.45l3.43-1.99a.242.242,0,1,1,.24.42l-3.43,1.99a.266.266,0,0,1-.12.03Z" fill="#111925"/><path d="M56.61,57.67l-.7.41" fill="#fed167"/><path d="M55.91,58.32a.241.241,0,0,1-.12-.45l.7-.41a.242.242,0,1,1,.24.42l-.7.41a.266.266,0,0,1-.12.03Z" fill="#111925"/><path d="M53.66,57.24l-2.21,1.28" fill="#fed167"/><path d="M51.46,58.76a.241.241,0,0,1-.12-.45l2.2-1.28a.242.242,0,0,1,.24.42l-2.2,1.28a.266.266,0,0,1-.12.03Z" fill="#111925"/></g></g></svg>