<svg xmlns="http://www.w3.org/2000/svg" width="48.003" height="53.67" viewBox="0 0 48.003 53.67"><g transform="translate(-5.02 -1.599)"><g transform="translate(5.352 14.889)"><path d="M5.421,19.126,5.49,44.752a2.293,2.293,0,0,0,1.344,1.884l17.688,10.28a7.227,7.227,0,0,0,6.547,0L51.394,45.178a2.288,2.288,0,0,0,1.367-1.918L52.7,17.645a2.332,2.332,0,0,1-1.367,1.907L31,31.29a7.227,7.227,0,0,1-6.547,0L6.777,21.01a2.332,2.332,0,0,1-1.356-1.884Z" transform="translate(-5.421 -17.645)" fill="#ffd63c"/></g><g transform="translate(5.358 16.372)"><path d="M30.517,53.456c-12.052-1.9-21.991-7.025-22.61-20.514a13.479,13.479,0,0,1,3.364-9.017L6.782,21.321a2.316,2.316,0,0,1-1.354-1.884l.064,25.625a2.3,2.3,0,0,0,1.34,1.884L24.523,57.227a7.361,7.361,0,0,0,5.993.26Z" transform="translate(-5.428 -19.436)" fill="#f4c531"/></g><g transform="translate(5.02 14.558)"><path d="M27.722,57.956a7,7,0,0,1-3.435-.823L6.6,46.853a2.628,2.628,0,0,1-1.508-2.17L5.02,19.059a.333.333,0,0,1,.328-.332h0a.332.332,0,0,1,.332.326,2.042,2.042,0,0,0,1.19,1.6l17.677,10.28a6.862,6.862,0,0,0,6.214,0L51.1,19.2a2.02,2.02,0,0,0,1.2-1.619.332.332,0,0,1,.663,0l.057,25.614A2.6,2.6,0,0,1,51.49,45.4L31.166,57.134a7.058,7.058,0,0,1-3.444.822ZM5.688,20.565l.066,24.117a2,2,0,0,0,1.178,1.6L24.62,56.561a6.873,6.873,0,0,0,6.216,0L51.159,44.822a1.983,1.983,0,0,0,1.2-1.625l-.053-24.1a3.921,3.921,0,0,1-.873.675L31.1,31.508a7.586,7.586,0,0,1-6.878,0L6.541,21.228a3.711,3.711,0,0,1-.853-.662Z" transform="translate(-5.02 -17.245)"/></g><g transform="translate(27.824 14.889)"><path d="M32.553,32.064a6.59,6.59,0,0,0,3.107-.775L56,19.552a2.332,2.332,0,0,0,1.367-1.907l.058,25.614a2.288,2.288,0,0,1-1.367,1.918L35.729,56.916a6.66,6.66,0,0,1-3.176.778Z" transform="translate(-32.553 -17.645)" fill="#fff"/></g><g transform="translate(27.647 14.89)"><path d="M32.523,51.6v6.1A6.7,6.7,0,0,0,35.7,56.92L56.022,45.182a2.316,2.316,0,0,0,1.366-1.922l-.064-25.613a2.339,2.339,0,0,1-1.366,1.91l-3.983,2.3a17.265,17.265,0,0,1,2.365,8.751c0,9.6-12.206,15.345-21.817,15.345-.632,0,.619,5.705,0,5.642Z" transform="translate(-32.339 -17.647)" fill="#e9edf4"/></g><g transform="translate(27.493 14.558)"><path d="M32.485,57.957a.333.333,0,0,1-.332-.332V32a.332.332,0,0,1,.324-.332,6.245,6.245,0,0,0,2.947-.73L55.763,19.2a2.02,2.02,0,0,0,1.2-1.619.332.332,0,0,1,.663,0l.057,25.614A2.6,2.6,0,0,1,56.151,45.4L35.827,57.134a6.991,6.991,0,0,1-3.338.823h0Zm.332-25.643V57.282a6.134,6.134,0,0,0,2.68-.722L55.82,44.822a1.983,1.983,0,0,0,1.2-1.625l-.053-24.1a3.921,3.921,0,0,1-.873.675L35.757,31.508a6.743,6.743,0,0,1-2.941.806Z" transform="translate(-32.153 -17.245)"/></g><g transform="translate(5.357 1.937)"><path d="M6.8,14.531c-1.811,1.046-1.828,2.744-.022,3.794L24.456,28.6a7.228,7.228,0,0,0,6.549,0L51.333,16.863c1.819-1.05,1.821-2.748.022-3.794L33.673,2.794a7.2,7.2,0,0,0-6.549,0Z" transform="translate(-5.427 -2.007)" fill="#fff"/></g><g transform="translate(5.36 10.972)"><path d="M6.778,20.2,24.454,30.474a7.263,7.263,0,0,0,6.554,0L51.337,18.743c1.817-1.054,1.817-2.75.012-3.8l-3.489-2.023C46.964,18.864,36.362,25,26.574,25c-9.1,0-16.694-4.022-18.451-9.365l-1.333.775c-1.8,1.042-1.817,2.738-.012,3.792Z" transform="translate(-5.43 -12.916)" fill="#e9edf4"/></g><g transform="translate(5.026 1.599)"><path d="M27.657,29.641a6.992,6.992,0,0,1-3.437-.825L6.538,18.541a2.607,2.607,0,0,1-1.511-2.177,2.634,2.634,0,0,1,1.534-2.19L26.889,2.437a7.486,7.486,0,0,1,6.882,0L51.452,12.714a2.609,2.609,0,0,1,1.511,2.177A2.632,2.632,0,0,1,51.43,17.08L31.1,28.817a7.052,7.052,0,0,1-3.445.824ZM30.334,2.266a6.364,6.364,0,0,0-3.114.745L6.892,14.748a2.013,2.013,0,0,0-1.2,1.617,1.989,1.989,0,0,0,1.182,1.6L24.554,28.244a6.86,6.86,0,0,0,6.217,0L51.1,16.506a2.012,2.012,0,0,0,1.2-1.616,1.989,1.989,0,0,0-1.182-1.6L33.438,3.01a6.321,6.321,0,0,0-3.1-.744ZM6.726,14.461h.008Z" transform="translate(-5.027 -1.599)"/></g><g transform="translate(13.34 22.144)"><path d="M15.087,26.405l-.021,7.389a1.744,1.744,0,0,0,.795,1.375.591.591,0,0,0,.5.077l1.57-.576a.6.6,0,0,1,.5.083,1.549,1.549,0,0,1,.5.5L20.5,37.635a1.546,1.546,0,0,0,.5.5c.41.237.8.089.8-.454l.021-7.389Z" transform="translate(-15.066 -26.405)" fill="#fff"/></g><g transform="translate(13.337 22.146)"><path d="M15.061,33.792a1.75,1.75,0,0,0,.8,1.375.584.584,0,0,0,.51.078l1.565-.571a.569.569,0,0,1,.5.078,1.462,1.462,0,0,1,.5.5L20.5,37.631a1.568,1.568,0,0,0,.5.51c.415.233.8.087.8-.458l.009-3.191a4,4,0,0,1-.856.086,4.632,4.632,0,0,1-4.583-4.669,4.734,4.734,0,0,1,.64-2.387l-1.928-1.115Z" transform="translate(-15.061 -26.407)" fill="#e9edf4"/></g><g transform="translate(13.009 21.814)"><path d="M21.3,38.51a1.065,1.065,0,0,1-.527-.154,1.879,1.879,0,0,1-.616-.61l-1.561-2.384a1.234,1.234,0,0,0-.39-.392.312.312,0,0,0-.22-.059l-1.574.578a.908.908,0,0,1-.783-.1,2.058,2.058,0,0,1-.961-1.663l.021-7.389a.332.332,0,0,1,.5-.286l6.738,3.89a.333.333,0,0,1,.166.288l-.021,7.389a.851.851,0,0,1-.4.8.742.742,0,0,1-.374.1Zm-3.285-4.267a1.06,1.06,0,0,1,.522.153,1.881,1.881,0,0,1,.614.6l1.562,2.384a1.23,1.23,0,0,0,.391.4c.124.07.212.073.24.056s.063-.075.063-.223l.021-7.2-6.077-3.509-.019,6.817a1.405,1.405,0,0,0,.628,1.087.3.3,0,0,0,.221.055l1.574-.578a.736.736,0,0,1,.26-.046Z" transform="translate(-14.666 -26.006)"/></g><g transform="translate(13.361 6.112)"><path d="M15.091,23.08,41.162,7.048l6.829,3.968L21.83,26.97Z" transform="translate(-15.091 -7.048)" fill="#ffd63c"/></g><g transform="translate(13.362 6.115)"><path d="M15.093,23.082l1.816,1.046L42.974,8.1,41.166,7.051Z" transform="translate(-15.093 -7.051)" fill="#f4c531"/></g><g transform="translate(13.03 5.781)"><path d="M21.761,27.234a.338.338,0,0,1-.166-.044L14.857,23.3a.331.331,0,0,1-.008-.569L40.919,6.7a.332.332,0,0,1,.341,0l6.829,3.968a.331.331,0,0,1,.006.569L21.933,27.185a.329.329,0,0,1-.172.049ZM15.67,23l6.086,3.514L47.274,10.955,41.1,7.365Z" transform="translate(-14.691 -6.648)"/></g><g transform="translate(32.06 27.014)"><path d="M46.35,32.489a.927.927,0,0,1,1.24.06l7.277,8.641c.641.762-.06,2.661-1.228,3.335L39.153,52.889c-1.172.677-1.882-.408-1.247-1.906l7.209-17a3.142,3.142,0,0,1,1.235-1.489Z" transform="translate(-37.668 -32.285)" fill="#fff"/></g><g transform="translate(32.057 29.459)"><path d="M53.638,45.035,39.153,53.4c-1.172.678-1.885-.405-1.251-1.9l1.013-2.379c.308.026.626.044.943.044A10.21,10.21,0,0,0,50.246,39.131a9.606,9.606,0,0,0-.82-3.894L54.862,41.7c.643.766-.053,2.661-1.225,3.339Z" transform="translate(-37.665 -35.237)" fill="#e9edf4"/></g><g transform="translate(31.731 26.684)"><path d="M38.415,53.358a1.051,1.051,0,0,1-.711-.265,2.035,2.035,0,0,1-.171-2.309l7.209-17a3.455,3.455,0,0,1,1.375-1.647,1.244,1.244,0,0,1,1.66.135l7.276,8.639a1.75,1.75,0,0,1,.281,1.449,3.584,3.584,0,0,1-1.6,2.388L39.25,53.107a1.692,1.692,0,0,1-.836.252Zm8.529-20.809a1.074,1.074,0,0,0-.5.159,2.823,2.823,0,0,0-1.1,1.331l-7.209,17c-.328.777-.231,1.35,0,1.554s.586.047.776-.064l14.487-8.363a2.969,2.969,0,0,0,1.275-1.927,1.142,1.142,0,0,0-.134-.907l-7.278-8.641a.4.4,0,0,0-.324-.145Z" transform="translate(-37.271 -31.886)"/></g><g transform="translate(39.599 31.505)"><path d="M47.949,37.87c.68-.393,1.219-.043,1.184.76l-.227,4.494a2.076,2.076,0,0,1-.938,1.557c-.5.289-.916.082-.944-.471l-.252-4.218A2.582,2.582,0,0,1,47.949,37.87Z" transform="translate(-46.771 -37.708)"/><g transform="translate(0.325 7.536)"><path d="M48.037,46.929c.489-.282.878-.06.88.5a1.911,1.911,0,0,1-.874,1.515c-.484.279-.879.061-.88-.5a1.919,1.919,0,0,1,.875-1.509Z" transform="translate(-47.163 -46.806)"/></g></g></g></svg>