<svg xmlns="http://www.w3.org/2000/svg" width="73.315" height="63.872" viewBox="0 0 73.315 63.872"><g transform="translate(-1.52 -5.51)"><g transform="translate(1.52 18.407)"><g transform="translate(43.533 27.984)"><path d="M66.662,53.526a2.641,2.641,0,0,0-2.677.263,8.229,8.229,0,0,0-3.753,6.5,2.621,2.621,0,0,0,1.1,2.414L40.908,50.918a2.621,2.621,0,0,1-1.1-2.414,8.264,8.264,0,0,1,3.753-6.5,2.641,2.641,0,0,1,2.677-.263Z" transform="translate(-39.535 -41.207)" fill="#0084ce"/><path d="M61.365,63.012a.3.3,0,0,1-.137-.034L40.806,51.193a2.886,2.886,0,0,1-1.236-2.654A8.57,8.57,0,0,1,43.46,41.8a2.893,2.893,0,0,1,2.952-.263L66.788,53.3c.011.011.023.011.046.023a.277.277,0,0,1-.275.481l-.034-.023a2.365,2.365,0,0,0-2.357.286,7.98,7.98,0,0,0-3.615,6.247,2.4,2.4,0,0,0,.95,2.174.284.284,0,0,1-.137.526ZM45.29,41.8a3.126,3.126,0,0,0-1.545.481,7.95,7.95,0,0,0-3.615,6.247,2.372,2.372,0,0,0,.95,2.174L60.232,61.753a4.008,4.008,0,0,1-.24-1.442,8.57,8.57,0,0,1,3.89-6.739,4.331,4.331,0,0,1,1.384-.526L46.137,42.006a1.749,1.749,0,0,0-.847-.206Z" transform="translate(-39.57 -41.242)" fill="#111925"/><g transform="translate(19.128 10.717)"><ellipse cx="5.309" cy="3.078" rx="5.309" ry="3.078" transform="translate(0 9.184) rotate(-59.871)" fill="#fff"/><path d="M59.788,61.789a2.181,2.181,0,0,1-1.121-.286,2.881,2.881,0,0,1-1.247-2.654,8.57,8.57,0,0,1,3.89-6.739,2.919,2.919,0,0,1,2.952-.263A2.881,2.881,0,0,1,65.509,54.5a8.57,8.57,0,0,1-3.89,6.739A3.793,3.793,0,0,1,59.788,61.789Zm1.8-9.21a7.983,7.983,0,0,0-3.615,6.258,2.352,2.352,0,0,0,.961,2.174,2.415,2.415,0,0,0,2.391-.263,7.983,7.983,0,0,0,3.615-6.258,2.352,2.352,0,0,0-.961-2.174A2.39,2.39,0,0,0,61.585,52.579Z" transform="translate(-56.126 -50.473)" fill="#111925"/></g><g transform="translate(21.701 13.681)"><ellipse cx="2.746" cy="1.59" rx="2.746" ry="1.59" transform="translate(0 4.75) rotate(-59.871)" fill="#111925"/><path d="M60.361,59.163a1.292,1.292,0,0,1-.652-.172,1.642,1.642,0,0,1-.709-1.5,4.536,4.536,0,0,1,2.082-3.6,1.459,1.459,0,0,1,2.368,1.361,4.536,4.536,0,0,1-2.082,3.6A1.973,1.973,0,0,1,60.361,59.163Zm1.007-4.794a4.014,4.014,0,0,0-1.808,3.123A1.1,1.1,0,0,0,60,58.5a1.124,1.124,0,0,0,1.11-.137,4,4,0,0,0,1.808-3.123,1.1,1.1,0,0,0-.435-1.007A1.124,1.124,0,0,0,61.368,54.369Z" transform="translate(-58.471 -53.144)" fill="#111925"/></g></g><path d="M43.3,21.151c9.553,5.515,9.6,14.45.114,19.964s-24.907,5.515-34.46,0-9.61-14.45-.114-19.964,24.907-5.515,34.46,0Z" transform="translate(-1.486 -16.749)" fill="#fff"/><path d="M26.244,45.554c-6.293,0-12.585-1.384-17.39-4.165C4.129,38.655,1.52,35.017,1.52,31.127c0-3.856,2.563-7.482,7.219-10.182,9.542-5.549,25.136-5.549,34.746,0,4.725,2.723,7.334,6.373,7.334,10.251,0,3.856-2.563,7.482-7.219,10.182C38.817,44.158,32.536,45.554,26.244,45.554Zm-.172-28.225c-6.19,0-12.368,1.361-17.058,4.1-4.485,2.609-6.945,6.052-6.945,9.7,0,3.684,2.517,7.151,7.059,9.782,9.45,5.457,24.781,5.457,34.174,0,4.485-2.609,6.945-6.052,6.945-9.7,0-3.684-2.506-7.151-7.059-9.771-4.725-2.734-10.926-4.107-17.116-4.107Z" transform="translate(-1.52 -16.783)" fill="#111925"/><g transform="translate(5.028 3.715)"><path d="M44.258,33.2A11.038,11.038,0,0,1,39.2,38.027c-7.517,4.062-19.759,4.062-27.332,0a11.2,11.2,0,0,1-5.137-4.9c-1.567-3.409.114-7.162,5.045-9.816,7.528-4.062,19.77-4.062,27.344.011C44.12,25.991,45.837,29.766,44.258,33.2Z" transform="translate(-5.879 -19.996)" fill="#0084ce"/><path d="M25.588,41.367A30.013,30.013,0,0,1,11.767,38.3,11.474,11.474,0,0,1,6.5,33.279c-1.682-3.661.3-7.562,5.171-10.182,7.585-4.1,19.976-4.084,27.607.011,4.931,2.643,6.956,6.567,5.263,10.24A11.451,11.451,0,0,1,39.374,38.3,29.769,29.769,0,0,1,25.588,41.367Zm-.126-20.788A29.269,29.269,0,0,0,11.95,23.588c-4.656,2.506-6.5,6.041-4.931,9.462a11.013,11.013,0,0,0,5.023,4.759c7.494,4.016,19.633,4.016,27.069,0a10.877,10.877,0,0,0,4.931-4.691c1.579-3.432-.3-6.99-5.023-9.519a29.388,29.388,0,0,0-13.558-3.02Z" transform="translate(-5.915 -20.03)" fill="#111925"/></g><g transform="translate(5.592 8.721)"><path d="M44.186,32.567A11.038,11.038,0,0,1,39.129,37.4c-7.517,4.062-19.759,4.062-27.332,0A11.2,11.2,0,0,1,6.66,32.5a11.086,11.086,0,0,1,5.045-4.805c7.528-4.062,19.77-4.062,27.344,0a11.056,11.056,0,0,1,5.137,4.874Z" transform="translate(-6.371 -24.37)" fill="#fff"/><path d="M25.517,40.737A30.013,30.013,0,0,1,11.7,37.671a11.474,11.474,0,0,1-5.263-5.023.267.267,0,0,1,0-.229A11.377,11.377,0,0,1,11.6,27.477c7.585-4.1,19.976-4.1,27.607,0a11.513,11.513,0,0,1,5.263,5.011.267.267,0,0,1,0,.229A11.394,11.394,0,0,1,39.3,37.671,29.769,29.769,0,0,1,25.517,40.737Zm-18.511-8.2a11.206,11.206,0,0,0,4.965,4.645c7.494,4.016,19.633,4.016,27.069,0A10.889,10.889,0,0,0,43.914,32.6a11.127,11.127,0,0,0-4.965-4.634c-7.494-4.016-19.633-4.016-27.081,0a10.958,10.958,0,0,0-4.862,4.565Z" transform="translate(-6.408 -24.405)" fill="#111925"/></g><g transform="translate(0 14.115)"><path d="M1.76,29.36c.023,3.615,2.425,7.219,7.2,9.977,9.553,5.515,24.976,5.515,34.46,0,4.748-2.757,7.1-6.373,7.082-9.977v8.558c.023,3.615-2.334,7.219-7.082,9.977-9.485,5.515-24.907,5.515-34.46,0-4.771-2.757-7.173-6.373-7.2-9.977Z" transform="translate(-1.485 -29.085)" fill="#0084ce"/><path d="M26.244,52.334c-6.293,0-12.585-1.384-17.39-4.165C4.14,45.446,1.543,41.819,1.52,37.952V29.395a.286.286,0,0,1,.275-.275.278.278,0,0,1,.275.275c.023,3.661,2.528,7.128,7.059,9.736,9.45,5.457,24.781,5.457,34.174,0,4.462-2.6,6.922-6.018,6.945-9.645v-.092a.275.275,0,0,1,.549,0v8.558c.023,3.867-2.54,7.505-7.219,10.217-4.759,2.769-11.041,4.165-17.333,4.165ZM2.069,32.415v5.526C2.092,41.6,4.6,45.069,9.128,47.677c9.45,5.457,24.781,5.457,34.174,0,4.5-2.62,6.968-6.075,6.945-9.736V32.507c-.984,2.677-3.272,5.126-6.659,7.093-9.542,5.549-25.136,5.549-34.735,0C5.4,37.621,3.076,35.126,2.069,32.415Z" transform="translate(-1.52 -29.12)" fill="#111925"/></g><g transform="translate(37.892 26.045)"><path d="M48.668,45.762a1.552,1.552,0,0,0-1.59.16,4.91,4.91,0,0,0-2.231,3.856,1.545,1.545,0,0,0,.652,1.43l-9.977-5.823a1.545,1.545,0,0,1-.652-1.43A4.91,4.91,0,0,1,37.1,40.1a1.606,1.606,0,0,1,1.59-.16Z" transform="translate(-34.607 -39.512)" fill="#fff"/><path d="M45.543,51.518a.3.3,0,0,1-.137-.034.011.011,0,0,1-.011-.011L35.429,45.66a1.835,1.835,0,0,1-.789-1.67,5.2,5.2,0,0,1,2.368-4.1,1.8,1.8,0,0,1,1.865-.149l9.965,5.812.011.011a.277.277,0,1,1-.275.481l-.011-.011a1.337,1.337,0,0,0-1.293.16,4.616,4.616,0,0,0-2.094,3.615,1.323,1.323,0,0,0,.5,1.19h.011a.272.272,0,0,1,.1.378.316.316,0,0,1-.252.137Zm-7.4-11.407a1.673,1.673,0,0,0-.858.275A4.7,4.7,0,0,0,35.189,44a1.276,1.276,0,0,0,.515,1.19l8.981,5.24a2.522,2.522,0,0,1-.069-.606,5.2,5.2,0,0,1,2.368-4.1,2.626,2.626,0,0,1,.583-.263L38.6,40.237a.789.789,0,0,0-.458-.126Z" transform="translate(-34.64 -39.548)" fill="#111925"/><g transform="translate(9.33 5.295)"><ellipse cx="3.146" cy="1.819" rx="3.146" ry="1.819" transform="translate(0 5.443) rotate(-59.871)" fill="#fff"/><path d="M44.872,50.945a1.408,1.408,0,0,1-.721-.183,1.849,1.849,0,0,1-.8-1.682,5.2,5.2,0,0,1,2.368-4.1,1.639,1.639,0,0,1,2.666,1.522,5.2,5.2,0,0,1-2.368,4.1,2.336,2.336,0,0,1-1.144.343ZM46,45.464a4.574,4.574,0,0,0-2.082,3.615,1.276,1.276,0,0,0,.515,1.19,1.3,1.3,0,0,0,1.3-.16,4.616,4.616,0,0,0,2.094-3.615,1.276,1.276,0,0,0-.515-1.19A1.32,1.32,0,0,0,46,45.464Z" transform="translate(-42.715 -44.11)" fill="#111925"/></g></g><g transform="translate(40.226 26.085)"><path d="M63.782,51.866a2.641,2.641,0,0,0-2.677.263,8.229,8.229,0,0,0-3.753,6.5,2.621,2.621,0,0,0,1.1,2.414L38.028,49.258a2.621,2.621,0,0,1-1.1-2.414,8.264,8.264,0,0,1,3.753-6.5,2.641,2.641,0,0,1,2.677-.263Z" transform="translate(-36.644 -39.547)" fill="#fff"/><path d="M58.475,61.352a.3.3,0,0,1-.137-.034L37.916,49.533a2.886,2.886,0,0,1-1.236-2.654,8.57,8.57,0,0,1,3.89-6.739,2.893,2.893,0,0,1,2.952-.263L63.9,51.638c.011.011.023.011.034.023a.282.282,0,0,1,.1.378.272.272,0,0,1-.378.1l-.034-.023a2.386,2.386,0,0,0-2.357.275,7.95,7.95,0,0,0-3.615,6.247,2.4,2.4,0,0,0,.95,2.174.272.272,0,0,1,.1.378.22.22,0,0,1-.229.16ZM42.4,40.14a3.126,3.126,0,0,0-1.545.481,7.98,7.98,0,0,0-3.615,6.247,2.372,2.372,0,0,0,.95,2.174L57.342,60.093a4.008,4.008,0,0,1-.24-1.442,8.57,8.57,0,0,1,3.89-6.739,4.331,4.331,0,0,1,1.384-.526L43.247,40.346a1.687,1.687,0,0,0-.847-.206Z" transform="translate(-36.68 -39.582)" fill="#111925"/></g></g><g transform="translate(10.284 5.51)"><g transform="translate(0 9.061)"><path d="M9.42,13.67V31.712l15.605,9.061V22.731Z" transform="translate(-9.145 -13.395)" fill="#f5ab00"/><path d="M25.06,41.083a.3.3,0,0,1-.137-.034L9.317,31.987a.257.257,0,0,1-.137-.24V13.7a.279.279,0,0,1,.137-.24.292.292,0,0,1,.275,0L25.2,22.526a.257.257,0,0,1,.137.24V40.808a.279.279,0,0,1-.137.24.3.3,0,0,1-.137.034ZM9.729,31.575l15.045,8.741V22.926L9.729,14.185Z" transform="translate(-9.18 -13.43)" fill="#111925"/></g><g transform="translate(15.605 9.061)"><path d="M38.665,13.67V31.712L23.06,40.774V22.731Z" transform="translate(-22.785 -13.395)" fill="#f8d555"/><path d="M23.095,41.083a.3.3,0,0,1-.137-.034.257.257,0,0,1-.137-.24V22.766a.279.279,0,0,1,.137-.24l15.605-9.061a.292.292,0,0,1,.275,0,.257.257,0,0,1,.137.24V31.747a.279.279,0,0,1-.137.24L23.232,41.048A.3.3,0,0,1,23.095,41.083Zm.275-18.157v17.39l15.045-8.741V14.185Z" transform="translate(-22.82 -13.43)" fill="#111925"/></g><path d="M40.631,14.811,25.025,5.75,9.42,14.811l15.605,9.061Z" transform="translate(-9.145 -5.475)" fill="#fff"/><path d="M25.06,24.193a.3.3,0,0,1-.137-.034L9.317,15.086a.257.257,0,0,1-.137-.24.279.279,0,0,1,.137-.24L24.923,5.544a.315.315,0,0,1,.286,0l15.605,9.061a.257.257,0,0,1,.137.24.279.279,0,0,1-.137.24L25.2,24.147a.325.325,0,0,1-.137.046ZM10.015,14.846,25.06,23.587,40.1,14.846,25.06,6.1Z" transform="translate(-9.18 -5.51)" fill="#111925"/><g transform="translate(6.087 3.535)"><path d="M33.766,17.9,18.172,8.84,14.74,10.831l15.605,9.061Z" transform="translate(-14.465 -8.565)" fill="#ff977f"/><path d="M30.38,20.2a.3.3,0,0,1-.137-.034L14.637,11.106a.257.257,0,0,1-.137-.24.279.279,0,0,1,.137-.24l3.421-1.991a.315.315,0,0,1,.286,0L33.95,17.7a.257.257,0,0,1,.137.24.279.279,0,0,1-.137.24l-3.421,1.991a.352.352,0,0,1-.149.034ZM15.335,10.865,30.38,19.606l2.872-1.67L18.207,9.195Z" transform="translate(-14.5 -8.6)" fill="#111925"/></g><g transform="translate(21.692 12.596)"><path d="M31.8,16.76v6.132L28.38,24.872V18.751Z" transform="translate(-28.105 -16.485)" fill="#ff977f"/><path d="M28.415,25.192a.3.3,0,0,1-.137-.034.257.257,0,0,1-.137-.24V18.785a.279.279,0,0,1,.137-.24L31.7,16.554a.292.292,0,0,1,.275,0,.257.257,0,0,1,.137.24v6.121a.279.279,0,0,1-.137.24l-3.421,1.991A.2.2,0,0,1,28.415,25.192Zm.286-6.247v5.48l2.86-1.659v-5.48Z" transform="translate(-28.14 -16.52)" fill="#111925"/></g></g><g transform="translate(27.749 32.895)"><path d="M29.724,29.69,24.69,32.585" transform="translate(-24.41 -29.41)" fill="#9adbfb"/><path d="M24.725,32.906a.275.275,0,0,1-.137-.515l5.023-2.906a.277.277,0,1,1,.275.481l-5.023,2.906a.244.244,0,0,1-.137.034Z" transform="translate(-24.446 -29.446)" fill="#111925"/></g><g transform="translate(27.749 36.35)"><path d="M27.413,32.71,24.69,34.277" transform="translate(-24.41 -32.43)" fill="#9adbfb"/><path d="M24.725,34.587a.275.275,0,0,1-.137-.515L27.311,32.5a.277.277,0,1,1,.275.481l-2.723,1.567A.244.244,0,0,1,24.725,34.587Z" transform="translate(-24.446 -32.466)" fill="#111925"/></g></g></svg>