<svg xmlns="http://www.w3.org/2000/svg" width="90.914" height="90.914" viewBox="0 0 90.914 90.914"><g transform="translate(-8088.381 7685.006)"><g opacity="0.859"><path d="M45.457,0A45.457,45.457,0,0,1,90.914,45.457h0A45.457,45.457,0,0,1,0,45.457H0A45.457,45.457,0,0,1,45.457,0Z" transform="translate(8088.381 -7685.006)" fill="#bacbec"/><path d="M45.457,3A42.469,42.469,0,0,0,28.932,84.579,42.469,42.469,0,0,0,61.982,6.335,42.188,42.188,0,0,0,45.457,3m0-3A45.457,45.457,0,0,1,90.914,45.457h0A45.457,45.457,0,1,1,0,45.457H0A45.457,45.457,0,0,1,45.457,0Z" transform="translate(8088.381 -7685.006)" fill="#fff"/></g><g transform="translate(8103.773 -7672.554)"><path d="M1.75,17.64V48.36L28.32,63.8V33.08Z" fill="#f5ab00"/><path d="M28.32,64.05a.266.266,0,0,1-.12-.03L1.62,48.57a.225.225,0,0,1-.12-.21V17.64a.244.244,0,0,1,.12-.21.255.255,0,0,1,.24,0L28.43,32.87a.225.225,0,0,1,.12.21V63.8a.244.244,0,0,1-.12.21.15.15,0,0,1-.11.04ZM1.99,48.22,28.07,63.38V33.22L1.99,18.06Z" fill="#111925"/><path d="M54.88,17.64V48.36L28.32,63.8V33.08Z" fill="#f8d555"/><path d="M28.32,64.05a.266.266,0,0,1-.12-.03.225.225,0,0,1-.12-.21V33.08a.244.244,0,0,1,.12-.21L54.77,17.43a.255.255,0,0,1,.24,0,.225.225,0,0,1,.12.21V48.37a.244.244,0,0,1-.12.21L28.44,64.01a.192.192,0,0,1-.12.04Zm.24-30.83V63.38L54.64,48.22V18.06Z" fill="#111925"/><path d="M54.88,17.64,28.32,2.2,1.75,17.64,28.32,33.08Z" fill="#fff"/><path d="M28.32,33.32a.266.266,0,0,1-.12-.03L1.62,17.85a.272.272,0,0,1-.12-.21.244.244,0,0,1,.12-.21L28.19,1.99a.275.275,0,0,1,.25,0L55.01,17.43a.225.225,0,0,1,.12.21.244.244,0,0,1-.12.21L28.44,33.29a.266.266,0,0,1-.12.03ZM2.23,17.64,28.31,32.8,54.4,17.64,28.32,2.48Z" fill="#111925"/><path d="M44.51,23.66,17.95,8.22l-5.83,3.39L38.69,27.05Z" fill="#98d8fb"/><path d="M38.69,27.29a.266.266,0,0,1-.12-.03L11.99,11.82a.225.225,0,0,1-.12-.21.244.244,0,0,1,.12-.21l5.83-3.39a.275.275,0,0,1,.25,0L44.64,23.45a.225.225,0,0,1,.12.21.244.244,0,0,1-.12.21l-5.83,3.39a.266.266,0,0,1-.12.03ZM12.6,11.61,38.68,26.77l5.34-3.11L17.95,8.51Z" fill="#111925"/><path d="M44.51,23.66V34.1l-5.82,3.39V27.05Z" fill="#ff977f"/><path d="M38.68,37.73a.266.266,0,0,1-.12-.03.225.225,0,0,1-.12-.21V27.05a.244.244,0,0,1,.12-.21l5.83-3.39a.255.255,0,0,1,.24,0,.225.225,0,0,1,.12.21V34.1a.244.244,0,0,1-.12.21L38.8,37.7a.213.213,0,0,1-.12.03Zm.25-10.54v9.87l5.34-3.1V24.09Z" fill="#111925"/><path d="M44.51,23.66V34.1l-5.82,3.39V27.05Z" fill="#98d8fb"/><path d="M38.68,37.73a.266.266,0,0,1-.12-.03.225.225,0,0,1-.12-.21V27.05a.244.244,0,0,1,.12-.21l5.83-3.39a.255.255,0,0,1,.24,0,.225.225,0,0,1,.12.21V34.1a.244.244,0,0,1-.12.21L38.8,37.7a.213.213,0,0,1-.12.03Zm.25-10.54v9.87l5.34-3.1V24.09Z" fill="#111925"/><path d="M62.03,38.15c-1.39-.8-3.3-.69-5.42.53a16.713,16.713,0,0,0-7.58,13.15c0,2.4.85,4.09,2.22,4.88l-3.51-2.04c-1.37-.8-2.21-2.48-2.22-4.88A16.755,16.755,0,0,1,53.1,36.64c2.12-1.22,4.03-1.34,5.42-.53Z" fill="#ff977f"/><path d="M51.25,56.95a.266.266,0,0,1-.12-.03.01.01,0,0,1-.01-.01l-3.5-2.03c-1.5-.88-2.33-2.69-2.34-5.09a17.038,17.038,0,0,1,7.71-13.36c2.13-1.23,4.14-1.41,5.66-.53l3.51,2.04a.242.242,0,1,1-.24.42c-1.37-.79-3.2-.6-5.17.53a16.469,16.469,0,0,0-7.46,12.93c0,2.23.75,3.88,2.09,4.66l.01.01a.237.237,0,0,1,.09.33.307.307,0,0,1-.23.13Zm5.26-21.12a6.756,6.756,0,0,0-3.29,1.01,16.469,16.469,0,0,0-7.46,12.93c.01,2.23.76,3.89,2.1,4.67l1.84,1.07a6.9,6.9,0,0,1-.92-3.7,17.038,17.038,0,0,1,7.71-13.36,7.089,7.089,0,0,1,3.75-1.08L58.39,36.3a3.91,3.91,0,0,0-1.88-.47Z" fill="#111925"/><path d="M56.61,38.68c4.2-2.43,7.63-.48,7.64,4.36a16.748,16.748,0,0,1-7.59,13.14c-4.2,2.43-7.62.48-7.64-4.35A16.735,16.735,0,0,1,56.61,38.68Z" fill="#fff"/><path d="M53.25,57.47a4.194,4.194,0,0,1-2.11-.54c-1.51-.87-2.35-2.68-2.36-5.1a17.022,17.022,0,0,1,7.71-13.36c2.12-1.22,4.12-1.41,5.65-.54,1.51.87,2.35,2.68,2.36,5.1.01,4.9-3.45,10.89-7.71,13.35a7.217,7.217,0,0,1-3.54,1.09Zm6.78-19.59a6.756,6.756,0,0,0-3.29,1.01,16.454,16.454,0,0,0-7.46,12.93c.01,2.24.76,3.9,2.11,4.68,1.37.79,3.2.59,5.16-.54a16.476,16.476,0,0,0,7.47-12.93c-.01-2.24-.76-3.9-2.11-4.68a3.776,3.776,0,0,0-1.88-.47Z" fill="#111925"/><path d="M56.62,42.05c2.58-1.49,4.68-.29,4.69,2.68a10.263,10.263,0,0,1-4.66,8.07c-2.58,1.49-4.68.29-4.69-2.67a10.308,10.308,0,0,1,4.66-8.08Z" fill="#ff977f"/><path d="M54.56,53.69a2.555,2.555,0,0,1-1.34-.35,3.475,3.475,0,0,1-1.49-3.21,10.58,10.58,0,0,1,4.78-8.29,3.094,3.094,0,0,1,5.06,2.89,10.562,10.562,0,0,1-4.78,8.28A4.6,4.6,0,0,1,54.56,53.69Zm4.16-12.03a3.96,3.96,0,0,0-1.97.61,10.049,10.049,0,0,0-4.54,7.86,3.029,3.029,0,0,0,1.25,2.79,3.073,3.073,0,0,0,3.07-.33,10.007,10.007,0,0,0,4.54-7.86,3.029,3.029,0,0,0-1.25-2.79A2.144,2.144,0,0,0,58.72,41.66Z" fill="#111925"/><path d="M58.69,48.6l-4.1-2.34" fill="#fff"/><path d="M58.69,48.84a.266.266,0,0,1-.12-.03l-4.11-2.34a.242.242,0,0,1,.24-.42l4.11,2.34a.237.237,0,0,1,.09.33.225.225,0,0,1-.21.12Z" fill="#111925"/><path d="M58.44,44.3l-3.6,6.25" fill="#fff"/><path d="M54.84,50.79a.266.266,0,0,1-.12-.03.237.237,0,0,1-.09-.33l3.61-6.25a.242.242,0,1,1,.42.24l-3.61,6.25a.247.247,0,0,1-.21.12Z" fill="#111925"/><path d="M31.68,50.08v6.39" fill="#fff"/><path d="M31.68,56.71a.243.243,0,0,1-.24-.24V50.08a.24.24,0,1,1,.48,0v6.39A.231.231,0,0,1,31.68,56.71Z" fill="#111925"/><path d="M30.2,52.89a.266.266,0,0,1-.12-.03.237.237,0,0,1-.09-.33l1.48-2.57a.237.237,0,0,1,.33-.09l1.49.85a.242.242,0,0,1-.24.42l-1.28-.73-1.36,2.35a.245.245,0,0,1-.21.13Z" fill="#111925"/><path d="M35.84,54.29a.243.243,0,0,1-.24-.24V47.66a.24.24,0,0,1,.48,0v6.39A.243.243,0,0,1,35.84,54.29Z" fill="#111925"/><path d="M34.35,50.46a.266.266,0,0,1-.12-.03.237.237,0,0,1-.09-.33l1.48-2.57a.237.237,0,0,1,.33-.09l1.49.85a.242.242,0,0,1-.24.42l-1.28-.73-1.36,2.35a.217.217,0,0,1-.21.13Z" fill="#111925"/><path d="M37.93,55.05l-7.15,4.16" fill="#fed167"/><path d="M30.78,59.45a.241.241,0,0,1-.12-.45l7.15-4.16a.242.242,0,0,1,.24.42L30.9,59.42a.266.266,0,0,1-.12.03Z" fill="#111925"/></g></g></svg>