<svg xmlns="http://www.w3.org/2000/svg" width="90.913" height="90.914" viewBox="0 0 90.913 90.914"><g transform="translate(-8429.381 7685.006)"><g opacity="0.859"><path d="M45.457,0A45.457,45.457,0,0,1,90.914,45.457h0A45.457,45.457,0,0,1,0,45.457H0A45.457,45.457,0,0,1,45.457,0Z" transform="translate(8429.381 -7685.006)" fill="#bacbec"/><path d="M45.457,3A42.469,42.469,0,0,0,28.932,84.579,42.469,42.469,0,0,0,61.982,6.335,42.188,42.188,0,0,0,45.457,3m0-3A45.457,45.457,0,0,1,90.914,45.457h0A45.457,45.457,0,1,1,0,45.457H0A45.457,45.457,0,0,1,45.457,0Z" transform="translate(8429.381 -7685.006)" fill="#fff"/></g><g transform="translate(8441.438 -7672.551)"><path d="M63.37,19.02V43.94L28.32,64.26V39.33Z" fill="#f5ab00"/><path d="M28.32,64.5a.266.266,0,0,1-.12-.03.225.225,0,0,1-.12-.21V39.33a.244.244,0,0,1,.12-.21L63.24,18.8a.255.255,0,0,1,.24,0,.225.225,0,0,1,.12.21V43.93a.244.244,0,0,1-.12.21L28.45,64.47a.277.277,0,0,1-.13.03Zm.25-25.03V63.83L63.12,43.8V19.44Z" fill="#111925"/><path d="M2.63,24.4V49.33L28.32,64.26V39.33Z" fill="#f8d555"/><path d="M28.32,64.5a.266.266,0,0,1-.12-.03L2.51,49.54a.225.225,0,0,1-.12-.21V24.4a.244.244,0,0,1,.12-.21.255.255,0,0,1,.24,0L28.44,39.12a.225.225,0,0,1,.12.21V64.25a.244.244,0,0,1-.12.21.159.159,0,0,1-.12.04ZM2.88,49.19l25.2,14.65V39.47L2.88,24.83Z" fill="#111925"/><path d="M2.63,24.4,37.68,4.09,63.37,19.02,28.32,39.33Z" fill="#fff"/><path d="M28.32,39.58a.266.266,0,0,1-.12-.03L2.51,24.62a.225.225,0,0,1-.12-.21.244.244,0,0,1,.12-.21L37.55,3.88a.275.275,0,0,1,.25,0L63.49,18.8a.225.225,0,0,1,.12.21.244.244,0,0,1-.12.21L28.45,39.55a.277.277,0,0,1-.13.03ZM3.12,24.41l25.2,14.65L62.88,19.02,37.68,4.37Z" fill="#111925"/><path d="M32.69,56.48a.243.243,0,0,1-.24-.24V49.75a.24.24,0,0,1,.48,0v6.49A.237.237,0,0,1,32.69,56.48Z" fill="#111925"/><path d="M31.18,52.6a.266.266,0,0,1-.12-.03.237.237,0,0,1-.09-.33l1.5-2.61a.237.237,0,0,1,.33-.09l1.51.86a.242.242,0,0,1-.24.42l-1.3-.74-1.38,2.4a.244.244,0,0,1-.21.12Z" fill="#111925"/><path d="M36.91,54.02a.243.243,0,0,1-.24-.24V47.29a.24.24,0,0,1,.48,0v6.49A.231.231,0,0,1,36.91,54.02Z" fill="#111925"/><path d="M35.4,50.13a.266.266,0,0,1-.12-.03.237.237,0,0,1-.09-.33l1.5-2.61a.237.237,0,0,1,.33-.09l1.51.86a.242.242,0,0,1-.24.42L37,47.62l-1.38,2.4a.266.266,0,0,1-.22.11Z" fill="#111925"/><path d="M39.04,54.8l-7.27,4.22" fill="#fed167"/><path d="M31.77,59.26a.241.241,0,0,1-.12-.45l7.26-4.22a.242.242,0,0,1,.24.42l-7.26,4.22a.238.238,0,0,1-.12.03Z" fill="#111925"/><path d="M33.23,13.67c.01,2.02.72,3.44,1.87,4.11l5.56,2.83c-1.15-.67-1.86-2.09-1.87-4.11A14.053,14.053,0,0,1,45.17,5.45c1.78-1.03,3.39-1.12,4.56-.45L44.17,2.17c-1.17-.67-2.78-.57-4.56.46A14.061,14.061,0,0,0,33.23,13.67Z" fill="#ff977f"/><path d="M40.66,20.86a.2.2,0,0,1-.11-.03L34.99,18c-1.29-.75-1.99-2.28-2-4.32a14.351,14.351,0,0,1,6.5-11.26c1.8-1.04,3.51-1.2,4.8-.45l5.24,2.67a3.182,3.182,0,0,1,.32.16.253.253,0,0,1,.09.33.245.245,0,0,1-.33.1l-.29-.15a4.493,4.493,0,0,0-4.03.59,13.823,13.823,0,0,0-6.26,10.84c0,1.86.62,3.24,1.75,3.9a.253.253,0,0,1,.09.33A.257.257,0,0,1,40.66,20.86Zm-7.19-7.19c.01,1.86.63,3.25,1.75,3.9l4.12,2.1a5.827,5.827,0,0,1-.8-3.16,14.363,14.363,0,0,1,6.5-11.26,6.242,6.242,0,0,1,2.82-.91L44.05,2.4c-1.15-.67-2.68-.51-4.32.44A13.82,13.82,0,0,0,33.47,13.67Z" fill="#111925"/><path d="M51.59,9.12a14.079,14.079,0,0,1-6.38,11.05c-3.54,2.04-6.41.4-6.42-3.66A14.053,14.053,0,0,1,45.17,5.46c3.53-2.04,6.41-.4,6.42,3.66Z" fill="#fff"/><path d="M42.34,21.3a3.51,3.51,0,0,1-1.79-.46c-1.28-.74-1.99-2.28-2-4.32a14.351,14.351,0,0,1,6.5-11.26c1.8-1.04,3.5-1.2,4.79-.45s1.99,2.27,2,4.32a14.363,14.363,0,0,1-6.5,11.26,6.208,6.208,0,0,1-3,.91Zm5.7-16.48a5.549,5.549,0,0,0-2.75.85,13.823,13.823,0,0,0-6.26,10.84c.01,1.87.63,3.25,1.76,3.9s2.66.49,4.3-.45A13.823,13.823,0,0,0,51.35,9.12c-.01-1.87-.63-3.25-1.76-3.9a3.01,3.01,0,0,0-1.55-.4Z" fill="#111925"/><path d="M46.41,8.4a3.411,3.411,0,0,0-1.24.45,7.617,7.617,0,0,0-3.44,5.96,3.327,3.327,0,0,0,.18,1.14c.45,1.32,1.75,1.72,3.28.83a7.564,7.564,0,0,0,3.44-5.96c.01-1.69-.92-2.59-2.22-2.42Z" fill="#111925"/><path d="M43.65,17.5a1.934,1.934,0,0,1-.73-.13,2.082,2.082,0,0,1-1.23-1.35,3.592,3.592,0,0,1-.19-1.22,7.862,7.862,0,0,1,3.56-6.17,3.839,3.839,0,0,1,1.33-.48,2.054,2.054,0,0,1,1.67.45,2.835,2.835,0,0,1,.83,2.21,7.862,7.862,0,0,1-3.56,6.17,3.43,3.43,0,0,1-1.68.52Zm3.07-8.88c-.09,0-.18.01-.28.02a3.234,3.234,0,0,0-1.15.42,7.321,7.321,0,0,0-3.31,5.74,3.19,3.19,0,0,0,.16,1.06,1.629,1.629,0,0,0,.94,1.05,2.388,2.388,0,0,0,1.99-.34,7.307,7.307,0,0,0,3.32-5.75,2.372,2.372,0,0,0-.67-1.84A1.475,1.475,0,0,0,46.72,8.62Z" fill="#111925"/><path d="M46.41,8.4a3.411,3.411,0,0,0-1.24.45,7.617,7.617,0,0,0-3.44,5.96,3.327,3.327,0,0,0,.18,1.14,3.305,3.305,0,0,0,1.23-.45,7.564,7.564,0,0,0,3.44-5.96A3.108,3.108,0,0,0,46.41,8.4Z" fill="#fff"/><path d="M41.92,16.19a.237.237,0,0,1-.23-.16,3.592,3.592,0,0,1-.19-1.22,7.862,7.862,0,0,1,3.56-6.17,3.839,3.839,0,0,1,1.33-.48.232.232,0,0,1,.26.16,3.592,3.592,0,0,1,.19,1.22,7.862,7.862,0,0,1-3.56,6.17,3.667,3.667,0,0,1-1.32.48Zm4.32-7.51a3.489,3.489,0,0,0-.95.38,7.321,7.321,0,0,0-3.31,5.74,3.328,3.328,0,0,0,.1.86,3.435,3.435,0,0,0,.94-.38,7.331,7.331,0,0,0,3.32-5.74,2.944,2.944,0,0,0-.1-.86Z" fill="#111925"/><path d="M39.28,13.38,30.46,26.29,18.29,33.5l-5.36-3.11,12.14-7.15,8.74-12.98" fill="#ff977f"/><path d="M18.29,33.75a.266.266,0,0,1-.12-.03L12.81,30.6a.244.244,0,0,1,0-.42L24.9,23.06l8.71-12.93a.245.245,0,0,1,.41.27L25.27,23.38a.178.178,0,0,1-.08.07L13.41,30.39l4.88,2.84,11.99-7.11,8.79-12.87a.244.244,0,0,1,.4.28L30.65,26.44a.27.27,0,0,1-.08.07L18.41,33.72A.213.213,0,0,1,18.29,33.75Z" fill="#111925"/><path d="M12.93,43.77l2.68-.95,2.68,4.07V33.5l-5.36-3.11Z" fill="#ff977f"/><path d="M18.29,47.13a.231.231,0,0,1-.2-.11l-2.58-3.91-2.5.89a.219.219,0,0,1-.22-.03.261.261,0,0,1-.1-.2V30.39a.244.244,0,0,1,.12-.21.255.255,0,0,1,.24,0l5.36,3.12a.225.225,0,0,1,.12.21V46.89a.237.237,0,0,1-.17.23.148.148,0,0,1-.07.01Zm-2.68-4.56a.231.231,0,0,1,.2.11l2.23,3.39V33.65l-4.87-2.83V43.43l2.36-.84A.235.235,0,0,1,15.61,42.57Z" fill="#111925"/></g></g></svg>