<svg xmlns="http://www.w3.org/2000/svg" width="90.914" height="90.914" viewBox="0 0 90.914 90.914"><g transform="translate(-1132.931 -4059.605)"><g opacity="0.859"><path d="M45.457,0A45.457,45.457,0,0,1,90.914,45.457h0A45.457,45.457,0,0,1,0,45.457H0A45.457,45.457,0,0,1,45.457,0Z" transform="translate(1132.931 4059.605)" fill="#bacbec"/><path d="M45.457,3A42.469,42.469,0,0,0,28.932,84.579,42.469,42.469,0,0,0,61.982,6.335,42.188,42.188,0,0,0,45.457,3m0-3A45.457,45.457,0,0,1,90.914,45.457h0A45.457,45.457,0,1,1,0,45.457H0A45.457,45.457,0,0,1,45.457,0Z" transform="translate(1132.931 4059.605)" fill="#fff"/></g><g transform="translate(1144.983 4071.834)"><path d="M55.91,15.06v26.5L33,54.87V28.37Z" fill="#f5ab00"/><path d="M33,55.12a.266.266,0,0,1-.12-.03.225.225,0,0,1-.12-.21V28.38a.244.244,0,0,1,.12-.21L55.79,14.86a.255.255,0,0,1,.24,0,.225.225,0,0,1,.12.21v26.5a.244.244,0,0,1-.12.21L33.12,55.08a.245.245,0,0,1-.12.04Zm.24-26.6V54.45L55.66,41.42V15.48Z" fill="#111925"/><path d="M10.09,15.06v26.5L33,54.87V28.37Z" fill="#f8d555"/><path d="M33,55.12a.266.266,0,0,1-.12-.03L9.97,41.77a.225.225,0,0,1-.12-.21V15.06a.244.244,0,0,1,.12-.21.255.255,0,0,1,.24,0L33.12,28.16a.225.225,0,0,1,.12.21v26.5a.244.244,0,0,1-.12.21.284.284,0,0,1-.12.04ZM10.33,41.42,32.75,54.45V28.52L10.33,15.48Z" fill="#111925"/><path d="M10.09,15.06,33,1.75,55.91,15.06,33,28.37Z" fill="#fff"/><path d="M33,28.62a.266.266,0,0,1-.12-.03L9.97,15.27a.225.225,0,0,1-.12-.21.244.244,0,0,1,.12-.21L32.88,1.53a.275.275,0,0,1,.25,0L56.04,14.84a.225.225,0,0,1,.12.21.244.244,0,0,1-.12.21L33.12,28.59a.238.238,0,0,1-.12.03ZM10.58,15.06,33,28.09,55.42,15.06,33,2.03Z" fill="#111925"/><path d="M19.03,20.26,41.94,6.94l5.03,2.92L24.06,23.18Z" fill="#ff977f"/><path d="M24.06,23.42a.266.266,0,0,1-.12-.03l-5.03-2.92a.225.225,0,0,1-.12-.21.244.244,0,0,1,.12-.21L41.82,6.73a.275.275,0,0,1,.25,0L47.1,9.65a.225.225,0,0,1,.12.21.244.244,0,0,1-.12.21L24.18,23.39a.266.266,0,0,1-.12.03Zm-4.54-3.16,4.54,2.64L46.48,9.86,41.94,7.22Z" fill="#111925"/><path d="M19.03,20.26v9l5.03,2.92v-9Z" fill="#ff977f"/><path d="M24.06,32.42a.266.266,0,0,1-.12-.03l-5.03-2.92a.225.225,0,0,1-.12-.21v-9a.244.244,0,0,1,.12-.21.255.255,0,0,1,.24,0l5.03,2.92a.225.225,0,0,1,.12.21v9a.244.244,0,0,1-.12.21.266.266,0,0,1-.12.03Zm-4.78-3.31,4.54,2.64V23.32l-4.54-2.64Z" fill="#111925"/><path d="M35.61,51.31a.243.243,0,0,1-.24-.24V42.95a.24.24,0,0,1,.48,0v8.12A.231.231,0,0,1,35.61,51.31Z" fill="#111925"/><path d="M37.3,48.78a.243.243,0,0,1-.24-.24V41.96a.24.24,0,1,1,.48,0v6.58a.243.243,0,0,1-.24.24Z" fill="#111925"/><path d="M38.96,47.82a.243.243,0,0,1-.24-.24V41a.24.24,0,1,1,.48,0v6.58a.243.243,0,0,1-.24.24Z" fill="#111925"/><path d="M40.62,46.86a.243.243,0,0,1-.24-.24V40.04a.24.24,0,0,1,.48,0v6.58a.231.231,0,0,1-.24.24Z" fill="#111925"/><path d="M42.28,45.89a.243.243,0,0,1-.24-.24V39.07a.24.24,0,1,1,.48,0v6.58a.231.231,0,0,1-.24.24Z" fill="#111925"/><path d="M43.94,44.93a.243.243,0,0,1-.24-.24V38.1a.24.24,0,0,1,.48,0v6.58A.234.234,0,0,1,43.94,44.93Z" fill="#111925"/><path d="M45.61,45.49a.243.243,0,0,1-.24-.24V37.14a.24.24,0,0,1,.48,0v8.11A.243.243,0,0,1,45.61,45.49Z" fill="#111925"/><path d="M54.64,42.81c-.85-.49-2.3-.3-3.94.65-2.6,1.5-4.71,4.34-4.7,6.34a1.686,1.686,0,0,0,.69,1.48,5.965,5.965,0,0,1,2.34,5.18v.55c0,.27-.01.54-.03.82l-.32,4.73a1.554,1.554,0,0,0,.6,1.55l-2.66-1.55a1.563,1.563,0,0,1-.6-1.55l.32-4.74c.02-.28.03-.55.03-.82v-.54a5.952,5.952,0,0,0-2.34-5.18,1.663,1.663,0,0,1-.69-1.48c-.01-2.01,2.1-4.84,4.7-6.34,1.64-.95,3.09-1.14,3.94-.65Z" fill="#98d8fb"/><path d="M49.15,64.32l-2.66-1.55a1.791,1.791,0,0,1-.72-1.78l.32-4.74c.02-.25.03-.51.03-.8v-.54a5.753,5.753,0,0,0-2.23-4.98,1.915,1.915,0,0,1-.8-1.68c-.01-2.11,2.11-4.99,4.83-6.55,1.67-.96,3.23-1.2,4.18-.65l2.66,1.54-.24.42c-.8-.46-2.19-.22-3.7.65-2.53,1.46-4.59,4.21-4.58,6.13a1.431,1.431,0,0,0,.59,1.28,6.216,6.216,0,0,1,2.45,5.38V57c0,.31-.01.58-.03.84l-.32,4.73a1.325,1.325,0,0,0,.48,1.32Zm1.72-23.08a5.726,5.726,0,0,0-2.71.88c-2.53,1.47-4.59,4.22-4.58,6.13a1.431,1.431,0,0,0,.59,1.28,6.235,6.235,0,0,1,2.45,5.39v.54c0,.31-.01.58-.03.84l-.32,4.74a1.345,1.345,0,0,0,.48,1.32l1.75,1.02a2.779,2.779,0,0,1-.06-.83l.32-4.73c.02-.25.03-.51.03-.8v-.55a5.7,5.7,0,0,0-2.23-4.98,1.921,1.921,0,0,1-.8-1.69c0-2.07,2.16-5.01,4.83-6.55a6.514,6.514,0,0,1,2.73-.93l-1.45-.84a2,2,0,0,0-1-.24Z" fill="#111925"/><path d="M50.7,43.46c2.6-1.5,4.72-1.11,4.72.9a4.907,4.907,0,0,1-.69,2.28,17.028,17.028,0,0,0-2.3,7.86v.54c0,.27.01.53.03.79l.36,4.34a4.51,4.51,0,0,1-2.07,3.8c-1.22.71-2.19.06-2.09-1.4L49,57.82c.02-.28.03-.55.03-.82v-.55a5.952,5.952,0,0,0-2.34-5.18A1.645,1.645,0,0,1,46,49.8c-.01-2.01,2.1-4.84,4.7-6.34Z" fill="#0296f6"/><path d="M49.82,64.5a1.219,1.219,0,0,1-.7-.2,1.85,1.85,0,0,1-.69-1.76l.33-4.74c.02-.27.03-.54.03-.8v-.55a5.753,5.753,0,0,0-2.23-4.98,1.915,1.915,0,0,1-.8-1.68c-.01-2.07,2.16-5.01,4.83-6.55,1.66-.96,3.22-1.2,4.18-.65a1.884,1.884,0,0,1,.91,1.76,5.183,5.183,0,0,1-.72,2.4,16.9,16.9,0,0,0-2.27,7.74v.54c0,.27.01.53.03.77l.36,4.34a4.783,4.783,0,0,1-2.19,4.04,2.249,2.249,0,0,1-1.07.32Zm3.71-21.72a5.694,5.694,0,0,0-2.71.88c-2.53,1.46-4.59,4.21-4.58,6.13a1.431,1.431,0,0,0,.59,1.28,6.216,6.216,0,0,1,2.45,5.38V57q0,.42-.03.84l-.33,4.74a1.37,1.37,0,0,0,.46,1.31,1.232,1.232,0,0,0,1.26-.13,4.292,4.292,0,0,0,1.95-3.57l-.36-4.34q-.03-.375-.03-.81V54.5a17.266,17.266,0,0,1,2.33-7.98,4.73,4.73,0,0,0,.66-2.17,1.438,1.438,0,0,0-.67-1.34A2.068,2.068,0,0,0,53.53,42.78Z" fill="#111925"/><path d="M46.69,40.9,34.55,47.96" fill="#f5ab00"/><path d="M34.55,48.2a.241.241,0,0,1-.12-.45l12.15-7.06a.242.242,0,1,1,.24.42L34.67,48.17a.266.266,0,0,1-.12.03Z" fill="#111925"/></g></g></svg>