<svg xmlns="http://www.w3.org/2000/svg" width="63" height="58.33" viewBox="0 0 63 58.33"><g transform="translate(-1.5 -3.84)"><path d="M54.57,48.01l9.28-5.39-.01,2.74-9.28,5.39Z" fill="#e4e8f2"/><path d="M54.56,51a.266.266,0,0,1-.12-.03.225.225,0,0,1-.12-.21l.01-2.74a.244.244,0,0,1,.12-.21l9.28-5.39a.255.255,0,0,1,.24,0,.244.244,0,0,1,.12.21l-.01,2.74a.244.244,0,0,1-.12.21l-9.28,5.39a.422.422,0,0,1-.12.03Zm.25-2.85v2.18l8.79-5.11V43.04Z" fill="#111925"/><path d="M20.77,28.5l9.28-5.39,33.8,19.51-9.28,5.39Z" fill="#fff"/><path d="M54.57,48.25a.266.266,0,0,1-.12-.03L20.65,28.71a.225.225,0,0,1-.12-.21.244.244,0,0,1,.12-.21l9.28-5.39a.255.255,0,0,1,.24,0l33.8,19.5a.225.225,0,0,1,.12.21.244.244,0,0,1-.12.21l-9.28,5.39a.192.192,0,0,1-.12.04ZM21.26,28.5,54.57,47.73l8.79-5.11L30.06,23.39Z" fill="#111925"/><path d="M54.57,48.01l-.01,2.74L20.77,31.24V28.5Z" fill="#e4e8f2"/><path d="M54.56,51a.266.266,0,0,1-.12-.03L20.65,31.45a.225.225,0,0,1-.12-.21l.01-2.74a.244.244,0,0,1,.12-.21.255.255,0,0,1,.24,0L54.69,47.8a.225.225,0,0,1,.12.21l-.01,2.74a.26.26,0,0,1-.24.25ZM21.01,31.1,54.32,50.33V48.15L21.02,28.92Z" fill="#111925"/><path d="M52.28,41.49l9.28-5.4-.01,5.2-9.28,5.39Z" fill="#e4e8f2"/><path d="M52.27,46.93a.266.266,0,0,1-.12-.03.225.225,0,0,1-.12-.21l.01-5.19a.244.244,0,0,1,.12-.21l9.28-5.39a.255.255,0,0,1,.24,0,.225.225,0,0,1,.12.21l-.01,5.19a.244.244,0,0,1-.12.21L52.39,46.9a.528.528,0,0,1-.12.03Zm.25-5.3-.01,4.63,8.79-5.11.01-4.63Z" fill="#111925"/><path d="M46.56,38.18l9.28-5.39,5.72,3.3-9.28,5.4Z" fill="#fff"/><path d="M52.28,41.73a.266.266,0,0,1-.12-.03l-5.72-3.3a.225.225,0,0,1-.12-.21.244.244,0,0,1,.12-.21l9.28-5.39a.255.255,0,0,1,.24,0l5.72,3.3a.225.225,0,0,1,.12.21.244.244,0,0,1-.12.21L52.4,41.7a.266.266,0,0,1-.12.03Zm-5.23-3.55,5.23,3.02,8.79-5.11-5.23-3.02Z" fill="#111925"/><path d="M52.28,41.49l-.01,5.19-5.72-3.3.01-5.2Z" fill="#fff"/><path d="M52.27,46.93a.266.266,0,0,1-.12-.03l-5.72-3.3a.225.225,0,0,1-.12-.21l.01-5.19a.244.244,0,0,1,.12-.21.255.255,0,0,1,.24,0l5.72,3.3a.225.225,0,0,1,.12.21l-.01,5.19a.244.244,0,0,1-.12.21.528.528,0,0,1-.12.03Zm-5.48-3.69,5.23,3.02.01-4.63L46.8,38.61Z" fill="#111925"/><path d="M28.4,27.7l9.28-5.39-.01,5.19-9.28,5.39Z" fill="#fff"/><path d="M28.39,33.14a.266.266,0,0,1-.12-.03.225.225,0,0,1-.12-.21l.01-5.19a.244.244,0,0,1,.12-.21l9.28-5.39a.255.255,0,0,1,.24,0,.225.225,0,0,1,.12.21l-.01,5.19a.244.244,0,0,1-.12.21l-9.28,5.39a.266.266,0,0,1-.12.03Zm.25-5.3-.01,4.63,8.79-5.11.01-4.63Z" fill="#111925"/><path d="M22.68,24.4,31.96,19l5.72,3.31L28.4,27.7Z" fill="#fff"/><path d="M28.4,27.94a.266.266,0,0,1-.12-.03l-5.72-3.3a.225.225,0,0,1-.12-.21.244.244,0,0,1,.12-.21l9.28-5.39a.255.255,0,0,1,.24,0l5.72,3.3a.225.225,0,0,1,.12.21.244.244,0,0,1-.12.21l-9.28,5.39a.238.238,0,0,1-.12.03ZM23.17,24.4l5.23,3.02,8.79-5.11-5.23-3.02Z" fill="#111925"/><path d="M28.4,27.7l-.01,5.19-5.72-3.3.01-5.19Z" fill="#fff"/><path d="M28.39,33.14a.266.266,0,0,1-.12-.03l-5.72-3.3a.225.225,0,0,1-.12-.21l.01-5.19a.244.244,0,0,1,.12-.21.255.255,0,0,1,.24,0l5.72,3.3a.225.225,0,0,1,.12.21l-.01,5.19a.244.244,0,0,1-.12.21.266.266,0,0,1-.12.03Zm-5.48-3.69,5.23,3.02.01-4.63-5.23-3.02Z" fill="#111925"/><path d="M54.57,40.07l-.01,2.74L20.9,23.38l.01-2.74Z" fill="#e4e8f2"/><path d="M54.56,43.06a.266.266,0,0,1-.12-.03L20.78,23.59a.225.225,0,0,1-.12-.21l.01-2.74a.244.244,0,0,1,.12-.21.255.255,0,0,1,.24,0L54.69,39.86a.225.225,0,0,1,.12.21l-.01,2.74a.244.244,0,0,1-.12.21.175.175,0,0,1-.12.04ZM21.15,23.24,54.32,42.39V40.21L21.15,21.06Z" fill="#111925"/><path d="M35.55,59.18l9.28-5.39-.01,2.74-9.28,5.39Z" fill="#e4e8f2"/><path d="M35.54,62.17a.266.266,0,0,1-.12-.03.225.225,0,0,1-.12-.21l.01-2.74a.244.244,0,0,1,.12-.21l9.28-5.39a.255.255,0,0,1,.24,0,.244.244,0,0,1,.12.21l-.01,2.74a.244.244,0,0,1-.12.21l-9.28,5.39a.266.266,0,0,1-.12.03Zm.25-2.85V61.5l8.79-5.11V54.21Z" fill="#111925"/><path d="M1.75,39.67l9.28-5.39,33.8,19.51-9.28,5.39Z" fill="#fff"/><path d="M35.55,59.43a.266.266,0,0,1-.12-.03L1.63,39.88a.225.225,0,0,1-.12-.21.244.244,0,0,1,.12-.21l9.28-5.39a.255.255,0,0,1,.24,0L44.94,53.58a.225.225,0,0,1,.12.21.244.244,0,0,1-.12.21l-9.28,5.39a.15.15,0,0,1-.11.04ZM2.24,39.67,35.55,58.9l8.79-5.11L11.03,34.56Z" fill="#111925"/><path d="M35.55,59.18l-.01,2.74L1.75,42.41V39.67Z" fill="#e4e8f2"/><path d="M35.54,62.17a.266.266,0,0,1-.12-.03L1.62,42.62a.244.244,0,0,1-.12-.21l.01-2.74a.244.244,0,0,1,.12-.21.255.255,0,0,1,.24,0L35.66,58.97a.225.225,0,0,1,.12.21l-.01,2.74a.244.244,0,0,1-.12.21.15.15,0,0,1-.11.04ZM1.99,42.27,35.3,61.5V59.32L1.99,40.09Z" fill="#111925"/><path d="M33.26,52.66l9.28-5.39-.01,5.19-9.29,5.39Z" fill="#e4e8f2"/><path d="M33.24,58.1a.266.266,0,0,1-.12-.03.275.275,0,0,1-.12-.22l.01-5.19a.244.244,0,0,1,.12-.21l9.28-5.39a.255.255,0,0,1,.24,0,.225.225,0,0,1,.12.21l-.01,5.19a.244.244,0,0,1-.12.21l-9.28,5.39a.159.159,0,0,1-.12.04Zm.26-5.3-.01,4.63,8.79-5.11.01-4.63Z" fill="#111925"/><path d="M27.54,49.36l9.28-5.4,5.72,3.31-9.28,5.39Z" fill="#fff"/><path d="M33.26,52.9a.266.266,0,0,1-.12-.03l-5.72-3.3a.225.225,0,0,1-.12-.21.244.244,0,0,1,.12-.21l9.28-5.39a.255.255,0,0,1,.24,0l5.72,3.3a.225.225,0,0,1,.12.21.244.244,0,0,1-.12.21l-9.28,5.39a.266.266,0,0,1-.12.03Zm-5.24-3.54,5.23,3.02,8.79-5.11-5.23-3.02Z" fill="#111925"/><path d="M33.26,52.66l-.02,5.19-5.72-3.3.02-5.19Z" fill="#fff"/><path d="M33.24,58.1a.266.266,0,0,1-.12-.03l-5.72-3.3a.225.225,0,0,1-.12-.21l.01-5.19a.244.244,0,0,1,.12-.21.255.255,0,0,1,.24,0l5.72,3.3a.225.225,0,0,1,.12.21l-.01,5.19a.244.244,0,0,1-.12.21.213.213,0,0,1-.12.03Zm-5.47-3.69L33,57.43l.01-4.63-5.23-3.02Z" fill="#111925"/><path d="M9.38,38.87l9.28-5.39-.01,5.19-9.28,5.4Z" fill="#e4e8f2"/><path d="M9.37,44.31a.266.266,0,0,1-.12-.03.225.225,0,0,1-.12-.21l.01-5.19a.244.244,0,0,1,.12-.21l9.28-5.39a.255.255,0,0,1,.24,0,.225.225,0,0,1,.12.21l-.01,5.19a.244.244,0,0,1-.12.21L9.49,44.28a.266.266,0,0,1-.12.03Zm.25-5.3-.01,4.63,8.79-5.11.01-4.63Z" fill="#111925"/><path d="M3.66,35.57l9.28-5.39,5.72,3.3L9.38,38.87Z" fill="#fff"/><path d="M9.38,39.12a.266.266,0,0,1-.12-.03l-5.72-3.3a.225.225,0,0,1-.12-.21.244.244,0,0,1,.12-.21l9.28-5.39a.255.255,0,0,1,.24,0l5.72,3.3a.225.225,0,0,1,.12.21.244.244,0,0,1-.12.21L9.5,39.08a.192.192,0,0,1-.12.04ZM4.14,35.57l5.23,3.02,8.79-5.11-5.23-3.02Z" fill="#111925"/><path d="M9.38,38.87l-.01,5.2L3.64,40.76l.02-5.19Z" fill="#fff"/><path d="M9.37,44.31a.266.266,0,0,1-.12-.03l-5.72-3.3a.225.225,0,0,1-.12-.21l.01-5.19a.244.244,0,0,1,.12-.21.255.255,0,0,1,.24,0l5.72,3.3a.225.225,0,0,1,.12.21l-.01,5.19a.244.244,0,0,1-.12.21A.266.266,0,0,1,9.37,44.31ZM3.89,40.62l5.23,3.02.01-4.63L3.9,35.99Z" fill="#111925"/><path d="M35.55,51.25l-.01,2.74L1.75,34.48V31.74Z" fill="#e4e8f2"/><path d="M35.54,54.23a.266.266,0,0,1-.12-.03L1.62,34.69a.225.225,0,0,1-.12-.21l.01-2.74a.244.244,0,0,1,.12-.21.255.255,0,0,1,.24,0L35.66,51.04a.225.225,0,0,1,.12.21l-.01,2.74a.244.244,0,0,1-.12.21.2.2,0,0,1-.11.03ZM1.99,34.34,35.3,53.56V51.38L1.99,32.16Z" fill="#111925"/><path d="M1.75,31.74,30.46,15.11,64.25,34.62,35.55,51.25Z" fill="#fff"/><path d="M35.55,51.49a.266.266,0,0,1-.12-.03L1.63,31.95a.225.225,0,0,1-.12-.21.244.244,0,0,1,.12-.21L30.34,14.9a.255.255,0,0,1,.24,0L64.37,34.41a.225.225,0,0,1,.12.21.244.244,0,0,1-.12.21L35.67,51.46a.266.266,0,0,1-.12.03ZM2.24,31.74,35.55,50.97,63.77,34.63,30.46,15.39Z" fill="#111925"/><path d="M35.55,51.25l28.7-16.63v2.74L35.54,53.99Z" fill="#e4e8f2"/><path d="M35.54,54.23a.266.266,0,0,1-.12-.03.225.225,0,0,1-.12-.21l.01-2.74a.244.244,0,0,1,.12-.21L64.14,34.42a.255.255,0,0,1,.24,0,.225.225,0,0,1,.12.21l-.01,2.74a.244.244,0,0,1-.12.21L35.66,54.2a.266.266,0,0,1-.12.03Zm.25-2.84v2.18L64,37.22V35.04Z" fill="#111925"/><path d="M11.34,13.04V28.58l13.43,7.8V20.85Z" fill="#9adbfb"/><path d="M24.77,36.63a.266.266,0,0,1-.12-.03L11.22,28.79a.225.225,0,0,1-.12-.21V13.04a.244.244,0,0,1,.12-.21.255.255,0,0,1,.24,0l13.43,7.81a.225.225,0,0,1,.12.21V36.38a.244.244,0,0,1-.12.21.284.284,0,0,1-.12.04Zm-13.19-8.2,12.94,7.52V20.99L11.58,13.47Z" fill="#111925"/><path d="M38.2,13.04V28.58l-13.43,7.8V20.85Z" fill="#fff"/><path d="M24.77,36.63a.266.266,0,0,1-.12-.03.225.225,0,0,1-.12-.21V20.85a.244.244,0,0,1,.12-.21l13.43-7.81a.255.255,0,0,1,.24,0,.225.225,0,0,1,.12.21V28.57a.244.244,0,0,1-.12.21L24.89,36.59a.245.245,0,0,1-.12.04Zm.24-15.64V35.96l12.94-7.52V13.46Z" fill="#111925"/><path d="M38.2,13.04,24.77,5.23,11.34,13.04l13.43,7.81Z" fill="#fff"/><path d="M24.77,21.09a.266.266,0,0,1-.12-.03L11.22,13.25a.225.225,0,0,1-.12-.21.244.244,0,0,1,.12-.21L24.65,5.02a.275.275,0,0,1,.25,0l13.43,7.81a.225.225,0,0,1,.12.21.244.244,0,0,1-.12.21L24.9,21.06a.308.308,0,0,1-.13.03ZM11.82,13.04l12.95,7.52,12.95-7.52L24.77,5.52Z" fill="#111925"/><path d="M27.8,22.29V37.82l13.43,7.81V30.09Z" fill="#f5ab00"/><path d="M41.23,45.87a.266.266,0,0,1-.12-.03L27.68,38.03a.225.225,0,0,1-.12-.21V22.29a.244.244,0,0,1,.12-.21.255.255,0,0,1,.24,0l13.43,7.81a.225.225,0,0,1,.12.21V45.63a.244.244,0,0,1-.12.21A.213.213,0,0,1,41.23,45.87ZM28.05,37.68,40.99,45.2V30.23L28.05,22.71Z" fill="#111925"/><path d="M54.67,22.29V37.82L41.23,45.63V30.09Z" fill="#f8d555"/><path d="M41.23,45.87a.266.266,0,0,1-.12-.03.225.225,0,0,1-.12-.21V30.09a.244.244,0,0,1,.12-.21l13.43-7.81a.255.255,0,0,1,.24,0,.225.225,0,0,1,.12.21V37.81a.244.244,0,0,1-.12.21L41.35,45.83a.159.159,0,0,1-.12.04Zm.25-15.64V45.2l12.94-7.52V22.71Z" fill="#111925"/><path d="M54.67,22.29,41.23,14.48,27.8,22.29l13.43,7.8Z" fill="#fff"/><path d="M41.23,30.34a.266.266,0,0,1-.12-.03L27.68,22.5a.225.225,0,0,1-.12-.21.244.244,0,0,1,.12-.21l13.43-7.81a.275.275,0,0,1,.25,0l13.43,7.81a.225.225,0,0,1,.12.21.244.244,0,0,1-.12.21L41.36,30.3A.2.2,0,0,1,41.23,30.34ZM28.29,22.29l12.95,7.52,12.95-7.52L41.24,14.77Z" fill="#111925"/><path d="M49.42,25.33l-13.43-7.8-2.95,1.71,13.44,7.81Z" fill="#ff977f"/><path d="M46.48,27.29a.266.266,0,0,1-.12-.03L32.93,19.45a.225.225,0,0,1-.12-.21.244.244,0,0,1,.12-.21l2.95-1.71a.275.275,0,0,1,.25,0l13.43,7.81a.225.225,0,0,1,.12.21.244.244,0,0,1-.12.21l-2.95,1.71a.345.345,0,0,1-.13.03ZM33.53,19.24l12.95,7.52,2.46-1.43L35.99,17.81Z" fill="#111925"/><path d="M49.42,25.33v5.28l-2.94,1.71V27.05Z" fill="#ff977f"/><path d="M46.48,32.57a.266.266,0,0,1-.12-.03.225.225,0,0,1-.12-.21V27.05a.244.244,0,0,1,.12-.21l2.95-1.71a.255.255,0,0,1,.24,0,.225.225,0,0,1,.12.21v5.28a.244.244,0,0,1-.12.21L46.6,32.54a.266.266,0,0,1-.12.03Zm.24-5.38V31.9l2.46-1.43V25.76Z" fill="#111925"/><path d="M46.17,40.3l-3.28,1.9" fill="#fed167"/><path d="M42.89,42.45a.241.241,0,0,1-.12-.45l3.28-1.91a.242.242,0,1,1,.24.42l-3.28,1.91a.266.266,0,0,1-.12.03Z" fill="#111925"/><path d="M47.82,39.34l-.67.39" fill="#fed167"/><path d="M47.15,39.97a.241.241,0,0,1-.12-.45l.67-.39a.242.242,0,0,1,.24.42l-.67.39a.266.266,0,0,1-.12.03Z" fill="#111925"/><path d="M44.99,38.93l-2.1,1.22" fill="#fed167"/><path d="M42.89,40.39a.241.241,0,0,1-.12-.45l2.1-1.22a.242.242,0,1,1,.24.42l-2.1,1.22a.266.266,0,0,1-.12.03Z" fill="#111925"/><path d="M37.42,16.65l7.97-4.63-.02,8.24L37.4,24.89Z" fill="#f8d555"/><path d="M37.4,25.13a.266.266,0,0,1-.12-.03.225.225,0,0,1-.12-.21l.02-8.24a.244.244,0,0,1,.12-.21l7.97-4.63a.255.255,0,0,1,.24,0,.225.225,0,0,1,.12.21l-.02,8.24a.244.244,0,0,1-.12.21L37.52,25.1a.238.238,0,0,1-.12.03Zm.27-8.34-.02,7.67,7.48-4.35.02-7.67Z" fill="#111925"/><path d="M23.67,8.71l7.96-4.63,13.76,7.94-7.97,4.63Z" fill="#fbfbfb"/><path d="M37.42,16.89a.266.266,0,0,1-.12-.03L23.55,8.92a.225.225,0,0,1-.12-.21.244.244,0,0,1,.12-.21l7.97-4.63a.255.255,0,0,1,.24,0l13.76,7.94a.225.225,0,0,1,.12.21.244.244,0,0,1-.12.21l-7.97,4.63a.277.277,0,0,1-.13.03ZM24.15,8.71l13.27,7.66,7.48-4.35L31.63,4.36Z" fill="#111925"/><path d="M37.42,16.65l-.02,8.24L23.64,16.94l.03-8.23Z" fill="#ffe08a"/><path d="M37.4,25.13a.266.266,0,0,1-.12-.03L23.52,17.16a.225.225,0,0,1-.12-.21l.02-8.24a.244.244,0,0,1,.12-.21.255.255,0,0,1,.24,0l13.76,7.94a.225.225,0,0,1,.12.21l-.02,8.24a.244.244,0,0,1-.12.21.238.238,0,0,1-.12.03ZM23.89,16.8l13.27,7.66.02-7.67L23.91,9.13Z" fill="#111925"/><path d="M26.55,12.17l7.97,9.09" fill="#fbfbfb"/><path d="M34.52,21.51a.234.234,0,0,1-.18-.08l-7.96-9.1a.241.241,0,0,1,.36-.32l7.96,9.1a.238.238,0,0,1-.02.34A.266.266,0,0,1,34.52,21.51Z" fill="#111925"/><path d="M26.54,16.66l7.99.11" fill="#fbfbfb"/><path d="M34.53,17.02l-7.99-.11a.245.245,0,1,1,.01-.49l7.99.11a.246.246,0,0,1,.24.25.259.259,0,0,1-.25.24Z" fill="#111925"/></g></svg>