<svg xmlns="http://www.w3.org/2000/svg" width="90.914" height="90.914" viewBox="0 0 90.914 90.914"><g transform="translate(-812.823 -4059.377)"><g opacity="0.859"><path d="M45.457,0A45.457,45.457,0,0,1,90.914,45.457h0A45.457,45.457,0,0,1,0,45.457H0A45.457,45.457,0,0,1,45.457,0Z" transform="translate(812.823 4059.377)" fill="#bacbec"/><path d="M45.457,3A42.469,42.469,0,0,0,28.932,84.579,42.469,42.469,0,0,0,61.982,6.335,42.188,42.188,0,0,0,45.457,3m0-3A45.457,45.457,0,0,1,90.914,45.457h0A45.457,45.457,0,1,1,0,45.457H0A45.457,45.457,0,0,1,45.457,0Z" transform="translate(812.823 4059.377)" fill="#fff"/></g><g transform="translate(825.237 4072.056)"><path d="M33,20.99V42.57L51.65,53.41V31.83Z" fill="#98d8fb"/><path d="M51.65,53.66a.266.266,0,0,1-.12-.03L32.87,42.78a.225.225,0,0,1-.12-.21V20.99a.244.244,0,0,1,.12-.21.255.255,0,0,1,.24,0L51.77,31.62a.225.225,0,0,1,.12.21V53.41a.244.244,0,0,1-.12.21.214.214,0,0,1-.12.04ZM33.24,42.43,51.41,52.99V31.97L33.24,21.41Z" fill="#111925"/><path d="M33,20.99V42.57L14.34,53.41V31.83Z" fill="#111925"/><path d="M14.34,53.66a.266.266,0,0,1-.12-.03.225.225,0,0,1-.12-.21V31.83a.244.244,0,0,1,.12-.21L32.88,20.78a.255.255,0,0,1,.24,0,.225.225,0,0,1,.12.21V42.57a.244.244,0,0,1-.12.21L14.46,53.62a.284.284,0,0,1-.12.04Zm.24-21.69V52.98L32.75,42.42V21.41Z" fill="#111925"/><path d="M14.34,31.83V53.41L33,64.25V42.68Z" fill="#f5ab00"/><path d="M33,64.5a.266.266,0,0,1-.12-.03L14.22,53.62a.225.225,0,0,1-.12-.21V31.83a.244.244,0,0,1,.12-.21.255.255,0,0,1,.24,0L33.12,42.46a.225.225,0,0,1,.12.21V64.25a.244.244,0,0,1-.12.21.192.192,0,0,1-.12.04ZM14.58,53.27,32.75,63.83V42.82L14.58,32.26Z" fill="#111925"/><path d="M51.65,31.83V53.41L33,64.25V42.68Z" fill="#f8d555"/><path d="M33,64.5a.266.266,0,0,1-.12-.03.225.225,0,0,1-.12-.21V42.68a.244.244,0,0,1,.12-.21L51.54,31.63a.255.255,0,0,1,.24,0,.225.225,0,0,1,.12.21V53.42a.244.244,0,0,1-.12.21L33.12,64.47a.266.266,0,0,1-.12.03Zm.24-21.68V63.83L51.41,53.27V32.26Z" fill="#111925"/><path d="M40.97,54.49v3.2l-6.24,3.6v-3.2Z" fill="#111925"/><path d="M33,42.68,14.34,31.83,5.52,36.96,24.17,47.8Z" fill="#fff"/><path d="M24.17,48.04a.266.266,0,0,1-.12-.03L5.39,37.17a.225.225,0,0,1-.12-.21.244.244,0,0,1,.12-.21l8.82-5.12a.275.275,0,0,1,.25,0L33.12,42.47a.225.225,0,0,1,.12.21.244.244,0,0,1-.12.21L24.3,48.01A.277.277,0,0,1,24.17,48.04ZM6,36.96,24.17,47.52l8.34-4.84L14.34,32.12Z" fill="#111925"/><path d="M60.48,26.72,41.82,15.87,33,21,51.65,31.84Z" fill="#fff"/><path d="M51.65,32.08a.266.266,0,0,1-.12-.03L32.87,21.21a.225.225,0,0,1-.12-.21.244.244,0,0,1,.12-.21l8.82-5.12a.275.275,0,0,1,.25,0L60.6,26.51a.225.225,0,0,1,.12.21.244.244,0,0,1-.12.21l-8.82,5.12A.277.277,0,0,1,51.65,32.08ZM33.48,21,51.65,31.56l8.34-4.84L41.82,16.16Z" fill="#111925"/><path d="M33,42.67,51.66,31.82l8.82,5.13L41.83,47.79Z" fill="#fff"/><path d="M41.83,48.03a.266.266,0,0,1-.12-.03l-8.82-5.12a.225.225,0,0,1-.12-.21.244.244,0,0,1,.12-.21L51.55,31.62a.275.275,0,0,1,.25,0l8.82,5.12a.225.225,0,0,1,.12.21.244.244,0,0,1-.12.21L41.95,48a.266.266,0,0,1-.12.03Zm-8.34-5.36,8.34,4.84L60,36.95l-8.34-4.84Z" fill="#111925"/><path d="M5.52,26.71,24.18,15.87,33,20.99,14.35,31.83Z" fill="#fff"/><path d="M14.35,32.08a.266.266,0,0,1-.12-.03L5.4,26.92a.225.225,0,0,1-.12-.21.244.244,0,0,1,.12-.21L24.06,15.66a.275.275,0,0,1,.25,0l8.82,5.12a.225.225,0,0,1,.12.21.244.244,0,0,1-.12.21L14.47,32.04a.284.284,0,0,1-.12.04ZM6.01,26.71l8.34,4.84L32.52,20.99l-8.34-4.84Z" fill="#111925"/><path d="M44.2,6.91,40.94,5.02a.642.642,0,0,0-.56,0A3.578,3.578,0,0,1,37.16,5l3.26,1.89a3.61,3.61,0,0,0,3.22.02A.61.61,0,0,1,44.2,6.91Z" fill="#98d8fb"/><path d="M41.92,7.52a3.277,3.277,0,0,1-1.62-.41L37.05,5.23a.01.01,0,0,1-.01-.01.242.242,0,1,1,.24-.42h.01a3.326,3.326,0,0,0,2.99,0,.863.863,0,0,1,.77.01l3.26,1.88a.242.242,0,1,1-.24.42.377.377,0,0,0-.34.02A4.767,4.767,0,0,1,41.92,7.52ZM38.73,5.64l1.82,1.05a3.283,3.283,0,0,0,2.87.05l-2.6-1.5a.377.377,0,0,0-.34.02A5.313,5.313,0,0,1,38.73,5.64Z" fill="#111925"/><path d="M38.56,3.69a.632.632,0,0,0-.64.06L28.68,9.08a1.7,1.7,0,0,0-.54.53,2.063,2.063,0,0,0-.36.92,11.945,11.945,0,0,1-1.4,4.25A12.482,12.482,0,0,1,23,18.81a2.036,2.036,0,0,0-.62.77,1.771,1.771,0,0,0-.19.75l.01,3.59a16.829,16.829,0,0,0,2.77,9.96,8.923,8.923,0,0,0,2.68,2.33l-3.26-1.89a8.558,8.558,0,0,1-2.68-2.33,16.8,16.8,0,0,1-2.77-9.95l-.01-3.59a1.694,1.694,0,0,1,.19-.74,2.245,2.245,0,0,1,.62-.77,12.415,12.415,0,0,0,3.38-4.04,11.881,11.881,0,0,0,1.4-4.25,2.138,2.138,0,0,1,.36-.92,1.812,1.812,0,0,1,.54-.53l9.24-5.33a.632.632,0,0,1,.64-.06Z" fill="#98d8fb"/><path d="M27.65,36.47a.266.266,0,0,1-.12-.03l-3.26-1.89a8.821,8.821,0,0,1-2.76-2.4,17.075,17.075,0,0,1-2.82-10.09l-.01-3.59a1.855,1.855,0,0,1,.22-.85,2.391,2.391,0,0,1,.7-.86,12.157,12.157,0,0,0,3.31-3.96,11.7,11.7,0,0,0,1.37-4.16,2.441,2.441,0,0,1,.4-1.04A1.955,1.955,0,0,1,25.3,7l9.24-5.33a.857.857,0,0,1,.88-.06l3.26,1.88h.01a.242.242,0,1,1-.24.42.42.42,0,0,0-.39.06L28.81,9.3a1.346,1.346,0,0,0-.46.46,1.826,1.826,0,0,0-.32.82,12.238,12.238,0,0,1-1.43,4.34,12.775,12.775,0,0,1-3.45,4.11,1.857,1.857,0,0,0-.55.68,1.5,1.5,0,0,0-.17.64l.01,3.59a16.613,16.613,0,0,0,2.72,9.81,8.571,8.571,0,0,0,2.61,2.26.237.237,0,0,1,.09.33A.233.233,0,0,1,27.65,36.47ZM35.07,1.99a.636.636,0,0,0-.29.09L25.55,7.41a1.544,1.544,0,0,0-.46.46,1.911,1.911,0,0,0-.32.81,12.111,12.111,0,0,1-1.43,4.34,12.691,12.691,0,0,1-3.45,4.12,2.024,2.024,0,0,0-.55.69,1.46,1.46,0,0,0-.17.64l.01,3.59a16.684,16.684,0,0,0,2.72,9.81,8.215,8.215,0,0,0,2.61,2.26l.6.35c-.12-.14-.24-.29-.35-.43a17.13,17.13,0,0,1-2.82-10.1l-.01-3.59a1.825,1.825,0,0,1,.22-.85,2.292,2.292,0,0,1,.7-.86,12.367,12.367,0,0,0,3.31-3.95,11.757,11.757,0,0,0,1.37-4.16,2.441,2.441,0,0,1,.4-1.04,1.955,1.955,0,0,1,.62-.6l9.24-5.33h.01L35.17,2.05a.1.1,0,0,0-.1-.06Z" fill="#111925"/><path d="M28.68,9.09a2.062,2.062,0,0,0-.9,1.45,11.945,11.945,0,0,1-1.4,4.25A12.482,12.482,0,0,1,23,18.82a2.082,2.082,0,0,0-.82,1.52l.01,3.59a16.8,16.8,0,0,0,2.77,9.95c1.67,2.28,4.87,3.68,7.87,3.99a.906.906,0,0,0,.55-.14,2.067,2.067,0,0,0,.55-.49,56.331,56.331,0,0,0,7.82-13.05,36.325,36.325,0,0,0,2.71-13.12l-.01-3.59c0-.54-.36-.76-.82-.57a3.48,3.48,0,0,1-3.39-.13,3.686,3.686,0,0,1-1.41-2.62c-.07-.49-.44-.68-.91-.41Z" fill="#fff"/><path d="M32.91,38.12h-.09c-3.37-.35-6.45-1.91-8.04-4.09a17.13,17.13,0,0,1-2.82-10.1l-.01-3.59a2.316,2.316,0,0,1,.91-1.72,12.348,12.348,0,0,0,3.31-3.95,11.629,11.629,0,0,0,1.37-4.16,2.309,2.309,0,0,1,1.03-1.64L37.8,3.54a.921.921,0,0,1,.84-.09.821.821,0,0,1,.43.67,3.448,3.448,0,0,0,1.32,2.46,3.288,3.288,0,0,0,3.16.1.88.88,0,0,1,.81.03.891.891,0,0,1,.35.77l.01,3.59A36.626,36.626,0,0,1,42,24.28a56.081,56.081,0,0,1-7.86,13.11,2.276,2.276,0,0,1-.62.55,1.248,1.248,0,0,1-.61.18ZM38.32,3.88a.57.57,0,0,0-.28.09L28.81,9.3a1.778,1.778,0,0,0-.78,1.27,12.238,12.238,0,0,1-1.43,4.34,12.756,12.756,0,0,1-3.45,4.11,1.843,1.843,0,0,0-.72,1.32l.01,3.59a16.634,16.634,0,0,0,2.72,9.81c1.49,2.04,4.51,3.56,7.7,3.89a.736.736,0,0,0,.4-.11,1.908,1.908,0,0,0,.48-.43A55.615,55.615,0,0,0,41.53,24.1a36.034,36.034,0,0,0,2.69-13.03l-.01-3.59a.432.432,0,0,0-.13-.36.4.4,0,0,0-.35.02,3.753,3.753,0,0,1-3.62-.15A3.887,3.887,0,0,1,38.59,4.2a.38.38,0,0,0-.16-.3.2.2,0,0,0-.11-.02Z" fill="#111925"/><path d="M32.54,35.88a54.632,54.632,0,0,0,7.42-12.4,34.366,34.366,0,0,0,2.57-12.4l-.01-1.9c-.2.02-.41.03-.61.03a4.842,4.842,0,0,1-2.77-.84,5,5,0,0,1-1.72-2.1l-7.69,4.44a.329.329,0,0,0-.03.06,13.734,13.734,0,0,1-1.62,4.93,14.309,14.309,0,0,1-3.92,4.66c-.01.01-.02.03-.04.05l.01,3.5a14.959,14.959,0,0,0,2.4,8.81,9.18,9.18,0,0,0,6.01,3.16Z" fill="#fc2a37"/><path d="M32.64,36.15l-.14-.02a9.487,9.487,0,0,1-6.17-3.24,15.294,15.294,0,0,1-2.45-8.96l-.01-3.56.03-.05a.884.884,0,0,1,.08-.11,14.078,14.078,0,0,0,3.88-4.61,13.563,13.563,0,0,0,1.59-4.84.382.382,0,0,1,.06-.16l.03-.05,7.98-4.61.11.25a4.762,4.762,0,0,0,1.64,2,4.713,4.713,0,0,0,3.21.76l.27-.03.01,2.17a34.443,34.443,0,0,1-2.59,12.49,55.122,55.122,0,0,1-7.45,12.46ZM24.37,20.53l.01,3.4a14.729,14.729,0,0,0,2.35,8.67,8.917,8.917,0,0,0,5.7,3.02,54.111,54.111,0,0,0,7.29-12.23,34.079,34.079,0,0,0,2.55-12.31V9.45A5.175,5.175,0,0,1,39,8.58a5.276,5.276,0,0,1-1.69-1.96l-7.38,4.26a14.073,14.073,0,0,1-1.64,4.95,14.326,14.326,0,0,1-3.92,4.7Z" fill="#111925"/><path d="M38.56,18.06a11.512,11.512,0,0,1-5.22,9.04c-2.89,1.67-5.24.33-5.25-2.99a11.512,11.512,0,0,1,5.22-9.04C36.2,13.4,38.55,14.74,38.56,18.06Z" fill="#fff"/><path d="M31,28.06a3.029,3.029,0,0,1-1.49-.38,3.86,3.86,0,0,1-1.66-3.57,11.784,11.784,0,0,1,5.34-9.25,3.909,3.909,0,0,1,3.96-.37,3.909,3.909,0,0,1,1.66,3.58,11.784,11.784,0,0,1-5.34,9.25,5.119,5.119,0,0,1-2.47.74Zm4.66-13.47a4.544,4.544,0,0,0-2.23.69,11.243,11.243,0,0,0-5.09,8.82,3.414,3.414,0,0,0,1.42,3.15,3.444,3.444,0,0,0,3.47-.37,11.243,11.243,0,0,0,5.09-8.82,3.43,3.43,0,0,0-1.41-3.15,2.5,2.5,0,0,0-1.25-.32Z" fill="#111925"/><path d="M32.42,24.16a.2.2,0,0,1-.13-.04l-1.65-1.06a.245.245,0,0,1,.27-.41l1.44.93,3.34-5.46a.244.244,0,0,1,.34-.08.253.253,0,0,1,.08.34l-3.47,5.67a.209.209,0,0,1-.15.11Z" fill="#111925"/></g></g></svg>