<svg xmlns="http://www.w3.org/2000/svg" width="58.577" height="63" viewBox="0 0 58.577 63"><g transform="translate(-3.703 -1.5)"><path d="M38.24,60.59a2.372,2.372,0,0,1-.99,2.17l-2.17,1.27a2.357,2.357,0,0,0,.98-2.17,7.38,7.38,0,0,0-3.36-5.82,2.371,2.371,0,0,0-2.4-.23l2.18-1.27a2.371,2.371,0,0,1,2.4.23A7.391,7.391,0,0,1,38.24,60.59Z" fill="#111925"/><path d="M35.08,64.27a.241.241,0,0,1-.12-.45,2.122,2.122,0,0,0,.86-1.96,7.15,7.15,0,0,0-3.24-5.61,2.172,2.172,0,0,0-2.16-.24.242.242,0,0,1-.24-.42l2.18-1.27a2.609,2.609,0,0,1,2.65.23,7.663,7.663,0,0,1,3.48,6.03,2.614,2.614,0,0,1-1.11,2.38l-2.17,1.26a.179.179,0,0,1-.13.05Zm-3.52-8.92a3.739,3.739,0,0,1,1.27.47,7.648,7.648,0,0,1,3.48,6.03,3.685,3.685,0,0,1-.22,1.3l1.04-.61A2.17,2.17,0,0,0,38,60.58a7.15,7.15,0,0,0-3.24-5.61,2.174,2.174,0,0,0-2.16-.24Z" fill="#111925"/><path d="M32.7,56.03a7.391,7.391,0,0,1,3.36,5.82c-.01,2.15-1.52,3.01-3.38,1.94a7.383,7.383,0,0,1-3.36-5.83C29.32,55.82,30.84,54.96,32.7,56.03Z" fill="#0296f6"/><path d="M34.19,64.5a3.294,3.294,0,0,1-1.63-.5,7.718,7.718,0,0,1-3.49-6.04,2.6,2.6,0,0,1,1.11-2.38,2.617,2.617,0,0,1,2.64.24,7.663,7.663,0,0,1,3.48,6.03,2.611,2.611,0,0,1-1.11,2.39A1.961,1.961,0,0,1,34.19,64.5Zm-3-8.69a1.48,1.48,0,0,0-.76.19,2.13,2.13,0,0,0-.87,1.95,7.168,7.168,0,0,0,3.24,5.62,2.154,2.154,0,0,0,2.15.24,2.127,2.127,0,0,0,.87-1.96,7.15,7.15,0,0,0-3.24-5.61A2.889,2.889,0,0,0,31.19,55.81Z" fill="#111925"/><path d="M32.7,58.73a2.251,2.251,0,0,1,1.02,1.77c0,.65-.46.92-1.03.59a2.225,2.225,0,0,1-1.02-1.77C31.67,58.67,32.13,58.4,32.7,58.73Z" fill="#111925"/><path d="M19.41,50.06a2.372,2.372,0,0,1-.99,2.17L16.25,53.5a2.357,2.357,0,0,0,.98-2.17,7.38,7.38,0,0,0-3.36-5.82,2.371,2.371,0,0,0-2.4-.23L13.65,44a2.371,2.371,0,0,1,2.4.23,7.451,7.451,0,0,1,3.36,5.83Z" fill="#111925"/><path d="M16.25,53.74a.241.241,0,0,1-.12-.45,2.144,2.144,0,0,0,.86-1.96,7.15,7.15,0,0,0-3.24-5.61,2.172,2.172,0,0,0-2.16-.24.242.242,0,0,1-.24-.42l2.18-1.26a2.609,2.609,0,0,1,2.65.23,7.663,7.663,0,0,1,3.48,6.03,2.614,2.614,0,0,1-1.11,2.38L16.38,53.7a.242.242,0,0,1-.13.04Zm-3.53-8.92a3.739,3.739,0,0,1,1.27.47,7.648,7.648,0,0,1,3.48,6.03,3.685,3.685,0,0,1-.22,1.3l1.04-.61a2.17,2.17,0,0,0,.87-1.96,7.15,7.15,0,0,0-3.24-5.61,2.174,2.174,0,0,0-2.16-.24Z" fill="#111925"/><path d="M13.87,45.5a7.391,7.391,0,0,1,3.36,5.82c-.01,2.15-1.52,3.01-3.38,1.94a7.383,7.383,0,0,1-3.36-5.83C10.49,45.29,12,44.43,13.87,45.5Z" fill="#0296f6"/><path d="M15.36,53.97a3.294,3.294,0,0,1-1.63-.5,7.718,7.718,0,0,1-3.49-6.04,2.6,2.6,0,0,1,1.11-2.38,2.617,2.617,0,0,1,2.64.24,7.663,7.663,0,0,1,3.48,6.03,2.611,2.611,0,0,1-1.11,2.39,2.015,2.015,0,0,1-1,.26Zm-3.01-8.69a1.48,1.48,0,0,0-.76.19,2.13,2.13,0,0,0-.87,1.95,7.168,7.168,0,0,0,3.24,5.62,2.154,2.154,0,0,0,2.15.24,2.127,2.127,0,0,0,.87-1.96,7.15,7.15,0,0,0-3.24-5.61A2.858,2.858,0,0,0,12.35,45.28Z" fill="#111925"/><path d="M13.86,48.2a2.251,2.251,0,0,1,1.02,1.77c0,.65-.46.92-1.03.59a2.225,2.225,0,0,1-1.02-1.77C12.83,48.14,13.29,47.87,13.86,48.2Z" fill="#111925"/><path d="M23.7,8.9a1.108,1.108,0,0,0-.02-.19.833.833,0,0,0-.04-.15.487.487,0,0,0-.04-.11c0-.03,0-.04-.01-.05a1.091,1.091,0,0,0-.06-.11.567.567,0,0,0-.08-.13L19.69,3.13a3.442,3.442,0,0,0-4.48-.91L5.48,7.87a3.062,3.062,0,0,0-.93,4.48l3.3,4.42a.816.816,0,0,1,.17.5L8.09,38.4a1.21,1.21,0,0,0,.61,1.05,1.149,1.149,0,0,0,.6.16,1.21,1.21,0,0,0,.61-.16l13.25-7.7a1.214,1.214,0,0,0,.61-1.05ZM6.5,10.91a.647.647,0,0,1,.2-.94l9.72-5.66a1.03,1.03,0,0,1,.51-.14,1.047,1.047,0,0,1,.82.41L20.31,8a.6.6,0,0,1-.18.87L10.11,14.69a.728.728,0,0,1-.94-.19Zm4,25.39-.05-19.01,10.84-6.3L21.33,30Z" fill="#0296f6"/><path d="M9.3,39.85a1.394,1.394,0,0,1-.72-.2,1.445,1.445,0,0,1-.73-1.26L7.78,17.28a.55.55,0,0,0-.12-.35l-3.3-4.42a3.33,3.33,0,0,1-.59-2.65,3.3,3.3,0,0,1,1.59-2.2L15.07,2a3.679,3.679,0,0,1,4.8.98l3.76,5.03a1.629,1.629,0,0,1,.11.17.688.688,0,0,1,.07.13c0,.01.02.06.03.06a.62.62,0,0,1,.04.14.622.622,0,0,1,.04.16,1.379,1.379,0,0,1,.02.22l-.24.01h.24L24,30.69a1.457,1.457,0,0,1-.73,1.26l-13.25,7.7a1.283,1.283,0,0,1-.72.2ZM16.92,1.99a3.177,3.177,0,0,0-1.6.43L5.61,8.08A2.787,2.787,0,0,0,4.26,9.95a2.849,2.849,0,0,0,.5,2.26l3.3,4.42a1.123,1.123,0,0,1,.22.64L8.33,38.4a.975.975,0,0,0,1.46.84l13.25-7.7a.969.969,0,0,0,.48-.84L23.46,8.9V8.89a.615.615,0,0,0-.01-.14.531.531,0,0,0-.03-.11.564.564,0,0,1-.04-.12.461.461,0,0,0-.05-.1.814.814,0,0,0-.08-.12L19.49,3.27a3.224,3.224,0,0,0-2.57-1.28ZM10.5,36.54a.266.266,0,0,1-.12-.03.225.225,0,0,1-.12-.21L10.2,17.29a.244.244,0,0,1,.12-.21l10.84-6.3a.255.255,0,0,1,.24,0,.225.225,0,0,1,.12.21L21.58,30a.244.244,0,0,1-.12.21l-10.83,6.3a.308.308,0,0,1-.13.03Zm.19-19.11.05,18.44,10.34-6.02-.05-18.44Zm-.94-2.4a.948.948,0,0,1-.77-.39L6.3,11.06a.932.932,0,0,1-.16-.7.9.9,0,0,1,.43-.6L16.29,4.1a1.282,1.282,0,0,1,1.65.34L20.5,7.86a.837.837,0,0,1,.15.67.85.85,0,0,1-.4.56L10.24,14.9a.973.973,0,0,1-.49.13ZM6.69,10.77l2.68,3.58a.483.483,0,0,0,.62.13L20.01,8.66a.333.333,0,0,0,.17-.23.347.347,0,0,0-.06-.28L17.56,4.73a.789.789,0,0,0-1.01-.21L6.83,10.18a.4.4,0,0,0-.2.27.375.375,0,0,0,.06.32Z" fill="#111925"/><path d="M62.05,51.55a2.949,2.949,0,0,1-1.74,2.44L45.78,62.32a9.205,9.205,0,0,1-8.35,0L8.63,45.62a2.916,2.916,0,0,1-1.71-2.4L6.9,38.98a2.93,2.93,0,0,0,1.72,2.4l28.79,16.7a9.226,9.226,0,0,0,8.36-.01l14.52-8.33a2.95,2.95,0,0,0,1.75-2.44Z" fill="#98d8fb"/><path d="M41.6,63.55a8.673,8.673,0,0,1-4.29-1.03L8.51,45.83a3.162,3.162,0,0,1-1.83-2.61l-.02-4.24a.259.259,0,0,1,.24-.25.243.243,0,0,1,.24.24,2.707,2.707,0,0,0,1.6,2.19l28.79,16.7a8.951,8.951,0,0,0,8.11-.01l14.52-8.33a2.726,2.726,0,0,0,1.63-2.22.24.24,0,0,1,.48,0l.01,4.24a3.163,3.163,0,0,1-1.86,2.65L45.9,62.52a8.766,8.766,0,0,1-4.3,1.03ZM7.15,40.42l.01,2.8a2.7,2.7,0,0,0,1.59,2.19L37.55,62.1a8.9,8.9,0,0,0,8.1,0l14.53-8.33a2.713,2.713,0,0,0,1.62-2.22l-.01-2.8a4.157,4.157,0,0,1-1.39,1.2L45.88,58.28a9.511,9.511,0,0,1-8.6.01L8.5,41.59a4.36,4.36,0,0,1-1.35-1.17Z" fill="#111925"/><path d="M8.65,36.54c-2.31,1.34-2.33,3.5-.03,4.84L37.41,58.07a9.205,9.205,0,0,0,8.35,0l14.52-8.33c2.31-1.34,2.33-3.5.03-4.84L31.53,28.21a9.205,9.205,0,0,0-8.35,0Z" fill="#fff"/><path d="M41.58,59.31a8.673,8.673,0,0,1-4.29-1.03L8.5,41.59a3.156,3.156,0,0,1-1.84-2.62,3.169,3.169,0,0,1,1.87-2.64L23.05,28a9.511,9.511,0,0,1,8.6,0L60.44,44.69a3.156,3.156,0,0,1,1.84,2.62,3.169,3.169,0,0,1-1.87,2.64L45.89,58.28a8.778,8.778,0,0,1-4.31,1.03ZM8.77,36.75a2.713,2.713,0,0,0-1.62,2.22,2.7,2.7,0,0,0,1.59,2.2L37.53,57.86a8.981,8.981,0,0,0,8.11,0l14.52-8.33a2.733,2.733,0,0,0,1.62-2.22,2.7,2.7,0,0,0-1.59-2.2L31.4,28.42a8.981,8.981,0,0,0-8.11,0Z" fill="#111925"/><path d="M12.83,22.59V38.13l13.43,7.81V30.4Z" fill="#ff8288"/><path d="M26.26,46.18a.266.266,0,0,1-.12-.03L12.7,38.34a.225.225,0,0,1-.12-.21V22.59a.244.244,0,0,1,.12-.21.255.255,0,0,1,.24,0l13.44,7.81a.225.225,0,0,1,.12.21V45.94a.244.244,0,0,1-.12.21.213.213,0,0,1-.12.03ZM13.07,37.99l12.95,7.52V30.54L13.07,23.02Z" fill="#111925"/><path d="M39.7,22.59V38.13L26.26,45.94V30.4Z" fill="#fff"/><path d="M26.26,46.18a.266.266,0,0,1-.12-.03.225.225,0,0,1-.12-.21V30.4a.244.244,0,0,1,.12-.21l13.44-7.81a.255.255,0,0,1,.24,0,.225.225,0,0,1,.12.21V38.13a.244.244,0,0,1-.12.21L26.38,46.15A.213.213,0,0,1,26.26,46.18Zm.25-15.64V45.51l12.95-7.52V23.02Z" fill="#111925"/><path d="M29.3,31.84V47.38l13.43,7.81V39.65Z" fill="#f5ab00"/><path d="M42.73,55.43a.266.266,0,0,1-.12-.03L29.18,47.59a.225.225,0,0,1-.12-.21V31.84a.244.244,0,0,1,.12-.21.255.255,0,0,1,.24,0l13.43,7.81a.225.225,0,0,1,.12.21V55.19a.244.244,0,0,1-.12.21A.266.266,0,0,1,42.73,55.43ZM29.54,47.24l12.95,7.52V39.79L29.54,32.27Z" fill="#111925"/><path d="M56.17,31.84V47.38L42.73,55.19V39.65Z" fill="#f8d555"/><path d="M42.73,55.43a.266.266,0,0,1-.12-.03.225.225,0,0,1-.12-.21V39.65a.244.244,0,0,1,.12-.21l13.44-7.81a.255.255,0,0,1,.24,0,.225.225,0,0,1,.12.21V47.38a.244.244,0,0,1-.12.21L42.85,55.4a.238.238,0,0,1-.12.03Zm.24-15.64V54.76l12.95-7.52V32.26Z" fill="#111925"/><path d="M56.17,31.84,42.73,24.03,29.3,31.84l13.43,7.81Z" fill="#fff"/><path d="M42.73,39.89a.266.266,0,0,1-.12-.03L29.18,32.05a.225.225,0,0,1-.12-.21.244.244,0,0,1,.12-.21l13.43-7.81a.275.275,0,0,1,.25,0L56.3,31.63a.225.225,0,0,1,.12.21.244.244,0,0,1-.12.21L42.86,39.86A.308.308,0,0,1,42.73,39.89ZM29.78,31.84l12.95,7.53,12.95-7.53L42.73,24.31Z" fill="#111925"/><path d="M39.7,22.59,26.26,14.78,12.83,22.59,26.26,30.4Z" fill="#fff"/><path d="M26.26,30.64a.266.266,0,0,1-.12-.03L12.71,22.8a.225.225,0,0,1-.12-.21.244.244,0,0,1,.12-.21l13.44-7.81a.275.275,0,0,1,.25,0l13.44,7.81a.225.225,0,0,1,.12.21.244.244,0,0,1-.12.21L26.4,30.61a.353.353,0,0,1-.14.03ZM13.32,22.59l12.95,7.53,12.95-7.53L26.27,15.06Z" fill="#111925"/><path d="M50.92,34.89,37.49,27.08l-2.95,1.71L47.97,36.6Z" fill="#ff977f"/><path d="M47.97,36.84a.266.266,0,0,1-.12-.03L34.42,29a.225.225,0,0,1-.12-.21.244.244,0,0,1,.12-.21l2.95-1.71a.275.275,0,0,1,.25,0l13.43,7.81a.225.225,0,0,1,.12.21.244.244,0,0,1-.12.21L48.1,36.81A.277.277,0,0,1,47.97,36.84ZM35.03,28.79l12.95,7.53,2.46-1.43L37.49,27.36Z" fill="#111925"/><path d="M50.92,34.89v5.27l-2.95,1.72V36.6Z" fill="#ff977f"/><path d="M47.97,42.12a.266.266,0,0,1-.12-.03.225.225,0,0,1-.12-.21V36.6a.244.244,0,0,1,.12-.21l2.95-1.71a.255.255,0,0,1,.24,0,.225.225,0,0,1,.12.21v5.28a.244.244,0,0,1-.12.21l-2.95,1.71a.213.213,0,0,1-.12.03Zm.25-5.38v4.71l2.46-1.43V35.31Z" fill="#111925"/><path d="M47.67,49.85l-3.28,1.91" fill="#fed167"/><path d="M44.38,52a.241.241,0,0,1-.12-.45l3.28-1.91a.242.242,0,0,1,.24.42L44.5,51.97a.213.213,0,0,1-.12.03Z" fill="#111925"/><path d="M49.32,48.89l-.68.39" fill="#fed167"/><path d="M48.64,49.53a.241.241,0,0,1-.12-.45l.67-.39a.242.242,0,0,1,.24.42l-.67.39a.213.213,0,0,1-.12.03Z" fill="#111925"/><path d="M46.49,48.48l-2.1,1.22" fill="#fed167"/><path d="M44.38,49.95a.241.241,0,0,1-.12-.45l2.1-1.22a.242.242,0,0,1,.24.42l-2.1,1.22a.213.213,0,0,1-.12.03Z" fill="#111925"/></g></svg>