<svg xmlns="http://www.w3.org/2000/svg" width="60.82" height="62.984" viewBox="0 0 60.82 62.984"><g transform="translate(-2.59 -1.516)"><path d="M63.17,43.29l-.01,3.5a1.319,1.319,0,0,1-.78,1.09L34.98,63.8a4.153,4.153,0,0,1-3.79,0L3.62,47.88a1.338,1.338,0,0,1-.79-1.1l.01-3.49a1.312,1.312,0,0,0,.79,1.09L31.2,60.3a4.153,4.153,0,0,0,3.79,0L62.38,44.38a1.353,1.353,0,0,0,.79-1.09Z" fill="#e4e8f2"/><path d="M33.09,64.5a4.056,4.056,0,0,1-2.02-.49L3.5,48.09a1.551,1.551,0,0,1-.91-1.32l.01-3.49a.24.24,0,1,1,.48,0,1.121,1.121,0,0,0,.66.88L31.31,60.08a3.9,3.9,0,0,0,3.55,0L62.25,44.16a1.12,1.12,0,0,0,.66-.89.239.239,0,0,1,.25-.24.246.246,0,0,1,.24.25l-.01,3.5a1.55,1.55,0,0,1-.9,1.3L35.11,64.01A4.164,4.164,0,0,1,33.09,64.5Zm-30-20.21-.01,2.49a1.107,1.107,0,0,0,.67.89L31.32,63.59a3.9,3.9,0,0,0,3.55,0L62.26,47.67a1.121,1.121,0,0,0,.66-.88l.01-2.49a2.547,2.547,0,0,1-.41.3L35.12,60.51a4.429,4.429,0,0,1-4.04,0L3.51,44.6a2.858,2.858,0,0,1-.42-.31Z" fill="#111925"/><path d="M62.37,42.19a1.162,1.162,0,0,1,.01,2.2L34.99,60.3a4.153,4.153,0,0,1-3.79,0L3.63,44.39a1.164,1.164,0,0,1-.01-2.2L31.01,26.27a4.153,4.153,0,0,1,3.79,0Z" fill="#fff"/><path d="M33.1,61a4.082,4.082,0,0,1-2.02-.49L3.51,44.6a1.4,1.4,0,0,1-.01-2.62L30.89,26.06a4.369,4.369,0,0,1,4.04,0L62.5,41.98a1.4,1.4,0,0,1,.01,2.62L35.12,60.51A4.082,4.082,0,0,1,33.1,61Zm-.19-34.94a3.516,3.516,0,0,0-1.77.43L3.75,42.4a1.1,1.1,0,0,0-.66.88,1.128,1.128,0,0,0,.67.89L31.33,60.09a3.9,3.9,0,0,0,3.55,0L62.27,44.17a.921.921,0,0,0-.01-1.77L34.68,26.48a3.646,3.646,0,0,0-1.77-.42Z" fill="#111925"/><path d="M14.32,24.35V45.96L33,56.81V35.21Z" fill="#f5ab00"/><path d="M33,57.06a.266.266,0,0,1-.12-.03L14.2,46.17a.225.225,0,0,1-.12-.21V24.36a.244.244,0,0,1,.12-.21.255.255,0,0,1,.24,0L33.12,35a.225.225,0,0,1,.12.21v21.6a.244.244,0,0,1-.12.21.192.192,0,0,1-.12.04ZM14.56,45.82,32.75,56.39V35.35L14.56,24.78Z" fill="#111925"/><path d="M51.68,24.35V45.96L33,56.81V35.21Z" fill="#f8d555"/><path d="M33,57.06a.266.266,0,0,1-.12-.03.225.225,0,0,1-.12-.21V35.22a.244.244,0,0,1,.12-.21L51.56,24.15a.255.255,0,0,1,.24,0,.225.225,0,0,1,.12.21v21.6a.244.244,0,0,1-.12.21L33.12,57.03a.266.266,0,0,1-.12.03Zm.24-21.71V56.39L51.43,45.82V24.78Z" fill="#111925"/><path d="M51.68,24.35,33,13.5,14.32,24.35,33,35.21Z" fill="#fff"/><path d="M33,35.45a.266.266,0,0,1-.12-.03L14.2,24.57a.225.225,0,0,1-.12-.21.244.244,0,0,1,.12-.21L32.88,13.29a.275.275,0,0,1,.25,0L51.8,24.14a.225.225,0,0,1,.12.21.244.244,0,0,1-.12.21L33.12,35.42a.266.266,0,0,1-.12.03ZM14.8,24.35,33,34.93,51.19,24.36,33,13.78Z" fill="#111925"/><path d="M44.39,28.59,25.71,17.74l-4.1,2.38L40.29,30.97Z" fill="#ff8288"/><path d="M40.29,31.22a.266.266,0,0,1-.12-.03L21.49,20.33a.225.225,0,0,1-.12-.21.244.244,0,0,1,.12-.21l4.1-2.38a.275.275,0,0,1,.25,0L44.52,28.39a.225.225,0,0,1,.12.21.244.244,0,0,1-.12.21l-4.1,2.38a.308.308,0,0,1-.13.03ZM22.1,20.12,40.29,30.69l3.61-2.1L25.71,18.02Z" fill="#111925"/><path d="M44.39,28.59v5.95l-1.84-.96-2.26,3.35V30.97Z" fill="#ff8288"/><path d="M40.29,37.17a.17.17,0,0,1-.07-.01.246.246,0,0,1-.17-.23V30.98a.244.244,0,0,1,.12-.21l4.1-2.38a.255.255,0,0,1,.24,0,.225.225,0,0,1,.12.21v5.95a.235.235,0,0,1-.12.21.254.254,0,0,1-.24.01l-1.64-.87-2.14,3.17A.246.246,0,0,1,40.29,37.17Zm.25-6.06v5.01l1.82-2.69a.251.251,0,0,1,.32-.08l1.48.78V29.01Z" fill="#111925"/><path d="M38.58,45.28l.01,2.07a3.175,3.175,0,0,1-1.43,2.48c-.79.46-1.44.09-1.44-.82l-.01-2.07Z" fill="#fff"/><path d="M36.51,50.27a.958.958,0,0,1-.5-.13,1.22,1.22,0,0,1-.54-1.13l-.01-2.07a.244.244,0,0,1,.12-.21l2.87-1.66a.255.255,0,0,1,.24,0,.225.225,0,0,1,.12.21l.01,2.07a3.39,3.39,0,0,1-1.55,2.69,1.546,1.546,0,0,1-.76.23Zm-.56-3.2L35.96,49a.639.639,0,0,0,1.07.61,2.946,2.946,0,0,0,1.31-2.27l-.01-1.65Z" fill="#111925"/><path d="M37.16,52.01a.243.243,0,0,1-.24-.24V49.83a.24.24,0,1,1,.48,0v1.94A.243.243,0,0,1,37.16,52.01Z" fill="#111925"/><path d="M36.23,52.3l2.14-1.23" fill="#fff"/><path d="M36.23,52.55a.241.241,0,0,1-.12-.45l2.14-1.24a.242.242,0,0,1,.24.42l-2.14,1.24a.213.213,0,0,1-.12.03Z" fill="#111925"/><path d="M45.92,18.13l1.46,2.13a.17.17,0,0,0,.06.06l1.77,1.03a.117.117,0,0,1-.06-.06l-1.46-2.13Z" fill="#111925"/><path d="M49.21,21.59a.266.266,0,0,1-.12-.03.01.01,0,0,1-.01-.01l-1.76-1.02a.5.5,0,0,1-.15-.14l-1.45-2.13a.256.256,0,0,1,.02-.3.242.242,0,0,1,.3-.04l1.77,1.03a.27.27,0,0,1,.08.07l1.45,2.12a.25.25,0,0,1,.08.33.225.225,0,0,1-.21.12Zm-2.47-2.7.84,1.23.78.45-.84-1.23Z" fill="#111925"/><path d="M47.63,19.1l-1.77-1.03a.117.117,0,0,1,.06.06l1.77,1.03A.17.17,0,0,0,47.63,19.1Z" fill="#fff"/><path d="M47.69,19.4a.266.266,0,0,1-.12-.03L45.8,18.34a.234.234,0,0,1-.07-.07.25.25,0,0,1-.08-.33.237.237,0,0,1,.33-.09l1.77,1.03a.436.436,0,0,1,.14.13.229.229,0,0,1-.02.3.2.2,0,0,1-.18.09Z" fill="#111925"/><path d="M44.05,9.76a3.241,3.241,0,0,0-1.47,2.54l.02,7.82c0,.93.66,1.31,1.48.84l3.26-1.84c.14-.08.27-.07.34.03l1.46,2.13a.236.236,0,0,0,.34.03.843.843,0,0,0,.34-.43l1.44-3.8a.877.877,0,0,1,.34-.43l3.47-1.96a3.222,3.222,0,0,0,1.26-2.42l-.02-7.82c0-.93-.66-1.31-1.48-.84Z" fill="#fff"/><path d="M49.31,21.62a.455.455,0,0,1-.37-.19L47.5,19.32c0,.01-.02.01-.03.02l-3.26,1.84a1.268,1.268,0,0,1-1.29.1,1.236,1.236,0,0,1-.55-1.16l-.02-7.82a3.446,3.446,0,0,1,1.59-2.75l10.8-6.14a1.268,1.268,0,0,1,1.29-.1,1.247,1.247,0,0,1,.55,1.16l.02,7.82a3.466,3.466,0,0,1-1.38,2.63l-3.47,1.96a.6.6,0,0,0-.23.3l-1.44,3.8a1.082,1.082,0,0,1-.45.55.709.709,0,0,1-.32.09Zm-1.79-2.79a.455.455,0,0,1,.37.19l1.44,2.11c0-.01.02-.01.03-.02a.642.642,0,0,0,.24-.3l1.44-3.8a1.082,1.082,0,0,1,.45-.55l3.47-1.96a2.975,2.975,0,0,0,1.13-2.2l-.02-7.82a.784.784,0,0,0-.31-.73.8.8,0,0,0-.8.1L44.16,9.99a2.99,2.99,0,0,0-1.34,2.33l.02,7.82a.784.784,0,0,0,.31.73.829.829,0,0,0,.8-.1l3.26-1.84a.619.619,0,0,1,.31-.1Z" fill="#111925"/><path d="M39.69,10.63l.02,7.82a1.03,1.03,0,0,0,.43.94l2.89,1.67a1.009,1.009,0,0,1-.43-.94l-.02-7.82a3.246,3.246,0,0,1,1.46-2.54l10.8-6.14a1.022,1.022,0,0,1,1.05-.1L53,1.85a1.046,1.046,0,0,0-1.05.1L41.15,8.09a3.258,3.258,0,0,0-1.46,2.54Z" fill="#0296f6"/><path d="M43.04,21.31a.266.266,0,0,1-.12-.03l-2.89-1.67a1.251,1.251,0,0,1-.55-1.15l-.02-7.82a3.456,3.456,0,0,1,1.59-2.75l10.8-6.14a1.269,1.269,0,0,1,1.29-.1l2.89,1.67a.242.242,0,1,1-.24.42.831.831,0,0,0-.8.1L44.19,9.98a3.017,3.017,0,0,0-1.34,2.33l.02,7.82a.784.784,0,0,0,.31.73.237.237,0,0,1,.09.33.309.309,0,0,1-.23.12ZM52.62,1.99a1.157,1.157,0,0,0-.54.17L41.28,8.3a2.948,2.948,0,0,0-1.34,2.33l.02,7.82a.784.784,0,0,0,.31.73l2.12,1.22a2.642,2.642,0,0,1-.02-.29l-.02-7.82a3.446,3.446,0,0,1,1.59-2.75L54.74,3.4c.09-.05.18-.09.27-.13L52.9,2.05a.706.706,0,0,0-.28-.06Z" fill="#111925"/><path d="M47.21,11.09c.59-.34,1.07-.07,1.07.62a2.363,2.363,0,0,1-1.07,1.85c-.59.34-1.07.07-1.08-.61a2.4,2.4,0,0,1,1.08-1.86Z" fill="#fff"/><path d="M46.74,13.94a.91.91,0,0,1-.4-.1.978.978,0,0,1-.44-.9,2.612,2.612,0,0,1,1.19-2.07.988.988,0,0,1,1-.08.978.978,0,0,1,.44.9,2.594,2.594,0,0,1-1.19,2.06A1.137,1.137,0,0,1,46.74,13.94Zm.95-2.75a.815.815,0,0,0-.36.11,2.123,2.123,0,0,0-.95,1.64.522.522,0,0,0,.19.47.549.549,0,0,0,.52-.08,2.094,2.094,0,0,0,.94-1.63.531.531,0,0,0-.19-.48.334.334,0,0,0-.15-.03Z" fill="#111925"/><path d="M51.21,11.74c.59-.34,1.07-.07,1.07.61a2.363,2.363,0,0,1-1.07,1.85c-.59.34-1.08.06-1.08-.61A2.417,2.417,0,0,1,51.21,11.74Z" fill="#fff"/><path d="M50.73,14.6a.8.8,0,0,1-.4-.11.978.978,0,0,1-.44-.9,2.594,2.594,0,0,1,1.19-2.06.89.89,0,0,1,1.44.82,2.579,2.579,0,0,1-1.19,2.06,1.086,1.086,0,0,1-.6.19Zm.96-2.76a.815.815,0,0,0-.36.11,2.123,2.123,0,0,0-.95,1.64.542.542,0,0,0,.19.48.57.57,0,0,0,.52-.07,2.112,2.112,0,0,0,.94-1.64.542.542,0,0,0-.19-.48.241.241,0,0,0-.15-.04Z" fill="#111925"/><path d="M51.19,7.67l-3.96,9.96" fill="#fff"/><path d="M47.23,17.87a.292.292,0,0,1-.09-.02.243.243,0,0,1-.14-.32l3.95-9.96a.247.247,0,1,1,.46.18l-3.95,9.96A.247.247,0,0,1,47.23,17.87Z" fill="#111925"/></g></svg>