<svg xmlns="http://www.w3.org/2000/svg" width="51.163" height="55.827" viewBox="0 0 51.163 55.827"><g transform="translate(-4.678 -2.004)"><g transform="translate(26.341 30.565)"><g transform="translate(0.906 0.424)"><path d="M30.548,35.228c.041.015.086.024.128.039C30.634,35.252,30.588,35.243,30.548,35.228Z" transform="translate(-30.548 -35.228)" fill="#fff"/></g><g transform="translate(1.917 0.726)"><path d="M31.706,35.575l.034.006Z" transform="translate(-31.706 -35.575)" fill="#fff"/></g><g transform="translate(1.034 0.462)"><path d="M30.694,35.272a7.843,7.843,0,0,0,.883.264A7.833,7.833,0,0,1,30.694,35.272Z" transform="translate(-30.694 -35.272)" fill="#fff"/></g><g transform="translate(1.951 0.732)"><path d="M33.892,35.808a9.584,9.584,0,0,1-2.147-.227A9.526,9.526,0,0,0,33.892,35.808Z" transform="translate(-31.746 -35.581)" fill="#fff"/></g><path d="M29.509,34.742a6.286,6.286,0,0,0,.906.424A6.252,6.252,0,0,1,29.509,34.742Z" transform="translate(-29.509 -34.742)" fill="#fff"/></g><g transform="translate(5.093 2.348)"><path d="M53.871,14.654c2.231,1.288,2.243,3.377.026,4.665l-19.445,11.3a8.875,8.875,0,0,1-8.052,0L6.837,19.322c-2.231-1.288-2.248-3.375-.031-4.662l19.445-11.3a8.886,8.886,0,0,1,8.057,0Z" transform="translate(-5.153 -2.398)" fill="#fff"/></g><g transform="translate(5.094 11.923)"><path d="M53.9,20.719l-19.442,11.3a8.9,8.9,0,0,1-8.054,0L6.837,20.719c-2.229-1.288-2.246-3.368-.035-4.656l4.641-2.689C12.331,21.128,20.873,27.2,31.277,27.2c9.952,0,18.214-5.561,19.7-12.82l2.891,1.671c2.229,1.288,2.246,3.377.026,4.665Z" transform="translate(-5.155 -13.374)" fill="#e9edf4"/></g><g transform="translate(28.267 16.954)"><path d="M57.286,21.455l-19.442,11.3a8.146,8.146,0,0,1-3.956.959V59.667a9.62,9.62,0,0,1-2.172-.218,8.885,8.885,0,0,0,6.058-.736l19.442-11.3A2.821,2.821,0,0,0,58.871,45.1l.07-25.962a2.839,2.839,0,0,1-1.654,2.315Z" transform="translate(-31.717 -19.14)" fill="#fff"/></g><g transform="translate(30.417 57.478)"><path d="M34.181,65.591h0Z" transform="translate(-34.181 -65.591)" fill="#e9edf4"/></g><g transform="translate(29.284 57.427)"><path d="M32.882,65.533a8.453,8.453,0,0,0,1.133.051A9.852,9.852,0,0,1,32.882,65.533Z" transform="translate(-32.882 -65.533)" fill="#e9edf4"/></g><g transform="translate(30.441 16.957)"><path d="M59.259,19.144l-.07,25.962a2.821,2.821,0,0,1-1.654,2.315l-19.442,11.3a8.07,8.07,0,0,1-3.883.948V52.93c.522.044,1.053.061,1.593.061A20.734,20.734,0,0,0,56.7,32.434,20.19,20.19,0,0,0,54.5,23.261l3.1-1.8a2.839,2.839,0,0,0,1.654-2.315Z" transform="translate(-34.209 -19.144)" fill="#e9edf4"/></g><g transform="translate(5.026 16.936)"><path d="M30.49,33.708a9.526,9.526,0,0,1-2.147-.227l-.034-.006a7.843,7.843,0,0,1-.883-.264c-.041-.015-.087-.023-.128-.039a6.287,6.287,0,0,1-.906-.424L6.828,21.452a2.84,2.84,0,0,1-1.68-2.332l-.07,25.944a2.828,2.828,0,0,0,1.68,2.35L26.322,58.7a6.227,6.227,0,0,0,.917.43c.045.017.1.027.141.043a7.836,7.836,0,0,0,.889.264l.049.008a9.62,9.62,0,0,0,2.172.218Z" transform="translate(-5.077 -19.12)" fill="#ffd63c"/></g><g transform="translate(5.026 16.936)"><path d="M30.492,52.035v7.633a9.99,9.99,0,0,1-2.177-.218.094.094,0,0,0-.043-.009,7.152,7.152,0,0,1-.9-.27c-.044-.017-.087-.026-.139-.044a6.277,6.277,0,0,1-.914-.426L6.758,47.414a2.828,2.828,0,0,1-1.68-2.35l.07-25.944a2.84,2.84,0,0,0,1.68,2.332l4.005,2.306A15.2,15.2,0,0,0,6.828,33.915c0,9.252,8.75,18.494,19.564,18.494a22.674,22.674,0,0,0,4.1-.374Z" transform="translate(-5.077 -19.12)" fill="#f4c531"/></g><g transform="translate(13.287 7.069)"><g transform="translate(0)"><path d="M48.555,11.587,21.085,27.548l-6.539-3.777L42.008,7.81Z" transform="translate(-14.547 -7.81)" fill="#ffd63c"/></g></g><g transform="translate(13.22 23.028)"><path d="M21.077,29.88l-.07,25.953-6.539-3.768.07-25.962Z" transform="translate(-14.469 -26.103)" fill="#fff"/></g><g transform="translate(25.992 30.217)"><g transform="translate(0.907 0.423)"><path d="M30.624,35.565a.365.365,0,0,1-.115-.02l-.135-.042a.348.348,0,0,1-.225-.325.33.33,0,0,1,.023-.124.349.349,0,0,1,.449-.2l-.123.326.158-.316.084.025a.349.349,0,0,1,.233.329.331.331,0,0,1-.02.116A.349.349,0,0,1,30.624,35.565Z" transform="translate(-30.148 -34.828)"/></g><g transform="translate(1.935 0.726)"><path d="M31.616,35.871l0-.026-.006.026a.364.364,0,0,1-.279-.422.337.337,0,0,1,.4-.264Z" transform="translate(-31.327 -35.176)"/></g><g transform="translate(1.034 0.461)"><path d="M31.526,35.834a.355.355,0,0,1-.078-.009c-.158-.036-.313-.078-.465-.124s-.308-.1-.458-.152a.349.349,0,0,1,.235-.658c.135.048.271.094.41.136s.287.083.435.117a.349.349,0,0,1-.078.689Z" transform="translate(-30.294 -34.871)"/></g><g transform="translate(1.951 0.733)"><path d="M33.782,36.107a9.788,9.788,0,0,1-2.164-.236.348.348,0,0,1-.263-.417.357.357,0,0,1,.417-.264h0a7.559,7.559,0,0,0,2.066.217h0a.349.349,0,0,1,.349.348v0a.35.35,0,0,1-.347.349Z" transform="translate(-31.346 -35.184)"/></g><path d="M30.364,35.465a.348.348,0,0,1-.123-.023A6.73,6.73,0,0,1,29.284,35a.349.349,0,0,1-.176-.3.345.345,0,0,1,.046-.172.35.35,0,0,1,.476-.13,5.921,5.921,0,0,0,.856.4.349.349,0,0,1-.123.676Z" transform="translate(-29.109 -34.343)"/></g><g transform="translate(4.744 2.004)"><path d="M30.385,31.871a8.612,8.612,0,0,1-4.21-1.007L6.612,19.574A3.184,3.184,0,0,1,4.754,16.93a3.146,3.146,0,0,1,1.826-2.622l19.446-11.3a9.271,9.271,0,0,1,8.407,0L53.994,14.3a3.181,3.181,0,0,1,1.856,2.642,3.153,3.153,0,0,1-1.828,2.627l-19.446,11.3a8.519,8.519,0,0,1-4.191,1.005ZM30.223,2.693a7.829,7.829,0,0,0-3.847.923L6.93,14.911a2.5,2.5,0,0,0-1.479,2.018,2.531,2.531,0,0,0,1.509,2.04l19.562,11.29a8.5,8.5,0,0,0,7.7,0l19.446-11.3a2.5,2.5,0,0,0,1.481-2.023,2.529,2.529,0,0,0-1.506-2.038L34.083,3.616a7.889,7.889,0,0,0-3.86-.924Z" transform="translate(-4.754 -2.004)"/></g><g transform="translate(27.918 16.605)"><path d="M33.713,59.967a9.825,9.825,0,0,1-2.121-.227h0a.349.349,0,0,1,.151-.682h0a9.177,9.177,0,0,0,1.746.207V33.659a.35.35,0,0,1,.347-.349,7.771,7.771,0,0,0,3.783-.911L57.059,21.1a2.52,2.52,0,0,0,1.482-2v-.01a.349.349,0,0,1,.349-.348h0a.35.35,0,0,1,.348.349h0v.01l-.07,25.951a3.153,3.153,0,0,1-1.827,2.616L37.9,58.964a8.543,8.543,0,0,1-4.185,1ZM34.186,34V59.26a7.567,7.567,0,0,0,3.362-.9l19.442-11.3a2.5,2.5,0,0,0,1.481-2.014L58.536,20.8a4.581,4.581,0,0,1-1.124.9h0L37.969,33a8.288,8.288,0,0,1-3.782,1ZM57.235,21.4h.009Z" transform="translate(-31.317 -18.74)"/></g><g transform="translate(4.678 16.587)"><path d="M30.313,59.964a9.892,9.892,0,0,1-2.121-.227,7.765,7.765,0,0,1-.979-.284l-.142-.043a6.735,6.735,0,0,1-.974-.457L6.533,47.666a3.147,3.147,0,0,1-1.855-2.656l.069-25.942a.349.349,0,0,1,.349-.348h0a.35.35,0,0,1,.348.349A2.534,2.534,0,0,0,6.95,21.1L26.515,32.4a5.929,5.929,0,0,0,.855.4l.12.035a7.4,7.4,0,0,0,.846.254,8.578,8.578,0,0,0,2.1.223.447.447,0,0,1,.248.1.348.348,0,0,1,.1.247V59.614a.349.349,0,0,1-.345.349h-.13ZM5.44,20.775,5.376,45.014a2.5,2.5,0,0,0,1.505,2.047L26.445,58.349a5.948,5.948,0,0,0,.867.406l.134.04a7.471,7.471,0,0,0,.849.251,9.387,9.387,0,0,0,1.8.216V34a9.7,9.7,0,0,1-1.875-.232,8.03,8.03,0,0,1-.958-.281c-.067-.019-.1-.029-.133-.041A6.745,6.745,0,0,1,26.167,33L6.6,21.7a4.46,4.46,0,0,1-1.162-.929Z" transform="translate(-4.678 -18.719)"/></g><g transform="translate(12.938 6.719)"><path d="M21.034,27.847a.354.354,0,0,1-.175-.047l-6.539-3.778a.349.349,0,0,1,0-.6L41.781,7.457a.347.347,0,0,1,.35,0l6.547,3.778a.349.349,0,0,1,0,.6L21.21,27.8a.351.351,0,0,1-.176.048Zm-5.843-4.128,5.842,3.375L47.808,11.537l-5.85-3.375Z" transform="translate(-14.147 -7.409)"/></g><g transform="translate(12.871 22.68)"><g transform="translate(0)"><path d="M20.957,56.132a.354.354,0,0,1-.174-.047l-6.539-3.768a.349.349,0,0,1-.175-.3l.069-25.962a.349.349,0,0,1,.524-.3L21.2,29.527a.349.349,0,0,1,.174.3l-.069,25.953a.35.35,0,0,1-.175.3.354.354,0,0,1-.174.047Zm-6.19-4.319,5.842,3.366.067-25.148-5.842-3.375Z" transform="translate(-14.069 -25.703)"/></g></g><g transform="translate(34.178 29.066)"><g transform="translate(2.26 1.313)"><g transform="translate(9.051 10.338)"><path d="M58.1,48.15a.626.626,0,0,0-.626.066L54.75,49.79a.625.625,0,0,1-.626.066l-2.266-1.313a.621.621,0,0,0,.633-.066L55.214,46.9a.627.627,0,0,1,.626-.066Z" transform="translate(-51.509 -46.43)" fill="#f4c531"/><path d="M54.306,50.211a.832.832,0,0,1-.4-.1l-2.273-1.317a.349.349,0,0,1,.348-.6c.081.044.224-.028.283-.062l2.726-1.577a.94.94,0,0,1,.975-.066l2.26,1.314a.349.349,0,0,1-.349.6c-.039-.022-.143-.012-.279.066l-2.722,1.574a1.117,1.117,0,0,1-.567.17Zm-1.543-1.568,1.485.86a.338.338,0,0,0,.273-.065L57.1,47.95l-1.482-.862c-.029-.015-.122-.023-.277.067Z" transform="translate(-51.457 -46.379)"/></g><g transform="translate(0.349 0.349)"><path d="M51.6,35.05c.488-.282.889-.053.891.508l.051,12.21c0,.567.4.793.886.511L56.15,46.7c.776-.449,1.179.384.656,1.341L49.941,60.608a1.822,1.822,0,0,1-.65.7.617.617,0,0,1-.652.051l-6.918-4.594c-.527-.349-.126-1.647.65-2.1L45.092,53.1a1.946,1.946,0,0,0,.885-1.535l-.051-12.21a1.962,1.962,0,0,1,.885-1.535Z" transform="translate(-41.483 -34.929)" fill="#fff"/></g><g transform="translate(6.745 0.349)"><path d="M57.743,48.049,50.879,60.612a1.859,1.859,0,0,1-.653.695.621.621,0,0,1-.653.057l-.759-.507c2.155-2.918,3.575-7.863,3.575-13.486,0-5.607-1.4-7.274-3.542-10.192l3.689-2.125c.49-.286.89-.057.89.507l.049,12.211c0,.564.4.793.889.507L57.082,46.7c.783-.441,1.183.392.661,1.349Z" transform="translate(-48.814 -34.929)" fill="#e9edf4"/></g><path d="M48.839,61.731a.785.785,0,0,1-.443-.13l-6.918-4.594a.978.978,0,0,1-.394-.89,2.323,2.323,0,0,1,1.063-1.8l2.719-1.573a1.594,1.594,0,0,0,.711-1.232L45.526,39.3a2.306,2.306,0,0,1,1.059-1.839L51.373,34.7a.885.885,0,0,1,1.414.81l.051,12.21c0,.165.046.25.086.273s.136.018.276-.062l2.725-1.575a.907.907,0,0,1,1.131.05,1.494,1.494,0,0,1,.006,1.761L50.2,60.724a2.166,2.166,0,0,1-.781.836,1.161,1.161,0,0,1-.577.17ZM51.722,35.3,46.934,38.07a1.616,1.616,0,0,0-.711,1.231l.051,12.21a2.274,2.274,0,0,1-1.059,1.839L42.5,54.922a1.614,1.614,0,0,0-.715,1.215.345.345,0,0,0,.083.288l6.918,4.594c.04.026.144.018.284-.062a1.481,1.481,0,0,0,.518-.567l6.865-12.562c.253-.463.221-.827.119-.927-.055-.053-.187-.006-.294.055L53.55,48.53a.882.882,0,0,1-1.41-.812l-.051-12.21c0-.162-.047-.246-.087-.269s-.138-.021-.28.061Z" transform="translate(-41.083 -34.529)"/></g><g transform="translate(0 3.576)"><g transform="translate(0.349 0.349)"><path d="M43.33,38.372l.051,12.213a1.91,1.91,0,0,1-.881,1.531l-2.723,1.575c-.772.452-1.172,1.75-.648,2.093L41.388,57.1c-.524-.35-.124-1.648.655-2.093l2.716-1.575a1.947,1.947,0,0,0,.888-1.531L45.6,39.684a1.821,1.821,0,0,1,.25-.856l-2.266-1.305a1.8,1.8,0,0,0-.251.848Z" transform="translate(-38.892 -37.523)" fill="#f4c531"/></g><path d="M41.337,57.394a.345.345,0,0,1-.175-.048L38.9,56.034a.969.969,0,0,1-.41-.885,2.327,2.327,0,0,1,1.057-1.81l2.725-1.577a1.56,1.56,0,0,0,.707-1.224l-.051-12.216v0a2.148,2.148,0,0,1,.3-1.02.349.349,0,0,1,.478-.131l2.265,1.305a.349.349,0,0,1,.131.472,1.491,1.491,0,0,0-.206.687l.051,12.211a2.307,2.307,0,0,1-1.063,1.835l-2.714,1.574a1.608,1.608,0,0,0-.718,1.21c-.005.145.025.253.081.291a.349.349,0,0,1-.194.64ZM43.628,38.32l.051,12.212a2.239,2.239,0,0,1-1.056,1.835L39.9,53.942a1.646,1.646,0,0,0-.711,1.223.335.335,0,0,0,.079.274l1.493.867a2.326,2.326,0,0,1,1.057-1.658l2.714-1.574a1.6,1.6,0,0,0,.714-1.229L45.2,39.635a1.992,1.992,0,0,1,.146-.716l-1.652-.952a1.187,1.187,0,0,0-.063.353Z" transform="translate(-38.492 -37.123)"/></g><g transform="translate(4.689)"><g transform="translate(0.349 0.351)"><path d="M50.321,33.489a.6.6,0,0,0-.626.058L44.9,36.318a1.805,1.805,0,0,0-.638.683l2.266,1.305a1.82,1.82,0,0,1,.631-.683l4.79-2.763a.638.638,0,0,1,.633-.066Z" transform="translate(-44.267 -33.426)" fill="#ffd63c"/></g><path d="M46.481,38.6a.352.352,0,0,1-.174-.047l-2.265-1.305a.349.349,0,0,1-.13-.475,2.146,2.146,0,0,1,.769-.814l4.788-2.77a.935.935,0,0,1,.976-.058l2.265,1.3a.349.349,0,0,1-.335.613c-.093-.05-.226.015-.3.056l-4.793,2.765a1.483,1.483,0,0,0-.5.55.348.348,0,0,1-.212.166.341.341,0,0,1-.092.013Zm-1.763-1.768,1.652.952a1.993,1.993,0,0,1,.567-.517l4.64-2.678L50.1,33.74l0,0c-.043-.024-.135-.024-.267.056l-4.8,2.775a1.2,1.2,0,0,0-.31.267Z" transform="translate(-43.867 -33.024)"/></g></g></g></svg>