<svg xmlns="http://www.w3.org/2000/svg" width="75.701" height="91" viewBox="0 0 75.701 91"><g transform="translate(-6.8 -1.498)"><g transform="translate(6.8 1.498)"><path d="M46.8,4.8A2.117,2.117,0,0,0,44.71,5L14.84,22.261a6.413,6.413,0,0,0-2.932,5.084l.173,62.6a2.094,2.094,0,0,0,.852,1.892L8.08,88.978a2.067,2.067,0,0,1-.867-1.892l-.173-62.6A6.451,6.451,0,0,1,9.972,19.4L39.857,2.155a2.049,2.049,0,0,1,2.094-.2Z" transform="translate(-6.693 -1.387)" fill="#0296f6"/><path d="M13.025,92.3a.385.385,0,0,1-.173-.043h-.014L8,89.393a2.4,2.4,0,0,1-1.04-2.2L6.8,24.6a6.892,6.892,0,0,1,3.105-5.4L39.776,1.948a2.428,2.428,0,0,1,2.455-.2l4.853,2.86a.356.356,0,0,1,.13.477.343.343,0,0,1-.477.13,1.793,1.793,0,0,0-1.748.2L15.12,22.676a6.021,6.021,0,0,0-2.759,4.781l.159,62.6a1.771,1.771,0,0,0,.679,1.589.356.356,0,0,1,.13.477.324.324,0,0,1-.3.173ZM41.278,2.208a2.318,2.318,0,0,0-1.156.361L10.267,19.816A6.064,6.064,0,0,0,7.508,24.6l.159,62.6a1.729,1.729,0,0,0,.693,1.589l3.553,2.094a3.6,3.6,0,0,1-.087-.823l-.159-62.6a6.825,6.825,0,0,1,3.12-5.4L44.643,4.808a3.5,3.5,0,0,1,.809-.347L41.87,2.353a1.126,1.126,0,0,0-.592-.144Z" transform="translate(-6.8 -1.498)" fill="#111925"/><g transform="translate(4.853 2.86)"><path d="M43.217,4.124c1.632-.939,2.961-.188,2.961,1.69l.173,62.6A6.466,6.466,0,0,1,43.4,73.5L13.534,90.745c-1.618.939-2.947.188-2.961-1.69L10.4,26.469a6.516,6.516,0,0,1,2.932-5.1Z" transform="translate(-10.053 -3.371)" fill="#9adbfb"/><path d="M12.312,91.618a1.856,1.856,0,0,1-.939-.246,2.4,2.4,0,0,1-1.04-2.2l-.173-62.6a6.885,6.885,0,0,1,3.12-5.4L43.15,3.928a2.4,2.4,0,0,1,2.441-.2,2.4,2.4,0,0,1,1.04,2.2l.173,62.6a6.787,6.787,0,0,1-3.12,5.4L13.814,91.17a3.181,3.181,0,0,1-1.5.448ZM43.5,4.55,13.627,21.8a6.064,6.064,0,0,0-2.759,4.781l.173,62.6a1.729,1.729,0,0,0,.693,1.589,1.73,1.73,0,0,0,1.733-.2l29.87-17.246a6.118,6.118,0,0,0,2.773-4.781L45.923,5.922a1.713,1.713,0,0,0-.693-1.589A1.708,1.708,0,0,0,43.5,4.55Z" transform="translate(-10.16 -3.478)" fill="#111925"/><g transform="translate(3.524 5.755)"><path d="M12.84,24.7a3.2,3.2,0,0,1,1.17-2.037L39.6,7.885a1.32,1.32,0,0,1,1.979,1.141l.159,57.632a3.1,3.1,0,0,1-1.184,2.022L14.978,83.441A1.32,1.32,0,0,1,13,82.3Z" transform="translate(-12.493 -7.354)" fill="#fff"/><path d="M14.42,84.084a1.6,1.6,0,0,1-.838-.231,1.657,1.657,0,0,1-.838-1.444l-.144-57.6a3.507,3.507,0,0,1,1.358-2.34L39.538,7.69a1.63,1.63,0,0,1,1.661,0,1.657,1.657,0,0,1,.838,1.444L42.2,66.766a3.507,3.507,0,0,1-1.358,2.34L15.258,83.853a1.6,1.6,0,0,1-.838.231ZM13.308,24.792l.159,57.617a.983.983,0,0,0,.477.838.966.966,0,0,0,.968,0l25.58-14.762a2.773,2.773,0,0,0,1-1.719L41.329,9.134a.983.983,0,0,0-.477-.838.966.966,0,0,0-.968,0L14.3,23.073a2.841,2.841,0,0,0-1,1.719Z" transform="translate(-12.6 -7.462)" fill="#111925"/></g></g><g transform="translate(13.693 11.066)"><path d="M34.036,9.4v1.156a7.249,7.249,0,0,1-3.279,5.676L19.823,22.544c-1.82,1.054-3.293.2-3.293-1.878V19.511Z" transform="translate(-16.169 -9.053)" fill="#0296f6"/><path d="M18.461,23.46a2,2,0,0,1-1.04-.274,2.615,2.615,0,0,1-1.141-2.412V19.617a.352.352,0,0,1,.173-.3L33.959,9.2a.368.368,0,0,1,.347,0,.324.324,0,0,1,.173.3v1.156a7.636,7.636,0,0,1-3.452,5.98L20.093,22.954a3.2,3.2,0,0,1-1.632.506Zm-1.473-3.64v.953a1.955,1.955,0,0,0,.794,1.806,1.99,1.99,0,0,0,1.979-.231L30.7,16.035A6.856,6.856,0,0,0,33.8,10.662v-.549Z" transform="translate(-16.28 -9.16)" fill="#111925"/></g><g transform="translate(12.574 65.312)"><path d="M19.65,46.96,15.75,49.2" transform="translate(-15.397 -46.607)" fill="#fff"/><path d="M15.859,49.669a.347.347,0,0,1-.173-.65l3.885-2.253a.349.349,0,0,1,.347.607l-3.885,2.253A.308.308,0,0,1,15.859,49.669Z" transform="translate(-15.506 -46.716)" fill="#111925"/></g><g transform="translate(18.858 55.302)"><path d="M35.05,40.03,20.1,48.668" transform="translate(-19.747 -39.677)" fill="#fff"/><path d="M20.209,49.123a.347.347,0,0,1-.173-.65l14.95-8.638a.349.349,0,0,1,.347.607l-14.95,8.638A.385.385,0,0,1,20.209,49.123Z" transform="translate(-19.856 -39.786)" fill="#111925"/></g><g transform="translate(12.574 66.857)"><path d="M25.774,48.02,15.75,53.812" transform="translate(-15.397 -47.681)" fill="#fff"/><path d="M15.859,54.263a.347.347,0,0,1-.173-.65L25.7,47.835a.349.349,0,0,1,.347.607L16.032,54.22A.308.308,0,0,1,15.859,54.263Z" transform="translate(-15.506 -47.786)" fill="#111925"/></g><g transform="translate(12.574 54.551)"><path d="M29.5,39.51,15.75,47.44" transform="translate(-15.397 -39.157)" fill="#fff"/><path d="M15.859,47.9a.347.347,0,0,1-.173-.65l13.751-7.93a.349.349,0,1,1,.347.607l-13.751,7.93a.308.308,0,0,1-.173.043Z" transform="translate(-15.506 -39.266)" fill="#111925"/></g><g transform="translate(28.665 50.232)"><path d="M32.032,36.52,26.89,39.481" transform="translate(-26.537 -36.167)" fill="#fff"/><path d="M27,39.936a.347.347,0,0,1-.173-.65l5.128-2.961a.349.349,0,1,1,.347.607l-5.128,2.961A.343.343,0,0,1,27,39.936Z" transform="translate(-26.646 -36.276)" fill="#111925"/></g><g transform="translate(33.135 41.774)"><g transform="translate(0 12.162)"><path d="M29.98,39.08V63.274L50.909,75.436V51.242Z" transform="translate(-29.633 -38.733)" fill="#f5ab00"/><path d="M51.016,75.9a.385.385,0,0,1-.173-.043L29.913,63.7a.324.324,0,0,1-.173-.3V39.187a.352.352,0,0,1,.173-.3.368.368,0,0,1,.347,0L51.189,51.045a.324.324,0,0,1,.173.3V75.557a.352.352,0,0,1-.173.3A.385.385,0,0,1,51.016,75.9ZM30.448,63.178,50.669,74.936V51.551L30.448,39.793Z" transform="translate(-29.74 -38.84)" fill="#111925"/></g><g transform="translate(20.929 12.162)"><path d="M65.4,39.08V63.274L44.47,75.436V51.242Z" transform="translate(-44.123 -38.733)" fill="#f8d555"/><path d="M44.577,75.9a.385.385,0,0,1-.173-.043.324.324,0,0,1-.173-.3V51.349a.352.352,0,0,1,.173-.3L65.333,38.883a.368.368,0,0,1,.347,0,.324.324,0,0,1,.173.3V63.395a.352.352,0,0,1-.173.3L44.75,75.86A.385.385,0,0,1,44.577,75.9Zm.347-24.353V74.936L65.145,63.178V39.793Z" transform="translate(-44.23 -38.84)" fill="#111925"/></g><path d="M71.839,42.822,50.909,30.66,29.98,42.822,50.909,54.984Z" transform="translate(-29.633 -30.313)" fill="#fff"/><path d="M51.016,55.437a.385.385,0,0,1-.173-.043L29.913,43.232a.324.324,0,0,1-.173-.3.352.352,0,0,1,.173-.3L50.843,30.463a.4.4,0,0,1,.361,0L72.133,42.625a.324.324,0,0,1,.173.3.352.352,0,0,1-.173.3L51.2,55.394a.5.5,0,0,1-.188.043ZM30.794,42.929,51.016,54.686,71.238,42.929,51.016,31.171Z" transform="translate(-29.74 -30.42)" fill="#111925"/><g transform="translate(8.161 4.738)"><path d="M61.148,46.1,40.219,33.94,35.64,36.612,56.555,48.774Z" transform="translate(-35.279 -33.593)" fill="#ff977f"/><path d="M56.666,49.242a.385.385,0,0,1-.173-.043L35.563,37.022a.324.324,0,0,1-.173-.3.352.352,0,0,1,.173-.3l4.593-2.672a.4.4,0,0,1,.361,0L61.447,45.905a.324.324,0,0,1,.173.3.352.352,0,0,1-.173.3l-4.593,2.672A.29.29,0,0,1,56.666,49.242ZM36.444,36.719,56.666,48.476l3.885-2.253L40.33,34.466Z" transform="translate(-35.39 -33.7)" fill="#111925"/></g><g transform="translate(29.076 16.914)"><path d="M54.713,42.37v8.219l-2.2-1.213-2.4,3.871V45.028Z" transform="translate(-49.759 -42.023)" fill="#ff977f"/><path d="M50.231,53.714a.282.282,0,0,1-.1-.014.37.37,0,0,1-.26-.332V45.149a.352.352,0,0,1,.173-.3l4.593-2.672a.368.368,0,0,1,.347,0,.352.352,0,0,1,.173.3V50.7a.352.352,0,0,1-.173.3.333.333,0,0,1-.347,0L52.73,49.944l-2.224,3.6a.277.277,0,0,1-.274.173Zm.361-8.378v6.774l1.748-2.817a.366.366,0,0,1,.477-.13l1.676.924V43.083Z" transform="translate(-49.87 -42.13)" fill="#111925"/></g><g transform="translate(23.494 40.206)"><path d="M51.363,58.5,46.25,61.475" transform="translate(-45.897 -58.147)" fill="#fed167"/><path d="M46.359,61.931a.347.347,0,0,1-.173-.65L51.3,58.305a.349.349,0,0,1,.347.607l-5.113,2.975a.308.308,0,0,1-.173.043Z" transform="translate(-46.006 -58.256)" fill="#111925"/></g><g transform="translate(30.138 38.718)"><path d="M51.89,57.47l-1.04.607" transform="translate(-50.497 -57.117)" fill="#fed167"/><path d="M50.959,58.532a.347.347,0,0,1-.173-.65l1.04-.607a.349.349,0,1,1,.347.607l-1.04.607a.385.385,0,0,1-.173.043Z" transform="translate(-50.606 -57.226)" fill="#111925"/></g><g transform="translate(23.494 38.082)"><path d="M49.529,57.03,46.25,58.922" transform="translate(-45.897 -56.677)" fill="#fed167"/><path d="M46.359,59.392a.347.347,0,0,1-.173-.65l3.279-1.907a.349.349,0,1,1,.347.607l-3.279,1.907a.308.308,0,0,1-.173.043Z" transform="translate(-46.006 -56.786)" fill="#111925"/></g></g><g transform="translate(14.329 27.521)"><path d="M25.478,41.481c4.68-2.7,8.479-9.273,8.464-14.661s-3.828-7.554-8.522-4.853-8.464,9.273-8.45,14.646,3.828,7.569,8.508,4.868" transform="translate(-16.609 -20.439)" fill="#ff977f"/><path d="M21.79,43.111a4.712,4.712,0,0,1-2.4-.621c-1.719-.982-2.658-3.033-2.672-5.763-.014-5.489,3.857-12.205,8.638-14.964,2.383-1.372,4.651-1.589,6.37-.592S34.385,24.2,34.4,26.919c.014,5.489-3.857,12.205-8.638,14.964A7.89,7.89,0,0,1,21.79,43.111Zm7.554-21.839a7.462,7.462,0,0,0-3.625,1.112c-4.579,2.643-8.291,9.085-8.276,14.343,0,2.47.823,4.29,2.311,5.142s3.51.65,5.662-.592c4.579-2.643,8.305-9.085,8.291-14.343,0-2.47-.823-4.29-2.311-5.142a4.124,4.124,0,0,0-2.051-.52Z" transform="translate(-16.72 -20.552)" fill="#111925"/></g><g transform="translate(17.413 33.047)"><path d="M23.152,35.864a.318.318,0,0,1-.188-.058l-3.943-2.484a.357.357,0,1,1,.376-.607l3.654,2.3,6.7-10.472a.355.355,0,1,1,.592.39l-6.89,10.761a.375.375,0,0,1-.3.173Z" transform="translate(-18.855 -24.378)" fill="#111925"/></g></g><g transform="translate(23.231 17.238)"><path d="M29.354,12.63,18.42,18.942" transform="translate(-18.067 -12.291)" fill="#0296f6"/><path d="M18.529,19.407a.347.347,0,0,1-.173-.65l10.934-6.312a.349.349,0,0,1,.347.607L18.7,19.364A.308.308,0,0,1,18.529,19.407Z" transform="translate(-18.176 -12.396)" fill="#111925"/></g></g></svg>