<svg xmlns="http://www.w3.org/2000/svg" width="48.72" height="62.997" viewBox="0 0 48.72 62.997"><g transform="translate(-8.65 -1.503)"><path d="M8.89,30.58V52.99L28.27,64.25V41.84Z" fill="#f5ab00"/><path d="M28.27,64.5a.266.266,0,0,1-.12-.03L8.77,53.2a.225.225,0,0,1-.12-.21V30.58a.244.244,0,0,1,.12-.21.255.255,0,0,1,.24,0L28.39,41.63a.225.225,0,0,1,.12.21V64.25a.244.244,0,0,1-.12.21.175.175,0,0,1-.12.04ZM9.14,52.85,28.03,63.83V41.98L9.14,31Z" fill="#111925"/><path d="M47.65,30.58V52.99L28.27,64.25V41.84Z" fill="#f8d555"/><path d="M28.27,64.5a.266.266,0,0,1-.12-.03.225.225,0,0,1-.12-.21V41.84a.244.244,0,0,1,.12-.21L47.53,30.37a.255.255,0,0,1,.24,0,.244.244,0,0,1,.12.21V52.99a.244.244,0,0,1-.12.21L28.39,64.47A.238.238,0,0,1,28.27,64.5Zm.25-22.52V63.83L47.41,52.85V31Z" fill="#111925"/><path d="M47.65,30.58,28.27,19.32,8.89,30.58,28.27,41.84Z" fill="#fff"/><path d="M28.27,42.09a.266.266,0,0,1-.12-.03L8.77,30.79a.225.225,0,0,1-.12-.21.244.244,0,0,1,.12-.21L28.15,19.11a.275.275,0,0,1,.25,0L47.78,30.37a.225.225,0,0,1,.12.21.244.244,0,0,1-.12.21L28.39,42.05a.245.245,0,0,1-.12.04ZM9.38,30.58,28.27,41.56,47.16,30.58,28.27,19.6Z" fill="#111925"/><path d="M40.09,34.97,20.71,23.71l-4.25,2.47L35.84,37.45Z" fill="#ff977f"/><path d="M35.84,37.69a.266.266,0,0,1-.12-.03L16.33,26.39a.225.225,0,0,1-.12-.21.244.244,0,0,1,.12-.21l4.25-2.47a.275.275,0,0,1,.25,0L40.21,34.76a.225.225,0,0,1,.12.21.244.244,0,0,1-.12.21l-4.25,2.47a.192.192,0,0,1-.12.04ZM16.94,26.18,35.83,37.16l3.77-2.19L20.71,24Z" fill="#111925"/><path d="M40.09,34.98v7.61l-2.13-.75-2.12,3.22V37.45Z" fill="#ff977f"/><path d="M35.84,45.3a.17.17,0,0,1-.07-.01.246.246,0,0,1-.17-.23V37.45a.244.244,0,0,1,.12-.21l4.25-2.47a.255.255,0,0,1,.24,0,.225.225,0,0,1,.12.21v7.61a.261.261,0,0,1-.1.2.219.219,0,0,1-.22.03l-1.95-.68L36.04,45.2A.261.261,0,0,1,35.84,45.3Zm.24-7.71v6.66l1.68-2.54a.257.257,0,0,1,.28-.1l1.8.63V35.4Z" fill="#111925"/><path d="M31.62,57.86a.243.243,0,0,1-.24-.24V53.3a.24.24,0,1,1,.48,0v4.32A.243.243,0,0,1,31.62,57.86Z" fill="#111925"/><path d="M30.62,55.28a.266.266,0,0,1-.12-.03.237.237,0,0,1-.09-.33l1-1.73a.237.237,0,0,1,.33-.09l1,.57a.242.242,0,0,1-.24.42l-.79-.45-.88,1.52a.247.247,0,0,1-.21.12Z" fill="#111925"/><path d="M34.42,56.23a.243.243,0,0,1-.24-.24V51.67a.24.24,0,0,1,.48,0v4.32A.231.231,0,0,1,34.42,56.23Z" fill="#111925"/><path d="M33.42,53.64a.266.266,0,0,1-.12-.03.237.237,0,0,1-.09-.33l1-1.73a.237.237,0,0,1,.33-.09l1.01.57a.242.242,0,0,1-.24.42l-.8-.45-.88,1.52A.225.225,0,0,1,33.42,53.64Z" fill="#111925"/><path d="M35.84,56.66l-4.83,2.81" fill="#fed167"/><path d="M31.01,59.71a.241.241,0,0,1-.12-.45l4.83-2.81a.242.242,0,0,1,.24.42l-4.83,2.81a.266.266,0,0,1-.12.03Z" fill="#111925"/><path d="M48.38,21.45l-1.66,2.43a.462.462,0,0,1-.07.07l-2.02,1.18a.234.234,0,0,0,.07-.07l1.66-2.43Z" fill="#111925"/><path d="M44.62,25.38a.241.241,0,0,1-.12-.45h.01l1.65-2.43a.27.27,0,0,1,.08-.07l2.02-1.18a.242.242,0,0,1,.3.04.229.229,0,0,1,.02.3l-1.66,2.43a.673.673,0,0,1-.15.14l-2.02,1.17c-.01,0-.01.01-.02.01A.15.15,0,0,1,44.62,25.38Zm1.91-2.56-1.05,1.54,1.04-.61,1.05-1.54Z" fill="#111925"/><path d="M46.44,22.56l2.02-1.18a.234.234,0,0,0-.07.07l-2.02,1.18A.158.158,0,0,1,46.44,22.56Z" fill="#fff"/><path d="M46.36,22.88a.25.25,0,0,1-.18-.08.229.229,0,0,1-.02-.3.4.4,0,0,1,.15-.14l2.02-1.18a.269.269,0,0,1,.17.49l-2.02,1.18a.238.238,0,0,1-.12.03Z" fill="#111925"/><path d="M52.12,12.86a3.714,3.714,0,0,1,1.68,2.9l-.03,8.95c0,1.07-.76,1.5-1.69.96l-5.33-3.08c-.16-.09-.31-.08-.39.04l-1.67,2.43c-.09.13-.24.13-.39.04a.942.942,0,0,1-.39-.49l-1.65-4.35a.975.975,0,0,0-.39-.49L36.3,16.55a3.681,3.681,0,0,1-1.44-2.76l.03-8.95c0-1.07.76-1.5,1.69-.96Z" fill="#fff"/><path d="M52.84,26.15a1.87,1.87,0,0,1-.88-.26l-5.33-3.08a.176.176,0,0,0-.08-.03L44.9,25.2a.52.52,0,0,1-.72.11,1.208,1.208,0,0,1-.5-.62l-1.65-4.35a.734.734,0,0,0-.29-.37l-5.57-3.22a3.912,3.912,0,0,1-1.56-2.98l.03-8.95a1.39,1.39,0,0,1,.62-1.29,1.409,1.409,0,0,1,1.44.12l15.55,8.98a3.917,3.917,0,0,1,1.8,3.12l-.03,8.95a1.39,1.39,0,0,1-.62,1.29,1.013,1.013,0,0,1-.56.16Zm-6.29-3.86a.648.648,0,0,1,.32.09l5.33,3.08a.789.789,0,0,0,1.32-.75l.03-8.95A3.432,3.432,0,0,0,52,13.07L36.46,4.1a.946.946,0,0,0-.95-.12.95.95,0,0,0-.37.87l-.03,8.95a3.468,3.468,0,0,0,1.31,2.55l5.57,3.22a1.208,1.208,0,0,1,.5.62l1.65,4.35a.762.762,0,0,0,.28.37.176.176,0,0,0,.08.03l1.65-2.43a.475.475,0,0,1,.4-.22Z" fill="#111925"/><path d="M57.11,13.86l-.03,8.94a1.186,1.186,0,0,1-.49,1.08l-3.31,1.91a1.186,1.186,0,0,0,.49-1.08l.03-8.94a3.7,3.7,0,0,0-1.67-2.9L36.58,3.89a1.183,1.183,0,0,0-1.2-.11l3.31-1.91a1.189,1.189,0,0,1,1.2.12l15.55,8.98A3.666,3.666,0,0,1,57.11,13.86Z" fill="#0296f6"/><path d="M53.28,26.04a.241.241,0,0,1-.12-.45.95.95,0,0,0,.37-.87l.03-8.95a3.416,3.416,0,0,0-1.55-2.69L36.46,4.1a.971.971,0,0,0-.95-.12.242.242,0,1,1-.24-.42h.01l3.3-1.91a1.409,1.409,0,0,1,1.44.12l15.55,8.97a3.917,3.917,0,0,1,1.8,3.12l-.03,8.94a1.416,1.416,0,0,1-.61,1.29L53.41,26a.326.326,0,0,1-.13.04ZM36.33,3.5a2.394,2.394,0,0,1,.37.17l15.55,8.98a3.917,3.917,0,0,1,1.8,3.12l-.03,8.94a2.376,2.376,0,0,1-.03.39l2.49-1.44a.95.95,0,0,0,.37-.87l.03-8.95a3.4,3.4,0,0,0-1.56-2.69L39.76,2.19a.971.971,0,0,0-.95-.12Z" fill="#111925"/><path d="M44.34,10.59c3.95,2.28,6.97,8.01,7.13,8.31a6.528,6.528,0,0,1-7.16.07c-3.94-2.28-6.96-8.01-7.12-8.31a6.519,6.519,0,0,1,7.15-.07Z" fill="#ff977f"/><path d="M47.91,20.23a7.335,7.335,0,0,1-3.71-1.06c-3.9-2.25-6.89-7.78-7.22-8.41a.235.235,0,0,1,.07-.31,6.791,6.791,0,0,1,7.41-.09c3.89,2.25,6.9,7.79,7.22,8.41a.235.235,0,0,1-.07.31A6.345,6.345,0,0,1,47.91,20.23Zm-10.4-9.49c.63,1.15,3.41,5.99,6.93,8.02a6.326,6.326,0,0,0,6.71.07c-.63-1.15-3.42-6-6.93-8.02A6.31,6.31,0,0,0,37.51,10.74Z" fill="#111925"/><path d="M44.34,12.74a3.894,3.894,0,0,1,1.77,3.07c0,1.13-.8,1.58-1.78,1.02a3.92,3.92,0,0,1-1.77-3.07C42.56,12.63,43.36,12.17,44.34,12.74Z" fill="#fbfbfb"/><path d="M45.13,17.31a1.807,1.807,0,0,1-.92-.28,4.1,4.1,0,0,1-1.89-3.28,1.314,1.314,0,0,1,2.14-1.22,4.1,4.1,0,0,1,1.89,3.28,1.454,1.454,0,0,1-.64,1.35,1.166,1.166,0,0,1-.58.15Zm-1.59-4.57a.64.64,0,0,0-.34.09,1.009,1.009,0,0,0-.4.93,3.664,3.664,0,0,0,1.65,2.86,1.058,1.058,0,0,0,1.02.13,1.009,1.009,0,0,0,.4-.93,3.664,3.664,0,0,0-1.65-2.86A1.349,1.349,0,0,0,43.54,12.74Z" fill="#111925"/><path d="M44.34,12.74a3.894,3.894,0,0,1,1.77,3.07c0,1.13-.8,1.58-1.78,1.02a3.92,3.92,0,0,1-1.77-3.07C42.56,12.63,43.36,12.17,44.34,12.74Z" fill="#fbfbfb"/><path d="M45.13,17.31a1.807,1.807,0,0,1-.92-.28,4.1,4.1,0,0,1-1.89-3.28,1.314,1.314,0,0,1,2.14-1.22,4.1,4.1,0,0,1,1.89,3.28,1.454,1.454,0,0,1-.64,1.35,1.166,1.166,0,0,1-.58.15Zm-1.59-4.57a.64.64,0,0,0-.34.09,1.009,1.009,0,0,0-.4.93,3.664,3.664,0,0,0,1.65,2.86,1.058,1.058,0,0,0,1.02.13,1.009,1.009,0,0,0,.4-.93,3.664,3.664,0,0,0-1.65-2.86A1.349,1.349,0,0,0,43.54,12.74Z" fill="#111925"/></g></svg>