<svg xmlns="http://www.w3.org/2000/svg" width="63.999" height="62.979" viewBox="0 0 63.999 62.979"><g transform="translate(-2 -2.709)"><g transform="translate(0 0.397)"><path d="M57.541,18.419l-.087,29.708A2.883,2.883,0,0,1,55.769,50.5L33.584,63.423a9.044,9.044,0,0,1-8.212,0L4.115,51.114A2.877,2.877,0,0,1,2.4,48.7l.072-29.693a2.932,2.932,0,0,0,1.714,2.4L25.459,33.716a9.043,9.043,0,0,0,8.212,0l22.17-12.927a2.933,2.933,0,0,0,1.7-2.369Z" fill="#fff"/><path d="M26.066,58.686C41.182,56.3,53.649,52.37,54.425,35.407c.189-4.131-1.539-8.015-4.219-11.339l5.63-3.276a2.912,2.912,0,0,0,1.7-2.37l-.08,29.707a2.889,2.889,0,0,1-1.681,2.37L33.584,63.429a9.211,9.211,0,0,1-7.517.327Z" fill="#e9edf4"/><path d="M29.483,64.8a8.81,8.81,0,0,1-4.311-1.032L3.914,51.46A3.256,3.256,0,0,1,2,48.7l.072-29.688a.4.4,0,0,1,.4-.4h0a.4.4,0,0,1,.4.4,2.56,2.56,0,0,0,1.516,2.053l21.27,12.309a8.6,8.6,0,0,0,7.81,0l22.17-12.927a2.585,2.585,0,0,0,1.5-2.03.373.373,0,0,1,.4-.393.4.4,0,0,1,.4.4l-.086,29.708a3.289,3.289,0,0,1-1.885,2.714L33.785,63.769a8.751,8.751,0,0,1-4.3,1.032ZM2.868,20.876,2.8,48.7a2.511,2.511,0,0,0,1.514,2.065l21.259,12.31a8.614,8.614,0,0,0,7.81,0L55.568,50.15a2.532,2.532,0,0,0,1.487-2.023l.081-27.853a4.629,4.629,0,0,1-1.095.86L33.872,34.062a9.48,9.48,0,0,1-8.614,0L3.987,21.752a4.834,4.834,0,0,1-1.119-.876Z"/><path d="M29.356,34.69a8.248,8.248,0,0,1-3.9-.974L4.187,21.406a2.932,2.932,0,0,1-1.714-2.4L2.4,48.7a2.877,2.877,0,0,0,1.714,2.412l21.258,12.31a8.336,8.336,0,0,0,3.983.979V34.69Z" fill="#ffd63c"/><path d="M29.348,56.733V64.4a8.38,8.38,0,0,1-3.981-.97L4.109,51.119A2.912,2.912,0,0,1,2.4,48.7l.08-29.691a2.942,2.942,0,0,0,1.713,2.4l5,2.894a21.756,21.756,0,0,0-2.966,11c0,12.07,11.075,14.327,23.129,14.327.793,0-.777,7.175,0,7.1Z" fill="#f4c531"/><path d="M29.356,64.8h-.005a8.712,8.712,0,0,1-4.178-1.033L3.914,51.46A3.256,3.256,0,0,1,2,48.7l.072-29.688a.4.4,0,0,1,.4-.4h0a.4.4,0,0,1,.4.4,2.56,2.56,0,0,0,1.516,2.053l21.27,12.309a7.835,7.835,0,0,0,3.705.92.4.4,0,0,1,.392.4V64.4a.4.4,0,0,1-.4.4ZM2.868,20.876,2.8,48.7a2.511,2.511,0,0,0,1.514,2.065l21.259,12.31a7.689,7.689,0,0,0,3.383.912V35.075a8.429,8.429,0,0,1-3.7-1.013L3.987,21.752a4.834,4.834,0,0,1-1.119-.876Z"/><path d="M55.819,16.018c2.272,1.315,2.293,3.45.027,4.771L33.668,33.711a9.045,9.045,0,0,1-8.215,0L4.192,21.4c-2.281-1.32-2.284-3.456-.027-4.771L26.343,3.71a9.013,9.013,0,0,1,8.215,0Z" fill="#fff"/><path d="M55.841,20.792,33.672,33.711a9.088,9.088,0,0,1-8.221,0L4.188,21.411c-2.279-1.325-2.279-3.458-.016-4.784l4.376-2.544c1.125,7.48,10.187,12.742,22.464,12.742,11.411,0,20.938-5.058,23.142-11.777l1.672.975c2.264,1.31,2.279,3.443.015,4.769Z" fill="#e9edf4"/><path d="M29.567,35.092a8.8,8.8,0,0,1-4.313-1.035L3.992,21.75a3.294,3.294,0,0,1-1.915-2.739,3.265,3.265,0,0,1,1.887-2.724L26.142,3.365a9.343,9.343,0,0,1,8.616,0L56.019,15.672a3.3,3.3,0,0,1,1.916,2.74,3.265,3.265,0,0,1-1.887,2.723L33.87,34.057a8.737,8.737,0,0,1-4.3,1.035Zm.877-31.974a7.917,7.917,0,0,0-3.9.938L4.366,16.978a2.517,2.517,0,0,0-1.49,2.032,2.548,2.548,0,0,0,1.516,2.047L25.654,33.365a8.6,8.6,0,0,0,7.813,0L55.645,20.444a2.516,2.516,0,0,0,1.489-2.03,2.548,2.548,0,0,0-1.516-2.049L34.357,4.057a7.982,7.982,0,0,0-3.913-.939Z"/><path d="M48.5,25.071,20.056,7.376l-8.565,4.99L40.069,29.979Z" fill="#ffd63c"/><path d="M40.069,30.379a.4.4,0,0,1-.21-.06L11.281,12.707a.4.4,0,0,1,.009-.686l8.564-4.99a.4.4,0,0,1,.413.006L48.711,24.731a.4.4,0,0,1-.01.686L40.27,30.325a.4.4,0,0,1-.2.054Zm-27.8-18L40.075,29.513l7.649-4.453L20.049,7.843Z"/><path d="M48.5,25.066l.026,9.292a2.194,2.194,0,0,1-1,1.729.74.74,0,0,1-.632.1l-1.969-.725a.752.752,0,0,0-.631.1,1.945,1.945,0,0,0-.629.625l-1.959,3a1.941,1.941,0,0,1-.631.634c-.514.3-1,.112-1-.571l-.026-9.271Z" fill="#fff"/><path d="M48.536,34.354a2.2,2.2,0,0,1-1,1.729.731.731,0,0,1-.64.1l-1.963-.718a.712.712,0,0,0-.629.1,1.836,1.836,0,0,0-.629.631l-1.963,2.99a1.969,1.969,0,0,1-.629.642c-.521.294-1.009.109-1.009-.576l-.011-4.013a5,5,0,0,0,1.074.109,5.817,5.817,0,0,0,5.748-5.872,5.965,5.965,0,0,0-.8-3l2.419-1.4Z" fill="#e9edf4"/><path d="M40.63,40.358a.919.919,0,0,1-.462-.12,1.055,1.055,0,0,1-.489-.987l-.026-9.271a.4.4,0,0,1,.2-.347L48.3,24.72a.4.4,0,0,1,.6.345l.026,9.292a2.571,2.571,0,0,1-1.2,2.076,1.117,1.117,0,0,1-.976.125l-1.964-.723a.414.414,0,0,0-.292.075,1.552,1.552,0,0,0-.494.5l-1.959,3a2.336,2.336,0,0,1-.766.761,1.315,1.315,0,0,1-.652.191Zm-.176-10.149.025,9.04c0,.181.047.272.087.3s.167.016.315-.07a1.553,1.553,0,0,0,.5-.5l1.96-3a2.327,2.327,0,0,1,.764-.753,1.133,1.133,0,0,1,.973-.132l1.966.723a.376.376,0,0,0,.294-.068,1.793,1.793,0,0,0,.8-1.382l-.024-8.6Z"/></g><path d="M56.191,38.586a3.474,3.474,0,0,1,.731-.323L63.2,36.4c1.377-.4,2.357.454,2.362,2.086l.035,12.49a6.607,6.607,0,0,1-1.332,3.7l-6.231,8.554a5.9,5.9,0,0,1-1.751,1.64,2.476,2.476,0,0,1-1.784.375l-6.314-1.5c-.814-.193-1.3-.994-1.306-2.144L46.849,49.3a6.88,6.88,0,0,1,2.343-4.8l6.264-5.387a5.005,5.005,0,0,1,.736-.525Z" fill="#fff"/><path d="M65.6,50.977a6.514,6.514,0,0,1-1.33,3.691L58.038,63.23a6.017,6.017,0,0,1-1.752,1.634,2.448,2.448,0,0,1-1.784.379l-6.315-1.5c8.985-2,15.57-8.573,15.57-16.377a14.7,14.7,0,0,0-4.033-9.936L63.207,36.4c1.373-.4,2.357.455,2.357,2.089Z" fill="#e9edf4"/><path d="M54.908,65.688a2.131,2.131,0,0,1-.5-.058l-6.312-1.5A2.339,2.339,0,0,1,46.483,61.6L46.449,49.3a7.292,7.292,0,0,1,2.481-5.109l6.265-5.387a5.437,5.437,0,0,1,.8-.568h0a3.911,3.911,0,0,1,.815-.359l6.282-1.863a2.17,2.17,0,0,1,1.954.265,2.659,2.659,0,0,1,.922,2.2L66,50.975a7,7,0,0,1-1.408,3.933L58.36,63.461a6.27,6.27,0,0,1-1.874,1.75,3.187,3.187,0,0,1-1.578.476ZM56.39,38.932a4.608,4.608,0,0,0-.675.482L49.452,44.8a6.534,6.534,0,0,0-2.2,4.5L47.283,61.6c0,.952.376,1.608,1,1.756l6.313,1.5a2.108,2.108,0,0,0,1.491-.333,5.481,5.481,0,0,0,1.628-1.529l6.231-8.553a6.188,6.188,0,0,0,1.255-3.46l-.035-12.49a1.9,1.9,0,0,0-.6-1.564,1.38,1.38,0,0,0-1.249-.139l-6.279,1.862a3.118,3.118,0,0,0-.646.287Z"/><path d="M52.113,37.169l-6.267,5.38a7.18,7.18,0,0,0-2.163,3.5L47.031,48a7.21,7.21,0,0,1,2.157-3.5l6.267-5.39a5.791,5.791,0,0,1,.638-.462L52.746,36.7a4.679,4.679,0,0,0-.634.468Z" fill="#f4c531"/><path d="M47.031,48.4a.4.4,0,0,1-.2-.054l-3.349-1.947a.4.4,0,0,1-.186-.448,7.592,7.592,0,0,1,2.289-3.7l6.265-5.378a5.111,5.111,0,0,1,.686-.507.4.4,0,0,1,.412-.005L56.295,38.3a.4.4,0,0,1,.012.684,5.389,5.389,0,0,0-.594.43L49.449,44.8a6.778,6.778,0,0,0-2.031,3.3.4.4,0,0,1-.387.3ZM44.154,45.86,46.8,47.4a7.607,7.607,0,0,1,2.131-3.2l6.268-5.39c.052-.044.1-.086.157-.127L52.759,37.17a4.07,4.07,0,0,0-.381.3l0,0-6.268,5.38a6.748,6.748,0,0,0-1.952,3.007Zm7.959-8.691h.01Z"/><path d="M43.5,47.359l.038,12.291a2.183,2.183,0,0,0,.9,1.987l3.343,1.949a2.2,2.2,0,0,1-.9-1.987l-.029-12.291A5.1,5.1,0,0,1,47.031,48l-3.349-1.947a5.193,5.193,0,0,0-.183,1.31Z" fill="#ffd63c"/><path d="M47.782,63.985a.4.4,0,0,1-.2-.054l0,0-3.339-1.947a2.575,2.575,0,0,1-1.1-2.333L43.1,47.36h0a5.58,5.58,0,0,1,.2-1.412.4.4,0,0,1,.588-.244l3.349,1.947a.4.4,0,0,1,.186.447,4.706,4.706,0,0,0-.166,1.208L47.28,61.6a1.846,1.846,0,0,0,.7,1.642h0a.4.4,0,0,1-.2.746ZM43.9,47.357l.038,12.291a1.818,1.818,0,0,0,.7,1.643l1.927,1.123a3.956,3.956,0,0,1-.088-.812l-.028-12.293a5.231,5.231,0,0,1,.122-1.116l-2.616-1.521a4.3,4.3,0,0,0-.058.686h0Z"/><path d="M61.314,34.564a1.847,1.847,0,0,0-1.462-.114l-6.277,1.863a3.741,3.741,0,0,0-.731.323c-.033.019-.065.044-.1.064l3.347,1.946c.031-.019.063-.043.093-.061a3.752,3.752,0,0,1,.731-.323L63.2,36.4a1.852,1.852,0,0,1,1.462.114Z" fill="#ffd63c"/><path d="M56.039,39.024a.3.3,0,0,1-.147-.032l-3.347-1.946a.4.4,0,0,1-.008-.687l.107-.069a4.142,4.142,0,0,1,.809-.357l6.285-1.866a2.238,2.238,0,0,1,1.777.151l3.352,1.949a.4.4,0,0,1-.4.693,1.455,1.455,0,0,0-1.154-.076l-6.282,1.861a3.37,3.37,0,0,0-.646.287.77.77,0,0,1-.347.092Zm-2.447-2.294,2.5,1.452a4.19,4.19,0,0,1,.706-.3L63.04,36.03,61.113,34.91h0a1.463,1.463,0,0,0-1.151-.074L53.689,36.7l-.1.033Z"/><ellipse cx="7.577" cy="4.387" rx="7.577" ry="4.387" transform="translate(48.641 55.165) rotate(-59.871)" fill="#ffd63c"/><path d="M53.829,58.113a3.163,3.163,0,0,1-1.6-.412,4.136,4.136,0,0,1-1.777-3.8,12.273,12.273,0,0,1,5.553-9.629A3.667,3.667,0,0,1,62,47.688a12.274,12.274,0,0,1-5.553,9.629,5.3,5.3,0,0,1-2.613.795Zm2.578-13.151A11.39,11.39,0,0,0,51.253,53.9a3.387,3.387,0,0,0,1.376,3.11,3.422,3.422,0,0,0,3.412-.381A11.391,11.391,0,0,0,61.2,47.69a3.384,3.384,0,0,0-1.377-3.108A3.419,3.419,0,0,0,56.407,44.961Z"/><path d="M55.438,53.5a.4.4,0,0,1-.2-.052l-1.614-.921a.4.4,0,1,1,.4-.695l1.268.724,2.987-5.179a.4.4,0,0,1,.693.4L55.785,53.3a.4.4,0,0,1-.347.2Z"/></g></svg>